<svg version="1.1" id="Слой_1" xmlns="http://www.w3.org/2000/svg" xmlns:xlink="http://www.w3.org/1999/xlink" x="0px" y="0px"
	 viewBox="0 0 96 92.53" enable-background="new 0 0 96 92.53" xml:space="preserve">
<g display="none">
	<path fill="currentColor" display="inline" d="M78.04,58.27h-59.4c-1.48,0-2.7,1.08-2.92,2.5c-0.02,0.15-0.03,0.3-0.03,0.46v3.18h0H81v-3.18
		C81,59.59,79.67,58.27,78.04,58.27z"/>
</g>
<g>
	<path fill="currentColor" d="M84.14,28.35h-71.6c-2.75,0-5,2.25-5,5v25.74c0,2.75,2.25,5,5,5h2.64v-3.23c0-0.16,0.01-0.31,0.04-0.46
		c0.22-1.44,1.47-2.54,2.96-2.54H78.5c1.66,0,3,1.34,3,3v3.23h2.64c2.75,0,5-2.25,5-5V33.35C89.14,30.6,86.89,28.35,84.14,28.35z
		 M80.49,38.87c-1.38,0-2.5-1.12-2.5-2.5c0-1.38,1.12-2.5,2.5-2.5c1.38,0,2.5,1.12,2.5,2.5C82.99,37.75,81.87,38.87,80.49,38.87z"/>
</g>
<g>
	<path fill="currentColor" d="M50.34,81.05L50.34,81.05c0.02-1.16-0.06-2.87-0.65-4.82c-0.78-2.61-1.88-3.73-2.53-5.24c-0.81-1.9-1.13-4.95,1.29-9.94
		l0,0c-1.28,4.54-0.73,7.57,0.06,9.53c0.75,1.87,1.99,3.46,2.24,6.29C50.9,78.62,50.61,80.08,50.34,81.05z"/>
	<path fill="currentColor" d="M64.65,81.05L64.65,81.05c0.02-1.16-0.06-2.87-0.65-4.82c-0.78-2.61-1.88-3.73-2.53-5.24c-0.81-1.9-1.13-4.95,1.29-9.94
		l0,0c-1.28,4.54-0.73,7.57,0.06,9.53c0.75,1.87,1.99,3.46,2.24,6.29C65.21,78.62,64.92,80.08,64.65,81.05z"/>
	<path fill="currentColor" d="M32.68,81.05L32.68,81.05c0.02-1.16-0.06-2.87-0.65-4.82c-0.78-2.61-1.88-3.73-2.53-5.24c-0.81-1.9-1.13-4.95,1.29-9.94
		l0,0c-1.28,4.54-0.73,7.57,0.06,9.53c0.75,1.87,1.99,3.46,2.24,6.29C33.25,78.62,32.95,80.08,32.68,81.05z"/>
</g>
<path display="none" d="M84.14,28.35h-71.6c-2.76,0-5,2.24-5,5v25.74c0,2.76,2.24,5,5,5h71.6c2.76,0,5-2.24,5-5V33.35
	C89.14,30.59,86.9,28.35,84.14,28.35z M22.69,59.28h-3.76V33.16h3.76V59.28z M36.46,59.32h-3.76V33.21h3.76V59.32z M50.22,59.28
	h-3.76V33.16h3.76V59.28z M63.99,59.28h-3.76V33.16h3.76V59.28z M77.75,59.28h-3.76V33.16h3.76V59.28z"/>
<g display="none">
	<path fill="currentColor" display="inline" d="M49.66,24.06L49.66,24.06c0.02-1.16-0.06-2.87-0.65-4.82c-0.78-2.61-1.88-3.73-2.53-5.24
		c-0.81-1.9-1.13-4.95,1.29-9.94l0,0c-1.28,4.54-0.73,7.57,0.06,9.53c0.75,1.87,1.99,3.46,2.24,6.29
		C50.22,21.63,49.93,23.09,49.66,24.06z"/>
	<path fill="currentColor" display="inline" d="M39.66,24.06L39.66,24.06c0.02-1.16-0.06-2.87-0.65-4.82c-0.78-2.61-1.88-3.73-2.53-5.24
		c-0.81-1.9-1.13-4.95,1.29-9.94l0,0c-1.28,4.54-0.73,7.57,0.06,9.53c0.75,1.87,1.99,3.46,2.24,6.29
		C40.22,21.63,39.93,23.09,39.66,24.06z"/>
	<path fill="currentColor" display="inline" d="M29.66,24.06L29.66,24.06c0.02-1.16-0.06-2.87-0.65-4.82c-0.78-2.61-1.88-3.73-2.53-5.24
		c-0.81-1.9-1.13-4.95,1.29-9.94l0,0c-1.28,4.54-0.73,7.57,0.06,9.53c0.75,1.87,1.99,3.46,2.24,6.29
		C30.22,21.63,29.93,23.09,29.66,24.06z"/>
	<path fill="currentColor" display="inline" d="M60,24.06L60,24.06c0.02-1.16-0.06-2.87-0.65-4.82c-0.78-2.61-1.88-3.73-2.53-5.24
		c-0.81-1.9-1.13-4.95,1.29-9.94l0,0c-1.28,4.54-0.73,7.57,0.06,9.53c0.75,1.87,1.99,3.46,2.24,6.29
		C60.56,21.63,60.27,23.09,60,24.06z"/>
	<path fill="currentColor" display="inline" d="M70,24.06L70,24.06c0.02-1.16-0.06-2.87-0.65-4.82c-0.78-2.61-1.88-3.73-2.53-5.24
		c-0.81-1.9-1.13-4.95,1.29-9.94l0,0c-1.28,4.54-0.73,7.57,0.06,9.53c0.75,1.87,1.99,3.46,2.24,6.29
		C70.56,21.63,70.27,23.09,70,24.06z"/>
</g>
</svg>
