<svg version="1.1" id="Слой_1" xmlns="http://www.w3.org/2000/svg" xmlns:xlink="http://www.w3.org/1999/xlink" x="0px" y="0px"
	 viewBox="0 0 512 512" enable-background="new 0 0 512 512" xml:space="preserve">
<g>
	<path fill="#fed15f" d="M217.86,432.09c-18.34,0-36.68,0-55.02,0c-31.94-0.01-53.45-22.7-50.69-54.57c4.04-46.58,27.98-79.17,71-97.53
		c11.8-5.04,24.34-7.5,37.15-7.55c25.69-0.1,51.39,0.14,77.08,0.42c3.95,0.04,7.9,0.98,11.85,1.55c3.29,0.48,6.1,1.8,6.95,5.32
		c0.85,3.52,0,6.75-2.82,9.16c-2.65,2.27-5.52,4.28-8.18,6.53c-34.54,29.26-43.62,79.75-21.46,119.22c0.61,1.09,1.27,2.15,1.82,3.26
		c3.43,6.99-0.78,14.1-8.55,14.16c-13.85,0.1-27.69,0.03-41.54,0.03C229.59,432.09,223.72,432.09,217.86,432.09z"/>
	<path fill="currentColor" d="M335.52,162.87c-1.95,44.54-38.76,79.31-82.03,77.5c-44.84-1.88-79.74-39-77.67-82.59c2.12-44.49,39.12-79.11,82.39-77.1
		C302.79,82.75,337.42,119.58,335.52,162.87z"/>
	<path fill="currentColor" d="M351.52,351.94c0-10.74-0.13-21.31,0.04-31.87c0.17-11.08,10.85-18.5,21.19-14.92c6.58,2.28,10.67,8.22,10.75,15.94
		c0.09,8.85,0.02,17.7,0.02,26.56c0,1.35,0,2.71,0,4.53c2.1,0,3.93,0,5.75,0c8.48,0,16.96-0.04,25.44,0.01
		c9.55,0.06,16.73,6.98,16.7,15.99c-0.03,8.83-7.01,15.77-16.4,15.96c-8.97,0.18-17.96,0.04-26.93,0.04c-1.35,0-2.69,0-4.55,0
		c0,1.64,0,2.97,0,4.29c0,8.85,0.07,17.7-0.02,26.56c-0.1,9.86-7.01,17.09-16.09,17.04c-9.15-0.05-15.86-7.28-15.89-17.18
		c-0.03-10.07-0.01-20.15-0.01-30.7c-2.49,0-4.69,0-6.89,0c-8.11,0-16.21,0.09-24.32-0.03c-9.84-0.15-16.88-7.14-16.7-16.36
		c0.17-9.03,7.28-15.57,17.03-15.61c9.85-0.04,19.7-0.02,29.55-0.03C350.44,352.15,350.68,352.07,351.52,351.94z"/>
</g>
</svg>
