<svg version="1.1" id="Layer" xmlns="http://www.w3.org/2000/svg" xmlns:xlink="http://www.w3.org/1999/xlink" x="0px" y="0px"
	 viewBox="0 0 384 384" enable-background="new 0 0 384 384" xml:space="preserve">
<path fill="currentColor" d="M306,197.62c0,1.79,0.01,3.04,0,4.29c-0.02,2.17-0.01,4.3-0.67,6.46c-0.59,1.91,0.53,4.16-0.83,6.04
	c0.35,3.54-1.18,6.8-1.59,10.24c-0.34,2.85-1.35,5.65-2.35,8.37c-2.19,5.96-4.22,12.02-7.34,17.57c-2.98,5.32-6.17,10.51-9.78,15.48
	c-5.04,6.95-11.19,12.81-17.39,18.59c-5.18,4.83-11.12,8.83-17.37,12.27c-2.64,1.46-5.23,3.06-8.01,4.2
	c-5.88,2.42-11.62,5.3-17.99,6.36c-3.45,1.96-7.45,2-11.17,2.82c-2.86,0.63-5.94,1.48-9.02,0.93c-5.34,1.5-10.79,0.51-16.19,0.7
	c-1.76,0.06-3.54-0.44-5.31-0.7c-1.77-0.26-3.52,0.28-5.37-0.62c-1.37-0.67-3.26-0.54-4.89-0.75c-5.52-0.71-10.77-2.38-15.96-4.11
	c-5.35-1.78-10.66-3.94-15.6-6.63c-5.24-2.85-10.3-6.08-15.17-9.63c-6.93-5.06-12.82-11.19-18.59-17.39
	c-4.83-5.19-8.85-11.1-12.28-17.36c-1.28-2.34-2.73-4.61-3.84-7.03c-2.31-5.04-4.35-10.2-6.04-15.49
	c-1.36-4.26-2.31-8.58-3.07-12.99c-0.63-3.66-0.93-7.37-1.57-10.99c-1.03-5.81-0.3-11.57-0.56-17.34c-0.07-1.51,0.45-3.04,0.7-4.56
	c0.26-1.52,0.03-3.01,0.56-4.63c0.55-1.69,0.53-3.75,0.93-5.63c0.59-2.74,1.03-5.5,1.9-8.21c0.85-2.65,1.6-5.32,2.56-7.94
	c2.44-6.65,5.09-13.14,8.81-19.25c2.7-4.44,5.55-8.74,8.62-12.89c3.77-5.08,8.56-9.24,12.95-13.77c5.14-5.31,11.29-9.33,17.34-13.42
	c3.71-2.51,8.03-4.1,12.03-6.2c5.46-2.86,11.43-4.39,17.17-6.51c2.36-0.87,5.05-1.08,7.58-1.61c2.53-0.53,5.19-0.45,7.62-1.52
	c0.1-0.05,0.25,0,0.37-0.01c7.38-0.55,14.78-1.14,22.18-0.67c2,0.13,3.99,0.81,6.07,0.68c2.06-0.14,3.94,1.29,6.06,0.74
	c3.18,1.32,6.69,1.22,9.94,2.26c3.2,1.03,6.51,1.81,9.61,3.05c5.14,2.07,10.45,3.89,15.18,6.77c4.61,2.81,9.33,5.48,13.61,8.84
	c2.95,2.31,6.02,4.47,8.65,7.17c2.18,2.24,4.4,4.43,6.62,6.63c3.53,3.5,6.32,7.57,9.35,11.47c3.92,5.05,7.12,10.51,9.93,16.17
	c2.82,5.68,5.28,11.6,6.98,17.71c1.03,3.7,2.45,7.43,2.38,11.4c1.37,1.53,0.23,3.58,1.06,5.18c0.92,1.78-0.06,3.72,0.49,5.43
	C306.44,191.09,305.76,194.64,306,197.62z M192.06,96c-2.75,0-5.72-0.65-8.19,0.18c-2.58,0.87-5.38-0.36-7.69,1.32
	c-3.02-0.13-5.87,0.8-8.75,1.52c-1.57,0.39-3.06,1.21-4.64,1.44c-4.81,0.69-8.98,3.1-13.37,4.85c-3.21,1.28-6.13,3.29-9.2,4.94
	c-6.88,3.7-12.86,8.65-18.62,13.83c-3.9,3.51-7.16,7.64-10.4,11.78c-3.49,4.47-6.48,9.25-9.19,14.2c-1.17,2.13-2.21,4.33-3.22,6.54
	c-0.95,2.1-1.69,4.3-2.69,6.38c-1.06,2.22-1.64,4.61-2.24,6.93c-0.62,2.36-1.33,4.74-1.74,7.2c-0.29,1.78-0.09,3.77-0.76,5.27
	c-0.84,1.87-0.17,3.66-0.66,5.36c-0.5,1.77-0.82,3.5-0.71,5.33c0.32,5.14-0.71,10.35,0.75,15.43c-0.58,2.72,0.84,5.24,0.84,7.94
	c0,1.68,1,3.35,1.25,5.06c0.57,3.84,1.99,7.42,3.21,11.06c0.95,2.84,2.24,5.57,3.46,8.31c1.37,3.08,3.01,6.01,4.7,8.93
	c3.71,6.42,8.14,12.31,13.08,17.8c3.76,4.18,8.12,7.75,12.57,11.2c4.21,3.26,8.67,6.09,13.28,8.7c5.96,3.37,12.26,6.01,18.82,7.95
	c3.13,0.92,6.21,2.05,9.53,2.44c1.63,0.19,3.53,0.06,4.89,0.74c1.85,0.92,3.6,0.5,5.38,0.58c1.81,0.09,3.4,1.02,5.32,0.85
	c4.88-0.46,9.85,0.66,14.68-0.81c3.09,0.55,6-1.02,9.06-0.75c3.4-1.66,7.24-1.65,10.78-2.93c8.12-2.95,13.24-4.71,21.87-9.7
	c7.54-4.36,14.17-9.72,20.53-15.52c3.14-2.87,5.51-6.45,8.29-9.65c3.83-4.42,6.78-9.41,9.62-14.42c2.73-4.8,4.88-9.95,6.51-15.29
	c0.77-2.54,2.22-4.99,2.46-7.56c0.32-3.35,2.14-6.42,1.62-9.86c1.42-1.61,0.63-3.54,0.71-5.31c0.09-1.81,1.02-3.4,0.85-5.32
	c-0.46-4.88,0.66-9.85-0.81-14.68c0.55-3.09-0.4-6.11-0.91-9.03c-0.63-3.62-1.61-7.25-2.76-10.81c-1.54-4.75-3.16-9.44-5.38-13.89
	c-1.35-2.7-2.17-5.73-4.45-7.91c-3.45-7.33-8.81-13.29-14.09-19.26c-3.4-3.84-7.43-7.01-11.51-10.14c-4.22-3.24-8.65-6.12-13.3-8.67
	c-3.14-1.72-6.27-3.45-9.72-4.59c-3.4-1.13-6.81-2.33-10.13-3.6c-4.91-1.87-10.02-2.38-15.03-3.48c-3.65-0.8-7.52-0.62-11.29-0.85
	C193.81,95.95,192.93,96,192.06,96z"/>
<path fill="currentColor" d="M354,197.99c-4.1,0-7.84,0-11.86,0c-0.05-0.79-0.1-1.61-0.14-2.42c-0.25-4.77-0.2-9.58-0.84-14.29
	c-0.64-4.69-1.11-9.47-2.26-14.05c-1.59-6.31-2.83-12.76-5.22-18.81c-2.88-7.3-5.69-14.66-9.69-21.47
	c-2.77-4.72-5.17-9.73-8.45-14.07c-3.04-4.02-6.08-8.07-9.33-11.96c-4.14-4.97-8.81-9.38-13.41-13.85
	c-3.16-3.07-6.62-5.89-10.33-8.4c-2.75-1.85-5.25-4.1-8.05-5.93c-5.95-3.9-12.12-7.4-18.54-10.46c-5.95-2.83-12.1-5.21-18.34-7.27
	c-4.2-1.39-8.61-2.11-12.89-3.28c-2.27-0.62-4.57-1.19-6.89-1.41c-2.28-0.21-4.45-1.34-6.8-0.81c-1.4-0.99-3.01-0.73-4.56-0.75
	c-1.48-0.02-2.96,0-5.02,0c2.15,2.15,3.96,3.91,5.71,5.73c0.95,0.99,0.94,1.81-0.02,2.81c-1.91,1.97-3.85,3.92-5.83,5.83
	c-0.97,0.94-1.8,0.92-2.81-0.08c-5.67-5.64-11.38-11.24-16.94-16.98c-2.3-2.38-2.18-6.03,0.48-8.67c4.61-4.57,9.19-9.18,13.79-13.77
	c0.88-0.88,1.74-1.79,2.66-2.64c1.05-0.98,1.84-1.03,2.81-0.1c1.89,1.82,3.74,3.68,5.57,5.56c1.34,1.38,1.35,1.99,0.04,3.34
	c-1.92,1.97-3.88,3.89-5.82,5.84c1.32,0.89,2.77,1.13,4.37,1.18c3.52,0.11,7.19-0.08,10.52,0.84c4.19,1.16,8.68,0.9,12.66,2.86
	c2.75-0.56,4.99,1.31,7.61,1.6c2.37,0.27,4.67,1.3,6.94,2.17c4.42,1.68,8.91,3.17,13.23,5.16c3.25,1.5,6.6,2.78,9.72,4.57
	c4.04,2.32,8.16,4.49,12.14,6.94c3.41,2.09,6.44,4.72,9.98,6.61c1.56,0.83,2.89,2.13,4.26,3.3c2.14,1.82,4.24,3.68,6.32,5.56
	c3.01,2.72,6.08,5.37,8.94,8.24c2.86,2.86,5.67,5.81,8.21,8.97c4.91,6.11,9.66,12.37,13.74,19.05c3.38,5.53,6.77,11.12,9.31,17.12
	c1.66,3.93,3.43,7.82,4.85,11.86c1.39,3.92,2.78,7.86,4.03,11.8c1.26,3.97,2.43,8.12,2.97,12.23c0.53,4.03,2.17,7.93,1.68,12.1
	c1.08,2.82,0.33,5.85,0.88,8.66c0.38,1.92,0.59,3.79,0.61,5.71C354.02,193.99,354,195.85,354,197.99z"/>
<path fill="currentColor" d="M30,198.22c0.43-0.11,0.66-0.21,0.89-0.21C34.5,198,38.11,198,42,198c0,1.42,0.08,2.77-0.02,4.1
	c-0.32,4.31,1.34,8.49,0.77,12.81c1.49,2.08,0.32,4.63,1.37,6.94c0.9,1.98,0.3,4.58,0.94,6.74c2.12,7.12,3.47,14.42,6.33,21.37
	c2.47,5.99,4.77,12.05,7.9,17.72c3.28,5.95,6.43,11.98,10.74,17.33c2.7,3.35,5.24,6.85,7.93,10.22c4.19,5.27,9.04,9.9,13.96,14.37
	c4.65,4.23,9.59,8.21,14.99,11.61c3.47,2.18,6.9,4.44,10.39,6.62c3.47,2.17,7.03,4.2,10.73,5.83c4.43,1.94,8.91,3.82,13.5,5.44
	c3.19,1.12,6.46,1.93,9.6,3.07c3.2,1.17,6.7,1.12,9.71,2.8c2.09-0.27,4.04,0.45,6.05,0.79c1.28,0.22,2.54,0.54,3.82,0.73
	c1.29,0.19,2.56,0.31,3.85,0.61c2.36,0.55,4.94,0.16,7.32,0.16c0.19-0.19,0.33-0.27,0.35-0.37c0.01-0.08-0.14-0.18-0.23-0.26
	c-1.59-1.59-3.2-3.16-4.77-4.78c-1.36-1.4-1.38-2.01-0.09-3.34c1.74-1.79,3.51-3.56,5.3-5.3c1.37-1.33,2-1.35,3.34-0.02
	c4.17,4.13,8.32,8.3,12.47,12.45c1.24,1.24,2.43,2.52,3.72,3.7c2.88,2.66,2.63,6.75,0.1,9.25c-5.78,5.7-11.49,11.47-17.39,17.36
	c-1.73-1.01-2.9-2.63-4.31-3.96c-1.44-1.36-2.81-2.79-4.34-4.32c0.97-1.57,2.37-2.6,3.54-3.84c1.11-1.18,2.3-2.29,3.45-3.43
	c-1.37-0.93-2.84-1.13-4.44-1.18c-3.53-0.12-7.19,0.08-10.53-0.85c-4.19-1.17-8.68-0.91-12.67-2.86c-3.52,0.15-6.61-1.58-9.93-2.32
	c-3.26-0.73-6.41-1.98-9.55-3.17c-3.34-1.28-6.66-2.62-9.88-4.21c-2.59-1.27-5.29-2.31-7.85-3.67c-5.68-3.02-11.22-6.24-16.53-9.86
	c-4.24-2.89-8.35-5.95-12.36-9.19c-2.01-1.62-3.69-3.58-5.74-5.1c-3.19-2.36-6.08-5.06-8.64-8.03c-4.4-5.11-8.88-10.14-12.89-15.6
	c-3.59-4.87-7.07-9.83-10.07-15.02c-2.93-5.07-5.97-10.16-7.96-15.81c-1.1-3.12-2.66-6.14-3.84-9.27
	c-2.08-5.53-3.47-11.29-5.57-16.81c0.29-3.29-1.75-6.19-1.61-9.48c0.04-0.88-0.5-1.78-0.69-2.69c-0.2-0.92,0.42-2-0.6-2.77
	c-0.14-0.11-0.14-0.44-0.16-0.67c-0.26-3.4-0.47-6.8-0.77-10.19c-0.17-1.9-0.59-3.79-0.71-5.69c-0.13-1.99-0.03-4-0.03-6
	C30,199.36,30,198.76,30,198.22z"/>
<path fill="currentColor" d="M76.83,25.18c-3.49,0.7-6.15,2.23-8.64,3.86c-3.94,2.6-7.28,5.91-9.54,10.18c-2.04,3.85-3.63,7.9-3.86,12.25
	c-0.87,16.08,8.95,27.36,21.79,31.42c-3.56,2.6-7.45,4.32-11.57,5.64c-4.7,1.51-9.59,2.07-14.35,1.35
	c-4.65-0.71-9.31-1.73-13.57-4.27c-5.27-3.14-9.8-6.87-13.08-12.07c-1.61-2.56-3.33-5.05-3.98-8.1c-0.36-1.71-1.17-3.29-1.31-5.08
	c-0.09-1.16-0.56-2.28-0.69-3.44c-0.12-1.11-0.07-2.25-0.02-3.37c0.28-5.83,1.55-11.36,4.46-16.51c3.01-5.33,6.83-9.8,12.08-13.04
	c5.66-3.49,7.78-4.03,13.92-5.36c3.33-0.72,6.58-0.7,9.83-0.53c3.36,0.18,6.62,1.33,9.83,2.4C71.16,21.51,73.75,23.29,76.83,25.18z"
	/>
<path fill="currentColor" d="M299.97,324.34c-0.15-7.04,2.49-12.72,7-17.28c4.52-4.57,10.21-7.12,16.87-7.1c2.67,0.01,5.25,0.49,7.72,1.29
	c3.61,1.16,6.86,3.07,9.58,5.77c2.73,2.71,4.37,6.16,5.7,9.61c0.91,2.37,1.31,5.06,1.2,7.76c-0.25,6.43-2.57,12.11-7.01,16.53
	c-4.64,4.61-10.5,7.12-17.24,7.07c-6.61-0.04-12.21-2.7-16.88-7.08C303.17,337.42,299.48,330.12,299.97,324.34z"/>
<path fill="currentColor" d="M303.93,295.15c-3.02,3.02-5.72,5.72-8.62,8.62c-1.29-0.85-2.43-2.32-3.73-3.59c-2.23-2.17-4.44-4.38-6.61-6.61
	c-0.99-1.01-1.01-1.83-0.08-2.8c1.82-1.89,3.67-3.73,5.55-5.56c1.38-1.34,1.99-1.35,3.34-0.05c1.61,1.56,3.17,3.18,4.77,4.75
	C300.3,291.65,302.1,293.37,303.93,295.15z"/>
<path fill="currentColor" d="M355.5,283.87c2.96,2.96,5.6,5.6,8.22,8.25c0.06,0.06,0.01,0.24,0.01,0.77c-3.28,3.28-6.79,6.78-10.28,10.29
	c-0.85,0.86-1.76,0.83-2.54,0.08c-2.07-1.98-4.09-4.02-6.09-6.08c-0.91-0.94-0.85-1.75,0.19-2.8
	C348.41,290.94,351.84,287.53,355.5,283.87z"/>
<path fill="currentColor" d="M295.47,343.9c2.99,3.01,5.62,5.66,8.43,8.49c-0.47,0.58-0.94,1.25-1.52,1.83c-2.89,2.93-5.8,5.84-8.73,8.73
	c-1.19,1.18-1.87,1.17-3.07,0c-1.96-1.91-3.9-3.86-5.82-5.82c-0.8-0.81-0.82-1.71,0.02-2.55
	C288.29,351.08,291.8,347.58,295.47,343.9z"/>
<path fill="currentColor" d="M355.04,363.67c-3.27-3.27-6.63-6.6-9.96-9.97c-1.18-1.2-1.19-1.91-0.07-3.07c1.91-1.97,3.87-3.88,5.81-5.83
	c0.84-0.84,1.75-0.82,2.55-0.04c3.53,3.48,7.02,7,10.3,10.28C360.76,357.95,358,360.72,355.04,363.67z"/>
<path fill="currentColor" d="M329.87,287.94c-3.95,0-7.78,0-11.74,0c0-3.88,0-7.71,0-11.89c1.78-0.11,3.74-0.02,5.68-0.04c1.98-0.02,3.96,0,6.06,0
	C329.87,279.94,329.87,283.77,329.87,287.94z"/>
<path fill="currentColor" d="M287.88,329.93c-3.97,0-7.8,0-11.76,0c0-3.89,0-7.73,0-11.84c1.79-0.23,3.76-0.05,5.7-0.08c1.98-0.03,3.95-0.01,6.05-0.01
	C287.88,321.96,287.88,325.79,287.88,329.93z"/>
<path fill="currentColor" d="M360.12,318.06c3.97,0,7.8,0,11.75,0c0,3.89,0,7.72,0,11.84c-1.79,0.24-3.75,0.05-5.7,0.09c-1.98,0.04-3.96,0.01-6.05,0.01
	C360.12,326.05,360.12,322.21,360.12,318.06z"/>
<path fill="currentColor" d="M329.88,372c-4,0-7.74,0-11.83,0c-0.13-1.91-0.03-3.86-0.05-5.8c-0.02-1.98,0-3.96,0-6.07c3.93,0,7.76,0,11.86,0
	C330.11,364,330.05,368,329.88,372z"/>
<path fill="currentColor" d="M124.58,256.84c-3.27-2.84-5.44-6.12-7.61-9.42c-2.12-3.23-4.07-6.54-5.86-9.95c-1.77-3.38-3.12-6.99-4.37-10.55
	c-1.26-3.58-2.29-7.35-3.01-11.12c-0.73-3.82-0.97-7.74-1.44-11.72c5.71,0,11.55,0,17.55,0c0-4.05,0-7.98,0-12.04
	c-5.9,0-11.74,0-17.73,0c1.49-2.75-0.29-5.83,1.39-8.39c-0.3-2.82,0.88-5.36,1.5-8c0.64-2.72,1.27-5.44,2.29-8.05
	c0.97-2.47,1.69-5.1,3.03-7.35c1.43-2.41,2.25-5.11,4.06-7.36c1.66-2.07,2.61-4.69,4.16-6.86c1.68-2.35,3.69-4.47,5.66-6.82
	c1.71,1.05,2.74,2.46,3.98,3.62c1.27,1.2,2.48,2.47,3.72,3.7c1.24,1.24,2.47,2.47,3.71,3.71c1.22,1.22,2.44,2.44,3.42,3.42
	c2.84-2.84,5.55-5.55,8.26-8.26c0.16,0.16,0.31,0.31,0.47,0.47c0-0.12,0-0.25,0-0.37c0-0.12,0.05-0.3-0.02-0.36
	c-4.76-4.77-9.52-9.54-14.39-14.41c0.7-1.54,1.95-2.62,3.18-3.54c5.52-4.17,11.32-8,17.63-10.81c5.05-2.25,10.28-4.18,15.75-5.44
	c4.91-1.12,9.75-2.36,14.83-2.21c0.28,0.01,0.57-0.42,0.87-0.65c0.06,0.03,0.16,0.07,0.23,0.14c0.08,0.08,0.16,0.2,0.16,0.3
	c0.01,5.74,0.01,11.47,0.01,17.34c3.93,0,7.77,0,11.88,0c0.33-5.77-0.03-11.71,0.18-17.68c2.7,1.43,5.79-0.36,8.36,1.32
	c2.82-0.31,5.36,0.89,7.99,1.53c2.71,0.66,5.39,1.43,8.03,2.33c2.51,0.85,4.99,1.83,7.41,2.92c2.53,1.14,5.04,2.37,7.44,3.76
	c2.34,1.36,4.6,2.86,6.76,4.5c2.3,1.75,4.44,3.73,6.94,5.86c-5.11,5.11-10,10-14.68,14.68c2.86,2.86,5.57,5.57,8.68,8.68
	c-0.67,0-0.54,0.01-0.42,0c0.12-0.01,0.28,0.02,0.35-0.05c4.77-4.75,9.53-9.52,14.34-14.33c2.97,1.43,4.49,4.25,6.14,6.64
	c3.11,4.49,5.96,9.23,8.24,14.18c1.87,4.06,3.61,8.27,4.63,12.7c0.79,3.43,1.84,6.78,2.37,10.3c0.36,2.42,0.56,4.79,0.65,7.21
	c0.02,0.42,0.39,0.83,0.62,1.3c0.01-0.01-0.05,0.1-0.14,0.16c-0.09,0.07-0.21,0.13-0.32,0.13C275.7,192,269.97,192,264.12,192
	c0,3.97,0,7.8,0,11.91c5.82,0,11.75,0,17.81,0c-1.48,2.88,0.18,5.98-1.43,8.56c0.33,2.82-0.95,5.35-1.54,7.99
	c-0.61,2.71-1.45,5.39-2.34,8.02c-0.86,2.51-1.62,5.13-2.97,7.37c-1.45,2.4-2.28,5.1-4.09,7.35c-1.66,2.06-2.55,4.72-4.1,6.88
	c-1.68,2.35-3.74,4.42-5.86,6.89c-5.12-5.12-10.01-10.01-14.72-14.72c-2.89,2.89-5.59,5.6-8.51,8.52c1.78,2.4,4.48,4.59,6.86,7.07
	c2.41,2.51,4.91,4.93,7.39,7.41c-1.36,2.93-4.09,4.37-6.39,5.97c-4.19,2.92-8.53,5.69-13.24,7.79c-4.55,2.02-9.09,4.05-13.95,5.24
	c-3.42,0.84-6.77,1.87-10.29,2.39c-2.42,0.36-4.79,0.54-7.21,0.64c-0.42,0.02-0.82,0.41-1.45,0.76c0-5.97,0-11.9,0-17.93
	c-4.1,0-7.94,0-12.04,0c0,5.87,0,11.8,0,17.61c-4.12-0.49-8.07-0.6-11.84-1.5c-3.7-0.88-7.38-1.95-11.01-3.24
	c-3.6-1.29-7.22-2.51-10.66-4.13c-3.48-1.63-6.73-3.72-9.96-5.83c-3.31-2.16-6.59-4.33-9.39-7.58c2.81-2.81,5.52-5.52,8.23-8.24
	c1.94-1.94,3.91-3.86,5.82-5.84c0.86-0.89,0.73-1.07-0.49-2.37c-0.88-0.94-1.45-2.38-2.5-2.89c-1.32-0.65-1.44-2.03-2.49-2.82
	c-1.73-1.31-2.13-1.51-3.66,0.01C133.67,247.69,129.28,252.13,124.58,256.84z M150,216.08c0,6.17-0.02,12.05,0.01,17.92
	c0.01,3.62,2.41,5.97,6.09,6c3.12,0.02,6.25,0,9.37,0c2.83,0,5.67,0,8.41,0c0-4.18,0-8.02,0-11.88c-1.04-0.11-1.97-0.2-2.71-0.28
	c4.43-4.43,8.84-8.84,13.39-13.39c4.6,1.46,9.31,2.42,14.31,0.13c3.64-1.67,8.78-6.48,10.3-10.88c1.35-3.89,1.41-9.06-0.75-13.24
	c-2.23-4.3-5.61-7.73-10.27-9.19c0-7.52,0-14.86,0-22.27c0.62,0.35,1.1,0.63,1.04,0.59c2.95-2.95,5.66-5.66,8.53-8.53
	c-3.74-3.74-7.6-7.8-11.69-11.61c-2.34-2.18-5.4-2.34-7.81-0.18c-4.24,3.81-8.13,8.01-12.33,12.21c2.99,2.98,5.75,5.75,8.46,8.45
	c0.68-0.43,1.04-0.65,1.56-0.97c0,7.51,0,14.85,0,22.34c-3.27,0.91-5.78,3.12-8.01,5.69c-2.22,2.55-3.37,5.63-3.83,8.9
	c-0.48,3.38,0.17,6.7,1.64,9.52c-4.66,4.66-9.06,9.06-13.65,13.65c0-1.04,0-1.98,0-2.99C157.94,216.08,154.1,216.08,150,216.08z"/>
<path fill="currentColor" d="M191.62,204c-2.88,0.15-6.01-2.91-5.67-6.47c0.31-3.25,2.74-5.57,6.23-5.53c3.54,0.05,5.73,2.58,5.86,6.28
	C198.14,201.05,195.02,204.59,191.62,204z"/>
</svg>
