<svg version="1.1" id="Layer" xmlns="http://www.w3.org/2000/svg" xmlns:xlink="http://www.w3.org/1999/xlink" x="0px" y="0px"
	 viewBox="0 0 512 512" enable-background="new 0 0 512 512" xml:space="preserve">
<path fill="currentColor" d="M258.32,357.7c0-5.29,0.03-9.73,0-14.17c-0.12-16.28-11.2-27.41-27.45-27.73c-1.26-0.02-2.69-0.73-3.72-1.53
	c-2.71-2.09-5.24-4.41-7.35-6.22c0.14-8.97,0.39-17.77,0.41-26.57c0.06-24.79,0.04-49.58,0.01-74.37
	c-0.02-14.16-9.22-23.29-23.46-23.31c-20.82-0.03-41.63-0.02-62.45,0c-14.27,0.02-23.4,9-23.44,23.32
	c-0.08,30.09,0.01,60.19-0.05,90.28c-0.02,7.91,2.58,14.37,8.76,19.56c1.43,1.2,1.47,4.06,2.21,6.31
	c-21.47,4.84-31.3,18.03-31.37,38.79c-12.37,2.78-23.94-5.8-24.69-18.19c-0.08-1.32-0.08-2.65-0.08-3.97
	c0-67.74,0.03-135.48-0.05-203.22c-0.01-6.69,1.44-12.59,6.49-17.25c4.12-3.8,9.08-5.29,14.58-5.29c52.5,0,105.01-0.07,157.51,0.04
	c13.35,0.03,21.33,8.43,21.34,21.88c0.01,68.27,0,136.54,0.02,204.81C265.53,347.16,263.93,352.72,258.32,357.7z M127.87,157.61
	c6.74,0,13.49,0.03,20.23-0.01c4.67-0.03,7.54-2.46,7.57-6.27c0.03-3.76-2.94-6.44-7.48-6.46c-13.49-0.06-26.97-0.06-40.46,0
	c-4.51,0.02-7.47,2.78-7.37,6.56c0.1,3.69,2.88,6.12,7.28,6.16C114.38,157.65,121.13,157.61,127.87,157.61z M202.74,157.61
	c6.76,0,13.52,0.03,20.28-0.01c4.84-0.03,7.53-2.28,7.59-6.2c0.06-3.95-2.67-6.5-7.35-6.53c-13.52-0.06-27.05-0.06-40.57,0
	c-4.48,0.02-7.1,2.46-7.17,6.28c-0.07,4,2.59,6.4,7.33,6.44C189.48,157.65,196.11,157.61,202.74,157.61z"/>
<path fill="currentColor" d="M318.06,237.02c-5,0-9.48,0.05-13.97-0.01c-10.41-0.13-17.75-7.39-17.77-17.86c-0.05-45.59-0.05-91.17,0-136.76
	c0.01-10.63,7.42-17.89,18.13-17.89c41.22-0.04,82.44-0.03,123.66,0c11.05,0.01,18.22,7.04,18.24,18.1
	c0.06,45.45,0.06,90.91,0,136.36c-0.02,11.05-7.21,18.04-18.28,18.05c-24.25,0.03-48.51,0.05-72.76-0.04
	c-2.59-0.01-4.41,0.71-6.2,2.62c-7.52,8.02-15.12,15.99-22.92,23.74c-1.35,1.34-4.04,2.41-5.69,1.99c-1.17-0.3-2.27-3.3-2.33-5.14
	C317.91,252.65,318.06,245.11,318.06,237.02z M305.36,140.02c-0.02,0-0.05,0-0.07,0c0,4.5-0.02,9,0.01,13.51
	c0.03,4.71,2.36,7.59,6.16,7.72c3.9,0.13,6.54-2.93,6.58-7.76c0.07-7.94,0.12-15.89,0.08-23.84c-0.03-6.76,2.03-12.78,6.24-18
	c9.3-11.53,21.67-17.61,36.15-19.32c14.45-1.71,27.49,2.39,39.26,10.76c0.43,0.31,0.84,0.64,1.28,0.94c3.72,2.55,7.2,2.29,9.52-0.69
	c2.39-3.06,1.64-6.73-1.97-9.63c-24.45-19.58-60.89-19.23-85.3,0.84c-11.93,9.81-18.73,22.07-17.96,37.92
	C305.47,134.98,305.36,137.5,305.36,140.02z M354.66,155.15c0-6.63-0.03-13.25,0.01-19.88c0.03-5.41,2.77-8.96,8-10.4
	c5.52-1.52,10.11-0.02,14.03,4.14c2.79,2.96,6.54,3.19,9.19,0.84c2.74-2.43,2.87-5.96,0.34-9.24c-6.03-7.79-18.07-11.09-28.13-7.72
	c-10.2,3.42-16.15,11.65-16.18,22.49c-0.03,12.19-0.01,24.39-0.01,36.58c0,6.92-0.54,7.59-7.21,8.95c-4.07,0.84-6.17,3.53-5.67,7.27
	c0.46,3.47,3.08,5.43,7.14,5.35c10.25-0.19,18.37-8.28,18.48-18.51C354.71,168.4,354.66,161.77,354.66,155.15z M408.94,139.78
	c-0.06,0-0.12-0.01-0.19-0.01c0-1.72-0.01-3.44,0-5.16c0.12-14.23-6.26-25-18.15-32.3c-13.22-8.11-27.25-8.43-41.49-2.72
	c-4.53,1.81-6.24,5.36-4.66,9.02c1.5,3.47,4.91,4.29,9.5,2.89c4.01-1.23,8.15-2.41,12.3-2.73c14.33-1.09,31.19,8.99,29.77,27.82
	c-0.36,4.74-0.36,9.51-0.56,14.27c-0.19,4.54,2.13,7.64,5.95,7.9c3.7,0.25,6.35-2.28,6.75-6.7
	C408.54,147.97,408.7,143.87,408.94,139.78z M428.52,155.36c-0.31-0.02-0.61-0.05-0.92-0.07c0-8.61,0-17.23,0-25.84
	c0-7.44-1.73-14.43-5.58-20.83c-2.25-3.73-5.8-4.84-9.08-2.97c-3.12,1.78-4.21,5.36-2.14,8.93c3.26,5.61,4.16,11.61,4.04,17.95
	c-0.14,6.75,0.07,13.52-0.05,20.27c-0.27,14.65,1.37,29.43-3.48,43.75c-1.12,3.32,1.08,6.39,4.35,7.42c3.14,1,6.32-0.48,7.68-3.89
	c0.93-2.32,1.86-4.76,2.09-7.21C426.59,180.38,427.52,167.87,428.52,155.36z M391.6,160.72c-0.15-0.01-0.3-0.02-0.45-0.03
	c0-5.7,0.06-11.39-0.02-17.09c-0.06-4.63-2.61-7.52-6.43-7.52c-3.85,0-6.28,2.82-6.31,7.52c-0.05,8.87-0.34,17.76,0.05,26.62
	c0.78,17.51-6.7,30-21.99,38.16c-3.92,2.09-5.12,5.57-3.36,8.88c1.76,3.32,5.36,4.36,9.25,2.34c14.41-7.45,24.53-18.63,27.63-34.79
	C391.48,176.97,391.12,168.77,391.6,160.72z M372.23,156.24c0.23,0,0.45,0,0.68,0c0-6.76,0.02-13.52-0.01-20.28
	c-0.02-5.29-2.39-8.22-6.52-8.16c-4.01,0.06-6.22,2.84-6.23,7.97c-0.02,12.59,0,25.19-0.02,37.78c0,1.72-0.04,3.46-0.35,5.14
	c-1.45,7.86-6.59,12.67-13.42,16.15c-3.64,1.86-4.78,5.44-3.15,8.67c1.57,3.11,4.98,4.39,8.5,2.78
	c10.75-4.91,18.62-12.77,20.29-24.68C373.16,173.3,372.23,164.71,372.23,156.24z M333.47,112.88c-0.89,0.7-3.12,1.76-4.32,3.52
	c-3.36,4.9-4.89,10.49-4.88,16.48c0.02,9.13-0.05,18.27,0.02,27.4c0.02,2.68-0.55,4.49-3.64,5.11c-4.11,0.83-6.15,3.89-5.41,7.36
	c0.75,3.53,3.86,5.57,7.8,5.11c8.01-0.93,13.76-7.29,13.96-15.7c0.14-5.82-0.02-11.65,0.05-17.47c0.09-8-0.87-16.04,3.59-23.57
	C342.8,117.48,339.2,112.97,333.47,112.88z M408.73,178.69c0-1.34,0.07-2.28-0.01-3.2c-0.3-3.58-2.73-5.99-6.1-6.11
	c-3.56-0.12-6.46,2.26-6.54,6.01c-0.28,13.5-5.39,24.88-14.51,34.68c-3.04,3.27-2.96,6.94-0.22,9.51c2.68,2.52,6.51,2.28,9.5-0.83
	C401.74,207.46,407.79,193.99,408.73,178.69z"/>
<path fill="currentColor" d="M134.02,335.7c0-2.23,0-3.8,0-5.36c0-21.86-0.05-43.72,0.03-65.58c0.03-9.12,6.03-15.59,14.34-15.84
	c8.56-0.26,15.25,5.79,15.6,14.56c0.29,7.28,0.1,14.57,0.11,21.86c0.01,11.51,0,23.03,0,35.84c4.19-7.36,9.39-11.3,17.08-10.25
	c7.66,1.05,11.69,6.04,13.5,13.76c4.87-5.9,10.58-8.38,17.65-5.67c5.33,2.04,7.97,6.38,8.91,14.18c3.77-3.04,7.74-5.29,12.7-4.44
	c6.15,1.06,11.32,5.76,11.37,12.07c0.18,23.3,0.01,46.61-0.38,69.91c-0.09,5.63-0.7,5.63-6.49,5.63c-33.66,0-67.31,0.05-100.97-0.09
	c-2.62-0.01-5.46-0.87-7.8-2.09c-4.44-2.33-8.78-4.95-12.8-7.94c-6.93-5.16-10.79-12.13-11.36-20.91
	c-0.46-7.13-1.17-14.25-1.97-21.36c-1.8-16.02,8.1-27.61,24.29-28.26C129.69,335.64,131.53,335.7,134.02,335.7z"/>
<path fill="currentColor" d="M123.65,251.17c0-7.75,0-14.74,0-21.73c0-7.56-0.07-15.11,0.03-22.66c0.09-6.85,3.52-10.2,10.41-10.22
	c20.94-0.04,41.89-0.04,62.83,0c6.94,0.01,10.53,3.61,10.54,10.55c0.03,30.35,0.03,60.71,0,91.06c-0.01,6.04-1.01,7.11-6.8,7.76
	c-0.71,0.08-1.59-0.01-2.19-0.37c-3.29-1.92-6.34-4.43-9.84-5.8c-3.49-1.37-7.41-1.65-11.71-2.51c0-1.14,0-2.55,0-3.97
	c0-9.15,0.04-18.29-0.01-27.44c-0.08-14.07-7.52-24.81-19.71-28.57c-12.25-3.78-24.14,0.89-32.26,12.65
	C124.8,250.13,124.59,250.28,123.65,251.17z"/>
<path fill="currentColor" d="M239.18,429.51c0,6.16,0,11.95,0,18.02c-31.98,0-63.84,0-95.95,0c0-5.93,0-11.82,0-18.02
	C175.12,429.51,206.97,429.51,239.18,429.51z"/>
</svg>
