<svg version="1.1" id="layer" xmlns="http://www.w3.org/2000/svg" xmlns:xlink="http://www.w3.org/1999/xlink" x="0px" y="0px"
	 viewBox="0 0 384 384" enable-background="new 0 0 384 384" xml:space="preserve">
<path fill="currentColor" d="M0,305.25c100.42,0,200.84,0,301.5,0c0,26.34,0,52.55,0,78.75c-100.5,0-201,0-301.5,0C0,357.75,0,331.5,0,305.25z
	 M33.81,355.37c7.66,0,14.99,0,22.44,0c0-7.1,0-14.08-0.01-21.05c0-0.11-0.06-0.23-0.13-0.32c-0.07-0.1-0.18-0.17-0.12-0.12
	c-7.47,0-14.8,0-22.18,0C33.81,341.09,33.81,348.17,33.81,355.37z M245.31,355.37c7.66,0,14.99,0,22.44,0c0-7.1,0-14.07-0.01-21.05
	c0-0.11-0.06-0.23-0.12-0.32c-0.07-0.1-0.18-0.17-0.13-0.13c-7.47,0-14.8,0-22.18,0C245.31,341.09,245.31,348.17,245.31,355.37z"/>
<path fill="currentColor" d="M310.5,0c0,0.25,0.1,0.57-0.02,0.74c-1.81,2.72-3.04,5.74-4.58,8.59c-1.48,2.74-2.11,5.65-2.89,8.56
	c-1.26,4.7-1.62,9.49-1.55,14.36c0.12,8.37,0.03,16.74,0.03,25.11c-0.08,0.09-0.16,0.2-0.26,0.27c-0.09,0.06-0.21,0.12-0.32,0.12
	C200.62,57.75,100.31,57.75,0,57.75C0,47,0,36.25,0,25.5c0.25-0.32,0.64-0.61,0.72-0.97c0.25-1.02,0.2-2.02,0.6-3.12
	C4.42,12.96,7.03,9.37,13.31,5.19c3.44-2.29,7.11-4.59,11.6-4.47c0.19,0,0.39-0.47,0.59-0.72C120.5,0,215.5,0,310.5,0z"/>
<path fill="currentColor" d="M0,80.25c100.36,0,200.73,0,301.09,0c0.09,0.08,0.2,0.15,0.27,0.25c0.07,0.09,0.13,0.21,0.13,0.32
	c0.01,7.23,0.01,14.46,0.01,21.94c-100.59,0-201.04,0-301.5,0C0,95.25,0,87.75,0,80.25z"/>
<path fill="currentColor" d="M0,125.25c100.36,0,200.73,0,301.09,0c0.09,0.08,0.2,0.15,0.27,0.25c0.07,0.09,0.13,0.21,0.13,0.32
	c0.01,7.23,0.01,14.46,0.01,21.94c-100.59,0-201.04,0-301.5,0C0,140.25,0,132.75,0,125.25z"/>
<path fill="currentColor" d="M0,170.25c100.36,0,200.73,0,301.09,0c0.09,0.08,0.2,0.15,0.27,0.25c0.07,0.09,0.13,0.21,0.13,0.32
	c0.01,7.23,0.01,14.46,0.01,21.94c-100.59,0-201.04,0-301.5,0C0,185.25,0,177.75,0,170.25z"/>
<path fill="currentColor" d="M0,215.25c100.36,0,200.73,0,301.09,0c0.09,0.08,0.2,0.15,0.27,0.25c0.07,0.09,0.13,0.21,0.13,0.32
	c0.01,7.23,0.01,14.46,0.01,21.94c-100.59,0-201.04,0-301.5,0C0,230.25,0,222.75,0,215.25z"/>
<path fill="currentColor" d="M0,260.25c100.36,0,200.73,0,301.09,0c0.09,0.08,0.2,0.15,0.27,0.25c0.07,0.09,0.13,0.21,0.13,0.32
	c0.01,7.23,0.01,14.46,0.01,21.94c-100.59,0-201.04,0-301.5,0C0,275.25,0,267.75,0,260.25z"/>
<path fill="currentColor" d="M384,34.5c-0.25,0.2-0.72,0.4-0.72,0.59c0.11,4.5-2.29,8.09-4.47,11.63c-3.77,6.13-9.49,9.8-16.31,11.93
	c-4.86,1.52-8.23,1.36-13.38,0.72c-4.9-0.61-8.86-2.74-12.81-5.34c-3.31-2.18-5.91-4.96-7.77-8.38c-1.27-2.32-2.77-4.56-3.28-7.26
	c-0.33-1.72-1.07-3.38-1.2-5.1c-0.31-4.23-0.03-8.44,1.45-12.48c2.75-7.47,7-13.58,14.5-17.13c2.99-1.41,5.81-3.06,9.23-3.07
	c0.09,0,0.18-0.4,0.26-0.61c3,0,6,0,9,0c0.32,0.25,0.61,0.64,0.97,0.72c1.02,0.25,2.02,0.2,3.12,0.6
	c8.45,3.09,12.04,5.71,16.22,11.99c2.29,3.44,4.59,7.11,4.47,11.6c0,0.19,0.47,0.39,0.72,0.59C384,28.5,384,31.5,384,34.5z"/>
</svg>
