<svg version="1.1" id="Layer" xmlns="http://www.w3.org/2000/svg" xmlns:xlink="http://www.w3.org/1999/xlink" x="0px" y="0px"
	 viewBox="0 0 384 384" enable-background="new 0 0 384 384" xml:space="preserve">
<path fill="currentColor" d="M208.5,0c0.32,0.25,0.64,0.7,0.97,0.72c1.62,0.08,3.26,0.17,4.87,0.01c5.19-0.5,10.26,1.03,15.44,0.86
	c1.32-0.04,2.72,0.66,4.18,0.71c1.4,0.05,2.77-0.36,4.27,0.57c1.09,0.67,3.06-0.26,4.38,0.23c1.8,0.66,3.67,0.22,5.31,0.76
	c1.81,0.6,3.64,0.26,5.33,0.71c4.55,1.21,9.25,1.58,13.81,2.8c2.57,0.69,5.33,1,7.96,1.65c4.41,1.09,8.8,2.21,13.18,3.44
	c5.26,1.48,10.51,2.93,15.65,4.79c4.56,1.65,9.14,3.26,13.57,5.24c3.58,1.6,5.1,4.32,5.1,8.22c-0.04,46.86-0.02,93.72-0.02,140.58
	c0,35.24,0.01,70.48-0.02,105.72c0,1.18-0.16,2.39-0.31,3.58c-0.55,4.23-3.96,5.42-6.94,6.56c-5.29,2.02-10.55,4.14-15.98,5.77
	c-3.9,1.17-7.78,2.35-11.72,3.39c-3.04,0.8-6.1,1.59-9.07,2.54c-1.59,0.51-3.2,0.17-4.83,1c-2.12,1.08-4.75,1.18-7.18,1.63
	c-2.31,0.43-4.61,0.81-6.9,1.44c-2.17,0.6-4.53,0.54-6.79,0.84c-1.28,0.17-2.54,0.55-3.82,0.72c-1.17,0.16-2.29,0.25-3.48,0.63
	c-1.75,0.57-3.86-0.18-5.64,0.88c-3.46-0.58-6.75,0.91-10.19,0.81c-2.01-0.06-4.03,0.55-6.06,0.67c-2.12,0.13-4.38-0.44-6.34,0.13
	c-4.04,1.17-8.07,0.55-12.09,0.61c-9.87,0.13-19.75-0.09-29.61,0.1c-5.55,0.11-11-1.38-16.56-0.8c-2.44-1.04-5.11-0.32-7.54-0.86
	c-2.3-0.52-4.58-0.36-6.83-0.69c-3.66-0.54-7.3-1.18-10.99-1.59c-1.49-0.16-3.18-0.19-4.54-0.72c-1.44-0.56-2.9-0.28-4.21-0.71
	c-2.91-0.95-5.95-1.33-8.9-1.95c-2.65-0.55-5.27-1.24-7.93-1.77c-3.44-0.69-6.89-1.4-10.26-2.39c-6.22-1.84-12.51-3.5-18.56-5.87
	c-3.01-1.18-6.18-1.95-9.01-3.61c-1.59-0.93-3.42-1.41-5.14-2.06c-2.64-0.99-2.61-3.4-3.5-5.31c-0.33-0.72-0.05-1.72-0.05-2.6
	c0-81.98,0-163.95,0.01-245.93c0-1.21,0.09-2.44,0.3-3.62c0.63-3.54,3.47-5.18,6.37-5.94c2.31-0.6,4.05-2.23,6.49-2.58
	c2.21-0.32,4.23-1.85,6.43-2.48c2.9-0.83,5.68-2.03,8.66-2.69c2.71-0.6,5.44-1.34,8.05-2.25c2.55-0.88,5.2-1.27,7.73-2.12
	c1.33-0.45,3.12-0.11,4.1-0.89c1.45-1.16,3.16,0.02,4.47-1.09c1.14-0.97,3,0.48,4.05-1.06c3.64,0.21,6.97-1.69,10.63-1.55
	c1.13,0.04,2.29-0.48,3.44-0.7c1.04-0.2,2.25,0.46,3.11-0.68c0.1-0.13,0.46-0.06,0.7-0.08c2.9-0.25,5.79-0.54,8.69-0.73
	c1.55-0.1,2.88-1.1,4.57-0.82c1.51,0.25,3.15,0.3,4.56-0.68c0.17-0.12,0.49-0.02,0.74-0.02c6.41,0.14,12.76-1.29,19.19-0.78
	c0.58,0.05,1.58,0.54,1.72-0.72C186.5,0,197.5,0,208.5,0z M191.61,253.5c30,0,59.99,0.01,89.99-0.03c1.17,0,2.34-0.09,3.57-0.36
	c3.13-0.68,5.16-2.72,6.93-4.95c1.75-2.21,2.74-4.81,2.71-7.87c-0.13-13.75-0.11-27.5-0.01-41.24c0.02-2.37-0.44-4.49-1.56-6.5
	c-2.57-4.62-6.41-7.29-11.81-7.29c-59.37-0.01-118.73,0.01-178.1-0.06c-2.61,0-4.96,0.45-7.17,1.76c-4.31,2.54-6.87,6.23-6.9,11.31
	c-0.07,13.87,0.03,27.75-0.07,41.62c-0.02,2.88,0.63,5.4,2.3,7.69c2.68,3.69,6.02,5.97,10.87,5.96
	C132.12,253.46,161.87,253.5,191.61,253.5z M191.69,27.75c-2.95,0.29-6.49-0.43-10.02,0.66c-1.73,0.54-10.81,3.17-12.9,4.19
	c-3.82,1.88-7.35,4.15-10.68,6.84c-4.59,3.7-8,7.32-11.17,11.82c-2.46,3.48-4.34,7.15-5.97,11.05c-2.06,4.94-3.38,10.07-3.61,15.34
	c-0.19,4.25-0.25,8.51,0.49,12.83c0.76,4.44,1.8,8.75,3.46,12.85c2.68,6.62,6.81,12.41,11.63,17.66c1.21,1.32,2.86,2.23,4.15,3.49
	c2.59,2.52,5.59,4.4,8.78,5.99c3.95,1.97,7.99,3.57,12.3,4.76c3.58,0.99,7.22,1.14,10.78,1.95c1.67,0.37,3.52-0.14,5.23,0.12
	c1.69,0.26,3.02-0.78,4.57-0.81c1.68-0.03,3.29-0.25,4.96-0.66c3.86-0.95,7.58-2.14,11.19-3.81c3.43-1.59,6.47-3.73,9.64-5.75
	c4.61-2.94,8.12-6.93,11.39-11.02c3.31-4.15,5.73-9,7.55-14.08c1.59-4.44,2.91-9.01,3.14-13.65c0.23-4.48,0.61-9.02-0.47-13.59
	c-0.59-2.49-0.97-5.09-1.67-7.59c-1.13-4.02-2.66-7.95-4.83-11.48c-2.98-4.85-6.62-9.22-10.76-13.21
	c-3.31-3.19-7.11-5.65-11.04-7.83c-3.72-2.06-7.77-3.58-11.95-4.61c-3.01-0.74-5.98-1.63-9.13-1.5
	C195.26,27.8,193.76,27.75,191.69,27.75z"/>
<path fill="currentColor" d="M224.25,384c-0.6-0.48-1.16-1.02-1.82-1.42c-1.36-0.82-2.67-2.68-2.68-4.08c-0.02-5.35-0.01-10.69-0.01-16.25
	c0.76,0,1.35,0.03,1.95,0c4.27-0.24,8.53-0.5,12.8-0.75c2.72-1.66,5.97,0.04,8.78-1.43c0.86-0.45,2.17-0.07,3.47-0.07
	c0,6.13,0.09,12.1-0.04,18.06c-0.06,2.47-1.75,4.07-3.85,5.2c-0.26,0.14-0.4,0.48-0.6,0.73C236.25,384,230.25,384,224.25,384z"/>
<path fill="currentColor" d="M141.75,384c-1.04-0.92-2.18-1.75-3.1-2.78c-0.77-0.86-1.41-1.86-1.41-3.15c0.02-5.97,0.01-11.93,0.01-18.16
	c1.73,0.38,3.34-0.52,4.76,0.71c0.15,0.13,0.45,0.12,0.69,0.14c3.52,0.25,7.04,0.46,10.55,0.77c1.78,0.15,3.53,0.58,5.31,0.71
	c1.84,0.13,3.69,0.03,5.69,0.03c0,5.31-0.08,10.41,0.04,15.5c0.06,2.59-1.3,4.09-3.25,5.35c-0.44,0.28-0.85,0.6-1.28,0.9
	C153.75,384,147.75,384,141.75,384z"/>
<path fill="currentColor" d="M89.25,308.8c2.17,0.44,4.05,0.65,5.84,1.21c3.46,1.07,6.97,1.89,10.48,2.73c1.38,0.33,2.8,0.46,4.18,0.78
	c1.47,0.34,2.99,0.64,4.34,1.27c1.34,0.62,2.72,0.01,4.18,0.81c1.65,0.91,3.96,0.62,5.97,0.92c1.16,0.17,2.29,0.5,3.44,0.73
	c1.04,0.21,2.03-0.08,3.16,0.56c1.37,0.78,3.19,0.29,4.88,0.8c2.61,0.79,5.5,0.61,8.27,0.9c1.78,0.19,3.54,0.48,5.31,0.74
	c1.65,0.25,3.46-0.64,4.95,0.73c0.14,0.12,0.49,0.01,0.73,0.02c5.14,0.25,10.29,0.74,15.43,0.68c5.42-0.06,10.74,1.13,16.18,0.87
	c5.36-0.26,10.74-0.12,16.11-0.03c2.94,0.05,5.7-1.13,8.69-0.84c2.85,0.28,5.85,0.55,8.58-0.07c2.94-0.67,5.81-0.48,8.72-0.6
	c1.56-0.07,2.88-1.09,4.57-0.82c1.51,0.25,3.12,0.26,4.57-0.66c0.36-0.23,0.98-0.02,1.48-0.04c1.8-0.04,3.55,0.07,5.35-0.67
	c1.49-0.61,3.22-0.03,4.96-0.69c2.18-0.83,4.84-0.3,7.11-0.97c3.29-0.96,6.85-0.52,9.96-2.17c1.74,0.38,3.3-0.44,4.93-0.76
	c4.02-0.8,8.01-1.71,12-2.69c3.06-0.75,6.02-1.79,9.07-2.53c0.57-0.14,1.21-0.02,2.05-0.02c0,7.6,0.06,15.06-0.03,22.53
	c-0.03,2.72-1.91,4.42-4.24,5.16c-3.88,1.24-7.92,1.98-11.85,3.09c-4.05,1.14-8.19,2.05-12.29,2.82c-3.36,0.63-6.82,1.22-10.19,1.83
	c-3.81,0.69-7.74,0.8-11.5,1.98c-1.76,0.56-3.76,0.34-5.68,0.72c-3.44,0.67-7.02,0.58-10.53,0.88c-2.03,0.17-4.04,0.58-6.06,0.71
	c-1.99,0.12-4.13-0.42-5.97,0.12c-3.91,1.15-7.82,0.56-11.71,0.62c-8.87,0.13-17.75-0.16-26.61,0.11
	c-6.19,0.19-12.26-1.21-18.43-0.82c-2.44-1.03-5.11-0.32-7.53-0.86c-2.3-0.52-4.58-0.37-6.83-0.69c-3.66-0.52-7.3-1.19-10.99-1.59
	c-1.49-0.16-3.19-0.17-4.53-0.72c-1.45-0.59-2.91-0.27-4.21-0.7c-2.91-0.98-5.95-1.43-8.9-1.93c-3.03-0.52-5.96-1.49-9.05-1.85
	c-3.09-0.35-6.1-1.48-9.14-2.3c-1.57-0.42-3.13-0.87-4.68-1.36c-2.97-0.94-4.54-3.01-4.55-6.04
	C89.24,323.59,89.25,316.47,89.25,308.8z"/>
<path fill="currentColor" d="M102.81,239.88c0-13.71,0-27.3,0-41c59.39,0,118.71,0,178.06,0c0.55,2.94,0.73,30.21,0.24,41
	C221.8,239.88,162.47,239.88,102.81,239.88z M161.38,213.24c-0.65,0.65-1.57,1.5-2.41,2.43c-1.47,1.64-1.63,5.44-0.28,7.13
	c1.9,2.37,4.28,3.72,7.46,3.72c30.98-0.04,61.95-0.03,92.93,0.02c1.38,0,2.58-0.38,3.81-0.8c1.95-0.66,3.18-2.14,4.08-3.88
	c0.4-0.78,0.9-2.06,0.56-2.55c-0.6-0.85-0.23-1.72-0.56-2.42c-0.85-1.76-2.11-3.25-4.05-3.88c-1.11-0.36-2.27-0.62-3.43-0.74
	c-1.24-0.13-2.5-0.03-3.74-0.03c-19.49,0-38.97,0-58.46,0c-6,0-11.99-0.1-17.99,0.03C173.39,212.41,167.45,211.52,161.38,213.24z
	 M117.02,222.4c0.35,0.35,0.74,0.68,1.05,1.06c1.89,2.38,4.43,3.11,7.37,3.06c3.62-0.07,7.25,0,10.87-0.02
	c3.55-0.02,6.36-2.06,7.4-5.33c0.94-2.93-0.82-6.98-3.63-7.9c-1.67-0.55-3.47-0.96-5.21-0.96c-4.88,0-9.82-0.61-14.73,0.93
	c-0.96,0.96-2.02,2.02-3.08,3.07c-0.29,1.01,0.42,2.28-0.79,3.04C117.42,220.15,116.87,221.36,117.02,222.4z"/>
<path fill="currentColor" d="M192.15,41.25c4.74-0.34,9.28,0.77,13.67,2.31c3.5,1.23,6.82,2.89,9.88,5.14c2.4,1.77,4.31,3.99,6.55,5.87
	c2.46,2.07,3.9,4.89,5.67,7.43c1.84,2.64,2.64,5.89,3.75,8.92c0.68,1.86,0.23,4.14,0.91,6c0.94,2.54,0.9,5.12,0.57,7.58
	c-0.53,3.92-0.84,7.88-2.55,11.67c-1.48,3.29-2.88,6.58-4.86,9.6c-5.17,7.87-12.52,12.78-21.33,15.73c-2.98,1-5.96,1.67-9.13,1.52
	c-0.92-0.05-2-0.47-2.77,0.55c-0.11,0.14-0.52,0.24-0.66,0.15c-2.15-1.45-4.6-0.25-6.81-0.77c-4.63-1.08-9.2-2.41-13.34-4.87
	c-2.65-1.58-5.19-3.37-7.49-5.37c-3.36-2.92-5.99-6.57-8.16-10.46c-1.41-2.51-2.33-5.28-3.58-7.88c-0.52-1.08,0.39-2.54-0.97-3.35
	c-0.01-3.91-1.41-7.76-0.72-11.68c0.95-5.39,1.8-10.87,4.5-15.74c1.79-3.22,3.78-6.3,6.4-9c3.64-3.74,7.55-7.07,12.33-9.21
	c3.5-1.57,7.03-2.94,10.93-3.57C187.37,41.45,189.75,41.42,192.15,41.25z M171.75,65.62c0,1.09,0.06,2.09-0.01,3.08
	c-0.14,1.93,0.55,3.48,1.9,4.82c4.59,4.56,9.2,9.1,13.72,13.74c2.69,2.77,6.72,2.46,9.26,0.09c2.68-2.49,2.95-7.34,0.62-9.72
	c-4.52-4.63-9.08-9.23-13.74-13.72c-3.38-3.26-6.92-3.11-10.23,0.19C172.83,64.54,172.39,64.98,171.75,65.62z"/>
</svg>
