<svg version="1.1" id="Layer" xmlns="http://www.w3.org/2000/svg" xmlns:xlink="http://www.w3.org/1999/xlink" x="0px" y="0px"
	 viewBox="0 0 512 512" enable-background="new 0 0 512 512" xml:space="preserve">
<path fill="currentColor" d="M37,338.4c0.28-0.37,0.81-0.73,0.82-1.1c0.18-7.35,1.7-14.41,4.01-21.39c0.78-2.35,1.61-4.79,2.01-7.29
	c0.17-1.09,0.81-1.85,1.93-1.78c3.2,0.21,6.11-1.17,9.07-1.9c2.78-0.68,5.81-0.83,8.37-2.4c6.53-0.76,12.69-3.15,19.12-4.4
	c2.54-0.49,5.18-1.09,7.66-2.05c2.35-0.9,4.89-1.42,7.28-1.92c5.1-1.07,10.1-2.55,15.19-3.64c4.94-1.06,9.76-2.66,14.75-3.53
	c0.61-0.11,1.15-0.61,2-1.08c0-1.17-0.07-2.57,0.01-3.96c0.25-4.15,0.13-8.39,0.96-12.43c0.92-4.48,1.2-9.08,2.47-13.47
	c1.32-4.56,2.73-9.11,4.28-13.59c0.94-2.73,2.23-5.33,3.39-7.99c0.26-0.61,0.6-1.18,0.99-1.95c6.24,2.97,12.35,5.9,18.48,8.78
	c1.42,0.67,2.93,1.17,4.53,1.79c-2.11,4.91-4.06,9.78-5.51,14.85c-0.88,3.08-1.45,6.22-2.34,9.28c-0.84,2.87-0.66,5.74-0.84,8.63
	c-0.07,1.11-0.64,2.19-1.17,3.86c8.29-1.04,15.57-3.67,23.41-5.31c0,3.55,0,7.06,0,10.57c0,2.13-0.09,4.27,0.02,6.4
	c0.12,2.31,0.04,4.58,0.62,6.96c0.49,2.02,0.73,4.29,1.14,6.41c0.42,2.18,1.53,4.21,2.08,6.38c1.2,4.79,3.62,9.06,5.84,13.37
	c1.59,3.09,3.52,6.06,5.95,8.65c1.7,1.81,3.27,3.74,4.84,5.68c1.66,2.05,9.49,9.21,11.73,10.68c4.88,3.21,9.68,6.55,15.22,8.61
	c0.49,0.18,0.82,0.78,1.12,1.08c-5.35,5.76-10.69,11.51-16.03,17.27c1.23,0.4,2.62,0.59,3.71,1.26c2.64,1.6,5.43,2.65,8.41,3.44
	c2.8,0.74,5.36,2.12,8.32,2.63c2.61,0.45,5.3,0.87,7.83,1.65c2.74,0.85,5.55,0.3,8.18,0.89c2.85,0.64,5.69,0.67,8.63,0.75
	c0,8.58,0,16.93,0,25.68c-3.42-0.44-6.87,0.71-10.21-0.9c-0.46-0.22-1.14-0.12-1.69-0.02c-3.38,0.61-6.65-0.5-9.86-1.04
	c-3.07-0.51-6.22-1.35-9.28-2.15c-3.61-0.93-7.1-2.15-10.64-3.23c-3.52-1.07-6.82-2.78-10.24-4.12c-3.47-1.36-6.66-3.19-9.93-4.89
	c-2.34-1.22-2.33-1.17-3.8,0.94c-0.63,0.9-1.36,1.75-2.14,2.53c-4.31,4.34-8.64,8.66-13.17,13.19c2.07,2.71,5.36,3.74,8.07,5.44
	c3.77,2.38,7.8,4.55,11.99,6.03c6.71,2.36,13.05,5.65,20.16,7.07c4.95,0.99,9.82,2.42,14.82,3.33c4.44,0.81,8.97,1.04,13.36,1.82
	c5.63,1,11.19,0.67,16.75,0.57c4.57-0.08,9.22-0.31,13.7-0.95c4.08-0.58,8.29-0.91,12.31-2.06c0.37-0.11,1.44,0.66,1.42,0.98
	c-0.15,3.06,1.19,5.8,1.76,8.69c0.39,1.99,0.06,4.35,1.01,5.96c1.13,1.92,0.03,4.06,1.42,5.88c0.6,0.78,0.1,2.41,0.1,3.53
	c-3.03,0.97-6.09,0.7-8.85,1.9c-0.36,0.16-0.83,0.11-1.24,0.09c-4.33-0.22-8.53,1.46-12.88,0.86c-6.08,1.72-12.29,0.55-18.43,0.83
	c-4.31,0.2-8.52-1.45-12.88-0.83c-2.32-1.3-4.9-0.54-7.32-0.91c-3.19-0.49-6.39-1.1-9.51-1.82c-3.21-0.74-6.51-1.23-9.66-2.35
	c-2.99-1.06-6.15-1.63-9.16-2.63c-4.12-1.37-8.13-3.07-12.26-4.4c-3.53-1.14-6.43-3.72-10.19-4.26c-4.86-3.51-10.6-5.45-15.59-8.75
	c-2.43-1.61-4.9-3.16-7.35-4.74c-4.27,4.27-8.54,8.45-12.71,12.73c-4.01,4.12-7.92,8.34-12.19,12.85c-1.88-0.25-4.33-0.09-6.35-0.95
	c-3.34-1.42-6.89-1.89-10.28-2.99c-6.66-2.16-13.04-4.98-19.21-8.23c-4.88-2.57-9.31-5.86-13.73-9.2
	c-5.15-3.89-9.87-8.17-14.26-12.83c-3.11-3.3-6.34-6.66-8.66-10.5c-2.28-3.77-4.96-7.28-7.04-11.15c-2.06-3.83-4.26-7.65-5.67-11.73
	c-2.02-5.86-4.81-11.48-5.68-17.75c-0.2-1.41-0.26-3.07-0.84-4.31c-0.7-1.5-0.35-3.01-0.81-4.37c-0.95-2.86-0.72-5.74-0.82-8.63
	c-0.01-0.23-0.53-0.45-0.82-0.67C37,349.21,37,343.81,37,338.4z"/>
<path fill="currentColor" d="M353.06,205.48c1.86,2.44,3.43,4.48,4.97,6.54c5.29,7.05,9.31,14.81,13,22.78c1.85,4.01,5.56,14.19,6.72,19
	c1.01,4.18,2.31,8.28,2.48,12.62c1.89,2.63,0.43,5.81,1.51,8.76c0.96,2.64,0.18,5.9,0.21,8.89c0.02,2.37,0.03,2.44,2.35,3.08
	c4.35,1.19,8.72,2.3,13.09,3.43c3.03,0.78,6.07,1.54,9.31,2.35c0-6.23,0.56-12.53-0.18-18.67c-0.58-4.77-0.46-9.75-2.38-14.33
	c-0.4-7.57-3.15-14.59-5.18-21.77c-0.96-3.4-2.5-6.64-3.81-9.94c-3.24-8.13-7.05-15.99-12.13-23.13c-2.11-2.96-3.69-6.25-6.1-9.07
	c-1.74-2.03-3.28-4.35-5.06-6.37c-5.01-5.7-10.26-11.18-15.67-17.02c5.46-6.17,11.05-12.48,16.54-18.67
	c2.33,1.94,4.62,3.55,6.55,5.51c3.84,3.89,7.75,7.76,11.14,12.04c6.19,7.8,12.17,15.76,17.21,24.42
	c3.74,6.41,6.88,13.09,10.14,19.72c2.73,5.55,4.25,11.6,6.81,17.24c-0.4,3.09,1.45,5.7,2.03,8.6c0.52,2.62,0.7,5.57,2.29,7.97
	c-0.08,4.4,2.19,8.48,1.74,12.96c-0.17,1.75,1.2,3.28,0.89,5.2c-0.28,1.72-0.25,3.53,0.73,5.22c0.37,0.64,0.06,1.67,0.06,2.53
	c0,7.11-0.01,14.23,0.01,21.34c0.01,2.73,0.08,2.58,3.02,3.3c4.79,1.17,9.6,2.27,14.35,3.53c3.95,1.05,7.98,1.9,11.89,3.16
	c1.75,0.56,4.02,0.39,5.16,1.83c1.17,1.48,1.86,3.53,2.22,5.43c0.75,3.93,2.18,7.67,3.01,11.57c0.11,0.51,0.4,1,0.45,1.51
	c0.31,3.29,0.15,6.71,0.97,9.86c1.28,4.88,0.51,9.75,0.7,14.62c0.06,1.72-0.63,3.45-0.77,5.2c-0.14,1.84,0.34,3.79-0.11,5.53
	c-0.86,3.29-0.95,6.71-1.83,9.92c-0.85,3.07-1.86,6.07-2.47,9.23c-0.28,1.45-1.11,2.98-1.76,4.36c-1.36,2.88-2.27,5.91-3.57,8.77
	c-1.2,2.63-2.88,5.04-4.2,7.65c-2.32,4.54-5.39,8.62-8.33,12.79c-4.55,6.46-10.02,12.06-15.83,17.28
	c-5.11,4.58-10.56,8.8-16.68,12.14c-2.42,1.32-4.78,2.98-7.29,4.07c-6.15,2.66-12.27,5.48-18.89,6.96
	c-4.18,0.94-8.15,2.86-12.59,2.48c-5.03-5.03-10.26-9.87-15.05-15.13c-8.86-9.74-18.6-18.63-27.4-28.38
	c-7.21-7.99-15.34-15.05-22.37-23.15c-7.53-8.67-16.05-16.33-23.89-24.66c-2.19-2.32-4.13-4.88-6.36-7.54
	c2.59-1.41,5.29-3.03,8.11-4.38c5.05-2.42,9.63-5.45,13.61-9.41c1.25-1.25,2.91-2.09,4.12-3.37c2.28-2.41,4.72-4.79,6.39-7.6
	c1.06-1.8,3.45-2.53,3.6-4.89c5.01-6.21,7.58-13.61,10.12-20.99c1-2.89,1.48-5.98,1.97-9.06c0.42-2.62-0.02-5.36,0.79-7.74
	c0.86-2.52,0.66-4.93,0.66-7.38c0-1.59-0.62-3.17-0.77-4.77c-0.14-1.55-0.03-3.12-0.03-4.87c7.57,1.9,15.08,3.79,22.81,5.73
	c1.02-3.09-0.92-6.05-0.76-9.19c0.14-2.86-0.85-5.82-1.6-8.67c-0.77-2.94-1.5-5.94-2.63-8.72c-1.08-2.67-1.87-5.46-3.15-8.1
	c-1.32-2.72-2.93-5.32-4.09-8.11c-1.15-2.76-3.41-4.86-4.5-7.53c-1.23-3-4.38-4.51-5.28-8.02
	C339.48,215.94,346.84,211.84,353.06,205.48z"/>
<path fill="currentColor" d="M200.5,202.21c-4.08,2.03-7.34,4.87-10.62,7.65c-3.4,2.87-6.7,5.85-10.02,8.76c-4.18-3.88-8.49-7.91-12.85-11.88
	c-0.89-0.81-2.01-1.37-2.94-2.14c-0.87-0.73-1.63-1.59-2.72-2.66c8.86-10.07,19.16-18.32,31.01-25.33c0.38-2.89-1.02-5.79-1.9-8.62
	c-1.37-4.41-2.2-8.99-4.02-13.27c-0.25-0.6-0.04-1.39-0.04-2.47c-0.71,0-1.56-0.27-2.01,0.04c-6.84,4.71-14.22,8.56-20.85,13.68
	c-8.28,6.39-15.69,13.67-22.63,21.34c-5.12,5.66-9.45,12.08-13.52,18.65c-3.57,5.77-6.5,11.82-9.58,17.82
	c-2,3.89-3.35,8.03-4.72,12.13c-0.6,1.79-1.86,3.23-2.09,5.12c-8.16-2.51-16.21-4.98-24.28-7.46c1.42-4.07,2.73-7.85,4.04-11.63
	c0.13-0.38,0.08-0.83,0.25-1.18c3.04-6.28,5.96-12.63,9.2-18.81c2.28-4.36,5.08-8.44,7.61-12.66c2.93-4.88,6.64-9.15,9.83-13.82
	c2.26-3.31,5.37-6.04,8.05-9.07c0.99-1.12,2.23-1.94,2.84-3.52c0.37-0.95,1.96-1.35,2.83-2.18c2.07-1.95,4-4.05,6.06-6.01
	c3.98-3.78,8.51-6.9,12.76-10.35c5.26-4.27,11.16-7.52,16.67-11.38c1.07-0.75,2.34-1.22,3.5-1.83c2.69-1.42,5.38-2.86,8.26-4.38
	c-2.03-6.56-3.69-12.98-5.73-19.32c-1.25-3.89-2-7.95-3.39-11.84c-0.78-2.19-0.12-4.37,1.5-6.05c3.46-3.58,6.87-7.23,10.59-10.53
	c3.08-2.72,6.21-5.56,9.61-7.73c4.43-2.83,8.98-5.58,13.77-7.88c5.95-2.86,11.97-5.6,18.32-7.25c4.77-1.24,9.48-3.21,14.59-2.95
	c3.09-1.92,6.88,0.26,9.96-1.71c5.12,0,10.24,0,15.37,0c2,1.46,4.33,0.52,6.47,0.88c5.02,0.85,10.11,1.36,14.96,3.02
	c1.13,0.39,2.3,0.66,3.46,0.91c5.86,1.26,11.09,4.13,16.6,6.29c5.5,2.16,10.34,5.48,15.14,8.69c4.19,2.8,8.27,6.01,11.81,9.75
	c3.52,3.72,7.22,7.27,10.84,10.89c-1.2,6.37-3.49,12.46-5.22,18.69c-1.43,5.17-3.2,10.36-4.61,15.54
	c-1.85,6.78-4.46,13.39-5.42,20.41c-2.48,4.88-3.44,10.3-4.84,15.47c-1.83,6.78-4.44,13.39-5.41,20.41
	c-2.5,4.87-3.45,10.29-4.85,15.47c-1.84,6.78-4.43,13.4-5.4,20.42c-1.44,1.89-1.69,4.17-1.88,6.91c-4.28-3.16-8.42-5.77-12.73-8.12
	c-4.41-2.41-8.97-4.6-13.79-5.84c-4.8-1.23-9.63-2.46-14.69-2.81c-5.07-0.35-9.96-0.81-15.13-0.08c-4.97,0.71-9.85,1.51-14.71,2.74
	c-4.89,1.24-9.57,3.04-13.96,5.46c-4.33,2.38-8.43,5.2-12.83,7.95c-0.22-0.33-0.9-0.9-0.99-1.56c-0.52-3.71-2.13-7.13-2.88-10.78
	c-0.32-1.54-0.99-3.01-1.42-4.53C201.37,206.14,201.05,204.57,200.5,202.21z"/>
<path fill="currentColor" d="M203.49,286.49c0-1.45,0.05-2.45-0.01-3.44c-0.33-5.39,1.21-10.44,2.93-15.43c1.99-5.78,5.41-10.65,9.25-15.4
	c4.98-6.16,11.13-10.47,18.17-13.75c1.79-0.83,3.54-1.74,5.35-2.52c1.83-0.78,4-0.44,5.7-1.69c0.09-0.07,0.27-0.04,0.41-0.03
	c4.6,0.09,9.16-1.71,13.7-0.77c4.68,0.97,9.46,1.26,14.06,3.09c4.45,1.77,8.86,3.67,12.71,6.32c8.11,5.59,14.31,13.03,18.07,22.2
	c2.08,5.06,3.96,10.25,3.86,15.91c-0.03,1.88,1.09,3.6,0.86,5.62c-0.92,8-2.05,15.91-5.94,23.15c-2.32,4.32-4.87,8.46-8.47,11.84
	c-2.64,2.48-5.07,5.13-8,7.36c-2.62,1.99-5.54,3.17-8.33,4.69c-2.68,1.46-5.57,2.29-8.5,3.2c-6.99,2.19-14.06,1.56-21.09,1.41
	c-2.39-0.05-4.98-0.8-7.39-1.58c-2.38-0.77-4.77-1.54-7.03-2.58c-7.6-3.52-14.17-8.6-19.24-15.14c-4.36-5.62-8.3-11.74-9.36-19.12
	C202.9,295.45,203.59,290.69,203.49,286.49z"/>
</svg>
