<?xml version="1.0" encoding="utf-8"?>
<!-- Generator: Adobe Illustrator 26.1.0, SVG Export Plug-In . SVG Version: 6.00 Build 0)  -->
<svg version="1.1" id="Слой_1" xmlns="http://www.w3.org/2000/svg" xmlns:xlink="http://www.w3.org/1999/xlink" x="0px" y="0px"
	 viewBox="0 0 96 96" enable-background="new 0 0 96 96" xml:space="preserve">
<path d="M63.05,81.23c-11.03,0-19.95-8.94-19.94-19.99c0.01-11.03,8.99-20,19.99-19.97C74.07,41.3,83,50.26,83.01,61.23
	C83.03,72.26,74.08,81.22,63.05,81.23z M63.26,55.71c-0.54-0.51-0.81-0.76-1.06-1.02c-2.05-2.05-4.09-4.13-6.17-6.16
	c-1.29-1.27-2.84-1.25-4.14-0.02c-0.47,0.44-0.91,0.9-1.36,1.36c-1.52,1.54-1.51,3.02,0.03,4.58c2,2.01,3.98,4.05,6.03,6.01
	c0.66,0.63,0.63,0.99-0.01,1.61c-2.09,2.02-4.13,4.09-6.17,6.16c-1.36,1.38-1.34,2.9-0.02,4.29c0.37,0.39,0.76,0.77,1.14,1.15
	c1.73,1.72,3.12,1.72,4.87-0.03c1.96-1.96,3.94-3.89,5.86-5.9c0.63-0.66,0.98-0.64,1.6,0.01c1.99,2.07,4.03,4.09,6.07,6.11
	c1.46,1.45,2.96,1.44,4.44,0.01c0.41-0.4,0.82-0.81,1.22-1.22c1.47-1.51,1.49-3.03,0.02-4.52c-1.99-2.02-4.01-4.02-6.01-6.03
	c-0.26-0.26-0.49-0.53-0.79-0.85c0.3-0.32,0.55-0.59,0.8-0.85c2.03-2.03,4.07-4.05,6.08-6.1c1.35-1.37,1.34-2.91,0.02-4.3
	c-0.44-0.47-0.9-0.92-1.36-1.36c-1.46-1.41-2.98-1.41-4.44,0.04c-1.66,1.64-3.31,3.28-4.93,4.96
	C64.37,54.25,63.86,54.97,63.26,55.71z"/>
<path d="M73.13,10.75c0,4.5,0,8.85,0,13.33c-0.42,0-0.78,0-1.14,0c-5.3,0-10.6-0.11-15.9,0.03c-4.42,0.12-8.74-0.4-13.05-1.31
	c-2.57-0.54-2.24,0.09-2.26-2.77c-0.02-2.16,0.02-4.33-0.01-6.49c-0.01-0.75,0.18-1.14,1.02-1.29c4.81-0.9,9.6-1.72,14.54-1.54
	c5.19,0.19,10.4,0.04,15.6,0.04C72.29,10.75,72.65,10.75,73.13,10.75z"/>
<path d="M33.5,15.26c0,1.46,0,2.83,0,4.35c-1.34,0-2.65-0.02-3.95,0c-1.04,0.02-2.12-0.06-3.13,0.14c-3.01,0.61-4.89,3.32-4.6,6.46
	c0.26,2.82,2.73,5.11,5.71,5.18c2.43,0.06,4.86,0.02,7.29,0.02c6.89,0,13.78-0.01,20.67,0.01c4.49,0.01,8.24,2.93,9.39,7.23
	c0.09,0.32,0.13,0.66,0.21,1.11c-1.38,0-2.69,0.02-4-0.02c-0.19-0.01-0.47-0.24-0.55-0.43c-1.08-2.59-3.09-3.58-5.78-3.57
	c-8.92,0.02-17.83,0.02-26.75,0c-4.55-0.01-8.23-2.4-9.84-6.34c-2.64-6.48,1.65-13.5,8.72-14.12C29.04,15.11,31.22,15.26,33.5,15.26
	z"/>
<path d="M17.4,54.09c1.18-0.33,2.24-0.63,3.3-0.91c0.59-0.16,1.11-0.31,1.11,0.68c-0.03,8.9-0.02,17.8-0.02,26.69
	c0,0.1-0.03,0.19-0.07,0.44c-0.94-0.45-1.82-0.92-2.73-1.3c-1.57-0.67-1.58-0.65-1.58-2.36c0-7.41,0-14.82,0-22.23
	C17.4,54.69,17.4,54.29,17.4,54.09z"/>
<path d="M24.69,50.89c-0.3-0.92-0.53-1.73-0.82-2.51c-0.52-1.38-0.27-1.79,1.15-1.79c6.98,0,13.96,0,20.94,0c0.36,0,0.72,0,1.15,0
	c-0.97,1.41-1.84,2.71-2.76,3.99c-0.14,0.2-0.49,0.35-0.75,0.35c-6.27,0.01-12.54,0.01-18.82,0C24.72,50.92,24.66,50.89,24.69,50.89
	z"/>
<path d="M39.18,14.34c0,2.08,0,4.05,0,6.16c-1.33-0.1-2.62-0.19-4-0.29c0-1.86,0-3.68,0-5.56C36.53,14.54,37.82,14.44,39.18,14.34z"
	/>
<path d="M23.04,85.31c-0.94-0.4-2.15-0.7-3.11-1.37c-1.98-1.39-3.92-1.83-6.14-0.63c-0.27,0.15-0.8-0.18-1.21-0.28
	c0.2-0.37,0.31-0.91,0.62-1.08c2.24-1.21,4.49-1.37,6.68,0.15c0.28,0.19,0.58,0.35,0.85,0.55c1.4,1.01,2.9,1.2,4.5,0.53
	c0.55-0.23,1.16-0.32,1.29,0.39c0.05,0.3-0.41,0.88-0.77,1.03C24.99,84.92,24.14,85.04,23.04,85.31z"/>
<path d="M19.98,51.77c-0.48,0.17-0.88,0.31-1.37,0.49c-0.7-1.6-1.87-2.51-3.59-2.73c-0.26-0.03-0.45-0.53-0.68-0.82
	c0.33-0.22,0.64-0.61,0.98-0.62C17.27,48.01,19.22,49.56,19.98,51.77z"/>
<path d="M22.59,49.37c-2.4-0.58-4.17-2.69-4.12-4.78c0.01-0.33,0.43-0.65,0.66-0.97c0.29,0.26,0.8,0.49,0.84,0.79
	c0.18,1.28,0.8,2.21,1.77,3.05C22.17,47.84,22.27,48.6,22.59,49.37z"/>
<path d="M75.27,52.19c-0.29,0.4-0.51,0.82-0.82,1.14c-2.06,2.09-4.15,4.17-6.22,6.25c-1.21,1.21-1.2,2.15,0.02,3.38
	c2.05,2.06,4.11,4.11,6.16,6.17c0.99,1,0.99,1.48,0.03,2.46c-0.38,0.39-0.76,0.77-1.15,1.15c-0.83,0.8-1.43,0.81-2.25,0
	c-2.08-2.07-4.15-4.16-6.23-6.24c-1.33-1.33-2.17-1.32-3.51,0.03c-2.03,2.03-4.06,4.07-6.09,6.1c-0.97,0.97-1.5,0.97-2.46,0.02
	c-0.38-0.38-0.77-0.76-1.14-1.15c-0.82-0.85-0.83-1.4,0.01-2.25c1.95-1.97,3.91-3.93,5.87-5.89c1.8-1.8,1.8-2.41,0.03-4.18
	c-1.93-1.94-3.87-3.87-5.8-5.81c-0.99-0.99-0.98-1.46,0-2.46c0.38-0.39,0.76-0.77,1.15-1.15c0.85-0.82,1.39-0.83,2.24,0.01
	c1.87,1.86,3.73,3.73,5.59,5.59c2.19,2.19,2.58,2.19,4.81-0.04c1.81-1.82,3.63-3.64,5.44-5.45c0.98-0.98,1.48-0.98,2.46-0.01
	c0.43,0.43,0.88,0.84,1.28,1.3C74.89,51.43,75.03,51.78,75.27,52.19z"/>
</svg>
