<svg version="1.1" id="Layer" xmlns="http://www.w3.org/2000/svg" xmlns:xlink="http://www.w3.org/1999/xlink" x="0px" y="0px"
	 viewBox="0 0 384 384" enable-background="new 0 0 384 384" xml:space="preserve">
<path fill="currentColor" d="M216,275.01c3.57,3.28,7.1,6.74,10.87,9.91c3.82,3.22,7.56,6.52,11.33,9.79c3.95,3.44,8.01,6.75,11.83,10.36
	c2.99,2.82,6.43,5.17,9.38,8.04c3.07,2.99,4.83,6.67,4.65,11.19c-0.13,3.38-0.14,6.64-2.08,9.67c-1.61,2.5-3.57,4.46-6.08,6.06
	c-3.83,2.43-8.01,3.27-12.37,2.65c-2.99-0.42-5.79-1.81-8.23-3.59c-2.26-1.65-4.24-3.68-6.35-5.52c-3.95-3.44-7.9-6.88-11.86-10.3
	c-0.14-0.12-0.48-0.02-1.08-0.02c0,0.85,0,1.68,0,2.5c0,8,0.03,16-0.01,24c-0.03,5.42-2.38,9.58-6.97,12.5
	c-4.87,3.1-6.79,3.78-10.89,3.61c0-41.58,0-83.17,0-125.09c0.77-0.5,1.76-1.17,2.77-1.79c4.4-2.66,8.78-5.37,13.27-7.84
	c4.37-2.41,8.63-5.04,13.08-7.3c3.42-1.74,6.48-4.1,10.02-5.69c1.73-0.78,2.75-2.6,2.75-4.75c-0.02-14.25-0.01-28.5,0-42.75
	c0-2.27-1.04-3.9-3.01-4.9c-5.92-3.01-11.52-6.57-17.27-9.86c-5.37-3.07-10.91-5.85-16-9.45c-1.79-1.26-4.17-1.67-5.63-3.48
	c0-41.61,0-83.2,0-124.95c3.63-0.18,6.8,0.98,9.75,2.74c2.38,1.43,4.34,3.3,5.86,5.73c1.36,2.18,2.31,4.35,2.31,6.93
	c-0.02,8.25-0.01,16.5-0.01,24.75c0,0.84,0,1.69,0,2.65c0.65-0.13,1.07-0.09,1.3-0.28c1.78-1.47,3.55-2.96,5.27-4.5
	c2.84-2.54,5.46-5.35,8.51-7.6c1.91-1.41,3.59-3.1,5.63-4.4c5.43-3.47,11.97-3.72,17.3-1.15c4,1.93,7.16,4.77,8.89,8.93
	c0.62,1.5,1.4,3.03,1.11,4.8c-0.4,2.5,0.17,4.98-0.61,7.61c-1.18,3.99-3.84,6.58-6.58,9.26c-0.31,0.3-0.91,0.3-1.24,0.59
	c-2.75,2.45-5.31,5.13-8.23,7.36c-3.09,2.36-5.6,5.34-8.84,7.54c-1.99,1.35-3.57,3.27-5.51,4.78c-3.19,2.48-6.01,5.44-9.03,8.14
	c-2.65,2.37-5.36,4.68-7.93,6.92c0,6.49,0,12.73,0,19.27c0.56,0.3,1.3,0.63,1.98,1.06c5.82,3.68,12.12,6.49,17.88,10.28
	c2.89,1.9,6.17,3.19,9.22,4.85c0.97,0.53,1.61,0.55,2.6-0.05c2.59-1.54,5.39-2.73,7.93-4.35c1.19-0.77,2.41-1.43,3.65-2.08
	c1.75-0.92,3.43-1.98,5.22-3.03c0.98-3.11,1.44-6.49,2.19-9.79c0.68-2.97,1.38-5.98,1.9-9.02c0.61-3.57,1.78-7.05,2.23-10.68
	c1.51-1.24,0.21-3.18,1.3-4.75c0.85-1.23,0.48-3.25,0.9-4.85c0.93-3.52,1.57-7.11,2.42-10.64c0.51-2.12,0.78-4.33,1.71-6.4
	c2.19-4.9,7.26-9.34,13.13-10.53c2.31-0.47,4.43-0.81,6.69-0.28c3.62,0.85,6.8,2.36,9.59,4.98c2.83,2.65,4.4,5.95,5.29,9.45
	c0.5,1.95,0.17,4.26-0.3,6.49c-0.61,2.87-1.26,5.78-1.9,8.64c-0.86,3.87-1.25,7.87-2.75,11.59c-0.17,0.43-0.15,0.96-0.13,1.44
	c0.01,0.19,0.25,0.37,0.46,0.66c3.14-1.71,6.3-3.44,9.45-5.16c0.61-0.34,1.21-0.7,1.81-1.06c4.08-2.49,8.5-4.38,12.41-7.16
	c3.52-0.57,6.71-2.59,10.69-1.2c2.65,0.93,5.32,1.44,7.71,3.18c3.93,2.85,5.82,6.25,7.08,11.02c0.9,3.4-0.07,6.17-0.76,9.26
	c-0.35,1.56-1.87,2.21-1.94,3.72c-2.59,2.54-4.98,5.26-8.41,6.85c-3.48,1.62-6.8,3.55-10.08,5.57c-3.05,1.89-6.3,3.46-9.77,5.34
	c0.7,0.37,1.31,0.81,1.98,1.03c4.4,1.45,8.78,3.01,13.24,4.22c3.26,0.88,6.49,1.75,9.53,3.27c4.52,2.26,7.49,5.84,9.05,10.56
	c2.1,6.35,0.23,12-3.87,16.85c-2.21,2.62-5.33,3.98-8.78,4.99c-4.73,1.39-8.96,0.11-13.3-1.03c-2.9-0.77-5.66-2.1-8.58-2.8
	c-2.84-0.68-5.46-1.97-8.41-2.43c-2.92-0.45-5.67-1.95-8.53-2.87c-5.63-1.8-11.29-3.52-16.95-5.26c-1.88-0.58-3.83-1.02-5.64-1.76
	c-1.58-0.65-2.83-0.61-4.39,0.21c-3.92,2.05-7.82,4.11-11.58,6.44c-1.57,0.98-3.31,1.69-5.2,2.63c0,0.87,0,1.71,0,2.54
	c0,9.37,0.03,18.75-0.03,28.12c-0.01,1.62,0.33,2.47,2.01,3.31c4.78,2.39,9.32,5.27,14.02,7.83c1.65,0.9,3.24,1.24,5.38,0.36
	c3.07-1.27,6.37-2.14,9.61-3.04c3.13-0.87,6.14-2.37,9.23-2.97c3.83-0.75,7.3-2.44,11.06-3.32c1.65-0.38,3.42-0.64,5.05-1.33
	c1.59-0.68,3.32-1.04,4.92-1.7c1.64-0.68,3.38-0.97,5.04-1.46c2.31-0.68,4.66-1.42,6.91-2.3c2.8-1.09,5.6-0.74,8.3-0.32
	c2.73,0.42,5.26,1.65,7.57,3.43c3,2.31,5.22,5.64,6.25,9.5c0.45,1.68,0.7,3.29,0.64,4.96c-0.14,3.9-1.66,7.25-4.05,10.33
	c-3.34,4.3-8.2,6.08-13.06,7.37c-2.93,0.77-5.75,1.92-8.74,2.55c-2.33,0.49-4.71,1.23-6.97,2.12c-0.54,0.21-1.03,0.56-1.82,1
	c5.14,2.8,10.09,5.41,14.94,8.19c2.62,1.5,5.56,2.66,7.87,4.43c3.86,2.96,7.82,6.27,8.1,11.86c1.36,2.17,0.4,4.28,0.11,6.52
	c-0.31,2.38-1.33,4.21-2.56,6.1c-1.25,1.93-2.87,3.35-4.64,4.84c-2.64,2.21-5.77,2.66-8.74,3.42c-2.73,0.7-5.79-0.19-8.31-1.44
	c-5.41-2.7-10.81-5.42-15.9-8.75c-2.8-1.83-5.94-3.13-9.21-4.81c-0.08,0.75-0.4,1.51-0.17,2.02c0.82,1.86,1.03,3.84,1.51,5.77
	c0.92,3.74,1.6,7.54,2.61,11.27c0.81,3,1.44,6.14,1.05,9.33c-0.09,0.76-2.45,6.72-3.02,7.37c-2.55,2.95-5.4,5.69-9.17,6.8
	c-2.23,0.66-4.63,1.44-7.06,1.06c-2.07-0.32-4.15-0.71-6.05-1.66c-4.53-2.27-8.16-5.99-9.45-9.45c-0.53-1.42-1.18-2.78-1.29-4.35
	c-0.11-1.52-0.16-3.26-0.93-4.45c-0.99-1.54-0.18-3.25-1.16-4.82c-0.81-1.3-0.45-3.27-0.9-4.86c-1-3.51-1.48-7.13-2.42-10.63
	c-0.72-2.71-1.32-5.45-1.95-8.16c-0.95-4.11-1.8-8.26-2.74-12.38c-0.47-2.08-0.83-4.18-1.27-6.41c-4.49-2.99-9.76-5.05-14.28-8.38
	c-0.09-0.07-0.2-0.12-0.3-0.18c-2.93-1.71-4.8-1.69-7.64,0.28c-3.55,2.48-7.52,4.21-11.21,6.45c-3.28,2-6.85,3.48-10.01,5.71
	c-1.03,0.73-2.19,1.42-3.39,1.75c-1.54,0.42-1.78,1.34-1.77,2.69C216.02,263.39,216,269.14,216,275.01z"/>
<path fill="currentColor" d="M185.89,89.96c0,68.25,0,136.08,0,204.12c-3.12-0.4-6.19,0.62-9.12-0.81c-0.3-0.15-0.74-0.01-1.11-0.02
	c-1.48-0.05-3.14,0.3-4.38-0.26c-1.49-0.68-3.28,0.2-4.21-0.59c-1.27-1.09-3.08,0.14-3.97-1.39c-4.87-0.28-9.36-2.18-13.76-3.89
	c-4.38-1.7-8.89-3.35-12.84-6.15c-2.46-1.75-5.3-2.97-7.74-4.81c-2.46-1.85-5.11-3.44-7.51-5.35c-2.48-1.98-5.02-3.99-7.08-6.38
	c-3.46-4.01-7.09-7.87-10.23-12.2c-3.54-4.88-6.71-9.92-9.36-15.28c-2.98-6.02-5.57-12.22-6.89-18.9c-0.35-1.79-1.29-3.53-1.37-5.4
	c-0.08-1.81-0.66-3.54-0.96-5.28c-0.37-2.17-0.12-4.41-0.67-6.44c-1.03-3.78-0.5-7.56-0.64-11.34c-0.08-2.17-0.01-4.3,0.65-6.46
	c0.59-1.91-0.2-4.01,0.71-6.09c0.62-1.42,0.51-3.26,0.75-4.9c0.65-4.44,2.05-8.66,3.34-12.9c1.44-4.75,3.38-9.37,5.82-13.7
	c2.58-4.59,5.16-9.19,8.36-13.44c2.26-3.01,4.55-5.95,7.21-8.62c1.45-1.46,2.49-3.35,4.03-4.67c5.46-4.67,10.75-9.65,17.02-13.22
	c4.21-2.4,8.38-4.86,12.94-6.75c4.83-2,9.78-3.56,14.66-5.35c0.99-0.36,1.87-0.3,2.79-0.5c0.91-0.2,1.78-0.53,2.69-0.73
	c3.75-0.81,7.56-1.18,11.35-1.67C179.5,90.17,182.6,90.17,185.89,89.96z M174,122.07c0.1-3.71-3.48-6.68-7-5.73
	c-2.33,0.63-4.67,1.32-6.97,2.13c-2.41,0.85-4.7,1.92-7,3c-8.04,3.79-15.25,8.73-21.48,15.1c-2.31,2.37-4.6,4.72-6.68,7.33
	c-2.67,3.34-5.07,6.84-7.08,10.58c-2.96,5.52-5.67,11.17-6.78,17.42c-1.53,1.7-0.48,3.31,0.2,4.91c0.8,1.85,2.59,2.62,4.25,3.11
	c2.84,0.84,5.77-1.23,6.79-4.47c0.84-2.66,1.33-5.46,2.46-7.97c3.62-7.99,8.11-15.49,14.3-21.78c2.52-2.57,5.58-4.6,8.33-6.94
	c4.43-3.77,9.8-5.81,14.95-8.24c2.31-1.09,4.8-1.69,7.28-2.33C172.5,127.44,174.04,125.03,174,122.07z"/>
<path fill="currentColor" d="M63.4,166.79c-0.73-1.4-1.23-2.58-1.91-3.64c-4.04-6.33-8.58-12.33-12.2-18.94c-1.01-1.85-2.55-3.43-3.5-5.31
	c-2.41-4.77,0.38-8,4.48-9.04c3.4-0.86,6.88-1.69,10.31-2.18c4.36-0.63,8.53-2,12.9-2.56c2.39-0.31,4.84-0.89,7.47-1.6
	c-0.07-1-0.04-1.96-0.61-3.22c-2.72-5.99-5.22-12.09-7.55-18.24c-1.47-3.89-3.09-7.75-4.73-11.54c-1.65-3.8-2.89-7.8-4.99-11.45
	c-1.36-2.35-2.04-5.11-1.53-7.78c1.2-1.2,2.34-2.33,3.79-3.78c2.64-0.38,5.42,0.71,8.35,1.92c5.97,2.47,11.89,5.12,17.92,7.42
	c7.34,2.8,14.37,6.38,21.91,8.67c1.3,0.39,2.48,1.17,4.03,1.92c0.38-3.36,1.34-6.13,1.81-9.06c0.42-2.62,1.17-5.25,1.74-7.87
	c0.65-2.98,1.27-5.97,1.89-8.96c0.36-1.73,0.73-3.46,1.02-5.2c0.39-2.36,2.23-3.65,3.7-5.19c3.36-0.9,6.05,0.59,8.67,2.35
	c6.84,4.6,13.67,9.22,20.55,13.76c1.14,0.76,2.5,1.2,3.82,1.82c2.33-4.06,3.84-8.44,5.63-12.65c1.48-3.49,2.98-7.01,4.23-10.62
	c1.48-4.25,3.43-8.33,5.12-12.5c1.38-3.41,2.78-6.85,4.28-10.22c1.1-2.46,2.75-4.44,5.82-5.18c0.06,0.75,0.15,1.44,0.15,2.12
	c0.01,5.25-0.2,10.51,0.08,15.74c0.18,3.26-0.68,6.16-1.82,9.03c-1.36,3.43-3.01,6.74-4.29,10.22c-1.4,3.79-2.99,7.54-4.64,11.19
	c-1.71,3.78-2.73,7.89-5.04,11.42c-0.49,0.74-0.36,1.88-0.83,2.64c-0.64,1.04-0.91,2.21-2.2,3.04c-2.92,1.88-5.56,1.16-8.07-0.35
	c-3.23-1.94-6.24-4.24-9.4-6.3c-2.54-1.66-5.21-3.13-7.75-4.8c-2.46-1.63-4.83-3.4-7.55-5.34c-0.62,2.29-1.26,4.32-1.72,6.4
	c-0.81,3.67-1.41,7.4-2.3,11.06c-1.04,4.33-1.74,8.72-2.87,13.04c-0.76,2.89-2.62,4.14-4.99,4.88c-1.48,0.47-2.9-0.66-4.3-1.23
	c-6.09-2.49-12.34-4.61-18.19-7.69c-2.42,0.23-3.97-1.83-6.17-2.33c-2.11-0.48-4.07-1.6-6.1-2.45c-2.77-1.16-5.54-2.32-8.32-3.46
	c-0.16-0.06-0.43,0.14-0.89,0.3c0.79,1.77,1.55,3.54,2.36,5.3c1.59,3.46,2.85,7.07,4.38,10.56c1.47,3.36,2.52,7.02,4.05,10.31
	c1.75,3.77,2.76,7.88,5.04,11.43c0.73,1.14,1.15,2.53,1.51,3.86c0.52,1.91-0.97,5.27-2.8,6.18c-1.33,0.67-2.78,1.22-4.24,1.5
	c-3.34,0.63-6.66,1.56-9.96,2.1c-4.21,0.69-8.28,2.01-12.53,2.52c-1.51,0.18-2.99,0.72-4.57,0.72c-0.35,0-0.71,0.66-1.04,0.98
	c1.98,2.8,4.28,5.42,5.84,8.43c2.18,4.2,5.13,7.85,7.56,11.86c1.33,2.19,2.63,4.39,3.89,6.63c1.24,2.22,0.36,3.62-0.68,5.21
	c-1.17,1.79-3.12,2.84-4.96,3.34c-2.51,0.68-4.65,2.08-7.09,2.87c-4.27,1.39-8.44,3.23-12.5,5.09c-5.26,2.41-10.81,4.12-15.96,6.74
	c-0.79,0.4-2.22,0.64-2.31,1.14c-0.35,1.89,2.04,0.12,2.32,1.47c4.06,1.67,8.23,3.13,12.21,4.91c3.91,1.74,7.92,3.21,11.81,5.01
	c3.04,1.4,6.22,2.47,9.3,3.8c2.47,1.06,5.07,1.93,6.95,4.04c1.79,2.02,1.96,3.31,0.81,5.8c-1.73,3.75-4.32,6.96-6.48,10.43
	c-2.98,4.79-6.17,9.45-9.28,14.16c-0.45,0.68-0.94,1.33-1.45,2.06c0.47,0.32,0.93,0.89,1.46,0.95c3.52,0.4,6.91,1.6,10.34,2.12
	c4.23,0.64,8.31,1.88,12.52,2.57c1.75,0.28,3.65,0.54,5.45,1.22c2.09,0.79,3.7,1.47,4.9,3.58c1.34,2.35,0.31,4.39-0.53,6.09
	c-1.94,3.96-3.32,8.13-5.12,12.14c-1.37,3.04-2.29,6.37-3.72,9.32c-1.82,3.76-2.85,7.84-5.03,11.44c-1.1,1.82-1.57,4.02-2.51,6.53
	c1.58-0.53,2.79-0.83,3.91-1.31c5.31-2.27,10.53-4.78,15.93-6.81c3.46-1.3,6.88-2.72,10.27-4.17c3.4-1.45,6.9-2.61,10.22-4.3
	c3.65-1.86,7.32-0.17,8.61,3.38c0.28,0.76,0.59,1.52,0.74,2.32c0.54,2.91,0.77,5.9,1.59,8.73c0.79,2.7,1.36,5.45,1.91,8.18
	c0.53,2.65,1.16,5.28,1.76,7.91c0.29,1.25,0.5,2.51,0.8,4.01c3.96-2.59,7.67-4.99,11.35-7.43c4.61-3.06,9.17-6.19,13.83-9.19
	c1.14-0.73,2.54-1.13,3.86-1.51c1.36-0.38,4.7,1.58,5.39,3.22c1.51,3.62,3.44,7.07,4.53,10.87c0.58,2,2.32,3.55,2.29,5.8
	c2.74,5.1,4.47,10.65,6.9,15.89c1.21,2.62,1.93,5.45,3.42,7.96c0.22,0.38,0.13,0.95,0.13,1.44c0.01,7.1,0,14.21,0,21.63
	c-2.56-0.57-4.22-1.87-5.24-4.01c-0.79-1.67-1.52-3.37-2.26-5.06c-2.77-6.35-5.4-12.77-8.08-19.15c-1.74-4.14-3.57-8.28-5.11-12.5
	c-1.27-3.48-3.02-6.75-4.29-10.64c-2.17,1.16-4.37,1.98-6.15,3.35c-6.56,5.04-13.98,8.77-20.56,13.76
	c-1.95,1.48-4.13,1.08-6.79,1.19c-0.07-0.12-0.24-0.66-0.61-0.95c-2.21-1.8-2.76-4.21-3.3-6.92c-0.54-2.71-0.76-5.54-1.91-8.18
	c-0.69-1.58-0.61-3.48-0.97-5.22c-0.62-2.98-1.25-5.96-2-8.91c-0.49-1.93-0.75-3.91-1.09-5.77c-2.31-0.48-3.57,1.81-5.59,1.5
	c-4.71,2.48-9.72,4.34-14.65,6.26c-4.84,1.88-9.39,4.55-14.53,5.67c-2.88,2.04-6.35,2.78-9.49,4.25c-2.74,1.28-5.54,2.16-8.61,1.65
	c-1.06-1.06-2.12-2.12-3.18-3.18c-0.44-3.32,0.81-6.15,2.02-9.21c2.04-5.15,4.37-10.19,6.26-15.41c1.17-3.22,2.74-6.36,3.99-9.59
	c1.63-4.2,3.86-8.15,5.06-12.53c0.24-0.87,0.81-1.67,1.33-2.44c0.72-1.07,0.86-2.21,0.7-3.44c-4.56-1.45-9.51-1.39-13.97-3.35
	c-4.46,0.07-8.52-2.12-12.94-2.25c-1.57-1.3-3.65-0.51-5.41-1.44c-3.83-2.02-4.56-5.49-2.87-8.47c1.96-3.45,4.05-6.85,6.21-10.17
	c3.47-5.33,7.06-10.57,10.57-15.88c0.3-0.46,0.53-1.19,0.38-1.66c-0.13-0.39-0.82-0.69-1.32-0.87c-6.19-2.24-12.01-5.44-18.37-7.25
	c-3.45-2.44-7.58-3.46-11.38-5.07c-5.09-2.16-10.1-4.59-15.43-6.2c-2.91-0.88-4.46-3.19-4.42-6.16c0.04-2.72,1.62-5,4.42-5.78
	c4.03-1.13,7.66-3.23,11.61-4.58c3.82-1.31,7.41-3.2,11.23-4.58c3.12-1.13,6.17-2.58,9.26-3.87C53.31,171,58.08,168.94,63.4,166.79z
	"/>
<path fill="currentColor" d="M227.89,209.61c-9.99,5.74-19.75,11.34-29.7,17.05c0-23.19,0-46.17,0-69.33c9.98,5.73,19.75,11.34,29.7,17.06
	C227.89,185.97,227.89,197.8,227.89,209.61z"/>
</svg>
