<svg version="1.1" id="layer" xmlns="http://www.w3.org/2000/svg" xmlns:xlink="http://www.w3.org/1999/xlink" x="0px" y="0px"
	 viewBox="0 0 384 384" enable-background="new 0 0 384 384" xml:space="preserve">
<path fill="currentColor" d="M12.12,146.99c15.96,0,31.8,0,47.76,0c0-7.71,0-15.3,0-23.24c1.02,0.29,1.38,1.35,1.99,1.42c1.04,0.11,1.36,0.99,2.07,1.38
	c5.95,3.34,11.4,7.46,17.17,11.06c5.09,3.18,9.94,6.71,15.05,9.81c5.14,3.11,9.89,6.82,15.07,9.78c6.12,3.49,11.6,7.93,17.78,11.3
	c3.91,2.13,7.41,4.99,11.22,7.33c6.19,3.81,11.89,8.36,18.37,11.74c2.06,1.07,3.82,2.74,5.65,4.09c-0.11,1.36-1.13,1.44-1.93,1.97
	c-6.22,4.05-12.19,8.5-18.54,12.32c-5.04,3.03-9.72,6.6-14.78,9.56c-6.69,3.92-12.86,8.6-19.54,12.52
	c-3.34,1.96-6.45,4.31-9.76,6.33c-6.2,3.78-11.96,8.24-18.36,11.75c-4.11,2.26-7.83,5.25-11.75,7.87c-2.44,1.63-4.93,3.17-7.39,4.77
	c-0.67,0.44-1.31,0.93-2.1,1.49c0-7.68,0-15.26,0-22.7c-0.22-0.24-0.29-0.35-0.39-0.41c-0.09-0.06-0.21-0.12-0.32-0.12
	C43.7,237,27.97,237,12.12,237C12.12,207.05,12.12,177.22,12.12,146.99z"/>
<path fill="currentColor" d="M323.99,236.87c0,7.97,0,15.56,0,23.51c-7.23-4.85-14.06-9.77-21.24-14.12c-5.03-3.05-9.75-6.55-14.77-9.58
	c-8.14-4.91-15.95-10.33-23.95-15.44c-6.93-4.43-13.66-9.17-20.69-13.43c-6.01-3.65-11.55-8.03-17.77-11.35
	c-2.14-1.14-4.01-2.79-6.34-4.44c2.22-1.61,3.96-3.29,6.02-4.3c4.99-2.44,9.18-6.08,13.95-8.83c6.3-3.63,11.98-8.2,18.38-11.71
	c4.12-2.26,7.74-5.39,11.76-7.84c6.21-3.78,11.95-8.26,18.35-11.77c4.11-2.26,7.73-5.41,11.77-7.83c6.13-3.68,11.7-8.21,18.08-11.53
	c2.19-1.14,4.08-2.88,6.36-4.53c0.2,3.9,0.07,7.7,0.09,11.5c0.02,3.86,0.01,7.72,0.01,11.71c15.94,0,31.77,0,47.58,0
	c0.62,3.42,0.85,76.2,0.3,90C356.05,236.87,340.22,236.87,323.99,236.87z"/>
<path fill="currentColor" d="M180.81,236.87c0-29.96,0-59.79,0-89.74c7.39,0,14.73,0,22.25,0c0,29.79,0,59.7,0,89.74
	C195.8,236.87,188.46,236.87,180.81,236.87z"/>
</svg>
