<svg version="1.1" id="Layer" xmlns="http://www.w3.org/2000/svg" xmlns:xlink="http://www.w3.org/1999/xlink" x="0px" y="0px"
	 viewBox="0 0 384 384" enable-background="new 0 0 384 384" xml:space="preserve">
<path fill="currentColor" d="M179.94,276.43c0-21.21,0-42.19,0-63.48c-3.5,1.89-6.8,3.67-9.95,5.83c-2.37,1.63-5.17,2.61-7.67,4.06
	c-3.94,2.29-7.75,4.81-11.68,7.12c-3.31,1.94-6.72,3.69-10.05,5.6c-5.16,2.95-10.28,5.96-15.42,8.94c-0.1,0.06-0.23,0.04-0.35,0.07
	c-0.85,3.52-1.47,7.12-2.64,10.54c-0.88,2.55-1.43,5.17-2.08,7.74c-0.83,3.28-1.91,6.5-2.54,9.86c-0.69,3.64-1.94,7.19-2.92,10.78
	c-0.82,3.01-1.62,6.06-2.53,9.06c-0.6,2-1.25,4-1.77,6.01c-1.12,4.37-4.62,6.14-7.96,8.2c-4.13,0.09-8.12,0.22-11.49-3.12
	c-3.14-3.11-4.22-6.67-3.83-10.8c0.19-1.95,1.02-3.86,1.59-5.71c1.27-4.1,2.32-8.28,3.49-12.4c1.11-3.92,2.19-7.87,3.12-11.85
	c0.06-0.24,0.01-0.5,0.01-1.03c-2.59,1.4-5.17,2.55-7.48,4.12c-2.34,1.58-4.97,2.6-7.27,4.2c-4.23,2.95-8.9,5.14-13.28,7.83
	c-2.21,1.35-4.47,2.89-7.12,3.6c-4,1.06-7.56,0.36-10.67-2.31c-1.1-0.94-1.99-2.14-2.92-3.28c-1.95-2.38-1.81-5.29-1.41-7.98
	c0.36-2.41,1.33-4.76,3.43-6.45c1.3-1.05,2.33-2.37,4.09-2.83c2.05-0.54,3.49-2.23,5.47-3.08c2.45-1.05,4.42-3.18,6.84-4.32
	c4.22-2,8.12-4.54,12.17-6.82c2.03-1.14,4.04-2.29,6.18-3.5c-0.57-0.32-1.13-0.82-1.77-0.97c-3.52-0.81-7.05-1.54-10.47-2.79
	c-2.29-0.84-4.79-1.08-7.15-1.75c-4.24-1.21-8.56-2.14-12.72-3.67c-3.39-1.24-4.94-3.86-6.14-6.86c-1.31-3.27-1.13-6.56,0.76-9.54
	c2.28-3.58,5.22-6.1,9.88-6.22c3.57-0.09,6.87,0.99,10.13,1.9c3.12,0.87,6.28,1.66,9.39,2.61c4.22,1.29,8.57,2.14,12.77,3.58
	c2.31,0.8,4.79,1.11,7.16,1.74c4.05,1.07,8.08,2.22,12.11,3.34c1.34,0.37,2.67,0.84,4.03,1.13c2.18,0.47,3.94-0.81,5.61-1.8
	c4.2-2.51,8.49-4.89,12.67-7.43c5.59-3.39,11.48-6.27,16.9-9.96c1.8-1.22,3.87-2.11,5.77-3.24c4.98-2.98,10.09-5.75,15.52-8.81
	c-1.45-1.05-2.47-1.99-3.89-2.59c-2.35-0.99-4.36-2.63-6.7-3.74c-2.42-1.15-4.42-3.18-6.83-4.34c-4.21-2.02-8.19-4.42-12.16-6.84
	c-5.39-3.27-11.13-5.94-16.27-9.65c-1.86-1.34-4.18-2.02-6.12-3.27c-2.07-1.34-3.92-1.62-6.31-0.64c-2.67,1.1-5.59,1.6-8.41,2.33
	c-3.96,1.02-7.96,1.86-11.87,3.05c-2.8,0.85-5.65,1.43-8.45,2.24c-3.13,0.92-6.28,1.76-9.43,2.56c-1.35,0.34-2.67,0.8-4.03,1.14
	c-1.26,0.32-2.42,1.14-3.81,0.76c-0.89,1.53-2.98-0.03-3.88,1.5c-5.59,1.19-11.69-1.69-14.07-6.63c-2.02-4.21-1.35-10.06,1.78-13.21
	c2.18-2.21,4.98-3.44,8.01-4.17c4.31-1.04,8.6-2.17,12.89-3.28c4.52-1.16,8.92-2.8,13.56-3.49c0.53-0.08,1-0.62,1.52-0.97
	c-4.89-2.82-9.83-5.36-14.44-8.49c-1.9-1.3-4.11-2.13-6.14-3.26c-3.96-2.21-8.04-4.27-11.8-6.79c-5.67-3.8-7.85-9.79-4.32-16.62
	c2.58-4.99,10.1-7.38,15.09-5c1.43,0.68,2.8,1.66,4.22,2.48c3.85,2.21,7.59,4.6,11.42,6.85c2.1,1.23,4.32,2.27,6.43,3.47
	c3.75,2.14,7.47,4.34,11.32,6.58c0.78-1.78-0.48-3.39-0.83-5c-0.76-3.52-1.78-7-2.81-10.45c-0.93-3.12-1.95-6.24-2.56-9.41
	c-0.54-2.78-1.98-5.29-1.9-8.26c0.17-5.93,3.77-9.99,8.62-11.55c3.6-1.16,7.54-0.58,10.89,2.19c3.19,2.64,4.2,6.24,5.26,9.86
	c1.01,3.46,1.64,7.01,2.81,10.46c0.74,2.17,1.13,4.53,1.72,6.79c1.03,3.95,1.79,7.99,3.09,11.85c0.86,2.55,1.32,5.18,2.13,7.73
	c1.06,3.33,1.82,6.75,2.72,10.13c0.03,0.1,0.26,0.19,0.24,0.27c-0.37,2.58,1.64,3.19,3.32,4.21c4.49,2.74,9.07,5.34,13.6,7.98
	c3.91,2.28,7.82,4.6,11.77,6.82c4.37,2.46,8.68,5.09,13.05,7.48c4.55,2.49,8.71,5.69,13.72,7.57c0-21.11,0-42.19,0-63.36
	c-12.83-12.83-25.75-25.72-38.63-38.65c-2.61-2.62-4.39-5.88-3.9-9.57c0.47-3.59,1.88-6.81,5.27-9.15c3.68-2.53,7.3-2.57,11.19-1.36
	c1.34,0.42,2.48,1.32,3.52,2.38c7.38,7.47,14.83,14.87,22.49,22.54c0.06-1.15,0.16-2.08,0.16-3.01c0.01-11.62-0.08-23.25,0.05-34.87
	c0.05-4.59,1.91-8.21,6.33-10.39c4.5-2.22,8.68-1.97,12.72,0.81c3.11,2.14,4.9,5.75,4.9,9.52c0.01,12.49,0,24.97,0,37.44
	c0.76,0.49,0.83-0.3,1.15-0.51c0.41-0.27,0.72-0.69,1.07-1.04c6.81-6.81,13.64-13.58,20.41-20.43c5.31-5.37,14.86-4,18.47,3.05
	c0.83,1.63,1.7,3.38,1.64,5.31c-0.12,3.57-1.41,6.69-3.94,9.23c-12.89,12.92-25.8,25.81-38.7,38.71c0,21.1,0,42.19,0,63.47
	c5.22-2.87,10.33-5.54,15.14-8.78c2.39-1.61,5.18-2.59,7.68-4.05c3.94-2.29,7.75-4.81,11.69-7.11c1.91-1.11,3.86-2.19,5.79-3.23
	c4.11-2.19,8.05-4.66,12.15-6.85c0.92-0.49,1.75-1.16,2.68-1.79c0.87-3.47,1.72-7.11,2.7-10.72c0.88-3.25,1.99-6.44,2.8-9.71
	c0.85-3.39,1.59-6.8,2.71-10.13c0.78-2.32,1.22-4.75,1.82-7.13c0.82-3.29,1.6-6.58,2.48-9.85c0.6-2.24,1.42-4.42,2-6.66
	c0.7-2.67,2.71-4.38,4.68-5.88c1.62-1.23,3.61-2,5.95-1.96c2.87,0.04,5.5,0.44,7.7,2.31c2.12,1.8,3.95,3.8,4.58,6.73
	c0.44,2.07,0.58,4.03,0,6.06c-0.89,3.13-1.77,6.27-2.63,9.41c-0.91,3.37-1.78,6.76-2.68,10.14c-0.89,3.37-1.8,6.73-2.82,10.56
	c2.89-1.59,5.37-2.93,7.83-4.32c2.33-1.32,4.67-2.64,6.95-4.05c4.47-2.76,9.23-5.05,13.5-8.14c2.62-0.39,4.34-2.56,6.9-3.28
	c4.01-1.13,8.03-0.6,11.27,2.46c4.16,3.93,5,8.52,3.28,13.77c-0.21,0.65-0.6,1.26-1,1.83c-1.94,2.76-4.87,4.42-7.64,6.02
	c-4.83,2.8-9.63,5.68-14.57,8.28c-4.22,2.22-7.99,5.24-12.49,6.94c-0.43,0.16-0.75,0.61-1.43,1.18c1.6,0.65,2.84,1.33,4.17,1.67
	c2.39,0.62,4.92,0.77,7.22,1.61c2.18,0.79,4.44,1.48,6.64,2.03c4.08,1.02,8.21,1.93,12.19,3.23c5.73,1.87,8.25,5.89,8.37,11.74
	c0.1,4.7-4.03,10.15-8.5,11.24c-2.2,0.53-4.73,0.41-6.97-0.07c-4.55-0.98-9.08-2.22-13.5-3.62c-4.88-1.55-9.95-2.32-14.76-4.15
	c-2.12-0.81-4.53-1.12-6.79-1.72c-3.38-0.9-6.79-1.68-10.15-2.66c-1.89-0.55-3.8-0.91-5.67-1.71c-2.19-0.94-4.41,0.52-6.28,1.73
	c-4.12,2.67-8.43,4.99-12.68,7.41c-3.85,2.2-7.47,4.87-11.45,6.79c-4,1.94-7.59,4.51-11.53,6.52c-5.05,2.58-9.82,5.73-14.94,8.78
	c1.02,0.82,1.82,1.66,2.79,2.21c2.42,1.38,4.95,2.55,7.36,3.93c3.95,2.27,7.82,4.66,11.75,6.95c2.11,1.23,4.37,2.22,6.39,3.56
	c4.39,2.91,9.07,5.33,13.59,8c3.39,2,6.84,3.97,10.25,5.97c1.53,0.89,3.19,1.44,4.8,0.9c2.87-0.95,5.76-1.81,8.67-2.59
	c4.29-1.13,8.6-2.15,12.87-3.34c3.14-0.88,6.28-1.77,9.45-2.54c4.53-1.1,8.95-2.63,13.56-3.49c1.92-0.36,3.79-1.1,5.72-1.59
	c7.51-1.94,10.3,0.44,14.37,4.81c1.5,3.66,2.26,7.19,0.61,11.21c-1.87,4.53-5.52,6.16-9.65,7.36c-3.36,0.97-6.79,1.71-10.18,2.59
	c-4.4,1.15-8.72,2.58-13.2,3.47c-1.45,0.29-2.81,1.01-4.62,1.69c2.24,1.35,4.01,2.48,5.84,3.52c4.45,2.53,8.97,4.92,13.37,7.53
	c4.31,2.56,8.73,4.93,12.96,7.59c2.35,1.47,4.74,3.44,5.43,6.6c0.94,4.33,0.56,8.34-2.66,11.69c-0.92,0.96-1.92,1.91-3.06,2.57
	c-4.02,2.35-7.98,2.08-12.04-0.45c-1.96-1.22-4.09-2.18-6.14-3.27c-5.85-3.12-11.23-7.08-17.34-9.75c-2.35-2.4-5.84-2.97-8.77-5.71
	c0.46,2.25,0.57,4.02,1.2,5.57c1.24,3.05,1.72,6.28,2.62,9.4c1,3.46,2.23,6.91,2.8,10.45c0.45,2.81,2.02,5.3,1.84,8.29
	c-0.14,2.33-0.68,4.55-1.92,6.33c-1.65,2.38-3.91,4.71-6.75,5.22c-3.91,0.71-7.82,0.44-11.21-2.61c-2.98-2.68-3.91-6.15-4.9-9.64
	c-0.95-3.36-1.58-6.81-2.7-10.14c-0.74-2.2-1.23-4.5-1.77-6.76c-0.96-3.98-2.06-7.91-3.15-11.84c-0.75-2.69-1.33-5.42-2.15-8.1
	c-1.03-3.34-1.87-6.73-2.75-10.11c-0.21-0.81-0.26-1.66-0.42-2.74c-1.97-1-4.25-1.94-6.29-3.25c-4.52-2.91-9.27-5.41-13.85-8.2
	c-5.29-3.22-10.88-5.91-15.98-9.48c-2.45-1.72-5.33-2.82-7.95-4.31c-3.14-1.79-6.22-3.71-9.33-5.54c-0.49-0.29-1.06-0.45-1.69-0.71
	c0.06-0.04-0.04,0-0.11,0.07c-0.07,0.08-0.16,0.2-0.16,0.3C204,234.4,204,255.27,204,276.38c1.19,1.19,2.5,2.5,3.82,3.81
	c11.67,11.67,23.34,23.32,34.99,35.01c2.53,2.53,4.22,5.69,3.83,9.23c-0.41,3.72-1.82,7.01-5.35,9.45
	c-3.85,2.66-7.56,2.5-11.52,1.19c-1.18-0.39-2.22-1.42-3.14-2.34c-7.44-7.38-14.84-14.81-22.63-22.6c0,1.36,0,2.31,0,3.27
	c0,11.37-0.12,22.75,0.04,34.12c0.11,8.02-6.7,13.75-14.21,12.39c-5.76-1.04-9.67-5.4-9.77-11.14c-0.2-11.62-0.06-23.25-0.06-34.87
	c0-1.1,0-2.19,0-3.77c-2.54,2.54-4.71,4.71-6.88,6.88c-5.41,5.41-10.76,10.87-16.24,16.2c-3.46,3.36-9.52,3.55-13.55,1.16
	c-3.41-2.03-4.75-5.13-5.94-8.42c-0.75-2.1,0.02-4.29,0.86-6.28c0.79-1.86,1.91-3.51,3.39-4.98
	C154.42,301.99,167.13,289.25,179.94,276.43z"/>
</svg>
