<?xml version="1.0" encoding="utf-8"?>
<!-- Generator: Adobe Illustrator 26.1.0, SVG Export Plug-In . SVG Version: 6.00 Build 0)  -->
<svg version="1.1" id="Слой_1" xmlns="http://www.w3.org/2000/svg" xmlns:xlink="http://www.w3.org/1999/xlink" x="0px" y="0px"
	 viewBox="0 0 96 96" enable-background="new 0 0 96 96" xml:space="preserve">
<rect x="5.38" y="4.82" width="85.24" height="3.71"/>
<path d="M16.32,51.15c-3.65,0-7.29,0-10.94,0V11.62H48c-0.61,4.63-3.05,18.56-14.91,29.56C26.99,46.83,20.59,49.68,16.32,51.15z"/>
<path d="M29.91,89.88c-8.18,0-16.35,0-24.53,0V54.24c3.71,0,7.41,0,11.12,0c3.06,3.57,7.48,9.63,10.41,18.18
	C29.31,79.4,29.87,85.59,29.91,89.88z"/>
<path d="M79.68,51.15c3.65,0,7.29,0,10.94,0V11.62H48c0.61,4.63,3.05,18.56,14.91,29.56C69.01,46.83,75.41,49.68,79.68,51.15z"/>
<path d="M66.09,89.88c8.18,0,16.35,0,24.53,0V54.24c-3.71,0-7.41,0-11.12,0c-3.06,3.57-7.48,9.63-10.41,18.18
	C66.69,79.4,66.13,85.59,66.09,89.88z"/>
</svg>
