<svg version="1.1" id="layer" xmlns="http://www.w3.org/2000/svg" xmlns:xlink="http://www.w3.org/1999/xlink" x="0px" y="0px"
	 viewBox="0 0 384 384" enable-background="new 0 0 384 384" xml:space="preserve">
<path fill="currentColor" d="M300.4,202.25c-3.39-2.32-5.96-5.47-9.38-7.61c-0.21-0.13-0.35-0.35-0.53-0.52c-4.31-4.07-8.69-8.07-12.92-12.22
	c-2.18-2.14-4.04-4.59-6.14-6.81c-2.14-2.27-4.5-4.34-6.59-6.66c-2.92-3.24-5.88-6.48-8.46-10c-4.23-5.75-8.81-11.22-12.91-17.09
	c-3.59-5.14-7.15-10.33-10.6-15.55c-2.34-3.55-4.54-7.29-6.48-11.15c-1.19-2.37-2.65-4.63-3.74-7.08c-1.04-2.34-2.78-4.28-3.73-6.7
	c-1.82-4.62-4.16-9.02-6.18-13.56c-1.97-4.43-3.85-8.93-5.55-13.44c-1.09-2.9-2.54-5.75-3.15-8.82c-0.61-3.11-1.94-5.96-2.8-8.97
	c-1.22-4.26-2.17-8.6-3.24-12.91c-0.94-3.78-1.44-7.66-2.38-11.41c-0.83-3.31-1.5-6.7-1.92-10c-0.4-3.09-1.26-6.21-0.96-9.41
	c-0.74-0.5-1.37-0.69-1.48,0.51c-0.26,2.77-0.15,5.63-0.83,8.29c-1.18,4.56-0.86,9.42-2.92,13.77c0.05,2.89-0.83,5.62-1.51,8.37
	c-0.83,3.39-1.7,6.77-2.68,10.13c-1.33,4.57-2.66,9.15-4.1,13.69c-1.15,3.63-2.65,7.15-3.92,10.74c-0.65,1.85-1.63,3.56-2.1,5.51
	c-0.45,1.9-2.13,3.3-2.27,5.45c-0.06,0.95-0.96,1.82-1.42,2.76c-2.02,4.16-3.87,8.41-6.05,12.49c-1.86,3.49-3.73,6.98-5.82,10.36
	c-1.83,2.96-3.67,5.97-5.28,9.05c-2.14,4.08-4.89,7.72-7.36,11.55c-3.46,5.37-7.27,10.53-11.1,15.65c-2.39,3.19-5.16,6.1-7.64,9.22
	c-4.43,5.59-9.49,10.6-14.23,15.89c-2.96,3.31-5.88,6.68-9.18,9.6c-3.32,2.95-6.36,6.2-9.76,9.02c-3.17,2.63-6.23,5.39-9.69,8.09
	c-2.7,0-5.69,0.08-8.68-0.03c-1.65-0.06-3.29-0.55-4.94-0.69c-1.55-0.14-3.03-0.16-4.6-0.66c-2.13-0.69-4.51-0.57-6.77-0.88
	c-0.91-0.13-1.79-0.52-2.69-0.72c-0.92-0.19-1.83,0.16-2.8-0.57c-0.64-0.49-1.92-0.08-2.88-0.22c-0.91-0.14-1.79-0.53-2.69-0.72
	c-3.68-0.77-7.44-1.27-11.05-2.32c-4.47-1.3-8.98-2.43-13.43-3.77c-1.07-0.32-2.26-1.17-2.81-2.11c-0.73-1.27-1.16-2.85-1.25-4.32
	c-0.12-2.17-1.34-4.2-0.81-6.43c-1.65-1.62,0.12-4.13-1.5-5.75c0.57-2.6-0.82-5-0.8-7.56c0.01-1.52-0.49-3.04-0.69-4.56
	c-0.19-1.41,0.46-2.96-0.75-4.19c-0.06-0.06-0.03-0.24-0.01-0.37c0.57-3.46-0.77-6.76-0.83-10.19c-0.07-3.51-0.97-7-0.67-10.56
	c-1.37-2.28-0.51-4.79-0.75-7.19c-0.24-2.4-0.59-4.79-0.72-7.19c-0.12-2.37,0.46-4.88-0.14-7.09c-1-3.68-0.53-7.32-0.6-10.97
	c-0.1-4.78-1.12-9.49-0.85-14.31c0.28-4.86,0.61-9.82-0.06-14.6c-1.2-8.54-0.39-17.06-0.59-25.58c-0.2-8.62-0.08-17.25-0.01-25.87
	c0.01-1.52,0.56-3.03,0.69-4.57c0.12-1.49,0.05-3,0.02-4.5c-0.04-2.47-0.27-2.7-2.78-2.75c-0.75-0.01-1.52-0.11-2.25,0.02
	c-1.17,0.2-1.85-0.43-2.52-1.2C-0.21,7.32,0.82,4.3,4.33,2.93c1.55-0.6,3.03-0.68,4.59-0.68c121.6,0,243.2,0.01,364.8-0.05
	c3.3,0,6.03,0.58,8.29,3.63v2.84c-1.12,0.78-2.04,1.62-3.08,2.58c-0.65,0-1.52-0.03-2.39,0.01c-1.62,0.06-2.36,0.61-2.24,2.12
	c0.25,3.02-0.85,6.14,0.68,9.08c0.2,0.39,0.03,0.99,0.03,1.48c0,15.25,0,30.49,0,45.74c-1.52,8.61,0.01,17.34-0.9,25.92
	c-0.56,5.3,0.04,10.61-0.72,15.81c-0.61,4.18-0.07,8.37-0.76,12.43c-0.54,3.18-0.13,6.37-0.72,9.44c-0.58,3.04-0.14,6.15-0.81,9.05
	c-0.5,2.2-0.38,4.32-0.61,6.47c-0.17,1.53-0.47,3.05-0.74,4.56c-0.26,1.52,0.69,3.22-0.72,4.59c-0.19,0.18,0,0.73-0.03,1.1
	c-0.24,2.9-0.25,5.84-0.81,8.68c-0.65,3.28-0.75,6.66-1.55,9.86c-0.83,3.31-0.69,6.81-2.14,9.97c0.5,2.78-1.73,3.84-3.5,4.33
	c-4.71,1.3-9.36,2.83-14.15,3.92c-4.1,0.93-8.25,1.65-12.29,2.87c-2.04,0.61-4.36,0.26-6.4,0.88c-3.52,1.07-7.31,0.65-10.72,2.17
	c-0.21,0.09-0.49,0.01-0.74,0.01C311.29,201.71,305.96,203.29,300.4,202.25z"/>
<path fill="currentColor" d="M191.44,378.96c-8.92-2.95-16.31-3.63-21.56-3.66c-12.23-0.08-14.58,3.31-25.41,2.12c-10.22-1.12-11.37-4.5-20.55-4.28
	c-7.68,0.18-7.55,2.56-17.3,4.1c-10.81,1.7-12.82-0.93-28.45-0.03c-11.01,0.64-9.07,1.89-14.81,1.57c-14.42-0.8-23-8.48-28.3-4.18
	c-1.67,1.36-1.16,2.4-2.85,4.13c-4.64,4.77-14.33,2.91-22.47,0.24c0-123.1,0-246.21,0-369.31h181.7c-0.03,0.46-0.1,1.68-0.19,3.2
	c-6.18,105.3-1.11,166.94-4.59,250.25c-0.18,4.3-0.51,11.62-0.64,21.83c-0.45,33.8,1.69,60.55,3.43,77.12
	C190.2,369.27,190.94,375.16,191.44,378.96z"/>
<path fill="currentColor" d="M203.76,373.88c3.03,0.46,7.36,1.09,12.59,1.75c13.66,1.73,20.49,2.66,25.41,2.12c10.22-1.12,11.37-4.5,20.55-4.28
	c7.68,0.18,7.55,2.56,17.3,4.1c10.81,1.7,12.82-0.93,28.45-0.03c11.01,0.64,9.07,1.89,14.81,1.57c14.42-0.8,23-8.48,28.3-4.18
	c1.67,1.36,1.16,2.4,2.85,4.13c4.64,4.77,14.33,2.91,22.47,0.24c0-123.1,0-246.21,0-369.31h-181.7c0.42,27.1,1,62.14,1.8,103.06
	c2.72,140.45,3.25,109.99,3.65,156.37C200.77,332.49,199.67,373.56,203.76,373.88c3.16,0.25,8.17-23.88,7.76-24
	C211.33,349.82,209.4,355.54,203.76,373.88z"/>
</svg>
