<svg version="1.1" id="Слой_1" xmlns="http://www.w3.org/2000/svg" xmlns:xlink="http://www.w3.org/1999/xlink" x="0px" y="0px"
	 viewBox="0 0 384 384" enable-background="new 0 0 384 384" xml:space="preserve">
<g>
	<path fill="currentColor" d="M300.4,202.25c-3.39-2.32-5.96-5.47-9.38-7.61c-0.21-0.13-0.35-0.35-0.53-0.52c-4.31-4.07-8.69-8.07-12.92-12.22
		c-2.18-2.14-4.04-4.59-6.14-6.81c-2.14-2.27-4.5-4.34-6.59-6.66c-2.92-3.24-5.88-6.48-8.46-10c-4.23-5.75-8.81-11.22-12.91-17.09
		c-3.59-5.14-7.15-10.33-10.6-15.55c-2.34-3.55-4.54-7.29-6.48-11.15c-1.19-2.37-2.65-4.63-3.74-7.08c-1.04-2.34-2.78-4.28-3.73-6.7
		c-1.82-4.62-4.16-9.02-6.18-13.56c-1.97-4.43-3.85-8.93-5.55-13.44c-1.09-2.9-2.54-5.75-3.15-8.82c-0.61-3.11-1.94-5.96-2.8-8.97
		c-1.22-4.26-2.17-8.6-3.24-12.91c-0.94-3.78-1.44-7.66-2.38-11.41c-0.83-3.31-1.5-6.7-1.92-10c-0.4-3.09-1.26-6.21-0.96-9.41
		c-0.74-0.5-1.37-0.69-1.48,0.51c-0.26,2.77-0.15,5.63-0.83,8.29c-1.18,4.56-0.86,9.42-2.92,13.77c0.05,2.89-0.83,5.62-1.51,8.37
		c-0.83,3.39-1.7,6.77-2.68,10.13c-1.33,4.57-2.66,9.15-4.1,13.69c-1.15,3.63-2.65,7.15-3.92,10.74c-0.65,1.85-1.63,3.56-2.1,5.51
		c-0.45,1.9-2.13,3.3-2.27,5.45c-0.06,0.95-0.96,1.82-1.42,2.76c-2.02,4.16-3.87,8.41-6.05,12.49c-1.86,3.49-3.73,6.98-5.82,10.36
		c-1.83,2.96-3.67,5.97-5.28,9.05c-2.14,4.08-4.89,7.72-7.36,11.55c-3.46,5.37-7.27,10.53-11.1,15.65c-2.39,3.19-5.16,6.1-7.64,9.22
		c-4.43,5.59-9.49,10.6-14.23,15.89c-2.96,3.31-5.88,6.68-9.18,9.6c-3.32,2.95-6.36,6.2-9.76,9.02c-3.17,2.63-6.23,5.39-9.69,8.09
		c-2.7,0-5.69,0.08-8.68-0.03c-1.65-0.06-3.29-0.55-4.94-0.69c-1.55-0.14-3.03-0.16-4.6-0.66c-2.13-0.69-4.51-0.57-6.77-0.88
		c-0.91-0.13-1.79-0.52-2.69-0.72c-0.92-0.19-1.83,0.16-2.8-0.57c-0.64-0.49-1.92-0.08-2.88-0.22c-0.91-0.14-1.79-0.53-2.69-0.72
		c-3.68-0.77-7.44-1.27-11.05-2.32c-4.47-1.3-8.98-2.43-13.43-3.77c-1.07-0.32-2.26-1.17-2.81-2.11c-0.73-1.27-1.16-2.85-1.25-4.32
		c-0.12-2.17-1.34-4.2-0.81-6.43c-1.65-1.62,0.12-4.13-1.5-5.75c0.57-2.6-0.82-5-0.8-7.56c0.01-1.52-0.49-3.04-0.69-4.56
		c-0.19-1.41,0.46-2.96-0.75-4.19c-0.06-0.06-0.03-0.24-0.01-0.37c0.57-3.46-0.77-6.76-0.83-10.19c-0.07-3.51-0.97-7-0.67-10.56
		c-1.37-2.28-0.51-4.79-0.75-7.19c-0.24-2.4-0.59-4.79-0.72-7.19c-0.12-2.37,0.46-4.88-0.14-7.09c-1-3.68-0.53-7.32-0.6-10.97
		c-0.1-4.78-1.12-9.49-0.85-14.31c0.28-4.86,0.61-9.82-0.06-14.6c-1.2-8.54-0.39-17.06-0.59-25.58c-0.2-8.62-0.08-17.25-0.01-25.87
		c0.01-1.52,0.56-3.03,0.69-4.57c0.12-1.49,0.05-3,0.02-4.5c-0.04-2.47-0.27-2.7-2.78-2.75c-0.75-0.01-1.52-0.11-2.25,0.02
		c-1.17,0.2-1.85-0.43-2.52-1.2C-0.21,7.32,0.82,4.3,4.33,2.93c1.55-0.6,3.03-0.68,4.59-0.68c121.6,0,243.2,0.01,364.8-0.05
		c3.3,0,6.03,0.58,8.01,3.63c0,0.75,0,1.74,0,2.84c-0.85,0.78-1.77,1.62-2.81,2.58c-0.65,0-1.52-0.03-2.39,0.01
		c-1.62,0.06-2.36,0.61-2.24,2.12c0.25,3.02-0.85,6.14,0.68,9.08c0.2,0.39,0.03,0.99,0.03,1.48c0,15.25,0,30.49,0,45.74
		c-1.52,8.61,0.01,17.34-0.9,25.92c-0.56,5.3,0.04,10.61-0.72,15.81c-0.61,4.18-0.07,8.37-0.76,12.43
		c-0.54,3.18-0.13,6.37-0.72,9.44c-0.58,3.04-0.14,6.15-0.81,9.05c-0.5,2.2-0.38,4.32-0.61,6.47c-0.17,1.53-0.47,3.05-0.74,4.56
		c-0.26,1.52,0.69,3.22-0.72,4.59c-0.19,0.18,0,0.73-0.03,1.1c-0.24,2.9-0.25,5.84-0.81,8.68c-0.65,3.28-0.75,6.66-1.55,9.86
		c-0.83,3.31-0.69,6.81-2.14,9.97c0.5,2.78-1.73,3.84-3.5,4.33c-4.71,1.3-9.36,2.83-14.15,3.92c-4.1,0.93-8.25,1.65-12.29,2.87
		c-2.04,0.61-4.36,0.26-6.4,0.88c-3.52,1.07-7.31,0.65-10.72,2.17c-0.21,0.09-0.49,0.01-0.74,0.01
		C311.29,201.71,305.96,203.29,300.4,202.25z"/>
	<path fill="currentColor" d="M80.69,373.22c-1.71,2.39-3.62,3.74-5.79,4.42c-2.01,0.63-4.07,1.36-6.3,1.15c-1.73-0.16-3.5-0.12-5.25-0.02
		c-6.38,0.4-12.1-1.69-17.6-4.5c-2.43,0.85-4.35,2.79-7.04,3.01c-0.41,0.03-0.77,0.62-1.2,0.69c-1.76,0.31-3.53,0.63-5.31,0.75
		c-1.87,0.13-3.75,0.02-5.62,0.03c-1.81,0.01-3.54-0.6-5.29-0.89c-3.16-0.52-6.19-1.88-9.28-2.86c-1.09-0.34-1.47-1.01-1.55-2.15
		c-0.12-1.78-0.57-3.54-0.69-5.32c-0.13-1.87,0.3-3.82-0.09-5.61c-1.31-6.01-0.51-12.05-0.66-18.08C8.88,337.74,9,331.61,9,325.48
		c0-6.12-0.53-12.31,0.14-18.36c0.78-7.05-0.06-14.11,0.76-21.06c0.56-4.8-0.01-9.62,0.73-14.31c0.62-3.93,0.05-7.89,0.76-11.68
		c0.6-3.19,0.1-6.38,0.71-9.44c0.58-2.92,0.21-5.88,0.78-8.68c0.46-2.3,0.18-4.65,0.73-6.81c0.55-2.18,0.53-4.3,0.67-6.46
		c0.09-1.28,0.54-2.54,0.7-3.82c0.14-1.18,0-2.31,0.68-3.49c0.49-0.85,0-2.21,0.12-3.32c0.12-1.04,0.52-2.04,0.71-3.07
		c0.29-1.64,0.51-3.29,0.76-4.94c0.17-1.14-0.4-1.8-1.37-2.3c-1.04-0.53-1.98-1.26-3.03-1.73c-1.87-0.85-2.49-2.3-2.36-4.23
		c0.04-0.62,0.01-1.25,0.01-2c0.69-0.56,1.4-1.23,2.21-1.76c1.13-0.74,2.08-0.92,3.54-0.1c4.56,2.58,9.62,3.98,14.67,5.28
		c3.4,0.88,6.78,1.84,10.27,2.47c2.68,0.49,5.53,0.71,8.15,1.97c1.38,0.66,3.26,0.48,4.91,0.73c3.53,0.53,6.98,1.71,10.61,1.63
		c2.72,1.63,5.85,0.47,8.81,1.32c2.89,0.83,6.2,0.14,9.32,0.19c2.4,0.04,4.23,1.44,4.77,3.51c0.38,1.44-1.01,4.62-2.51,5.3
		c-0.72,0.33-1.66,0.2-2.48,0.28c-0.87,1.19,0.15,2.03,0.48,2.99c1.55,4.49,2.93,9.06,4.18,13.63c1.42,5.17,2.83,10.37,4.24,15.53
		c1.12,4.12,2.12,8.32,3.43,12.42c0.77,2.4,1.18,5.03,1.65,7.58c0.26,1.39,0.17,2.98,0.84,4.14c0.76,1.31,0.09,2.99,0.77,3.77
		c1.11,1.26-0.13,3.08,1.39,3.98c-0.31,1.73,0.4,3.31,0.75,4.94c0.51,2.42,1.21,4.81,1.44,7.26c0.24,2.5,0.69,4.89,1.46,7.28
		c0.5,1.55,0.16,3.25,0.73,4.94c0.74,2.23,0.58,4.76,0.89,7.15c0.15,1.16,0.49,2.29,0.73,3.44c0.21,1.04-0.47,2.23,0.61,3.14
		c0.2,0.17,0.11,0.69,0.14,1.05c0.25,2.9,0.19,5.87,0.85,8.67c0.54,2.3,0.21,4.65,0.77,6.81c0.59,2.31,0.2,4.65,0.75,6.81
		c0.55,2.18,0.52,4.3,0.67,6.46c0.11,1.66,0.58,3.29,0.69,4.94c0.13,1.74-0.44,3.67,0.13,5.21c1.07,2.92,0.51,5.83,0.62,8.73
		c0.12,3.25-1.24,5.02-4.34,5.76c-2.59,0.62-5.35,1.39-7.9,0.66c-2.29-0.65-4.65-0.57-6.94-1.28c-2.1-0.66-4.17-1.44-6.3-2.01
		C83.9,374.17,82.33,373.69,80.69,373.22z"/>
	<path fill="currentColor" d="M373.5,199.87c0,1.04,0,1.79,0,2.54c0,1.5-0.56,2.57-2,3.26c-0.95,0.45-1.71,1.28-2.63,1.81c-2.01,1.16-2.96,2.42-2,4.25
		c0.78,1.5,0.09,3,0.7,4.21c0.71,1.42,0.55,2.8,0.7,4.22c0.14,1.28,0.53,2.54,0.71,3.82c0.18,1.29-0.38,2.71,0.75,3.83
		c0.12,0.12,0,0.48,0.02,0.73c0.25,3.52,0.18,7.11,0.85,10.54c0.57,2.92,0.12,5.91,0.78,8.68c0.74,3.07,0.07,6.14,0.7,9.08
		c0.88,4.16,0.05,8.39,0.8,12.43c0.85,4.56-0.03,9.13,0.71,13.57c1.14,6.91-0.12,13.87,0.81,20.68c0.83,6.06,0.4,12.06,0.57,18.08
		c0.17,5.99,0.04,12,0.04,18c0,6.12,0.35,12.28-0.14,18.36c-0.28,3.53-0.31,7.07-0.74,10.56c-0.2,1.63-0.52,3.28-0.69,4.95
		c-0.06,0.54-0.8,1.11-1.35,1.49c-0.94,0.64-6.22,2.02-7.29,2.31c-1.92,0.52-3.91,0.93-5.83,1.23c-3.01,0.47-6.16,0.1-9.24,0.08
		c-1.07-1.45-2.71-0.32-4.11-0.94c-2.21-0.99-4.46-1.91-6.6-3.06c-0.86-0.47-1.58-0.61-2.31,0.09c-2.24,2.15-5.27,2.42-8.02,3.27
		c-5.04,1.56-10.3,0.89-15.42,0.66c-3.2-0.15-6.51-1.26-8.79-4.01c-1.09-1.32-2.23-1.34-3.87-0.69c-3.22,1.27-6.56,2.37-9.92,3.17
		c-2.79,0.67-5.75,0.65-8.64,0.89c-0.46,0.04-1-0.01-1.39-0.23c-1.75-1-3.89-0.4-5.71-1.7c-1.09-0.78-1.86-1.87-1.83-2.59
		c0.16-3.4-0.97-6.9,0.62-10.2c0.1-0.2,0.04-0.5,0.01-0.74c-0.57-4.44,0.89-8.76,0.8-13.19c-0.04-1.77,0.49-3.54,0.69-5.31
		c0.19-1.66-0.44-3.43,0.74-4.95c0.12-0.16,0-0.49,0.02-0.74c0.25-3.15,0.11-6.39,0.85-9.42c0.92-3.8,0.75-7.75,2.05-11.5
		c0.6-1.72,0.47-3.78,0.7-5.67c0.44-3.56,1.07-7.1,1.75-10.59c0.9-4.6,1.51-9.26,2.76-13.81c0.51-1.87,0.74-3.96,1.18-5.92
		c0.44-1.95,0.69-3.93,1.2-5.86c0.77-2.94,1.53-5.87,2.25-8.82c0.69-2.83,1.53-5.65,2.14-8.47c0.97-4.46,2.47-8.75,3.58-13.16
		c1.98-7.9,4.33-15.67,7.02-23.35c0.11-0.31-0.05-0.7-0.1-1.32c-2.09,0.47-3.37-0.42-4.43-2.21c-1.89-3.21,0.53-6.42,3.57-6.7
		c1.49-0.14,3,0.04,4.5-0.04c4.02-0.21,8.07-0.28,12.05-0.81c3.05-0.41,6.18-0.81,9.1-1.59c4.2-1.12,8.69-0.89,12.67-2.84
		c4.09,0.04,7.95-1.31,11.79-2.35c5.24-1.42,10.56-2.71,15.48-5.15C370.2,196.72,370.21,196.73,373.5,199.87z"/>
</g>
</svg>
