<svg version="1.1" id="Layer" xmlns="http://www.w3.org/2000/svg" xmlns:xlink="http://www.w3.org/1999/xlink" x="0px" y="0px"
	 viewBox="0 0 512 512" enable-background="new 0 0 512 512" xml:space="preserve">
<path id="_x33_" fill="currentColor" d="M345.88,161.67c0.04,54.25-44.03,98.28-98.37,98.3c-54.34,0.02-98.36-43.94-98.37-98.24
	c-0.01-54.32,43.93-98.26,98.31-98.3C301.77,63.39,345.84,107.38,345.88,161.67z"/>
<path id="_x32_" fill="#fed15f" d="M273.91,276.69c-20.12,22.04-30.62,47.27-30.84,76.43c-0.22,29.12,9.93,54.48,29.79,76.96c-2.39,0-3.85,0-5.32,0
	c-56.84,0-113.67-0.3-170.5,0.18c-18.19,0.15-33.85-13.38-32.84-33.1c0.54-10.59-0.49-21.32,0.84-31.78
	c2.38-18.7,13.28-32.84,27.27-44.69c18.99-16.09,41.31-25.77,64.9-32.72c37.23-10.97,75.29-14.21,113.92-11.58
	C271.82,276.43,272.5,276.53,273.91,276.69z"/>
<path id="_x31_" fill="orangered" d="M354.9,447.73c-51.75,0.11-93.83-41.74-94.06-93.57c-0.23-51.69,42.18-94.18,94-94.17
	c51.71,0,93.73,42.11,93.72,93.9C448.54,405.82,406.82,447.62,354.9,447.73z M373.85,354.49c0.43-0.77,0.52-1.06,0.71-1.25
	c3.63-3.67,7.29-7.31,10.9-11c6.19-6.34,6.48-14.54,0.75-20.08c-5.55-5.36-13.61-4.92-19.74,1.14c-3.84,3.79-7.58,7.69-11.92,12.1
	c-4.23-4.47-7.83-8.77-11.98-12.45c-2.28-2.02-5.34-3.69-8.3-4.3c-5.58-1.15-10.93,2.01-13.5,7.02c-2.58,5.03-1.97,10.95,2.08,15.12
	c4.23,4.36,8.81,8.39,13.49,12.8c-4.88,4.82-8.98,8.79-13,12.85c-3.62,3.66-4.91,8.08-3.58,13.06c2.66,9.94,14.64,13.21,22.35,5.98
	c4.31-4.05,8.2-8.55,12.49-13.07c4.54,4.63,8.29,8.58,12.16,12.39c6.07,5.99,14.28,6.19,19.74,0.58c5.34-5.48,5.1-13.51-0.76-19.45
	C381.81,362,377.73,358.23,373.85,354.49z"/>
</svg>
