<svg version="1.1" id="Layer" xmlns="http://www.w3.org/2000/svg" xmlns:xlink="http://www.w3.org/1999/xlink" x="0px" y="0px"
	 viewBox="0 0 512 512" enable-background="new 0 0 512 512" xml:space="preserve">
<path id="delete" fill="orangered" d="M347.69,453.37c-2,0-3.65-0.12-5.28,0.03c-1.9,0.17-3.61-0.56-5.41-0.8c-1.75-0.23-4.01,0.62-5.22-0.21
	c-1.72-1.17-3.9,0.37-5.18-1.47c-5.14-0.01-9.68-2.3-14.44-3.77c-5.11-1.57-9.88-3.93-14.56-6.43c-5.47-2.92-10.48-6.58-15.49-10.27
	c-3.23-2.38-5.33-6-9.09-7.67c-2.23-4.19-6.56-6.57-9.04-10.61c-2.3-3.74-5.4-7.03-7.41-10.9c-3.55-6.84-6.95-13.78-9.2-21.21
	c-1.42-4.68-2.46-9.41-3.4-14.21c-0.47-2.39-0.15-4.82-0.77-7.05c-1.37-4.95-0.46-9.92-0.7-14.87c-0.09-1.81-0.03-3.58,0.64-5.45
	c0.65-1.82,0.14-4.05,0.14-6.1c1.86-1.26-0.22-3.8,1.64-5.06c-0.04-5.68,2.41-10.77,4.24-15.89c2.44-6.78,5.55-13.37,9.73-19.35
	c2.29-3.27,4.45-6.63,6.69-9.94c0.23-0.33,0.6-0.56,0.86-0.88c2.01-2.51,5.1-4.05,6.39-7.2c2.94-1.31,4.53-4.16,6.92-6.08
	c4.06-3.24,8.23-6.36,12.66-9.07c7.49-4.58,15.42-8.18,23.85-10.78c4.43-1.37,8.92-2.28,13.41-3.3c2.52-0.57,5.1-0.2,7.45-0.82
	c4.69-1.25,9.39-0.27,14.04-0.76c3.13-0.33,6.02,0.99,9.1,0.88c2.88-0.1,5.6,1.25,8.36,1.49c6.52,0.57,12.21,3.78,18.46,5.05
	c4.69,2.8,9.76,4.86,14.52,7.57c4.3,2.45,7.92,5.78,12.15,8.25c0.69,0.4,1.17,1.14,1.76,1.72c1.55,1.54,2.85,3.7,4.72,4.46
	c2.2,0.9,2.39,3,3.87,4.28c5.32,4.6,9.1,10.5,12.84,16.38c4.58,7.2,8.03,14.97,10.65,23.07c1.54,4.76,3.05,9.57,3.32,14.63
	c1.4,2.22,0.23,4.81,0.91,7.02c1.24,4,0.5,8.01,0.71,12c0.12,2.31,0.58,4.86-0.19,6.89c-0.82,2.19,0.01,4.34-0.69,6.28
	c-0.75,2.08-0.21,4.44-1.56,6.33c0.05,5.02-2.35,9.41-3.71,14.06c-1.5,5.12-3.87,9.91-6.4,14.57c-2.96,5.45-6.57,10.48-10.28,15.48
	c-2.47,3.33-6.12,5.58-7.95,9.39c-4.29,2.74-7.29,7.02-11.53,9.82c-6.18,4.08-12.43,8.04-19.21,11.08
	c-3.02,1.35-13.11,5.37-17.97,6.16c-1.39,1.42-3.52,0.16-4.83,1.16c-1.52,1.15-3.27,0.02-4.93,1.14c-1.22,0.83-3.57-0.25-5.2,0.25
	C354.51,453.73,350.91,453.18,347.69,453.37z M365.97,348.32c8.16-8.16,15.99-15.96,23.78-23.82c0.81-0.82,1.55-1.67,2.17-2.76
	c2.97-5.18,1.15-12.19-2.48-15.81c-4.63-4.61-13.81-4.51-18.06-0.05c-7.16,7.52-14.63,14.74-21.99,22.07
	c-0.63,0.63-1.38,1.14-2.08,1.71c-8.02-8.03-15.83-15.88-23.69-23.67c-1.1-1.09-2.35-2.3-3.76-2.75
	c-5.47-1.75-10.35-1.04-14.78,3.24c-4.48,4.33-4.62,13.58,0.07,18.03c7.43,7.05,14.55,14.44,21.79,21.69
	c0.64,0.64,1.28,1.3,2.09,2.12c-0.97,0.97-1.72,1.72-2.47,2.47c-7.15,7.15-14.32,14.29-21.44,21.47c-0.91,0.91-1.75,1.99-2.31,3.14
	c-2.47,5.06-1.02,11.32,2.62,15.14c4.46,4.67,13.84,4.84,18.36,0.06c7.03-7.45,14.44-14.55,21.69-21.79
	c0.64-0.64,1.33-1.23,2.38-2.18c0.95,1.14,1.66,2.13,2.51,2.99c7.04,7.07,14.12,14.1,21.14,21.19c2.24,2.26,4.93,3.27,8,3.46
	c4.36,0.26,7.86-1.34,10.83-4.6c4.18-4.59,4.24-12.72-0.09-17.07c-5.3-5.33-10.63-10.63-15.94-15.95
	C371.62,353.97,368.93,351.28,365.97,348.32z"/>
<path fill="currentColor" d="M308.11,229.96c-9.18,2.96-17.6,7.04-26.03,12.13c-0.1-1.17-0.22-1.92-0.22-2.66c-0.01-9.85-0.18-19.7,0.07-29.53
	c0.1-3.93-0.44-7.79-1.07-11.53c-0.89-5.21-2.35-10.34-4.47-15.34c-2.86-6.72-6.65-12.68-11.08-18.42
	c-1.99-2.58-4.17-4.92-6.51-7.09c-3.92-3.62-8.27-6.72-12.87-9.48c-4.93-2.96-10.13-5.23-15.64-6.81c-1.46-0.42-2.88-1.07-4.36-1.32
	c-2.46-0.41-5.07-0.22-7.42-0.94c-3.86-1.18-7.73-0.55-11.58-0.71c-1.96-0.08-3.88-0.02-5.85,0.7c-1.65,0.6-3.57,0.33-5.41,0.71
	c-1.74,0.36-3.52,0.92-5.35,1.11c-1.59,0.16-3.13,0.96-4.66,1.57c-3.88,1.56-7.86,2.81-11.38,5.26c-2.3,1.6-4.85,2.86-7.12,4.56
	c-4.67,3.51-9.05,7.21-12.72,11.9c-2.5,3.2-4.83,6.49-7.1,9.83c-1.78,2.62-3.16,5.47-4.23,8.5c-0.84,2.39-1.89,4.67-2.56,7.15
	c-0.57,2.1-1.31,4.12-1.57,6.33c-0.21,1.8-0.75,3.54-0.8,5.41c-0.05,1.8-1,3.49-0.8,5.41c0.19,1.89,0.04,3.82,0.04,5.74
	s0,3.83,0,5.74c0,73.98,0,147.96,0.01,221.93c0,5.39-2.45,9.25-7.14,11.74c-7.22,3.84-14.8,0.18-17.67-5.66
	c-0.86-1.75-1.48-3.52-1.48-5.55c0.03-78.76,0.03-157.53,0-236.29c0-2.53,0.91-4.89,0.99-7.45c0.07-2.2,0.21-4.66,1.5-6.71
	c-0.04-4.22,1.8-7.97,2.98-11.89c1.55-5.12,3.98-9.86,6.42-14.57c2.8-5.4,6.22-10.38,10.04-15.16c3.32-4.15,7.03-7.86,10.89-11.41
	c4.3-3.96,8.94-7.51,14.04-10.54c3.85-2.28,7.81-4.33,11.81-6.23c3.97-1.88,8.08-3.69,12.55-4.39c2.12-0.33,4.13-1.27,6.26-1.75
	c1.95-0.44,4.23,0.04,5.93-1.46c0.08-0.07,0.27,0,0.4-0.01c3.72-0.27,7.43-0.65,11.15-0.79c3.69-0.14,7.49-0.58,11.05,0.11
	c4.18,0.82,8.62,0.26,12.57,2.27c4.74,0.01,9.03,1.9,13.37,3.39c4.3,1.48,8.37,3.56,12.43,5.65c5.77,2.97,11.06,6.55,16.15,10.59
	c3.84,3.05,7.24,6.49,10.56,10c4.29,4.55,8.05,9.51,11.28,14.97c2.35,3.96,4.31,8.08,6.38,12.15c1.32,2.58,2.31,5.33,3.3,8.06
	c0.95,2.62,2.02,5.36,2.32,8.02c0.47,4.17,1.48,8.25,2.01,12.4c0.64,4.99,0.46,9.92,0.59,14.87
	C308.22,219.54,308.11,224.6,308.11,229.96z"/>
<path fill="currentColor" d="M209.67,59.45c1.91,0,3.83,0.05,5.74-0.01c4.29-0.12,8.52,0.7,12.77,1.03c4.72,0.36,9.49,1.3,14.15,2.36
	c4.08,0.92,8.15,2.02,12.14,3.32c6.97,2.28,13.83,4.89,20.42,8.13c6.76,3.31,13.38,6.9,19.53,11.29c3.51,2.51,7.17,4.79,10.31,7.81
	c4.51,4.34,4.34,13.03,0.15,17.41c-3.18,3.32-6.83,4.8-11.3,4.46c-2.2-0.16-4.44-0.77-6.04-2.19c-3.83-3.4-8.09-6.2-12.39-8.82
	c-5.06-3.08-10.38-5.75-15.89-8.13c-5.26-2.27-10.65-4.04-16.05-5.8c-3.14-1.03-6.36-2.13-9.79-2.17c-1.26-0.01-2.5-0.59-3.77-0.75
	c-1.16-0.15-2.43,0.24-3.36-0.84c-0.06-0.07-0.26,0-0.4-0.01c-4.13-0.27-8.25-0.65-12.38-0.79c-4.1-0.14-8.25-0.39-12.29,0.11
	c-2.21,0.27-4.41,0.68-6.65,0.67c-2.12-0.02-4.03,1.45-6.22,0.83c-3.9,1.69-8.43,1.05-12.18,3.28c-4.33,0.08-7.91,2.93-12.16,3.33
	c-4.95,3.13-10.98,4.18-15.51,8.12c-4.08,1.42-7.38,4.1-10.81,6.6c-1.45,1.06-3.09,1.87-4.49,2.99
	c-6.79,5.44-12.97,11.58-18.72,18.05c-5.13,5.77-9.68,12.11-13.26,19.07c-1.33,2.59-2.84,5.09-4.11,7.73
	c-2.59,5.38-4.69,10.92-6.53,16.58c-1.51,4.65-2.84,9.34-3.27,14.23c-1.43,1.71-0.21,3.97-1.11,5.69c-1.05,1.99,0,4.05-0.57,5.93
	c-1.29,4.23-0.45,8.54-0.82,12.8c-0.24,2.72-1.23,5.16-3.15,7.32c-3.07,3.44-6.81,4.93-11.28,4.48c-2.56-0.26-4.95-1.09-7-2.9
	c-3.41-3-5.05-6.63-4.81-11.16c0.1-1.77,0.19-3.58-0.03-5.33c-0.29-2.32,0.67-4.42,0.87-6.64c0.2-2.22-0.48-4.47,0.73-6.68
	c0.52-0.95-0.02-2.43,0.12-3.64c0.11-1,0.66-1.95,0.76-2.95c0.27-2.85,3.02-15.1,4.34-18.72c1.65-4.52,3.03-9.14,4.79-13.6
	c1.63-4.1,3.87-7.97,5.94-11.89c3.84-7.29,8.25-14.21,13.27-20.77c2.5-3.27,4.99-6.5,7.86-9.45c2.23-2.3,4.11-4.96,6.43-7.15
	c8.24-7.75,16.99-14.94,26.65-20.82c6.48-3.95,13.32-7.39,20.28-10.42c6.02-2.63,12.36-4.53,18.7-6.38
	c3.66-1.07,7.53-1.34,11.07-2.94c1.62-0.74,3.53-0.26,5.38-0.83c2.84-0.88,6.02-0.69,9.04-0.99c2.49-0.24,4.96-0.65,7.46-0.79
	C204.74,59.34,207.21,59.45,209.67,59.45z"/>
<path fill="currentColor" d="M255.59,264.02c-11.64,12.68-20.21,27.05-26.05,43.59c-0.09-1.35-0.2-2.34-0.21-3.33c-0.01-28.84-0.09-57.68,0.05-86.53
	c0.04-7.29-3.22-12.72-8.59-16.92c-4.15-3.25-9.37-4.4-14.49-3.39c-5.47,1.09-9.97,4.17-13.13,9.05c-2.11,3.26-3.26,6.67-3.26,10.56
	c0.03,23.1,0.03,46.2,0,69.31c-0.01,5.23-2.64,8.95-7.19,11.28c-7.26,3.72-14.62,0.24-17.64-5.79c-0.8-1.6-1.44-3.27-1.43-5.15
	c0.03-24.33-0.11-48.66,0.12-72.99c0.05-5.62,1.85-11.07,4.25-16.25c2.03-4.38,4.62-8.48,7.94-11.83
	c4.83-4.87,10.27-9.08,16.98-11.35c2.03-0.69,4.03-1.5,6.11-2.08c0.24-0.07,0.49-0.34,0.68-0.3c2.46,0.59,4.63-1.01,7.05-0.87
	c2.32,0.13,4.69-0.27,6.96,0.1c3.18,0.52,6.56,0.63,9.49,1.8c4.56,1.82,9.35,3.5,13.24,6.6c7,5.59,11.15,9.83,15.32,19.39
	c1.53,3.51,2.48,7.18,3.17,11.03c0.78,4.32,0.55,8.56,0.59,12.82C255.66,236.57,255.59,250.37,255.59,264.02z"/>
<path fill="currentColor" d="M84.89,348.32c0,30.76,0.01,61.52-0.01,92.28c0,5.22-2.62,8.94-7.16,11.3c-7.25,3.76-14.69,0.22-17.65-5.74
	c-0.86-1.73-1.46-3.53-1.46-5.56c0.03-61.52,0.03-123.04,0.02-184.56c0-6.84,6.07-12.75,12.73-12.79c5.55-0.03,9.54,2.41,12.1,7.23
	c0.98,1.84,1.47,3.8,1.47,5.97C84.88,287.08,84.89,317.7,84.89,348.32z"/>
<path fill="currentColor" d="M163.68,387.68c0-17.36,0.09-34.72-0.04-52.07c-0.07-8.66,7.33-14.98,15.64-13.43c6.13,1.14,10.58,5.85,10.6,12.27
	c0.12,35.54,0.06,71.07,0.04,106.61c0,2.81-0.91,5.37-2.9,7.39c-1.82,1.86-3.4,4.21-6.49,4.1c-5.97,2.71-12.99-1.19-15.45-6.4
	c-0.89-1.88-1.45-3.82-1.44-5.98C163.7,422.67,163.68,405.18,163.68,387.68z"/>
<path fill="currentColor" d="M360.63,224.81c-4.63-1.6-8.94-1.22-13.22-1.22c-4.26,0-8.54-0.32-13.04,1.15c0-7.1-0.02-13.76,0.01-20.43
	c0.02-3.47-1.4-6.82-0.83-10.33c-1.78-1.78-0.31-4.26-1.49-6.38c-1-1.81-0.46-4.4-1.02-6.54c-1.04-3.92-2.39-7.75-3.62-11.62
	c-2.07-6.54-5.1-12.67-8.14-18.78c-0.96-1.94-2.11-3.78-3.18-5.66c-2.89-5.09-1.34-9.88,1.62-14.12c1.56-2.24,4.17-3.76,7.23-4.17
	c4.5-0.61,8.38,0.11,11.71,2.8c0.76,0.62,1.35,1.53,1.92,2.44c3.21,5.07,5.52,10.59,8.31,15.86c3.17,5.99,4.82,12.51,7.23,18.76
	c1.9,4.92,2.35,10.18,3.96,15.17c0.79,2.45,0.6,5.22,0.92,7.84c0.21,1.67,0.56,3.33,0.8,5c0.25,1.67-0.57,3.49,0.8,5.02
	c0.2,0.23,0.03,0.8,0.03,1.21C360.63,208.57,360.63,216.35,360.63,224.81z"/>
<path fill="currentColor" d="M229.53,388.92c5.85,16.71,14.44,31.03,26.06,43.72c0,2.55-0.01,5.28,0,8.01c0.04,6.75-6.01,12.65-12.73,12.76
	c-6.64,0.11-11.44-4.06-13.51-10.32c-0.2-0.62-0.03-1.36-0.03-2.04c0-16.79,0-33.58,0.01-50.37
	C229.33,390.29,229.41,389.91,229.53,388.92z"/>
</svg>
