<svg version="1.1" id="layer" xmlns="http://www.w3.org/2000/svg" xmlns:xlink="http://www.w3.org/1999/xlink" x="0px" y="0px"
	 viewBox="0 0 384 384" enable-background="new 0 0 384 384" xml:space="preserve">
<path fill="currentColor" d="M108,192c0-12.39-0.07-24.49,0.04-36.6c0.04-4.56,2.44-7.84,6.43-10.02c1.71-0.93,3.47-1.4,5.43-1.4
	c48.11,0.02,96.22,0.03,144.32,0c6.36,0,11.88,5.7,11.82,11.9c-0.11,10.87-0.03,21.74-0.03,32.61c0,1.1,0,2.2,0,3.51
	c1.39,0,2.61,0,3.84,0c18.87,0,37.74-0.03,56.6,0.02c4.76,0.01,8.11,2.51,10.3,6.61c2.52,4.7,0.92,10.69-2.22,13.81
	c-48.13,48-96.21,96.06-144.19,144.2c-4.23,4.25-12.59,4.11-16.75-0.07c-47.97-48.16-96.04-96.22-144.19-144.2
	c-4.22-4.21-4.42-12.74-0.01-16.76c2.67-2.44,5.5-3.63,9.03-3.63C68.16,192.01,87.9,192,108,192z"/>
<path fill="currentColor" d="M192.35,48c23.99,0,47.97-0.02,71.96,0.01c4.76,0.01,8.16,2.37,10.34,6.52c3.46,6.62,0.18,13.47-5.22,16.14
	c-1.59,0.79-3.22,1.35-5.07,1.34c-48.22-0.03-96.45-0.03-144.67-0.01c-6.31,0-11.82-5.72-11.73-11.99
	c0.09-5.84,3.75-10.14,9.44-11.98c0.9-0.29,1.99-0.04,2.99-0.04C144.38,48,168.36,48,192.35,48z"/>
<path fill="currentColor" d="M191.97,120c-24.11,0-48.22,0.02-72.34-0.01c-4.78-0.01-8.18-2.41-10.31-6.57c-3.4-6.63-0.21-13.34,5.28-16.14
	c1.83-0.93,3.75-1.31,5.84-1.31c29.98,0.05,59.97,0.03,89.95,0.03c17.74,0,35.48,0.08,53.22-0.04c7.92-0.05,13.68,6.7,12.28,14.3
	c-1.02,5.55-5.56,9.72-11.59,9.73C240.2,120.02,216.08,120,191.97,120z"/>
</svg>
