<svg version="1.1" id="Layer" xmlns="http://www.w3.org/2000/svg" xmlns:xlink="http://www.w3.org/1999/xlink" x="0px" y="0px"
	 viewBox="0 0 384 384" enable-background="new 0 0 384 384" xml:space="preserve">
<path fill="currentColor" d="M281.06,289.59c-1.64,3.33-3.72,6.01-5.91,8.43c-3.75,4.14-6.87,8.91-11.73,12.06c-2.21,1.43-3.93,3.61-6.07,5.27
	c-5.95,4.64-12.46,8.37-19.26,11.5c-2.48,1.14-5.04,2.32-7.69,3.16c-2.54,0.81-5.03,1.74-7.58,2.51c-2.45,0.74-4.93,1.46-7.44,1.95
	c-3.15,0.61-6.32,1.13-9.47,1.68c-2.43,0.42-4.89,0.14-7.2,0.68c-5.15,1.21-10.31,0.54-15.46,0.62c-3.52,0.05-6.99-1.12-10.56-0.69
	c-4.46-1.59-9.22-1.71-13.8-2.81c-4.79-1.15-9.35-2.88-14.01-4.29c-3.06-0.93-5.87-2.7-8.77-4.16c-4.09-2.05-7.87-4.6-11.73-7.05
	c-7.58-4.81-13.54-11.31-19.6-17.68c-3.4-3.58-6.56-7.51-8.84-12.04c-1.05-2.08-2.59-3.91-3.68-5.98c-1.29-2.45-2.33-5.03-3.48-7.56
	c-1.78-3.92-2.76-8.11-4.24-12.06c6.79-4.05,13.68-7.46,20.05-11.79c2.38-1.62,5.17-2.6,7.68-4.05c3.85-2.21,7.6-4.59,11.41-6.86
	c2.3-1.37,4.61-2.72,6.98-3.97c4.33-2.29,8.52-4.83,12.68-7.41c1.97-1.22,4.14-2.11,6.12-3.31c4.5-2.71,9.15-5.17,13.54-8.07
	c2.31-1.53,4.95-2.54,7.36-3.93c3.95-2.27,7.81-4.68,11.74-6.98c2.1-1.23,4.39-2.18,6.4-3.54c4.36-2.96,9.05-5.37,13.59-8
	c3.91-2.27,7.82-4.59,11.77-6.81c5.59-3.14,11.31-6.07,16.62-9.72c2.28-1.57,4.94-2.57,7.35-3.95c3.95-2.27,7.82-4.66,11.75-6.95
	c2.21-1.29,4.46-2.49,6.71-3.72c2.65-1.45,5.33-2.84,7.95-4.33c0.71-0.4,1.27-1.07,2.11-1.78c0.75,1.09,1.56,1.77,2.22,2.88
	c6.94,11.82,12.89,24.15,18.99,36.4c0.87,1.76,1.7,3.55,2.37,5.39c0.49,1.36,0.57,2.65-0.45,4.09c-4.27,6.07-8.41,12.24-12.48,18.45
	c-1.33,2.03-2.31,4.29-3.48,6.43c-1.57,2.85-3.34,5.61-4.72,8.55c-1.52,3.23-2.79,6.6-3.99,9.97c-0.72,2.03-1.45,11.38-0.74,13.12
	c0.78,1.9,0.54,3.94,1.37,5.81c0.75,1.69,0.9,3.66,1.78,5.25c1.36,2.47,3.11,4.72,4.72,7.05
	C274.38,284.83,277.96,287.08,281.06,289.59z"/>
<path fill="currentColor" d="M185.32,39.88c2.59-0.44,4.59-0.1,5.33,2.64c2.97,2.98,4.83,6.77,7.32,10.11c2.47,3.3,4.68,6.81,7.09,10.15
	c5.04,7.01,9.77,14.23,14.75,21.27c4.02,5.69,7.85,11.49,11.68,17.3c4.08,6.18,8.21,12.34,12.26,18.55
	c2.56,3.93,5.01,7.92,7.51,11.89c0.5,0.79,0.99,1.59,1.62,2.6c-1.18,1.6-3.07,2.37-4.76,3.33c-4.26,2.42-8.57,4.74-12.68,7.42
	c-2.03,1.33-4.33,2.24-6.42,3.5c-4.4,2.65-8.91,5.11-13.24,7.89c-2.43,1.56-5.19,2.59-7.69,4.04c-3.94,2.29-7.76,4.79-11.68,7.12
	c-1.99,1.19-4.13,2.14-6.12,3.32c-4.52,2.68-9.13,5.2-13.55,8.06c-2.33,1.51-4.94,2.56-7.36,3.94c-3.95,2.27-7.82,4.66-11.75,6.96
	c-2.11,1.23-4.32,2.28-6.4,3.54c-4.49,2.73-9.15,5.17-13.54,8.08c-2.4,1.59-5.17,2.6-7.68,4.05c-3.85,2.21-7.59,4.61-11.41,6.86
	c-2.1,1.24-4.35,2.23-6.41,3.52c-4.46,2.78-8.99,5.49-13.57,8.04c-3.97,2.2-7.73,4.75-11.8,6.77c-1.55,0.77-3.02,1.72-4.95,2.83
	c0.1-3.5-0.79-6.6,0.51-9.67c0.13-0.32,0.1-0.71,0.13-1.07c0.53-7.33,2.64-14.27,4.87-21.23c2.96-9.22,7.85-17.51,12.01-26.15
	c2.32-4.8,4.75-9.56,7.44-14.16c4.3-7.35,8.36-14.83,12.85-22.08c3.18-5.15,6.36-10.33,9.38-15.59c2.63-4.57,5.63-8.93,8.5-13.36
	c3.64-5.62,7.27-11.25,10.97-16.83c4.17-6.28,8.43-12.51,12.62-18.77c3.54-5.28,7.08-10.59,10.75-15.76
	c4.06-5.71,7.77-11.7,12.3-17.07C184.7,41.3,184.98,40.5,185.32,39.88z"/>
<path fill="currentColor" d="M373.86,77.16c0.57,1.03,1.57,1.46,1.98,2.68c0.81,2.38,0.8,3.97-0.99,5.41c-0.82,0.66-1.7,1.31-2.65,1.73
	c-6.18,2.76-11.77,6.58-17.63,9.9c-5.37,3.05-10.92,5.87-15.96,9.53c-2.32,1.68-5.16,2.62-7.67,4.06c-3.85,2.21-7.6,4.59-11.41,6.86
	c-2.3,1.37-4.61,2.72-6.98,3.97c-4.33,2.29-8.52,4.83-12.68,7.41c-1.97,1.22-4.13,2.12-6.12,3.31c-4.51,2.7-9.14,5.18-13.54,8.07
	c-2.31,1.52-4.95,2.54-7.36,3.93c-3.95,2.27-7.81,4.68-11.74,6.97c-2.1,1.23-4.33,2.25-6.41,3.53c-4.48,2.76-9.15,5.17-13.53,8.1
	c-2.39,1.6-5.17,2.6-7.68,4.05c-3.85,2.21-7.59,4.61-11.41,6.86c-2.1,1.23-4.41,2.14-6.4,3.52c-4.33,3.01-9.06,5.36-13.59,8.01
	c-3.9,2.28-7.81,4.61-11.77,6.82c-4.37,2.45-8.69,5.03-13.05,7.49c-4.04,2.29-8.05,4.65-12.09,6.95c-3.65,2.08-7.39,4.01-10.86,6.41
	c-1.89,1.31-4.14,2.09-6.12,3.3c-4.48,2.75-9.15,5.17-13.54,8.09c-2.39,1.6-5.17,2.6-7.68,4.05c-3.85,2.21-7.6,4.59-11.41,6.86
	c-2,1.19-4.02,2.34-6.06,3.47c-4.7,2.59-9.39,5.19-13.88,8.16c-2.4,1.59-5.18,2.6-7.68,4.04c-3.85,2.21-7.6,4.59-11.41,6.86
	c-2,1.19-4.04,2.32-6.07,3.44c-4.7,2.59-9.24,5.47-13.9,8.13c-3.93,2.25-7.93,4.39-11.82,6.73c-4.2,2.52-8.57,4.73-12.71,7.37
	c-3.71,2.37-7.73,4.26-11.57,6.43c-2.23,1.26-4.25,2.83-6.7,3.74c-2.36,0.87-4.39,0.48-5.54-1.45c-1.37-2.31-0.9-4.83,1.36-6.17
	c4.5-2.68,9.12-5.16,13.6-7.89c3.79-2.31,7.8-4.25,11.44-6.82c1.88-1.33,4.06-2.23,6.12-3.3c5.88-3.07,11.44-6.69,17.27-9.87
	c4.79-2.62,9.64-5.24,14.21-8.22c5.2-3.39,10.72-6.22,15.99-9.51c4.2-2.62,8.68-4.92,13.02-7.38c3.85-2.18,7.78-4.27,11.45-6.8
	c1.81-1.25,3.84-2.17,5.78-3.23c4.71-2.58,9.39-5.19,13.88-8.15c2.4-1.59,5.18-2.6,7.68-4.04c3.85-2.21,7.6-4.59,11.41-6.86
	c2-1.19,4.08-2.23,6.06-3.45c4.57-2.81,9.26-5.45,13.92-8.08c4.04-2.28,8.03-4.69,12.09-6.96c5.5-3.07,11.11-5.95,16.3-9.58
	c1.88-1.32,4.16-2.05,6.14-3.24c4.41-2.64,8.87-5.19,13.26-7.85c2.28-1.38,4.61-2.72,6.97-3.98c4.21-2.27,8.31-4.72,12.38-7.21
	c1.98-1.21,4.1-2.17,6.11-3.34c4.54-2.64,9.12-5.2,13.56-8.03c2.43-1.55,5.19-2.59,7.69-4.04c3.94-2.29,7.68-4.95,11.7-7.07
	c3.72-1.96,7.23-4.25,10.88-6.31c5.89-3.32,11.85-6.49,17.54-10.15c2.04-1.32,4.34-2.22,6.42-3.49c4.38-2.69,8.96-5.02,13.27-7.84
	c2.21-1.45,4.6-2.73,6.95-3.99c4.21-2.27,8.31-4.72,12.38-7.21c1.98-1.21,4.1-2.17,6.11-3.34c4.54-2.65,9.13-5.19,13.56-8.03
	c1.65-1.06,3.54-1.71,5.21-2.86C370.9,76.94,372.55,77.27,373.86,77.16z"/>
<path fill="currentColor" d="M303.28,206.27c1.64,2.41,3.09,4.55,4.55,6.68c3.8,5.55,7.85,10.95,11.3,16.7c2.2,3.67,4.76,7.19,6.37,11.21
	c0.21,0.54,0.42,1.1,0.76,1.56c2.45,3.23,3.8,6.89,4.73,10.81c0.19,0.78,0.46,1.58,0.49,2.4c0.05,1.5-0.08,3.01,0.03,4.5
	c0.37,4.84-1.27,9.06-3.76,13.07c-4.18,6.73-10.54,10.55-17.91,12.41c-4.09,1.03-8.55,1.99-12.84,0.14
	c-3.79,0.08-7.14-1.53-10.25-3.27c-2.72-1.52-5.38-3.31-7.21-6.16c-1.14-1.77-2.64-3.33-3.66-5.25c-1.12-2.1-1.95-4.19-2.23-6.6
	c-0.17-1.51-0.67-2.98-0.69-4.57c-0.09-5.7,1.48-10.98,4.02-15.96c4.35-8.55,9.42-16.67,14.81-24.61c2.25-3.31,4.52-6.61,6.68-9.98
	C299.64,207.53,300.74,205.81,303.28,206.27z"/>
<path fill="currentColor" d="M338.24,289.97c1.16,1.66,2.22,3.14,3.25,4.65c2.13,3.11,4.31,6.19,6.34,9.36c3.2,4.99,6.33,10.04,8.72,15.48
	c0.71,1.61,1.41,3.25,1.21,5.12c-0.28,2.64,0.38,5.31-0.72,7.95c-1.36,3.27-3.28,5.88-6.17,8.03c-3.74,2.77-7.81,3.67-12.34,3.76
	c-4.09,0.08-7.64-0.94-11.17-2.96c-3.25-1.86-7.42-7.22-7.88-11.71c-0.12-1.16-0.91-2.4-0.65-3.41c0.67-2.58,0.86-5.25,1.99-7.78
	c2.67-5.98,6.05-11.53,9.61-16.98C332.92,297.66,335.54,293.94,338.24,289.97z"/>
</svg>
