<svg version="1.1" id="Layer" xmlns="http://www.w3.org/2000/svg" xmlns:xlink="http://www.w3.org/1999/xlink" x="0px" y="0px"
	 viewBox="0 0 384 384" enable-background="new 0 0 384 384" xml:space="preserve">
<path fill="currentColor" d="M113.11,182.45c0,21.15,0,42.15,0,63.44c-7.91,0.18-16.35-1.16-23.55,2.83c-12,8.51-9.34,28.41,5.5,32.03
	c60.72,1.7,121.73,0.08,182.54,0.54c4.56-0.01,6.27,1.87,6.23,6.21c-0.19,17.84-0.03,35.7-0.08,53.54c-0.4,2.97-3.44,4.2-6.16,3.76
	c-62.63-0.6-125.43,1.18-187.98-0.64c-44.25-4.32-78.39-51.32-69.2-94.4c4.89-32.27,32.18-59.33,63.56-65.95
	C93.57,182.11,103.34,182.45,113.11,182.45z"/>
<path fill="currentColor" d="M271.57,202.23c0-21.16,0-42.16,0-63.44c7.25-0.59,15.58,1.65,22.12-2.19c13.73-7.12,11.25-29.15-4.09-32.68
	c-59.36-1.69-119-0.08-178.45-0.54c-4.28,0.01-6.26-1.62-6.21-6.23c0.17-17.05,0.07-34.1,0.07-51.15c-0.41-2.66,0.74-5.85,3.8-6.11
	c62.05,0.62,124.31-1.28,186.27,0.67c45.58,4.1,79.95,53.59,68.53,97.18c-4.66,28.68-28.67,51.23-54.57,61
	C296.85,202.36,284.38,202.51,271.57,202.23z"/>
<path fill="currentColor" d="M263.3,192.34c0,18.41,0.01,36.82,0,55.22c0.08,9.2-8.69,16.62-17.68,16.08c-156.76-3.04-119.88,28.5-124.23-126.35
	c-0.19-8.68,7.94-16.31,16.48-16.25c36.37,0.01,72.73,0.03,109.1-0.03c8.82,0.09,16.47,7.54,16.36,16.44
	C263.26,155.75,263.3,174.04,263.3,192.34z M203.26,172.9c3.38-11.03,8.18-22.12,12.38-32.98c4.55-11.07-18.82-5.2-24.68-6.59
	c-5.23,1.01-14.19-2.61-17.29,2.62c-8.24,21.71-17.17,43.16-24.79,65.09c-2.8,10.13,22.83,4.66,28.82,5.97
	c-4.2,12.37-5.36,25.71-9.02,38.32c-1.33,4.62,3.5,8.21,7.07,4.5c3.39-4.15,7-8.21,10.44-12.35c8.25-9.53,16.38-19.15,24.6-28.68
	c5.35-5.92,10.18-12.18,15.27-18.31c2.8-4.21,11.22-9.74,9.5-15.06C234.48,170.26,209.34,173.95,203.26,172.9z"/>
<path fill="currentColor" d="M74.99,75.35c0,5.82,0,11.28,0,17.05c-11.78-0.03-28.08-2.52-32.12,12.05c-0.84,5.1-4.42,2.09-1.29,7.8
	c1.28,3.71,6.23,10.19,0.78,12.45c-5.04,2.28-6-5.41-8.2-8.7c-1.95,2.13-1.79,4.76-3.53,6.94c-1.87,4.67-8.98,0.97-7.32-3.04
	c0.8-4.14,5.16-8.45,4.16-12.53c-2.39-2.12-1.08-4.55-0.52-6.77c2.68-10.95,11.65-20.18,22.54-23.2c1.14-0.26,1.45-1.92,3.15-1.47
	C59.86,74.78,67.41,75.56,74.99,75.35z"/>
<path fill="currentColor" d="M74.87,67.16c-11.72-0.15-24.26,1.96-34.28-5.45c-7.06-4.65-16.85-17.02-13.32-25.62c1.78-3.1-3.5-9.08-3.99-12.81
	c-1.38-4.08,5.2-7.59,7.39-3.03c1.51,2.25,1.81,4.77,3.36,6.98c2.4-2.61,2.12-7.62,5.6-8.86c3.04-1.13,6.53,2,5.08,5.03
	c-0.82,3.96-4.36,7.83-4.21,11.62c2.31,0.98,1.72,3.65,3.08,5.17c3.86,13.24,20.42,10.41,31.3,10.61
	C74.87,56.2,74.87,61.51,74.87,67.16z"/>
<path fill="currentColor" d="M344.52,276.15c-1.48-3.7-3-7.39-4.41-11.12c-0.94-2.48-0.17-4.05,2.31-5.13c5.05-2.03,6.06,5.79,8.14,8.84
	c1.79-2.17,1.79-4.61,3.44-6.8c2.08-4.87,9.26-1.31,7.08,3.19c-0.55,4.15-5.1,8.35-3.83,12.33c3.71,4.63-2.85,15.65-6.3,19.6
	c-8.87,11.28-23.88,12.31-37.1,11.59c0-5.52,0-10.82,0-16.37c10.62,0.52,24.69,0.9,27.91-11.85
	C342.37,278.82,342.64,276.99,344.52,276.15z"/>
<path fill="currentColor" d="M350.59,357.37c-2.27,3.07-2.27,7.59-5.54,8.95c-3.04,1.12-6.53-2-5.07-5.03c0.81-3.96,4.37-7.83,4.2-11.62
	c-2.31-0.98-1.72-3.65-3.08-5.17c-0.22-3.44-4.18-6.48-6.93-8.35c-6.22-3.66-13.57-1.67-20.28-2.4c0-5.26,0-10.57,0-16.12
	c21.5-2.62,41,5.76,44.91,28.49c-0.52,1.71-2.71,2.94-1.76,4.83c1.57,3.42,3.09,6.91,4.36,10.46c1.36,4.08-5.2,7.58-7.4,3.03
	C352.47,362.13,352.22,359.63,350.59,357.37z"/>
<path fill="currentColor" d="M96.77,45.33c0,17.6,0,34.95,0,52.53c-7.08-0.14-15.31,2.12-13.59-8.23c0-13.06-0.01-26.12,0-39.19
	C82.85,42.87,91.76,45.93,96.77,45.33z"/>
<path fill="currentColor" d="M292.01,339.35c0-17.61,0-34.96,0-52.53c7.94,0.13,15.2-2.18,13.58,8.92c0,12.83,0.01,25.67,0,38.5
	C305.93,341.81,297.01,338.75,292.01,339.35z"/>
<path fill="currentColor" d="M223.18,181.2c-14.65,16.62-27.73,34.16-43.03,50.24c1.67-10.41,5.68-20.47,6.05-30.95c-0.55-0.47-1.15-0.98-2.03-1.72
	c-8.11,0-16.6,0-25.41,0c6.24-19.26,14.17-38.13,21.56-57.11c8.44,0,17.02,0,25.76,0c-3.58,12.69-11.38,24.2-12.98,37.14
	c0.71,0.68,1.53,1.47,2.51,2.41C204.59,181.2,213.77,181.2,223.18,181.2z"/>
</svg>
