<svg version="1.1" id="Layer" xmlns="http://www.w3.org/2000/svg" xmlns:xlink="http://www.w3.org/1999/xlink" x="0px" y="0px"
	 viewBox="0 0 340 160" enable-background="new 0 0 340 160" xml:space="preserve">
<path id="fourth" fill="currentColor" d="M323.14,94.57c0,15.34,0.02,30.69-0.01,46.03c-0.01,6.48-1.86,8.32-8.29,8.35c-6.33,0.03-12.66,0.06-18.98-0.01
	c-5.23-0.06-7.48-2.05-7.5-7.17c-0.08-31.52-0.08-63.05,0-94.57c0.01-5.12,2.26-7.03,7.57-7.09c6.49-0.07,12.99-0.06,19.48,0
	c5.73,0.05,7.69,2.04,7.7,7.92C323.16,63.54,323.14,79.06,323.14,94.57z"/>
<path id="third" fill="currentColor" d="M242.07,102.45c0-12.85-0.02-25.71,0.01-38.56c0.01-6.77,1.38-8.1,8.27-8.12c6.5-0.02,13,0.05,19.5-0.02
	c4.35-0.05,6.56,2.07,6.56,6.35c0.03,26.71,0.02,53.42,0.02,80.13c0,4.52-2.28,6.75-6.8,6.73c-6.83-0.02-13.67,0.07-20.5-0.03
	c-5.24-0.07-7.02-1.98-7.04-7.42C242.04,128.49,242.07,115.47,242.07,102.45z"/>
<path id="second" fill="currentColor" d="M230.1,113.66c0,9.17,0.04,18.33-0.01,27.5c-0.04,5.82-1.98,7.74-7.81,7.79c-6.49,0.05-12.98,0.07-19.47-0.01
	c-5.2-0.06-7.43-2.06-7.46-7.2c-0.1-18.5-0.1-37,0-55.5c0.03-5.23,2.17-7.17,7.38-7.22c6.66-0.06,13.31-0.07,19.97,0
	c5.47,0.05,7.36,1.99,7.39,7.64C230.14,95.66,230.1,104.66,230.1,113.66z"/>
<path id="first" fill="currentColor" d="M183.42,126.05c0,5.18,0.08,10.35-0.02,15.53
	c-0.1,5.5-1.84,7.3-7.15,7.36c-6.83,0.09-13.67,0.03-20.5,0.01c-4.48-0.01-6.8-2.27-6.81-6.78c-0.02-11.02-0.01-22.04-0.01-33.06
	c0-4.48,2.21-6.85,6.72-6.87c7-0.03,14,0,21.01-0.01c4.55-0.01,6.75,2.29,6.76,6.79C183.43,114.7,183.42,120.37,183.42,126.05z"/>
<g id="fan">
	<path fill="currentColor" d="M84.97,68.72c7.56-3.41,14.85-4.54,22.43-3.5c11.73,1.61,18.11,10.89,16.01,23.74c-1.64,10.07-6.73,18.36-14.6,24.79
		c-4.77,3.89-9.77,1.88-10.27-4.33c-0.69-8.66-4.81-14.65-12.82-18.59C88.99,83.54,89.56,76.21,84.97,68.72z"/>
	<path fill="currentColor" d="M57.53,97.55c7.58,3.71,14.61,3.65,21.99-0.54c4.25,10.2,6.06,20.33,0.75,30.28c-4.03,7.55-11.61,9.16-19.46,8.31
		c-10.76-1.16-19.48-6.51-26.3-14.8c-3.72-4.52-1.78-9.68,4.01-10.17C47.32,109.9,53.53,105.8,57.53,97.55z"/>
	<path fill="currentColor" d="M78.71,62.64c-7.57-3.89-14.74-3.61-22.04,0.53c-3.74-8.66-5.06-17.22-2.56-26.06c2.19-7.77,8.21-11.82,16.28-12.29
		c12.51-0.72,22.32,4.49,30.3,13.51c1.6,1.81,2.92,5.41,2.18,7.33c-0.75,1.94-4.12,3.7-6.53,3.99
		C88.09,50.66,82.56,55.01,78.71,62.64z"/>
	<path fill="currentColor" d="M50.75,69.5c-3.88,7.6-3.71,14.62,0.52,22.01c-10.19,4.3-20.26,5.92-30.29,0.78c-6.88-3.52-9.78-12.34-7.76-22.6
		c1.87-9.49,6.86-17.31,14.42-23.33c4.51-3.59,9.81-1.48,10.13,4.24C38.28,59.57,42.69,65.55,50.75,69.5z"/>
	<path fill="currentColor" d="M68.29,94.27c-7.87,0.09-14.32-6.28-14.33-14.14c-0.01-7.65,6.16-14.01,13.78-14.22c7.84-0.21,14.42,6.08,14.56,13.92
		C82.44,87.7,76.16,94.18,68.29,94.27z"/>
</g>
</svg>
