<?xml version="1.0" encoding="utf-8"?>
<!-- Generator: Adobe Illustrator 26.1.0, SVG Export Plug-In . SVG Version: 6.00 Build 0)  -->
<svg version="1.1" id="Слой_1" xmlns="http://www.w3.org/2000/svg" xmlns:xlink="http://www.w3.org/1999/xlink" x="0px" y="0px"
	 viewBox="0 0 384 384" enable-background="new 0 0 384 384" xml:space="preserve">
<g>
	<path d="M167.2,384.16c-5-0.94-10.05-1.66-14.98-2.87c-32.1-7.88-58.11-25.21-78.51-51.06c-5.18-6.56-6.15-13.9-2.47-21.44
		c3.72-7.61,10.13-11.6,18.6-11.73c18.42-0.27,34.42-6.43,47.81-19.13c6.79-6.44,11.96-14.04,15.61-22.66
		c0.48-1.14,1-2.26,1.56-3.53c25.84,14.38,51.27,13.96,76.95-1.79c2.11,6,4.41,11.87,6.25,17.88c7.17,23.46,9.48,47.13,2.93,71.21
		c-6.85,25.18-23.63,39.08-48.83,43.61c-2.81,0.51-5.62,1-8.43,1.5C178.2,384.16,172.7,384.16,167.2,384.16z"/>
	<path d="M383.95,216.16c-1.75,8.26-2.84,16.73-5.38,24.73c-8.97,28.29-25.37,51.56-48.88,69.73c-6.38,4.93-13.5,5.78-20.8,2.38
		c-7.4-3.45-11.71-9.52-11.96-17.66c-0.97-31.44-15.67-53.38-44.65-65.71c-0.21-0.09-0.37-0.3-0.66-0.54
		c14.31-25.67,13.88-51.11-1.98-77.02c8.5-2.73,16.77-5.74,25.23-8.02c20.32-5.46,40.79-6.64,61.47-1.62
		c29.16,7.08,43.07,26.35,46.84,53.98c0.18,1.34,0.51,2.65,0.77,3.98C383.95,205.66,383.95,210.91,383.95,216.16z"/>
	<path d="M216.7,0.16c6.33,1.26,12.78,2.1,18.98,3.85c30.56,8.59,55.55,25.57,74.92,50.71c4.82,6.25,5.48,13.34,2.16,20.5
		c-3.37,7.28-9.33,11.7-17.29,11.9c-31.84,0.8-53.69,16.01-66.55,45.26c-25.66-14.24-51.19-13.89-77.09,2.08
		c-2.73-8.53-5.77-16.83-8.04-25.32c-5.7-21.34-6.79-42.79-0.78-64.34c6.46-23.15,21.51-37.07,44.79-42.32
		c3.86-0.87,7.76-1.55,11.64-2.31C205.2,0.16,210.95,0.16,216.7,0.16z"/>
	<path d="M-0.05,167.41c1.75-8.01,2.88-16.21,5.36-23.99c8.86-27.89,25.01-50.88,47.99-69.05c6.8-5.38,14.23-6.69,22.05-2.86
		c7.91,3.86,11.51,10.61,11.78,19.37c0.81,26.34,12.61,46.22,35.37,59.51c3,1.75,6.26,3.05,9.84,4.78
		c-6.91,11.82-10.66,24.52-10.38,38.32c0.28,13.88,4.43,26.48,12.56,38.84c-9.84,3.03-19.23,6.39-28.85,8.79
		c-20.17,5.03-40.42,5.65-60.72,0.07c-23.33-6.41-37.4-21.43-42.69-44.87c-0.87-3.86-1.55-7.76-2.32-11.64
		C-0.05,178.91-0.05,173.16-0.05,167.41z"/>
	<path d="M142.94,192.14c0-27.2,21.88-49.06,49.06-49.01c27.22,0.05,48.99,21.94,48.9,49.16c-0.09,27.09-21.78,48.75-48.86,48.81
		C164.82,241.16,142.95,219.34,142.94,192.14z"/>
</g>
</svg>
