<svg version="1.1" id="Layer" xmlns="http://www.w3.org/2000/svg" xmlns:xlink="http://www.w3.org/1999/xlink" x="0px" y="0px"
	 viewBox="0 0 384 384" enable-background="new 0 0 384 384" xml:space="preserve">
<path fill="currentColor" d="M304.18,121.21c1.84-6.82,4.67-13.17,6.31-19.91c0.18-0.75,0.88-1.36,1.27-2.08c1.2-2.21,3.27-3.27,5.5-2.78
	c2.11,0.46,3.42,2.48,3.67,4.98c0.28,2.75-1.02,5.07-1.78,7.49c-2.5,7.89-5.29,15.7-7.95,23.54c-0.55,1.64-0.83,3.4-1.56,4.94
	c-0.55,1.17-1.63,2.09-2.3,2.91c-3.98,0.75-7.2-0.94-10.51-2.12c-4.01-1.42-7.96-2.99-11.92-4.53c-4.18-1.62-8.34-3.28-12.56-4.76
	c-2.33-0.82-4.37-1.81-5.9-3.82c0-1.43,0-2.92,0-4.32c0.92-0.92,1.8-1.8,2.7-2.7c3.27-0.49,6.24,0.69,9.24,1.86
	c4.92,1.93,9.88,3.74,14.84,5.58c0.17,0.06,0.43-0.13,0.91-0.28c-0.6-1.35-1.04-2.77-1.82-3.98c-3.34-5.22-6.32-10.68-10.21-15.53
	c-0.31-2.07-2.38-2.85-3.33-4.57c-1.32-2.38-3.57-4.25-5.4-6.36c-1.51-1.73-2.87-3.6-4.51-5.2c-3.42-3.33-6.81-6.74-10.51-9.73
	c-5.33-4.3-10.83-8.41-16.58-12.15c-2.02-1.32-4.26-2.3-6.39-3.46c-1.72-0.94-3.38-2.03-5.15-2.87c-3.42-1.63-6.97-3.03-10.37-4.64
	c-4.63-2.19-9.47-3.56-14.27-5.19c-2.54-0.86-5.16-1.29-7.71-2.08c-3.23-1-6.61-1.54-9.91-2.09c-2.8-0.47-5.66-1.47-8.61-0.9
	c-4.31-1.32-8.74-0.62-13.11-0.72c-4.47-0.11-8.95-0.08-13.42,0.01c-1.52,0.03-3.03,0.45-4.54,0.72c-1.51,0.27-3.17-0.67-4.58,0.7
	c-0.32,0.31-1.2,0.05-1.82,0.04c-2.39-0.02-4.61,0.94-6.91,1.26c-2.69,0.37-5.25,1.15-7.88,1.73c-5.09,1.11-10.03,2.73-14.82,4.73
	c-2.12,0.89-4.36,1.39-6.44,2.48c-1.89,0.98-3.8,2.05-6,2.64c-2.49,0.67-4.68,2.45-6.98,3.8c-5.14,3.02-10.23,6.08-15.03,9.68
	c-4.84,3.63-9.45,7.45-13.86,11.59c-1.93,1.81-4.23,3.32-5.9,5.39c-4.73,5.84-9.81,11.35-14.15,17.57
	c-5.56,7.96-10.15,16.38-14.27,25.08c-2.5,5.28-4.48,10.86-6.02,16.49c-0.98,3.57-2.1,7.14-2.69,10.88
	c-0.46,2.91-0.57,6.06-2.04,8.8c-0.1,0.19-0.03,0.49-0.01,0.74c0.26,3.78-1.3,7.45-0.75,11.25c-1.45,5.43-0.53,10.98-0.7,16.47
	c-0.05,1.75,0.54,3.51,0.67,5.28c0.12,1.73-0.4,3.63,0.15,5.18c0.55,1.56,0.5,3.04,0.65,4.58c0.15,1.52,0.34,3.06,0.75,4.53
	c1.3,4.71,1.79,9.58,3.36,14.25c1.06,3.15,1.94,6.4,3.02,9.57c2.01,5.88,4.5,11.56,7.36,17.08c2.3,4.44,4.82,8.73,7.56,12.92
	c2.27,3.46,4.76,6.73,7.11,10.11c2.6,3.72,5.79,6.81,8.73,10.18c1.26,1.44,2.36,3.05,3.77,4.36c2.14,1.98,4.35,3.88,6.53,5.81
	c2.09,1.85,4.05,3.88,6.31,5.5c5.43,3.89,10.77,8.03,16.61,11.23c4.21,2.3,8.35,4.8,12.9,6.62c6.41,2.55,12.7,5.37,19.37,7.24
	c2.45,0.69,4.88,1.43,7.33,2.1c3.26,0.89,6.64,1.19,9.91,2.15c1.88,0.55,3.99,0.27,6.02,0.74c2.79,0.65,5.73,0.69,8.62,0.82
	c2.85,0.12,5.72,0.03,8.57,0.03c2.24,0,4.49-0.17,6.71,0.04c4.43,0.42,8.77-0.47,13.1-0.92c2.89-0.3,5.9-0.48,8.7-1.39
	c2.77-0.91,5.66-1.31,8.46-2c4.4-1.09,8.68-2.41,12.95-3.89c4.03-1.39,7.9-3.12,11.85-4.69c4.08-1.62,7.88-3.85,11.7-5.93
	c4.71-2.56,9.22-5.53,13.53-8.8c4.91-3.73,9.63-7.62,14.13-11.83c1.66-1.55,3.64-2.84,5.13-4.58c4.85-5.65,9.9-11.15,14.22-17.23
	c2.76-3.89,5.23-8,7.66-12.11c1.93-3.27,3.69-6.66,5.33-10.09c0.49-1.02,1.1-1.35,2.02-1.73c2.21-0.94,4.94-0.91,6.06,0.36
	c1.76,2.01,2.3,3.78,0.94,6.46c-2.03,4.01-4.12,7.99-6.25,11.96c-2.16,4.02-4.94,7.61-7.27,11.51c-1.7,2.85-4.15,5.25-6.23,7.87
	c-5.31,6.69-11.76,12.28-17.67,18.4c-2.92,3.02-6.39,5.36-9.84,7.73c-1.17,0.8-2.29,1.68-3.41,2.56c-4.16,3.25-8.66,5.98-13.22,8.6
	c-3.2,1.84-6.42,3.68-9.77,5.2c-6.17,2.81-12.43,5.41-18.89,7.48c-2.53,0.81-5.14,1.38-7.63,2.28c-2.51,0.91-5.32,0.75-7.66,2.2
	c-3.74-0.16-7.18,1.84-10.94,1.49c-2.7,1.68-5.98-0.18-8.73,1.44c-0.55,0.33-1.46,0.05-2.21,0.05c-7.7,0-15.41,0.04-23.11-0.03
	c-1.76-0.02-3.52-0.45-5.28-0.71c-1.64-0.24-3.24,0.09-4.97-0.58c-1.52-0.59-3.48-0.64-5.23-0.82c-2.37-0.24-4.68-0.72-6.95-1.3
	c-2.12-0.55-4.28-1.15-6.38-1.62c-3.43-0.76-6.64-2.01-9.92-3.13c-3.16-1.08-6.46-1.82-9.5-3.17c-5.05-2.24-10-4.71-14.86-7.32
	c-4.8-2.57-9.69-5.09-14.06-8.28c-4.04-2.95-8.1-5.95-11.89-9.29c-2.75-2.43-5.24-5.14-8.08-7.43c-3.71-2.98-6.66-6.67-9.86-10.09
	c-5.83-6.24-10.53-13.41-15.29-20.48c-1.85-2.75-3.01-5.95-4.57-8.9c-0.76-1.44-1.94-2.67-2.58-4.15
	c-2.45-5.7-5.17-11.28-7.09-17.19c-1.07-3.3-2.58-6.45-2.97-9.95c-1.32-1.12-0.63-2.88-1.4-4.28c-0.69-1.27-0.55-2.98-0.85-4.48
	c-0.35-1.71-0.54-3.51-1.24-5.07c-0.7-1.58,0.67-3.5-0.98-4.82c-0.06-0.05,0-0.24-0.01-0.36c-0.25-3-0.73-6.01-0.68-9.01
	c0.05-3.42-1.16-6.68-0.87-10.14c0.29-3.46-0.02-6.96,0.1-10.43c0.06-1.89,0.56-3.77,0.69-5.66c0.12-1.86-0.37-3.84,0.14-5.56
	c0.5-1.67,0.35-3.33,0.7-4.93c0.35-1.64,0.3-3.4,0.79-4.89c0.92-2.8,0.96-5.73,1.88-8.53c0.9-2.73,1.65-5.57,2.28-8.35
	c0.6-2.65,1.6-5.09,2.5-7.57c0.89-2.48,1.75-4.98,2.76-7.43c0.74-1.81,1.61-3.56,2.43-5.33c0.77-1.67,1.25-3.43,2.15-5.09
	c3.25-6.02,6.5-12.04,10.39-17.68c3.11-4.51,6.32-8.92,9.9-13.1c1.91-2.22,3.98-4.27,5.9-6.46c0.86-0.98,2.1-1.63,2.43-3.1
	c0.11-0.51,0.75-1.06,1.28-1.3c2.09-0.93,3.39-2.74,4.94-4.26c4.55-4.47,9.7-8.13,14.78-11.95c7.69-5.77,16.03-10.36,24.57-14.58
	c5.65-2.79,11.63-4.94,17.64-6.9c2.52-0.82,5.12-1.42,7.64-2.27c2.52-0.86,5.17-1.17,7.69-2.13c1.84-0.7,3.99-0.55,5.99-0.85
	c1.15-0.17,2.28-0.5,3.42-0.73c1.03-0.21,2.23,0.47,3.11-0.63c0.11-0.14,0.45-0.1,0.69-0.11c3.62-0.25,7.25-0.63,10.88-0.72
	c5.09-0.12,10.2,0.17,15.28-0.09c4.8-0.25,9.56,0.31,14.21,0.97c5.86,0.84,11.76,1.78,17.53,3.44c4.55,1.31,9.21,2.31,13.7,3.88
	c3.03,1.06,5.98,2.36,8.96,3.57c4.48,1.81,8.91,3.74,13.13,6.11c3.33,1.87,6.63,3.81,9.92,5.76c5.06,3,9.58,6.78,14.47,10.05
	c2,1.34,3.77,3.03,5.5,4.72c4.53,4.43,9.02,8.91,13.45,13.44c3.53,3.61,6.54,7.64,9.5,11.72c2.07,2.86,4.19,5.7,6.11,8.66
	c2.52,3.88,4.88,7.86,6.75,12.11C303.25,120.19,303.72,120.61,304.18,121.21z"/>
<path fill="currentColor" d="M171.43,219.93c8.63-3.56,15.03-9.15,18.49-17.55c3.36-8.15,4.09-13.8,0.57-25.11c0.09-0.09,0.18-0.25,0.26-0.25
	c28.56-0.01,57.13-0.01,85.94-0.01c0.86,3.58,1.95,7.18,1.72,11.04c-0.11,1.98,0.08,3.98-0.04,5.96
	c-0.31,5.17-1.28,10.17-3.65,14.88c-1.03,2.05-1.63,4.3-3.02,6.2c-1.17,1.6-2.04,3.42-3.26,4.97c-1.64,2.1-3.34,4.19-5.28,5.99
	c-1.9,1.77-4.08,3.26-6.14,4.86c-3.44,2.68-7.15,4.75-11.1,6.55c-3.6,1.64-7.3,2.8-11.14,3.71c-3.75,0.89-7.46,1.62-11.32,1.46
	c-0.65-0.03-1.31,0.49-1.98,0.55c-1.07,0.1-2.42,0.43-3.18-0.07c-0.98-0.64-1.86-0.46-2.79-0.5c-1.49-0.06-3.02,0.18-4.46-0.07
	c-1.51-0.27-2.95-0.95-4.54-0.69c-0.89-1.52-2.97,0.03-3.85-1.49c-7.34-1.83-10.05-3.25-15.57-6.53c-2.68-1.59-5.05-3.44-7.5-5.3
	c-1.55-1.18-3.09-2.33-4.37-3.77C173.96,223.35,172.87,221.79,171.43,219.93z"/>
<path fill="currentColor" d="M130.27,199.81c2.24,7.05,6.54,12.19,12.33,16.28c5.8,4.09,12.32,5.53,19.06,5.75c1.15,1.62,2.14,3.23,3.35,4.65
	c1.5,1.74,3.37,3.15,4.47,5.24c0.22,0.42,0.63,0.92,1.04,1.03c2.62,0.67,2.74,2.59,2.74,4.81c-0.04,21.74-0.03,43.48-0.03,65.22
	c0,0.73,0,1.46,0,2.48c-2.56,0.49-5.05,1.19-7.58,1.41c-2.84,0.24-5.72-0.07-8.56,0.09c-4.73,0.26-9.16-1.02-13.51-2.52
	c-5.21-1.8-9.8-4.71-14.21-8.05c-2.66-2.02-5.04-4.29-7.21-6.72c-2.35-2.63-4.39-5.57-6.31-8.55c-2.5-3.88-4.26-8.2-5.72-12.52
	c-0.9-2.69-1.98-5.57-1.78-8.59c-1.46-2.05-0.14-4.55-1.03-6.65c-0.91-2.15-0.42-4.36-0.41-6.52c0.01-2.38,0.37-4.77,0.71-7.14
	c0.32-2.19,0.99-4.34,1.34-6.49c0.38-2.35,1.23-4.51,1.94-6.69c1.81-5.51,4.69-10.55,7.94-15.32c1.83-2.69,4.21-5.03,6.52-7.36
	C126.8,202.24,128.54,201.15,130.27,199.81z"/>
<path fill="currentColor" d="M150.53,158.35c-0.7,0.66-1.08,1.34-1.57,1.43c-3.53,0.65-5.97,3.05-8.78,4.99c-2.46,1.7-4.11,4.01-5.85,6.19
	c-1.99,2.49-3.26,5.54-4.32,8.61c-0.77,2.22-1.18,4.54-1.41,6.84c-0.11,1.11-0.37,1.94-1.21,2.49c-3.47,2.24-6.58,4.9-9.39,7.92
	c-1.45,0.1-1.42,1.66-2.31,2.35c-0.88,0.68-1.6,1.56-2.42,2.38c-22.57,0-45.16,0-68,0c-0.91-2.27-1.7-4.64-1.79-7.27
	c-0.06-1.89-0.68-3.77-0.66-5.65c0.03-2.51,0.53-5.01,0.67-7.52c0.14-2.49,1.63-4.68,1.51-7.21c2.51-5.06,4.32-10.46,7.91-15.01
	c1.98-2.51,4.17-4.76,6.38-7.02c3.27-3.34,7.24-5.71,11.16-8.16c4.43-2.77,9.33-4.53,14.28-5.97c3.24-0.94,6.59-1.9,10.08-1.79
	c3.03,0.09,5.96-1.39,9-0.71c5.15,1.16,10.43,1.28,15.58,2.82c8.43,2.52,12.47,4.55,19.05,8.94c0.78,0.52,1.65,0.95,2.31,1.6
	C143.93,151.72,147.06,154.89,150.53,158.35z"/>
<path fill="currentColor" d="M184.92,168.03c-2.9-2.42-5.62-4.94-8.9-6.7c-4.16-2.23-8.58-3.81-13.36-3.68c-1.66,0.05-2.67-0.7-3.36-1.79
	c-1.55-2.44-3.2-4.76-5.37-6.76c0-23.42,0-46.88,0-70.61c2.53-0.48,5.02-1.21,7.56-1.39c3.46-0.24,6.96-0.04,10.43-0.07
	c4.07-0.03,7.88,1.3,11.62,2.58c4.15,1.43,8.05,3.49,11.6,6.21c3.8,2.92,7.69,5.62,10.53,9.67c1.48,2.12,3.36,4.01,4.65,6.31
	c1.58,2.82,3.46,5.54,4.58,8.54c0.72,1.93,1.8,3.77,2.23,5.78c0.44,2.05,1.11,4.08,1.46,6.08c0.49,2.8,1.27,5.65,0.97,8.62
	c-0.13,1.23-0.67,2.71,0.5,3.86c0.14,0.14,0.24,0.5,0.15,0.66c-1.5,2.78-0.22,5.81-0.77,8.64c-0.62,3.19-1.21,6.4-2.17,9.53
	c-1.35,4.42-2.88,8.73-5.17,12.79c-0.73,1.29-1.35,1.74-2.7,1.73C201.21,168.02,193.01,168.03,184.92,168.03z"/>
<path fill="currentColor" d="M160.36,168.05c6.24-0.33,11.37,2.02,15.51,6.08c4.25,4.17,6.42,9.48,6.35,15.57c-0.08,6.43-2.74,11.53-7.33,15.99
	c-3.07,2.98-9.88,5.77-14.47,5.54c-5.4-0.28-10.85-1.75-15.93-7.39c-3.95-4.39-5.62-9.44-5.54-15.22
	c0.09-5.71,2.35-10.61,6.32-14.47C149.42,170.12,154.49,167.64,160.36,168.05z"/>
<path fill="currentColor" d="M331.37,195.62c8.57,0,17.13-0.02,25.7,0.02c1.95,0.01,3.62-0.74,5.36-1.47c2.82-1.2,3.77-3.57,3.89-6.23
	c0.12-2.75-0.98-5.22-3.63-6.43c-1.67-0.77-3.12-2.44-5.5-1.05c-2.06,1.2-3.12,1.53-4.3,2.93c-2.43,2.88-5.61,3.69-8.67,0.87
	c-1.58-1.46-1.91-5.04-0.46-6.59c2.38-2.54,4.63-5.43,8.07-6.54c3.15-1.02,6.37-2.82,9.84-0.85c4.61,0.19,8.02,2.68,10.94,5.91
	c1.8,2,2.81,4.45,3.56,7.09c0.51,1.79,0.65,3.51,0.66,5.3c0.01,2.88-0.89,5.61-2.32,7.96c-1.39,2.26-2.95,4.43-5.47,5.98
	c-2.39,1.47-4.76,2.22-7.4,2.92c-3.17,0.85-6.28,0.58-9.41,0.6c-14.77,0.07-29.55,0.03-44.32,0.04c-1.56,0-3.04-0.12-4.55-0.71
	c-2.64-1.02-3.73-3.57-2.84-6.21c0.96-2.82,2.73-3.62,5.53-3.58C314.49,195.7,322.93,195.62,331.37,195.62z"/>
<path fill="currentColor" d="M277.28,234.4c14.44,0,28.71-0.03,42.97,0.03c2.35,0.01,4.21-0.68,5.69-2.5c0.36-5.85-0.29-6.54-6.22-6.42
	c-0.88,0.88-1.88,1.67-2.6,2.65c-0.97,1.32-2.55,1.22-3.8,1.63c-0.81,0.27-2.21-0.58-3.08-1.27c-2.26-1.76-2.75-5.11-1.1-7.31
	c2.13-2.85,5.16-4.52,8.27-6.06c0.1-0.05,0.22-0.14,0.32-0.13c2.88,0.39,5.73-0.34,8.71,0.49c2.54,0.71,4.15,2.19,5.88,3.83
	c1.75,1.66,3.12,3.4,3.76,5.9c1.02,3.97,0.4,9.26-1.8,12.62c-1.27,1.94-2.68,3.57-4.72,4.69c-0.98,0.53-5.79,2.29-6.87,2.29
	c-14.39,0.01-28.78,0.01-43.17-0.01c-2.4,0-5.05-2-5.58-4.18c-0.37-1.51,0.32-2.82,1.12-3.98
	C275.61,235.86,276.43,235.24,277.28,234.4z"/>
<path fill="currentColor" d="M330.31,159.83c0.69-1.31,2.29-1.82,2.68-3.72c0.28-1.35-0.17-2.38-0.38-3.45c-0.13-0.65-1.37-1.22-2.22-1.58
	c-1.67-0.71-4.7-0.13-5.45,1.51c-0.78,1.71-2.44,1.53-3.48,2.5c-0.35,0.32-1.22,0.38-1.7,0.18c-2.18-0.87-3.99-2.32-4.58-4.64
	c-0.25-0.97,0.18-2.31,0.71-3.25c2.55-4.52,8.01-7.26,11.93-6.97c2.02,0.15,4,0.03,6.05,0.69c4.9,1.58,8.97,6.57,9.43,11.55
	c0.36,3.88,0.22,4.01-0.72,7.66c-1.27,4.95-4.92,7.35-9.16,9.16c-1.26,0.54-2.65,0.84-4.14,0.83c-13.04-0.08-26.08-0.06-39.13-0.03
	c-1.73,0-3.31-0.14-4.63-1.45c-1.09-1.08-1.67-3.33-1.47-4.63c0.4-2.65,2.14-3.78,4.44-4.35c0.7-0.17,1.48-0.03,2.23-0.03
	C303.87,159.83,317.04,159.83,330.31,159.83z"/>
</svg>
