<svg version="1.1" id="Слой_1" xmlns="http://www.w3.org/2000/svg" xmlns:xlink="http://www.w3.org/1999/xlink" x="0px" y="0px"
	 viewBox="0 0 96 92.53" enable-background="new 0 0 96 92.53" xml:space="preserve">
<g>
	<path fill="currentColor" d="M78.04,58.27h-59.4c-1.48,0-2.7,1.08-2.92,2.5c-0.02,0.15-0.03,0.3-0.03,0.46v3.18h0H81v-3.18
		C81,59.59,79.67,58.27,78.04,58.27z"/>
</g>
<g>
	<path fill="currentColor" d="M84.14,28.35h-71.6c-2.75,0-5,2.25-5,5v25.74c0,2.75,2.25,5,5,5h2.64v-3.23c0-0.16,0.01-0.31,0.04-0.46
		c0.22-1.44,1.47-2.54,2.96-2.54H78.5c1.66,0,3,1.34,3,3v3.23h2.64c2.75,0,5-2.25,5-5V33.35C89.14,30.6,86.89,28.35,84.14,28.35z
		 M80.49,38.87c-1.38,0-2.5-1.12-2.5-2.5c0-1.38,1.12-2.5,2.5-2.5c1.38,0,2.5,1.12,2.5,2.5C82.99,37.75,81.87,38.87,80.49,38.87z"/>
</g>
</svg>
