<svg version="1.1" id="Layer" xmlns="http://www.w3.org/2000/svg" xmlns:xlink="http://www.w3.org/1999/xlink" x="0px" y="0px"
	 viewBox="0 0 512 512" enable-background="new 0 0 512 512" xml:space="preserve">
<path fill="currentColor" d="M256,196c63.33,0,126.66,0.03,189.99-0.09c2.83-0.01,5.37,0.89,8.07,1.21c1.8,0.21,3.37,1.61,4.7,3.1
	c3.4,3.82,3.79,6.87,2.32,12.28c-2.43,8.97-5.82,17.61-8.55,26.46c-2.73,8.86-5.83,17.59-8.68,26.41
	c-1.46,4.51-2.91,9.09-4.75,13.52c-1.89,4.55-3.06,9.4-4.58,14.1c-1.48,4.55-3.04,9.08-4.49,13.64c-1.1,3.44-2.89,6.45-5.8,8.56
	c-1.32,0.96-3.1,1.38-4.74,1.77c-1.1,0.26-2.32,0.05-3.49,0.05c-106.66,0-213.32,0.01-319.98-0.05c-1.72,0-3.42-0.01-5.25-0.49
	c-5.09-1.34-7.21-5.3-8.65-9.38c-4.3-12.24-8.07-24.66-12.12-36.99c-3.7-11.29-7.45-22.58-11.25-33.84
	c-2.76-8.18-5.7-16.31-8.45-24.5c-1.85-5.52,2.56-14.13,9.12-14.94c3.04-0.38,6.05-0.81,9.11-0.81C131.01,196,193.5,196,256,196z
	 M158.97,256.36c0.64-3.26-0.89-5.87-3.34-8.29c-2.48-2.46-5.51-2.61-8.68-3.17c-5.84-1.02-12.02,7.22-11.88,11.47
	c0.11,3.31,1.1,6.53,3.71,8.88c2.37,2.13,4.99,3.91,8.38,3.74C153.6,268.66,159.72,263.86,158.97,256.36z M255.92,245
	c-6.43-0.59-12.06,5.48-11.96,11.29c0.12,6.76,5.68,12.76,12.11,12.71c3.57-0.02,6.21-1.89,8.71-4.23c2.4-2.25,3.09-4.99,3.26-8.13
	C268.36,250.44,262.4,244.33,255.92,245z M353.03,256.29c-0.73,7.53,5.19,12.27,11.76,12.69c3.39,0.22,6-1.59,8.41-3.69
	c2.53-2.2,3.83-5.37,3.65-8.36c-0.4-6.78-6.53-12.84-11.74-12.04c-3.19,0.49-6.21,0.68-8.7,3.12
	C353.96,250.43,352.38,253.02,353.03,256.29z"/>
<path fill="currentColor" d="M244,91.5c-3.85,3.85-7.28,7.11-10.52,10.57c-3.88,4.13-8.82,4.42-13.85,3.85c-3.09-0.35-7.21-6.14-7.65-9.59
	c-0.61-4.85,1.1-8.83,4.4-12.16c9.84-9.93,19.7-19.84,29.67-29.64c2.87-2.82,6.34-4.74,10.59-4.51c3.63,0.19,6.68,1.91,9.16,4.35
	c10.09,9.92,20.14,19.87,29.99,30.02c3.97,4.09,5.74,8.97,3.28,14.81c-1.51,3.58-5.2,6.55-8.93,6.85
	c-5.23,0.41-9.35-1.42-12.85-5.22c-2.81-3.05-5.82-5.91-9.28-9.39c0,1.86,0,3.12,0,4.39c0,12.98-0.04,25.96,0.03,38.94
	c0.02,3.25-1.58,5.68-3.39,8.1c-2.07,2.76-5.37,3.84-8.28,3.94c-4.15,0.13-8.06-1.74-10.33-5.65c-1.34-2.32-2.15-4.76-2.11-7.64
	c0.17-13.15,0.07-26.29,0.07-39.44C244,93.44,244,92.81,244,91.5z"/>
<path fill="currentColor" d="M373,115.21c0,2.13,0,3.41,0,4.69c0,12.5,0.04,24.99-0.02,37.49c-0.03,6.41-3.44,11.14-10.34,13.43
	c-2.79,0.93-8.91-1.24-10.63-3.66c-1.97-2.75-3.19-5.58-3.12-9.25c0.27-12.66,0.1-25.33,0.1-37.99c0-1.29,0-2.58,0-4.45
	c-1.2,0.73-1.94,1-2.45,1.5c-3.45,3.38-6.88,6.79-10.26,10.24c-1.9,1.94-4.05,3.17-6.85,2.77c-2.03-0.29-3.98-0.02-6.15-0.81
	c-5.44-2-6.25-6.7-7.12-11.07c-0.62-3.09,1.89-5.8,3.64-8.38c0.37-0.54,0.93-0.95,1.4-1.42c10.02-10.01,20.11-19.95,29.99-30.1
	c2.27-2.33,5.03-3.55,7.82-4.04c3.86-0.68,7.49,0.86,10.36,3.73c9.66,9.66,19.32,19.32,28.99,28.98c1.06,1.06,2.14,2.1,3.18,3.18
	c4.78,4.96,4.6,15.13-2.21,18.13c-1.09,1.87-2.86,1.98-4.74,1.84c-0.99-0.07-2.01-0.1-3,0c-2.81,0.31-4.98-0.81-6.86-2.77
	c-1.84-1.92-3.78-3.76-5.64-5.67C377.25,119.69,375.45,117.77,373,115.21z"/>
<path fill="currentColor" d="M163,115.21c0,8.55,0,16.02,0,23.49c0,7,0.02,13.99-0.01,20.99c-0.01,4.24-3.46,9.01-7.4,10.31
	c-3.9,1.29-8.47,1.11-11.15-1.17c-3.21-2.72-5.38-6.33-5.41-10.7c-0.1-12.33-0.03-24.65-0.03-36.98c0-1.64,0-3.27,0-5.65
	c-4.06,4.06-7.71,7.56-11.18,11.23c-2.27,2.4-4.83,3.63-8.16,3.29c-2.52-0.26-5.39,0.85-7.17-2.02c-6.85-3.25-6.57-13.08-2.22-17.76
	c1.47-1.59,3.05-3.07,4.58-4.6c9.07-9.07,18.23-18.05,27.15-27.27c2.25-2.33,5.01-3.65,7.76-4.19c3.81-0.75,7.53,0.74,10.41,3.54
	c4.06,3.94,8.02,7.99,12.03,12c6.01,6.01,12.05,11.98,18,18.05c1.57,1.6,3.05,3.35,4.2,5.26c0.85,1.42,1.38,3.18,1.52,4.83
	c0.17,2.05-0.91,3.84-1.87,5.69c-3.59,6.87-9.31,7.82-15.85,5.42c-1-0.37-1.89-1.19-2.68-1.96c-3.33-3.26-6.6-6.59-9.92-9.87
	C165.07,116.6,164.39,116.22,163,115.21z"/>
<path fill="currentColor" d="M220.01,368.96c-3.42,0.51-6.32-0.58-8.93-3.26c-2.32-2.39-2.82-5.03-3.21-8.19c-0.8-6.43,5.59-11.83,11.94-12.35
	c2.98-0.24,6.07,1.16,8.42,3.54c2.46,2.49,3.7,5.58,3.69,8.9C231.9,362.58,226.93,370.35,220.01,368.96z"/>
<path fill="currentColor" d="M291.97,368.9c-3.25,1.15-6.04-0.61-8.06-2.71c-2.19-2.29-4.18-5.25-3.85-8.76c0.29-3.11,1.24-6.06,3.47-8.51
	c2.28-2.5,5.37-3.82,8.34-3.76c6.05,0.11,13.18,5.75,12.27,12.52c-0.43,3.19-1.05,5.78-3.35,8.13
	C298.32,368.33,295.6,369.51,291.97,368.9z"/>
<path fill="currentColor" d="M255.79,410c7.01-0.7,12.6,5.88,12.24,11.5c-0.18,2.91-0.61,5.62-2.81,7.81c-2.53,2.52-5.28,4.55-9.01,4.69
	c-3.59,0.13-6.32-1.7-8.76-4.05c-2.64-2.55-3.31-4.66-3.49-8.51C243.71,415.67,249.35,409.47,255.79,410z"/>
<path fill="currentColor" d="M180.08,450.13c0.02-2.53-0.37-5.05,1.52-7.32c1.93-2.32,4.51-3.76,7.05-4.67c5.02-1.79,11.65,1.72,13.82,6.9
	c0.76,1.82,2.03,3.76,1.47,5.81c-0.59,2.2-1.35,4.55-2.72,6.3c-3.07,3.93-7.41,5.48-12.36,4.82c-2.64-0.35-8-4.88-8.71-7.41
	C179.76,453.18,180.08,451.61,180.08,450.13z"/>
<path fill="currentColor" d="M331.95,450.42c0.93,3.39-1.03,6.09-3.31,8.29c-2.12,2.05-4.78,3.43-8.05,3.33c-6.88-0.21-12.19-5.13-12.42-12.24
	c-0.12-3.54,1.81-6.95,4.87-9.36c2.22-1.75,4.69-2.39,7.46-2.45c3.58-0.08,6.31,1.54,8.88,3.84
	C331.96,444.14,332.21,447.06,331.95,450.42z"/>
<path fill="currentColor" d="M364.13,378.04c8.04-0.61,12.68,5.27,12.73,11.36c0.06,6.89-5.5,12.3-12.54,12.51c-3.45,0.11-6.07-2.22-8.53-4.56
	c-2.48-2.35-2.81-5.14-2.86-8.32c-0.05-3.15,1-5.5,3.17-7.69C358.53,378.88,361.12,377.31,364.13,378.04z"/>
<path fill="currentColor" d="M147.75,378.03c3.05-0.5,5.57,0.75,7.95,3.07c2.52,2.45,3.02,5.25,3.46,8.59c0.77,5.9-5.66,11.78-12.17,12.23
	c-5.47,0.38-12.05-6.45-11.94-12.22C135.17,383.68,139.97,377.2,147.75,378.03z"/>
</svg>
