<svg version="1.1" id="Layer" xmlns="http://www.w3.org/2000/svg" xmlns:xlink="http://www.w3.org/1999/xlink" x="0px" y="0px"
	 viewBox="0 0 512 512" enable-background="new 0 0 512 512" xml:space="preserve">
<path fill="currentColor" d="M256.03,196c63.33,0,126.66,0.03,189.99-0.09c2.83-0.01,5.36,0.94,8.08,1.19c2.3,0.21,3.93,2.15,5.34,3.89
	c2.93,3.6,2.99,6.37,1.62,11.53c-2.55,9.58-6.18,18.79-9.1,28.24c-2.87,9.3-6.03,18.51-9.16,27.71c-2.17,6.4-4.17,12.9-6.7,19.21
	c-2.46,6.15-4.11,12.63-6.1,18.97c-1.08,3.44-2.9,6.45-5.81,8.55c-1.32,0.95-3.11,1.36-4.75,1.75c-1.11,0.26-2.32,0.05-3.49,0.05
	c-106.66,0-213.32,0-319.98-0.02c-1.62,0-3.27-0.04-4.84-0.39c-5.1-1.14-7.56-5.19-9.06-9.54c-4.56-13.29-8.71-26.72-13.09-40.08
	c-3.37-10.27-6.8-20.51-10.27-30.74c-2.77-8.18-5.72-16.3-8.45-24.5c-1.84-5.54,2.61-14.14,9.17-14.92c3.04-0.36,6.05-0.8,9.11-0.8
	C131.04,196,193.54,196,256.03,196z M158.97,256.16c0.54-3.07-0.81-5.58-3.13-7.91c-2.45-2.46-5.34-3.1-8.62-3.31
	c-3.36-0.21-5.86,1.01-8.09,3.38c-2.23,2.37-4.3,5.06-4.01,8.24c0.67,7.52,4.81,11.91,11.77,12.32
	C153.15,269.26,159.83,264.08,158.97,256.16z M256.15,245c-7.05-0.65-12.52,5.94-12.19,11.56c0.18,3.13,0.79,5.9,3.21,8.15
	c2.49,2.33,5.14,4.22,8.68,4.28c6.22,0.1,11.88-5.81,12.21-12.13C268.39,250.72,262.59,244.41,256.15,245z M353.03,256.42
	c-0.75,7.47,5.49,12.31,11.88,12.57c3.4,0.14,6-1.63,8.38-3.78c2.48-2.24,3.8-5.41,3.57-8.39c-0.52-6.62-6.31-12.71-11.85-11.91
	c-3.21,0.46-6.19,0.73-8.67,3.19C353.86,250.54,352.41,253.18,353.03,256.42z"/>
<path fill="currentColor" d="M244,129.5c0-2.15,0-3.61,0-5.07c0-12.65-0.01-25.3,0.01-37.95c0.01-5.57,3.43-9.36,8.73-11.64
	c3.14-1.35,5.55-0.34,8.06,0.58c2.35,0.86,4.07,2.62,5.43,5.05c1.26,2.25,1.81,4.31,1.8,6.77c-0.04,13.8-0.02,27.59-0.02,41.26
	c0.25,0.25,0.35,0.44,0.49,0.46c0.1,0.02,0.24-0.18,0.35-0.3c3.18-3.18,6.45-6.27,9.51-9.55c3.84-4.11,8.72-4.6,13.78-4.04
	c3.34,0.37,7.43,6.12,7.92,9.85c0.65,4.95-1.39,8.8-4.61,12.08c-9.68,9.85-19.5,19.57-29.28,29.33c-2.51,2.5-5.54,4.18-9.05,4.63
	c-4.25,0.55-7.86-1.39-10.71-4.16c-10.25-9.98-20.39-20.09-30.37-30.35c-4.02-4.14-5.4-9.15-3.08-14.88
	c1.3-3.23,5.27-6.29,8.66-6.61c5.43-0.51,9.68,1.42,13.28,5.39C237.63,123.36,240.63,126.13,244,129.5z"/>
<path fill="currentColor" d="M349,105.8c0-8.23,0-15.36,0-22.5c0-7.33-0.02-14.66,0.01-21.99c0.01-4.24,3.57-8.77,7.39-10.35
	c8.21-3.4,16.54,4.2,16.59,11.94c0.07,12.33,0.02,24.66,0.02,36.99c0,1.63,0,3.27,0,5.62c3.6-3.6,6.88-6.55,9.76-9.85
	c3.02-3.45,6.42-5.23,11.11-4.73c2.15,0.23,3.8,0.83,5.75,1.92c6.45,3.62,6.58,13.09,2.07,17.94c-2.04,2.19-4.23,4.25-6.35,6.37
	c-8.48,8.48-17.06,16.87-25.38,25.51c-2.25,2.34-5.01,3.64-7.78,4.16c-3.82,0.72-7.53-0.74-10.41-3.58
	c-6.16-6.09-12.27-12.24-18.39-18.37c-4.12-4.12-8.31-8.19-12.34-12.4c-1.53-1.6-2.87-3.43-3.98-5.34c-0.67-1.17-1-2.69-0.99-4.05
	c0.02-1.53,0.35-3.16,0.97-4.57c2.31-5.27,5.41-7.48,11.17-7.61c3.73-0.08,6.52,1.06,9,3.75c2.94,3.18,6.09,6.17,9.17,9.21
	C346.93,104.4,347.62,104.78,349,105.8z"/>
<path fill="currentColor" d="M139,105.51c0-14.57-0.08-28.22,0.04-41.86c0.06-6.41,3.22-11.78,10.72-13.57c3.82-0.91,7.49,0.92,9.93,3.43
	c2.15,2.21,3.53,5.28,3.43,9.04C162.8,75.53,163,88.53,163,101.52c0,1.12,0,2.23,0,3.95c1.16-0.67,1.91-0.92,2.41-1.41
	c3.45-3.38,6.87-6.79,10.26-10.24c1.9-1.93,4.07-2.64,6.82-2.92c7.44-0.77,11.41,4.25,13.47,11c0.64,2.09-0.6,4.11-1.41,5.88
	c-0.9,1.98-2.57,3.68-4.15,5.27c-9.73,9.82-19.62,19.49-29.25,29.41c-2.37,2.44-5.2,3.87-8.18,4.39c-3.86,0.68-7.49-0.86-10.36-3.73
	c-8.6-8.59-17.2-17.2-25.8-25.8c-2.12-2.12-4.27-4.21-6.36-6.37c-4.82-4.97-4.59-15.15,2.19-18.12c2.7-3.47,6.47-1.4,9.74-1.76
	c2.22-0.24,3.73,1.53,5.21,3.02C131.23,97.75,134.87,101.37,139,105.51z"/>
<path fill="currentColor" d="M219.96,368.97c-3.42,0.44-6.33-0.6-8.93-3.31c-2.32-2.42-2.74-5.09-3.15-8.22c-0.83-6.24,5.58-11.85,12.01-12.28
	c2.96-0.2,6.07,1.17,8.4,3.58c2.44,2.52,3.66,5.62,3.62,8.92C231.85,362.61,227,370.33,219.96,368.97z"/>
<path fill="currentColor" d="M291.97,368.96c-6.85,1.42-11.9-6.45-11.9-11.39c0-3.35,1.26-6.4,3.72-8.89c2.34-2.37,5.44-3.78,8.42-3.53
	c6.35,0.54,12.71,5.9,11.92,12.37c-0.39,3.17-0.9,5.8-3.22,8.19C298.3,368.39,295.39,369.49,291.97,368.96z"/>
<path fill="currentColor" d="M268,421.69c-0.04,6.4-5.79,12.28-11.99,12.32c-3.82,0.02-6.52-2.06-9.07-4.55c-2.35-2.29-2.89-5.13-2.96-8.24
	c-0.14-5.79,5.48-11.59,12.51-11.35C262.43,410.08,268.47,415.42,268,421.69z"/>
<path fill="currentColor" d="M179.91,449.81c-0.13-2.62,0.12-5.04,1.93-7.21c1.92-2.3,4.56-3.36,7.1-4.53c1.46-0.67,7.42,0.13,8.49,0.96
	c3.66,2.83,6.52,6.47,6.42,11.17c-0.08,3.81-1.85,7.56-5.29,9.64c-7.63,4.62-14.03,1.99-18.27-5.2
	C179.55,453.39,180.01,451.44,179.91,449.81z"/>
<path fill="currentColor" d="M331.94,450.51c1.01,3.43-1.13,6.07-3.37,8.25c-2.1,2.04-4.8,3.42-8.06,3.28c-6.47-0.29-11.58-4.39-12.36-11.83
	c-0.31-2.96,1.26-5.98,3.49-8.44c2.46-2.71,5.38-3.74,8.92-3.79c3.6-0.05,6.31,1.61,8.85,3.91
	C331.98,444.2,332.22,447.15,331.94,450.51z"/>
<path fill="currentColor" d="M353.06,389.41c-0.55-3.25,0.75-5.75,3.05-8.12c2.45-2.52,5.18-3.24,8.62-3.38c7.4-0.29,12.16,5.56,12.14,11.54
	c-0.03,6.9-5.57,12.28-12.6,12.47c-3.45,0.09-6.07-2.25-8.52-4.6C353.44,395.1,352.68,392.52,353.06,389.41z"/>
<path fill="currentColor" d="M147.85,378.03c3.06-0.54,5.54,0.85,7.9,3.13c2.55,2.45,2.95,5.29,3.41,8.61c0.79,5.8-5.81,11.83-12.24,12.15
	c-5.46,0.28-12.02-6.63-11.86-12.29C135.22,383.84,139.69,377.24,147.85,378.03z"/>
</svg>
