<svg version="1.1" id="Layer" xmlns="http://www.w3.org/2000/svg" xmlns:xlink="http://www.w3.org/1999/xlink" x="0px" y="0px"
	 viewBox="0 0 512 512" enable-background="new 0 0 512 512" xml:space="preserve">
<path fill="currentColor" d="M387.18,41c0.22,0.28,0.44,0.8,0.67,0.8c3.11,0.06,5.94,1.25,8.56,2.61c7.22,3.75,12.38,9.41,15.11,17.22
	c1.02,2.93,1.21,5.97,1.82,8.92c1.03,4.96,0.62,9.86,0.62,14.77c0.06,116.22,0.05,232.44,0.01,348.66c0,3.66-0.14,7.4-0.91,10.94
	c-0.79,3.63-2.13,7.26-4.15,10.4c-3.22,5.03-7.41,9.17-13.03,11.58c-4.25,1.82-8.57,3.28-13.32,3.28
	c-84.09-0.03-168.18-0.02-252.28-0.03c-6.38,0-12.04-2.2-17.39-5.58c-5.93-3.74-9.22-9.42-12.07-15.49
	c-0.61-1.3-0.78-2.81-1.02-4.16c-0.66-3.59-0.93-7.29-0.93-10.94c-0.04-119.15-0.04-238.31-0.01-357.46c0-4.56,0.69-9.12,1.76-13.53
	c0.66-2.7,2.21-5.24,3.65-7.68c2.9-4.87,7.3-8.24,12.16-10.89c2.47-1.35,5.21-2.4,8.14-2.62c0.38-0.03,0.72-0.52,1.09-0.8
	C212.83,41,300.01,41,387.18,41z M112.25,235.25c2.07-5.71,5.59-10.63,8.49-15.79c2.38-4.23,5.26-8.22,8.12-12.2
	c4.02-5.59,8.23-10.98,12.96-15.93c3.8-3.97,7.48-8.09,12-11.36c3.72-2.69,6.86-6.2,10.65-8.76c6.82-4.59,13.67-9.18,21.08-12.8
	c6.15-3,12.42-5.74,18.89-8c2.7-0.94,5.53-1.55,8.2-2.48c4.83-1.69,9.86-2.5,14.78-3.68c1.49-0.36,3.03-0.97,4.65-0.98
	c1.74-0.01,3.39-0.07,5.15-0.71c1.6-0.59,3.59-0.17,5.4-0.11c1.9,0.06,3.51-1.08,5.52-0.92c7.27,0.56,14.6-0.7,21.87,0.85
	c2.47,0.53,5.05,0.23,7.63,0.72c3.24,0.61,6.52,1.29,9.77,1.7c4.37,0.54,8.59,1.73,12.72,2.85c7.07,1.93,14.03,4.51,20.66,7.7
	c5.72,2.75,11.56,5.33,16.84,8.91c4.37,2.97,8.81,5.84,13.1,8.95c4.27,3.1,8.25,6.52,12.1,10.02c4.57,4.16,8.92,8.6,12.94,13.38
	c3.64,4.34,7.18,8.79,10.43,13.36c4.28,6.02,7.87,12.56,11.08,19.26c0.99,2.06,1.95,4.13,3.32,7.04c0-1.37,0-1.88,0-2.39
	c0-54.75-0.01-109.49,0.02-164.24c0-1.94-0.66-3.63-1.44-5.28c-2.99-6.36-9.9-10.77-16.75-10.77c-83.8,0-167.59,0.01-251.39-0.04
	c-3.46,0-6.48,0.88-9.44,2.54c-6.07,3.39-9.38,8.31-9.37,15.43c0.04,53.21,0.02,106.42,0.02,159.63
	C112.25,232.5,112.25,233.88,112.25,235.25z M363.71,457.59c6.41,0,12.54-0.08,18.66,0.05c1.94,0.04,3.77-0.26,5.51-0.92
	c7.68-2.9,12.8-9.03,12.78-17.22c-0.14-49.72-0.12-99.45,0.02-149.17c0.01-4.28-1.3-8.38-0.93-12.64c0.02-0.26,0.03-0.57-0.08-0.8
	c-1.46-3.14-1.44-6.63-2.27-9.93c-0.37-1.48-0.83-3.05-1.05-4.63c-0.21-1.51-0.92-2.96-1.4-4.43c-1.81-5.53-3.58-11.03-5.92-16.41
	c-1.96-4.51-3.91-9.08-6.38-13.25c-2.73-4.61-5.56-9.23-8.74-13.63c-3.87-5.37-8.22-10.3-12.51-15.28c-2.67-3.1-5.74-5.86-8.99-8.45
	c-3.27-2.6-6.42-5.36-9.72-7.95c-6.85-5.37-14.36-9.63-22.01-13.67c-2.86-1.51-5.74-3.01-8.75-4.15c-3.01-1.15-6.08-2.17-9.09-3.36
	c-2.77-1.09-5.72-1.71-8.57-2.57c-2.99-0.9-6.04-1.76-9.05-2.34c-3.5-0.68-7.07-1.51-10.59-1.69c-3.95-0.2-7.87-1-11.79-0.93
	c-6.03,0.12-12.08-0.72-18.11,0.69c-2.58,0.6-5.33,0.34-8.04,0.76c-3.81,0.58-7.65,1.07-11.43,1.87c-2.8,0.59-5.59,1.31-8.31,2.18
	c-5.29,1.7-10.58,3.45-15.79,5.37c-3.26,1.2-6.65,2.38-9.51,4.28c-2.2,1.46-4.58,2.53-6.81,3.89c-1.33,0.81-2.74,1.45-4.05,2.38
	c-3.67,2.59-7.51,4.89-11.1,7.65c-4.16,3.2-8.28,6.44-12.15,9.95c-3.34,3.03-6.47,6.31-9.35,9.87c-3.21,3.97-6.39,7.94-9.5,11.98
	c-3.56,4.63-6.46,9.63-9.27,14.65c-3.72,6.64-7.13,13.5-9.25,20.87c-1.22,4.24-3.06,8.27-3.85,12.68c-0.51,2.84-1.5,5.61-1.56,8.54
	c-1.71,1.19-0.17,3.2-1.14,4.55c-1.09,1.52-0.27,3.22-0.54,4.81c-0.26,1.56-0.8,3.12-0.8,4.68c-0.04,51.82-0.04,103.64-0.01,155.45
	c0,1.04,0.23,2.05,0.51,3.11c1.25,4.69,4.14,7.99,8.11,10.36c2.19,1.31,4.6,2.66,7.22,2.71c6.95,0.16,13.9,0.05,21.01,0.05
	c0-0.79,0-1.32,0-1.86c0-20.95,0-41.9,0-62.85s-0.15-41.9,0.04-62.85c0.19-20.84-0.91-41.69,0.79-62.51
	c0.19-2.31-0.07-4.73,0.55-6.91c0.63-2.21-0.58-4.68,1.13-6.64c0.2-4.92,2.09-9.44,3.35-14.11c1.39-5.14,3.58-10.06,6.06-14.65
	c2.4-4.45,4.84-8.99,8.08-13.06c2.83-3.56,5.27-7.44,8.53-10.67c2.58-2.56,5.08-5.19,7.72-7.68c1.97-1.85,3.98-3.72,6.22-5.23
	c3.69-2.49,7.33-5.05,11.19-7.32c5.28-3.11,10.74-5.72,16.48-7.8c2.55-0.93,5.13-1.85,7.76-2.48c2.68-0.64,5.24-1.59,8.05-1.94
	c2.41-0.3,4.87-1.48,7.31-1.35c2.8,0.16,5.31-1.14,8.04-0.95c5.61,0.39,11.19-0.17,16.86,0.64c5.14,0.74,10.21,1.57,15.28,2.67
	c4.97,1.08,15.07,4.75,18.31,6.39c3.36,1.7,6.69,3.44,9.98,5.29c5.72,3.21,10.96,7.07,15.76,11.38
	c6.69,6.01,12.94,12.51,17.95,20.14c2.88,4.39,4.99,9.22,8.21,13.38c0.85,3.7,2.99,6.88,4.16,10.42c1.3,3.94,2.42,7.96,3.52,11.97
	c1.16,4.23,1.36,8.59,2.32,12.83c0.57,2.53,0,5.29,0.14,7.94c0.13,2.55,0.77,5.08,0.77,7.62
	C363.72,337.32,363.71,397.23,363.71,457.59z M350.3,457.52c0-61.55-0.04-122.72,0.05-183.89c0.01-7.75-0.68-15.32-2.51-22.85
	c-1.36-5.57-3.09-10.98-5.54-16.15c-1.39-2.92-2.99-5.75-4.59-8.58c-3.35-5.93-7.4-11.38-12.02-16.37
	c-2.98-3.22-6.14-6.26-9.63-8.99c-4.39-3.43-8.75-6.91-13.75-9.36c-5.32-2.62-10.48-5.65-16.3-7.17c-4.43-1.15-8.66-2.88-13.33-3.35
	c-2.24-0.23-4.65-0.14-6.75-0.8c-2.45-0.76-4.81-0.66-7.23-0.7c-3.21-0.06-6.64-0.71-9.58,0.18c-3.02,0.92-6.25-0.3-9,1.48
	c-4.72-0.07-8.92,2-13.33,3.21c-3.39,0.93-6.49,2.56-9.74,3.8c-3.41,1.31-6.2,3.81-9.75,4.8c-5.23,3.97-10.79,7.52-15.49,12.15
	c-2.83,2.79-5.48,5.74-8.08,8.76c-3.84,4.46-6.94,9.39-9.92,14.38c-2.37,3.98-4.15,8.32-5.96,12.6c-1.15,2.74-1.78,5.68-2.65,8.53
	c-0.84,2.75-1.62,5.62-1.72,8.47c-0.11,3-1.03,5.82-1.03,8.87c0.11,62.29,0.08,124.57,0.08,186.86c0,1.36,0,2.72,0,4.1
	C225.24,457.52,287.63,457.52,350.3,457.52z"/>
<path fill="currentColor" d="M274.78,84.71c0.74,6.16-1.65,10.87-5.89,14.52c-3.19,2.75-7.04,4.34-11.43,4.69c-5.28,0.42-9.67-1.72-13.51-4.73
	c-3.76-2.95-6.04-7.06-5.97-12.11c0.02-1.53-0.01-3.07,0.01-4.6c0.04-5.06,2.58-9.02,6.3-11.95c2.03-1.6,4.5-2.87,7.23-3.7
	c3.99-1.21,7.71-0.9,11.38,0.41c4.36,1.55,8,4.34,10.16,8.5C274.51,78.57,275.44,81.7,274.78,84.71z M250.63,85
	c-0.56,2.84,1,4.47,3.15,5.75c1.64,0.98,3.54,0.97,5.01,0.12c1.22-0.71,2.96-1.46,3.19-3.11c0.25-1.83,0.17-3.75-0.06-5.59
	c-0.24-1.91-2.22-2.58-3.54-3.3c-1.1-0.6-3.14-0.38-4.32,0.28C251.9,80.34,249.77,81.96,250.63,85z"/>
<path fill="currentColor" d="M262.29,122.72c0,3.07-0.81,4.78-3.51,5.92c-1.3,0.55-3.27,0.85-4.35,0.23c-1.31-0.75-2.97-1.55-3.6-3.32
	c-1.18-3.29,0.09-7.37,3.25-8.71c1.35-0.57,3.31-0.55,4.69-0.01C261.42,117.84,262.29,119.72,262.29,122.72z"/>
<path fill="currentColor" d="M338.56,306.29c0,9.5,0.05,19-0.04,28.49c-0.02,2.26-0.63,4.51-0.77,6.78c-0.14,2.23,0.43,4.59-0.14,6.67
	c-0.89,3.29-1.26,6.67-2.12,9.97c-0.86,3.28-1.92,6.51-2.91,9.73c-0.98,3.17-2.77,6.12-4.41,9.05c-2.72,4.85-5.48,9.68-9.43,13.71
	c-1.7,1.74-3,3.9-4.8,5.52c-4.95,4.47-10.18,8.49-15.88,12.09c-6.38,4.03-13.45,6.03-20.2,8.98c-3.74,0.16-7.3,1.35-10.98,1.9
	c-4.53,0.68-9,0.67-13.5,0.63c-1.97-0.02-3.94,0.42-6-0.66c-1.65-0.87-4.06,0.49-5.87-0.97c-10.46-1.49-16.35-4.45-22.82-7.61
	c-5.09-2.49-9.88-5.58-14.12-9.44c-1.29-1.17-2.82-2.08-4.07-3.29c-7.94-7.66-14.05-16.59-18.74-26.58
	c-1.99-4.24-2.95-8.81-4.86-13.08c-0.89-1.99-0.43-4.53-0.99-6.72c-0.98-3.78-0.15-7.71-0.93-11.37
	c-1.17-5.51-0.59-10.97-0.65-16.44c-0.16-14.1-0.13-28.21-0.01-42.32c0.05-5.89,0.41-11.79,0.87-17.66
	c0.13-1.68,0.65-3.37,0.88-5.09c0.23-1.69,0.26-3.59,0.84-5.07c2.02-5.17,3.49-10.53,6.02-15.53c2.43-4.79,4.92-9.62,8.26-13.69
	c3.67-4.47,7.06-9.32,12.13-12.65c2.75-1.81,5.18-4.23,7.96-6.12c5.94-4.05,12.32-7.19,19.12-9.47c4.2-1.41,8.51-2.57,12.87-3.28
	c4.98-0.81,10.05-1.05,15.14-1c3.15,0.03,6.19,0.73,9.29,0.87c3.09,0.14,5.96,1.18,8.93,1.78c2.92,0.59,5.89,1.3,8.58,2.52
	c7,3.19,14.13,6.13,20.07,11.33c2.28,2,4.98,3.64,7.2,5.75c7.93,7.49,13.83,16.44,18.57,26.22c2.1,4.33,3.12,9.03,4.91,13.47
	c0.82,2.04,0.37,4.56,0.99,6.72c1.05,3.64,0.19,7.41,0.91,10.96c0.83,4.11,0.61,8.17,0.69,12.25c0.08,4.19,0.02,8.38,0.02,12.57
	C338.56,299.59,338.56,302.94,338.56,306.29z M325.15,306.01c0-13.13,0.06-26.25-0.05-39.38c-0.02-2.51-0.42-5.08-1.08-7.5
	c-1.12-4.11-1.99-8.3-3.84-12.23c-1.38-2.93-2.59-5.93-4.39-8.65c-2.43-3.68-5.22-7.11-7.82-10.64c-2.67-3.63-6.6-5.57-9.39-8.87
	c-0.91-1.08-2.31-1.74-3.53-2.55c-4.02-2.66-8.4-4.62-12.73-6.69c-1.51-0.72-3.15-1.16-4.74-1.7c-1.72-0.58-3.42-1.22-5.18-1.65
	c-1.67-0.41-3.43-0.95-5.08-0.77c-2.01,0.21-3.62-1-5.53-0.95c-2.93,0.08-5.87-0.09-8.8,0.05c-2.96,0.14-5.91,0.53-8.87,0.81
	c-0.27,0.03-0.55,0.01-0.79,0.1c-3.96,1.6-8.22,2.22-12.18,3.99c-4.15,1.86-8.4,3.54-12.11,6.13c-5.36,3.74-10.53,7.67-14.81,12.84
	c-4.18,5.04-7.62,10.44-10.67,16.16c-0.66,1.25-1.08,2.63-1.66,3.92c-1.89,4.17-4.22,14.48-4.22,18.78
	c0,23.32-0.04,46.64,0.04,69.96c0.01,4.35-0.31,8.69,0.66,13.09c0.67,3.07,1.42,6.16,2.26,9.16c1.53,5.48,4.05,10.64,7.12,15.47
	c2.59,4.07,5.49,8,8.88,11.34c2.64,2.6,5.62,4.99,8.61,7.31c6.19,4.8,13.08,8.01,20.43,10.43c1.6,0.52,3.14,1.21,4.76,1.64
	c1.52,0.41,3.11,0.78,4.67,0.82c1.77,0.04,3.41,0.51,5.11,0.79c2.31,0.38,4.74,0.22,7.1,0.06c2.29-0.15,4.57,0.48,6.89-0.53
	c2.05-0.9,4.42-0.42,6.7-0.96c5.22-1.25,10.2-2.94,15.07-5.14c7.09-3.2,13.06-8,18.91-12.96c1.52-1.29,2.49-3.19,3.91-4.63
	c3.31-3.35,5.67-7.34,7.98-11.37c2.72-4.76,4.77-9.71,6.05-15.11c1.14-4.82,2.39-9.51,2.35-14.51
	C325.09,330.03,325.15,318.02,325.15,306.01z"/>
<path fill="currentColor" d="M274.86,305.84c0-11.45,0-22.9,0-34.35c0-5.03-2.71-9.54-7-12.62c-1.84-1.32-3.67-2.55-5.78-3.27
	c-4.96-1.69-11.06-1-15.33,1.71c-4.04,2.56-6.99,5.95-8.35,10.72c-0.35,1.25-0.39,2.4-0.39,3.58c-0.04,12.57,0.02,25.13-0.07,37.7
	c-0.01,2.11-0.25,4.33-0.98,6.28c-1.23,3.3-6.06,5.06-8.84,2.71c-1.42-1.2-2.32-2.34-2.83-4.25c-0.68-2.57-0.71-5.08-0.71-7.64
	c-0.02-9.35-0.08-18.71,0.03-28.06c0.04-3.66,0.27-7.35,0.93-10.94c0.24-1.34,0.41-2.86,1.02-4.15c1.12-2.33,2.23-4.69,3.56-6.9
	c2.92-4.86,7.3-8.19,12.21-10.78c2.26-1.19,4.87-1.7,7.3-2.58c3.03-1.11,6.23-1.18,9.28-0.74c5.57,0.79,10.97,2.11,15.63,5.75
	c3.02,2.36,5.91,4.72,7.88,8.02c2.71,4.53,4.49,9.26,5.18,14.65c0.9,7.04,0.52,14.03,0.65,21.04c0.14,7.26,0.03,14.52,0.03,21.78
	c0,7.12,0.25,14.25-0.08,21.36c-0.28,6.18-0.92,12.36-4.08,17.97c-2.33,4.14-5.32,7.46-9.05,10.51c-4.53,3.71-9.79,5.06-15.09,6.1
	c-4.88,0.95-9.83-0.19-14.57-2.02c-7.85-3.03-12.53-7.57-16.75-14.92c-2.92-5.09-3.34-10.32-3.26-15.85
	c0.04-2.59,2.16-3.66,3.78-4.53c1.28-0.68,3.35-0.86,5.03,0.48c1.56,1.25,3.04,2.3,3,4.6c-0.02,1.14,0.57,2.27,0.77,3.42
	c0.2,1.17-0.45,2.53,0.86,3.42c0.93,4.98,4.22,8.01,8.37,10.47c3.88,2.3,8.15,3.32,12.35,2.34c4.68-1.09,8.99-3.26,12.06-7.53
	c2.41-3.36,3.35-6.79,3.31-10.82C274.78,327.62,274.86,316.73,274.86,305.84z"/>
<path fill="currentColor" d="M212.83,288.97c0,5.59,0,11.17,0,16.76c0,1.54,0.11,3.08-0.03,4.61c-0.13,1.43-0.69,2.83-0.77,4.27
	c-0.15,2.53-2.23,3.74-3.86,4.47c-1.42,0.64-3.57,0.75-5.38-0.85c-1.46-1.29-2.12-2.51-2.65-4.35c-0.74-2.57-0.7-5.09-0.71-7.65
	c-0.02-9.22,0.06-18.43-0.04-27.65c-0.05-4.52,0.87-8.95,1.04-13.47c0.16-4.35,1.82-8.66,3.55-12.71c1.67-3.92,3.54-7.84,6.16-11.27
	c5.96-7.79,12.91-14.45,21.95-18.63c3.66-1.69,7.5-2.83,11.4-3.85c2.82-0.74,5.69-1.22,8.55-1.54c3.03-0.35,6.16-0.3,9.2-0.02
	c3.28,0.3,6.52,1.06,9.78,1.62c0.88,1.56,2.53,0.47,3.74,1.1c2.52,1.31,5.22,2.27,7.71,3.62c4.34,2.34,8.52,4.93,11.97,8.55
	c3.38,3.54,7.01,6.79,9.54,11.13c2.36,4.05,4.55,8.16,6.06,12.58c1.69,4.94,2.14,10.08,2.74,15.26c0.73,6.35,0.46,12.64,0.6,18.95
	c0.15,6.42,0.1,12.85-0.01,19.27c-0.04,2.12-0.16,4.37-0.88,6.33c-1.21,3.28-5.89,4.96-8.86,2.97c-3.27-2.2-3.44-5.46-3.54-8.55
	c-0.27-8.51-0.09-17.03-0.09-25.55c0-4.33-0.11-8.66,0.02-12.99c0.26-8.4-2.62-15.8-7.26-22.55c-5.69-8.29-13.46-13.94-22.98-17.12
	c-1.85-0.62-3.84-0.85-5.76-1.26c-1.28-0.28-2.55-0.67-3.85-0.81c-1.38-0.14-2.79-0.04-4.19-0.03c-9.1,0.05-17.32,2.89-24.74,8.02
	c-6.87,4.75-12.13,10.95-15.32,18.7c-1.75,4.25-3.25,8.61-3.14,13.38C212.95,276.12,212.83,282.55,212.83,288.97z"/>
<path fill="currentColor" d="M256.19,394.79c-9.18-0.37-17.97-2.22-26.13-6.69c-4.22-2.31-8.26-4.82-11.63-8.31c-3.4-3.52-7.01-6.78-9.54-11.11
	c-2.37-4.05-4.48-8.18-6.1-12.56c-2.28-6.15-2.78-12.53-2.6-19.05c0.08-2.81,2.05-4.07,3.82-4.94c1.44-0.71,3.56-0.84,5.36,0.73
	c1.44,1.26,2.34,2.37,2.72,4.32c0.39,1.99,0.71,3.92,0.76,5.95c0.17,6.31,2.49,12,5.6,17.35c2.04,3.51,4.67,6.59,7.63,9.42
	c4.94,4.74,10.76,8,17.13,10.24c1.92,0.68,4.2,0.8,6.17,1.34c2.74,0.75,5.38,0.62,8.07,0.65c8.26,0.09,15.87-2.61,22.68-6.83
	c5.26-3.26,9.84-7.72,13.16-13.17c1.01-1.66,2-3.35,2.87-5.09c0.81-1.61,1.41-3.32,2.17-4.96c0.83-1.79,0.49-3.86,1.58-5.64
	c0.5-0.81,0.25-2.21,0.05-3.29c-0.46-2.51,0.48-4.86,0.98-7.17c0.79-3.63,5.98-5.43,8.89-3.2c1.82,1.4,2.93,2.79,2.75,5.12
	c-0.09,1.25-0.09,2.52,0,3.77c0.38,5.31-1.18,10.26-2.82,15.17c-1.9,5.7-4.67,11.13-8.4,15.72c-3.16,3.89-6.8,7.53-10.98,10.59
	c-3.1,2.28-6.28,4.34-9.67,6.07c-3.59,1.83-7.47,2.9-11.39,3.86C265.02,394.13,260.69,394.97,256.19,394.79z"/>
<path fill="currentColor" d="M258.45,344.43c-0.77,0-1.61,0.02-2.45,0c-2.41-0.06-5.02-2.3-5.46-4.64c-0.26-1.42-0.67-2.83-0.8-4.27
	c-0.14-1.52-0.03-3.07-0.03-4.61c0-17.74-0.03-35.48,0.04-53.21c0.01-2.24,0.24-4.61,0.99-6.7c1.2-3.31,6.08-5.04,8.84-2.7
	c1.43,1.21,2.31,2.36,2.81,4.26c0.68,2.57,0.71,5.08,0.72,7.64c0.01,17.88,0.04,35.76-0.03,53.63c-0.01,2.26-0.31,4.58-0.94,6.74
	c-0.17,0.59-0.16,2.21-1.81,2.27C259.71,342.86,259.11,343.85,258.45,344.43z"/>
</svg>
