<svg version="1.1" id="Слой_1" xmlns="http://www.w3.org/2000/svg" xmlns:xlink="http://www.w3.org/1999/xlink" x="0px" y="0px"
	 viewBox="0 0 512 512" enable-background="new 0 0 512 512" xml:space="preserve">
<path id="ok" fill="#fed15f" d="M381.39,452.51c-1.91,0.02-3.89-0.6-5.66,0.68c-0.37,0.27-1.23,0.25-1.65,0c-2.34-1.38-4.9-0.51-7.33-0.84
	c-3.74-0.51-7.5-0.97-11.16-1.85c-3.31-0.8-6.46-2.21-9.73-3.21c-4.32-1.33-8.2-3.59-12.07-5.81c-3.13-1.8-6.39-3.48-8.99-6.12
	c-0.85-0.86-2-1.43-2.87-2.27c-2.75-2.67-5.42-5.42-8.15-8.11c-3.22-3.17-5.67-6.91-7.92-10.78c-1.66-2.85-3.19-5.77-4.71-8.69
	c-2.62-5.07-4.05-10.54-5.67-15.98c-0.61-2.03-0.08-4.17-1.01-5.95c-1.09-2.06-0.59-4.16-0.45-6.16c0.15-2.04-1.15-3.68-0.94-5.62
	c0.24-2.3,0.53-4.6,0.85-6.89c0.32-2.29-0.09-4.54,0.64-6.95c0.79-2.61,1.06-5.48,1.69-8.23c0.6-2.64,2.07-4.91,2.53-7.49
	c0.48-2.7,2.08-4.83,3.1-7.25c2.35-5.54,5.96-10.36,9.3-15.31c0.08-0.12,0.21-0.2,0.3-0.3c1.85-2.24,4.61-3.69,5.72-6.57
	c2.93-1.06,4.23-4,6.59-5.7c5.07-3.66,10.33-7,15.93-9.84c3.77-1.91,7.98-2.71,11.59-4.93c3.27-0.02,6.17-1.85,9.47-1.87
	c1.73-0.01,3.45-0.63,5.19-0.77c1.69-0.14,3.43,0.14,5.1-0.08c1.45-0.2,2.76-1.1,4.34-0.81c1.86,0.34,3.73,0.69,5.61,0.83
	c1.83,0.14,3.8-0.36,5.51,0.11c3.33,0.91,6.76,1.24,10.07,2.37c3.36,1.14,6.84,1.96,10.09,3.42c3.11,1.4,6.36,2.62,9.22,4.43
	c3.41,2.15,6.73,4.46,9.97,6.9c4.54,3.42,8.49,7.43,12.12,11.63c4.87,5.63,8.81,12.01,11.85,18.89c1.82,4.12,3.17,8.35,4.38,12.69
	c0.77,2.76,1.11,5.52,1.74,8.24c0.68,2.93,0.46,5.76,0.69,8.63c0.05,0.66,0.17,1.34,0.43,1.95c0.63,1.47,0.7,2.88-0.05,4.33
	c-0.24,0.46-0.43,1.04-0.37,1.53c0.53,4.07-0.88,7.98-0.92,12c-0.01,0.88-0.58,1.74-0.8,2.63c-0.92,3.71-2.08,7.34-3.33,10.97
	c-1.48,4.28-3.71,8.15-5.8,12.08c-1.81,3.4-4.06,6.59-6.3,9.73c-1.06,1.48-2.62,2.59-3.86,3.95c-4.42,4.85-9.33,9.17-14.71,12.87
	c-3.68,2.53-7.71,4.62-11.76,6.53c-4.29,2.02-8.93,3.14-13.46,4.57C390.96,451.58,386.16,451.69,381.39,452.51z M331.01,378.36
	c-3.42-0.16-5.99-0.5-8.21,1.56c-1.7,1.57-1.48,3.8-2.48,5.58c1.34,1.06,0.97,2.89,2.33,4.19c7.78,7.45,15.33,15.15,22.94,22.78
	c3.72,3.73,8.27,3.85,12.97,2.9c2.69-0.55,4.84-2.22,6.78-4.16c20.35-20.37,40.71-40.72,61.06-61.07c0.4-0.4,0.83-0.78,1.2-1.21
	c1.09-1.25,1.91-2.6,1.79-4.37c-0.07-1.13-0.01-2.26-0.01-3.03c-1.43-1.55-2.66-2.9-3.59-3.91c-4.56-1.14-7.41,0.82-10.26,3.69
	c-19.47,19.64-39.06,39.15-58.61,58.71c-0.77,0.77-1.55,1.54-2.12,2.11C346.57,393.92,338.58,385.93,331.01,378.36z"/>
<path fill="currentColor" d="M218.97,450.28c-0.32,2.01,0.35,4.14-0.8,6.33c-1.04,1.98-2.77,2.34-4.44,3.14c-1.59,0.76-2.92,0.2-4.2-0.57
	c-1.37-0.83-2.74-1.71-3.97-2.74c-4.02-3.37-7.91-6.89-11.98-10.2c-4.78-3.9-9.63-7.71-14.33-11.72
	c-5.07-4.33-10.61-8.1-15.67-12.45c-5-4.29-9.88-8.77-14.37-13.57c-3.38-3.62-6.05-7.88-8.7-12.11c-3.75-5.98-6-12.58-8.16-19.19
	c-1.07-3.28-1.43-6.81-2.01-10.25c-1.83-10.91-0.71-21.91-0.8-32.87c-0.19-23.28-0.1-46.57-0.02-69.85
	c0.01-3.72,0.02-7.57,0.97-11.11c0.82-3.06,0.1-6.55,2.4-9.21c-0.03-3.35,2.19-5.92,3.09-8.94c1.99-6.64,6.67-11.72,10.02-17.57
	c0.82-1.43,2.28-2.52,3.58-3.62c1.08-0.91,1.53-2.23,2.87-3.1c2.78-1.79,4.79-4.54,7.46-6.63c4.57-3.59,9.51-6.43,14.66-8.94
	c4.86-2.38,9.95-4.08,15.29-5.3c3.61-0.83,7.26-1.02,10.79-1.74c3.78-0.77,7.47-0.42,11.19-0.64c1.62-0.1,3.21-0.08,4.79,0.76
	c1.27,0.67,2.84-0.25,4.41,0.7c1.52,0.93,3.63,0.43,5.54,0.92c5.03,1.28,9.73,3.19,14.49,5.17c5.47,2.27,10,5.99,15.08,8.82
	c0.84,0.46,1.38,1.43,2.14,2.06c1.26,1.04,2.26,2.28,3.78,3.16c1.55,0.89,2.28,3.1,3.73,4.29c3.92,3.21,6.09,7.7,8.97,11.66
	c3.36,4.63,5.19,10.03,7.22,15.32c0.61,1.59,1.3,3.18,1.68,4.84c0.69,3,1.03,6.09,1.77,9.07c1.38,5.53,0.69,11.13,0.8,16.69
	c0.11,5.82-0.06,11.64,0.06,17.46c0.06,2.73,0.71,5.44,0.77,8.17c0.1,3.96-2.69,6.71-6.51,6.77c-4.22,0.06-6.66-2.58-7.14-6.66
	c-1.38-11.66-0.3-23.35-0.88-35c-0.29-5.84-1.55-11.62-3.73-17.16c-3.33-8.45-7.49-16.32-14.17-22.68
	c-3.81-3.62-7.33-7.53-11.94-10.26c-4.64-2.75-12.86-6.72-18.41-8.05c-6.01-1.43-11.95-2.84-18.13-2.39
	c-4.33,0.32-8.71,0.73-12.9,1.76c-4.05,1-8.08,2.29-11.9,4.13c-5.46,2.63-10.42,5.88-15.2,9.65c-7.43,5.87-12.49,13.5-16.9,21.54
	c-2.24,4.08-3.63,8.75-4.48,13.48c-0.31,1.73-0.54,3.48-0.9,5.17c-0.34,1.59-0.76,3.14-0.74,4.78c0.03,1.85,0.01,3.69,0.01,5.54
	c0,30.38-0.02,60.77,0.04,91.15c0.01,2.72,0.41,5.46,0.85,8.16c0.4,2.49,0.99,4.96,1.69,7.39c1.28,4.42,2.78,8.77,5.07,12.81
	c2.67,4.7,5.35,9.37,9.26,13.2c0.81,0.8,1.62,1.59,2.41,2.41c4.05,4.2,8.48,7.94,13.11,11.49c4.16,3.18,7.85,6.98,12.02,10.13
	c3.91,2.96,7.42,6.4,11.52,9.13c1.94,1.29,3.69,2.88,5.37,4.5c2.88,2.77,6.05,5.14,9.22,7.56
	C215.58,446.52,217.13,448.44,218.97,450.28z"/>
<path fill="currentColor" d="M156.75,305.18c0-13.77-0.15-27.54,0.08-41.3c0.08-4.81,1.02-9.63,2.5-14.26c1.41-4.41,3.41-8.64,6.08-12.36
	c4.27-5.96,9.5-11.06,15.83-14.92c2.38-1.45,5.14-2.1,7.47-3.52c2.51-1.54,5.49-1.37,7.87-2.58c2.49-1.27,5.34,0.47,7.46-1.55
	c2.7,0,5.47-0.41,8.07,0.09c4.93,0.95,9.85,1.76,14.63,3.69c8.07,3.25,14.8,8.16,20.27,14.66c4.15,4.93,8.49,11.58,10.39,20.81
	c0.83,4.03,1.64,7.96,1.61,12.09c-0.07,11.21-0.07,22.43,0.01,33.64c0.02,2.3-0.33,4.57,0.69,6.94c0.87,2.03,0.23,4.49,0.84,6.87
	c2.18,8.54,2.7,11.59,7.35,20.39c2.61,4.93,0.87,7.25-1.88,9.6c-0.95,0.81-2.35,1.39-3.59,1.48c-1.08,0.08-2.44-0.43-3.29-1.14
	c-1.36-1.14-2.55-2.56-3.53-4.04c-3.67-5.55-5.18-12.04-7.6-18.13c-0.57-1.45-0.55-3.19-0.77-4.74c-0.38-2.69-0.8-5.44-1.18-8.12
	c-1.07-7.42-0.56-14.83-0.68-22.24c-0.12-7.52,0.36-15.07-0.15-22.56c-0.41-5.93-1.92-11.64-5.22-16.99
	c-2.63-4.27-5.92-7.8-9.61-10.8c-3.62-2.94-7.76-5.45-12.7-6.29c-1.88-0.32-3.91-0.22-5.58-0.86c-1.79-0.69-3.5-0.83-5.23-0.68
	c-6.27,0.56-12.42,1.84-17.86,5.14c-3.05,1.85-5.68,4.36-8.25,6.91c-3.13,3.11-5.56,6.59-7.19,10.67c-1.13,2.85-1.89,5.74-2.51,8.78
	c-1.31,6.44-0.61,12.85-0.65,19.26c-0.15,21.71,0.01,43.43-0.11,65.15c-0.03,4.71,1.17,9.19,1.83,13.76
	c0.33,2.3,1.44,4.49,2.19,6.74c0.71,2.12,0.99,4.52,2.19,6.31c2.47,3.65,4.1,7.75,6.79,11.28c3.08,4.04,6.58,7.67,10.35,10.98
	c3.88,3.41,7.7,6.93,12.1,9.75c1.95,1.25,3.26,3.28,5.34,4.56c2.44,1.5,4.42,3.74,6.64,5.62c1.14,0.96,2.37,1.81,3.55,2.72
	c1.07,0.83,1.95,1.8,3.2,2.51c2,1.13,3.29,3.22,5.37,4.5c2.44,1.51,4.42,3.74,6.64,5.62c1.14,0.96,2.37,1.81,3.55,2.72
	c1.07,0.83,2.07,1.72,3.19,2.51c2.82,1.98,5.34,4.43,7.83,6.84c3.58,3.46,2.13,9.58-2.08,11.14c-1.54,0.57-2.97,0.87-4.31,0.23
	c-1.79-0.86-3.53-1.81-5.09-3.2c-4.07-3.63-8.29-7.12-12.72-10.32c-1.89-1.36-3.68-2.9-5.36-4.51c-2.57-2.48-5.44-4.55-8.32-6.64
	c-2.23-1.61-4.14-3.66-6.31-5.36c-4.19-3.28-8-7.02-12.43-10.02c-2.03-1.37-3.66-3.3-5.66-4.83c-3.2-2.44-6.22-5.18-8.99-8.1
	c-2.92-3.08-5.58-6.42-8.15-9.81c-3.46-4.55-5.71-9.79-8.22-14.89c-2.17-4.41-3.18-9.19-4.86-13.74c-0.92-2.49-0.47-5.44-1.01-8.11
	c-1.56-7.8-0.6-15.67-0.77-23.5C156.61,321.08,156.75,313.13,156.75,305.18z"/>
<path fill="currentColor" d="M266.4,430.9c-3.8,1.01-6.52-0.97-9.13-2.88c-2.33-1.71-4.31-3.91-6.63-5.65c-4.03-3.02-7.59-6.63-11.82-9.43
	c-2.04-1.35-3.65-3.31-5.66-4.82c-3.85-2.88-7.3-6.3-11.12-9.23c-4.29-3.29-8.49-6.64-12.24-10.55c-0.92-0.96-2.41-1.43-3.19-2.47
	c-3.97-5.29-8.85-9.92-11.78-15.97c-2.12-4.37-4.75-8.59-6.16-13.18c-1.19-3.89-2.55-7.82-3.11-11.97
	c-0.33-2.45-0.11-5.06-0.86-7.28c-0.89-2.65-0.55-5.2-0.68-7.79c-0.13-2.55-0.03-5.11-0.03-7.66c0-18.74,0.02-37.47-0.01-56.21
	c-0.01-6.72,2.84-12.22,7.24-17c2.22-2.41,7.16-4.91,11.93-6.14c5.85-1.5,10.21-0.27,16.15,2.65c2.55,1.25,6.51,5.77,8.2,7.99
	c2.18,2.85,2.97,6.18,4.05,9.41c0.34,1.02,0.14,2.23,0.14,3.35c0.01,16.6,0.01,33.21,0,49.81c0,3.83,0.54,7.56,1.69,11.22
	c0.36,1.15,0.05,2.34,0.5,3.62c1.64,4.72,3.08,9.49,5.47,13.92c2.91,5.37,6.11,10.53,10.59,14.77c4.07,3.84,8.15,7.68,12.3,11.43
	c2.4,2.17,2.47,2.09,3.55,4.43c1.66,3.59,0.95,5.76-2.48,7.57c-4.04,2.13-5.65,1.76-9.05-1.15c-4.96-4.23-10.36-8.01-14.57-13.02
	c-4.31-5.14-8.69-10.21-11.61-16.45c-2.12-4.53-4.69-8.82-5.91-13.74c-0.83-3.35-2.62-6.47-2.4-10.08
	c-2.87-9.71-1.47-19.67-1.66-29.52c-0.2-10.5-0.03-21-0.05-31.51c-0.02-6.24-3.4-9.83-8.97-11.77c-1.89-0.66-3.69,0.56-5.43,1.21
	c-1.95,0.72-3.43,2.07-4.37,4.05c-0.99,2.09-1.7,4.17-1.7,6.54c0.04,21.57,0.06,43.14-0.05,64.72c-0.01,1.86,0.69,3.45,0.94,5.18
	c0.24,1.59-0.82,3.42,0.83,4.76c-0.18,2.9,0.76,5.57,1.71,8.23c2.79,7.8,6.29,15.17,11.77,21.55c1.89,2.21,3.76,4.43,5.79,6.51
	c2.6,2.66,5.6,4.79,8.59,6.98c1.99,1.45,3.56,3.41,5.66,4.83c2.39,1.62,4.29,3.94,6.65,5.61c4.01,2.84,7.46,6.35,11.52,9.12
	c2.27,1.55,4.2,3.58,6.31,5.37c2.28,1.93,4.64,3.76,7.05,5.54c2.03,1.49,3.82,3.39,5.44,5.34c1.68,2.01,1.45,4.52-0.34,6.62
	C268.5,428.95,267.32,429.98,266.4,430.9z"/>
<path fill="currentColor" d="M208.14,105.63c0.57,0,1.14,0.05,1.7-0.01c5.75-0.61,11.38,1.18,17.11,0.86c2.19,1.15,4.56,0.83,6.89,0.85
	c1.62,2.08,4.48-0.34,6.11,1.7c2.34-0.06,4.42,1.25,6.59,1.49c6.44,0.71,12.09,3.91,18.27,5.33c1.67,0.38,3.12,1.33,4.78,1.86
	c3.47,1.11,6.69,3.01,9.97,4.68c6.51,3.3,12.83,6.95,18.81,11.15c4.01,2.82,7.99,5.64,11.67,8.94c4.22,3.78,8.88,7.09,12.75,11.25
	c5.51,5.93,10.65,12.16,15.43,18.72c5.03,6.91,9.29,14.24,13.19,21.81c1.62,3.15,2.72,6.54,4.49,9.65c1.69,2.97,2.16,6.45,3.54,9.6
	c1.21,2.76,1.75,5.8,2.64,8.7c0.84,2.77,1.15,5.68,2.47,8.35c0.61,1.24,0.28,2.83,0.78,4.34c0.84,2.54,0.69,5.4,1.01,8.11
	c0.24,2.02,0.69,4.02,0.81,6.04c0.16,2.73-1.3,4.37-3.68,5.73c-2.52,1.44-4.93,1-6.9-0.26c-1.41-0.9-2.65-2.96-2.86-4.64
	c-0.24-1.89-0.69-3.73-1.03-5.59c-0.74-4.07-0.73-8.22-2.37-12.22c-0.91-2.23-1.4-4.87-1.76-7.33c-0.33-2.3-1.06-4.48-1.93-6.47
	c-1.49-3.37-2.43-6.93-4.03-10.27c-1.52-3.18-2.69-6.57-4.42-9.66c-3.24-5.81-6.72-11.47-10.48-16.99
	c-5.89-8.65-12.94-16.18-20.29-23.51c-2.53-2.52-5.62-4.37-8.26-6.7c-3.39-2.99-7.18-5.37-10.78-8.02c-2.02-1.49-4.26-2.7-6.45-3.93
	c-3.68-2.06-7.29-4.34-11.16-5.95c-3.75-1.55-7.38-3.4-11.24-4.77c-3.7-1.32-7.62-2.11-11.09-4.05c-3.18,0.22-6.03-1.26-9.06-1.79
	c-3.59-0.63-7.15-1.37-10.77-1.88c-2.6-0.37-5.25-0.15-7.75-0.72c-6.82-1.56-13.7-0.42-20.53-0.77c-3.18-0.16-6.19,1.22-9.45,0.9
	c-3.31-0.32-6.37-2.42-6.83-5.27c-0.6-3.7,0.89-6.51,4.23-7.96c0.48-0.21,1.01-0.44,1.51-0.44
	C195.9,106.51,201.96,104.83,208.14,105.63z"/>
<path fill="currentColor" d="M74.96,273.49c0-3.83-0.11-7.67,0.03-11.49c0.17-4.85,0.12-9.77,0.97-14.52c0.6-3.36,1.47-6.76,2.14-10.12
	c1.09-5.5,2.94-10.72,4.54-16.03c0.57-1.88,1.13-3.79,1.95-5.58c2.02-4.42,4.03-8.85,6.33-13.13c3.29-6.12,7.19-11.86,11.34-17.46
	c5.27-7.12,11.46-13.35,17.87-19.36c4.33-4.06,9.29-7.45,14.26-10.73c5.52-3.64,11.12-7.19,17.23-9.77
	c6.66-2.81,13.29-5.62,20.36-7.42c4.22-1.07,8.5-1.94,12.7-3.18c2.84-0.84,5.98-0.66,8.98-0.96c2.72-0.27,5.44-0.67,8.16-0.82
	c2.69-0.14,5.39,0.01,8.09-0.04c3.15-0.06,5.59,1.06,7.31,3.8c1.15,1.83,1.36,4.42-0.09,6.05c-2.48,2.79-2.94,4.21-7.28,3.82
	c-1.97-0.18-3.98-0.12-5.96-0.01c-4,0.22-8.07,0.17-11.97,0.93c-4.58,0.9-9.24,1.46-13.74,2.76c-4.3,1.25-8.66,2.37-12.81,4.02
	c-6.23,2.48-12.26,5.39-18.09,8.79c-3.93,2.29-7.54,5-11.38,7.4c-2.31,1.45-4.2,3.57-6.32,5.34c-1.68,1.41-2.74,3.57-5.06,4.22
	c-2.25,3.79-6.05,6.2-8.61,9.65c-2.08,2.8-4.3,5.51-6.19,8.47c-1.44,2.24-3.07,4.31-4.22,6.77c-1.39,2.99-3.68,5.58-4.92,8.61
	c-2.93,7.17-6.18,14.21-7.88,21.88c-0.84,3.76-1.54,7.57-2.52,11.29c-0.61,2.33-0.31,4.68-0.82,6.89
	c-1.32,5.69-0.61,11.42-0.74,17.12c-0.14,5.81-0.1,11.64,0.01,17.45c0.03,1.71-0.43,3.19-1.08,4.68c-1.08,2.47-2.89,3.7-5.66,3.67
	c-2.86-0.03-4.82-1.07-6.18-3.73c-0.55-1.08-0.75-2.02-0.75-3.1C74.95,284.27,74.96,278.88,74.96,273.49z"/>
<path fill="currentColor" d="M74.3,147.14c-0.96-0.97-2.15-2.17-3.38-3.42c-0.06-0.2-0.17-0.45-0.21-0.71c-1.01-5.64,3.18-8.47,6.38-11.83
	c1.58,0.13,2.05-1.33,2.94-2.13c3.64-3.26,7.01-6.85,10.85-9.85c5.81-4.55,11.83-8.83,18.11-12.74c7.4-4.61,15.16-8.53,23.02-12.27
	c4.26-2.02,8.67-4.01,13.13-5.23c5.48-1.51,10.68-3.99,16.4-4.71c2.47-0.31,4.87-1.28,7.36-1.8c1.3-0.27,2.6-0.52,3.94-0.71
	c1.32-0.18,2.6-0.58,3.91-0.82c1.72-0.32,3.44-0.7,5.18-0.83c1.63-0.12,3.17-0.29,4.79-0.77c1.69-0.5,3.8,0.33,5.47-0.2
	c4.56-1.45,9.16-0.55,13.72-0.73c4.68-0.18,9.43-0.5,14.02,0.12c3.17,0.43,6.3,0.54,9.46,0.73c1.31,0.08,2.6,0.54,3.91,0.81
	c1.44,0.3,2.88,0.58,4.33,0.85c1.31,0.25,2.86-0.63,3.9,0.85c3.48-0.43,6.67,0.94,9.91,1.78c1.9,0.5,3.85,0.78,5.73,1.55
	c3.45,1.42,5,3.75,4.38,7.63c-0.41,2.55-3.32,4.9-5.95,5.28c-2.58,0.38-4.98-0.49-7.26-1.09c-3.9-1.02-7.75-1.96-11.76-2.42
	c-1.58-0.18-3.07-1.02-4.76-0.81c-1.65,0.2-2.97-1.23-4.77-0.9c-1.65,0.3-3.53,0.49-5.07-0.02c-4.27-1.4-8.59-0.58-12.87-0.74
	c-4.39-0.16-8.8-0.05-13.19-0.03c-1.76,0.01-3.27,1.22-5.19,0.91c-1.72-0.28-3.59-0.37-5.17,0.79c-2.82-0.63-5.42,0.7-8.15,0.94
	c-3.17,0.28-6.28,1.18-9.41,1.89c-2.07,0.47-4.09,1.14-6.19,1.54c-1.89,0.37-3.66,1.38-5.69,1.66c-1.93,0.27-4,0.9-5.62,1.76
	c-3.87,2.07-8.2,2.82-12.04,4.9c-3.69,2-7.59,3.59-11.35,5.47c-4.51,2.27-8.68,5.13-13,7.7c-5.38,3.19-10.19,7.05-15.06,10.9
	c-5.01,3.97-9.97,7.99-14.28,12.71C81.94,146.25,78.9,148.29,74.3,147.14z"/>
<path fill="currentColor" d="M147.82,183.16c0.59,0.59,1.25,1.15,1.77,1.81c2.98,3.72,2.86,5.92-0.17,9.29c-2.27,2.53-4.76,4.87-7.2,7.24
	c-8.43,8.2-14.46,18.05-19.17,28.68c-2.13,4.79-3.91,9.79-4.77,15.09c-0.26,1.57-0.12,3.51-0.87,4.69
	c-1.08,1.69-0.32,3.28-0.71,4.85c-1.75,6.92-0.7,13.96-0.79,20.94c-0.18,14.9-0.1,29.81-0.02,44.71c0.02,3.64-0.67,6.82-3.93,9.17
	c-1.78,0-3.75,0-5.63,0c-1.3-1.31-2.58-2.61-4.11-4.15c0-22.13-0.02-44.69,0.04-67.26c0-1.59,0.54-3.17,0.81-4.76
	c0.27-1.61-0.52-3.31,0.56-4.88c0.94-1.36-0.53-3.4,1.14-4.63c-0.26-3.49,1.92-6.39,2.42-9.61c0.5-3.24,2.78-5.81,2.78-9.1
	c4.05-6.99,7.2-14.45,12.21-20.96c3.78-4.91,7.61-9.73,11.9-14.17c2.01-2.08,4.27-3.94,6.58-5.7c1.01-0.77,2.22-1.5,3.73-1.28
	C145.51,183.28,146.66,183.16,147.82,183.16z"/>
<path fill="currentColor" d="M108.37,86.88c-0.59-0.66-1.36-1.48-2.09-2.34c-2.06-2.44-1.99-5.64,0-8.13c2.04-2.55,5.06-3.54,7.84-4.75
	c1.32-0.58,2.63-1.18,3.95-1.77c4.8-2.11,9.59-4.33,14.58-5.91c3.64-1.15,7.11-2.76,10.87-3.68c2.92-0.71,5.91-1.36,8.79-2.36
	c1.99-0.69,4.09-1.02,6.12-1.66c2.79-0.87,5.74-1.31,8.65-1.75c3.05-0.47,6.16-0.62,9.09-1.72c0.25-0.09,0.56-0.03,0.85-0.01
	c4.32,0.25,8.6-0.62,12.83-1.08c4.6-0.5,9.15-0.48,13.73-0.6c4.54-0.12,9.09-0.11,13.63,0.01c2.02,0.05,4.02,0.64,6.04,0.78
	c1.98,0.14,4.17-0.49,5.91,0.17c1.94,0.74,3.78,0.52,5.66,0.74c1.32,0.15,2.6,0.56,3.91,0.82c1.18,0.24,2.57-0.55,3.53,0.73
	c2.49-0.22,4.82,0.79,7.26,0.98c2.71,0.22,4.33,0.97,6.01,2.94c1.57,1.84,2.43,3.93,1.39,6.35c-1.09,2.53-2.87,4.34-5.79,4.29
	c-2.16-0.03-4.47,0.69-6.46-0.81c-2.55,0.63-4.82-0.92-7.31-0.9c-1.44,0.01-2.88-0.54-4.33-0.79c-1.45-0.25-3.11,0.63-4.35-0.84
	c-0.12-0.14-0.55-0.01-0.83-0.02c-5.56-0.28-11.12-0.68-16.69-0.82c-5.53-0.14-11.12-0.45-16.6,0.12
	c-3.44,0.36-6.93,0.25-10.29,0.84c-2.03,0.36-4.02,0.57-6.06,0.74c-1.88,0.16-3.75,0.61-5.59,0.94c-5.5,0.97-11,2.14-16.42,3.5
	c-6.25,1.57-12.46,3.4-18.47,5.78c-3.54,1.4-7.21,2.42-10.62,4.18c-3.84,1.99-7.98,3.39-11.79,5.43c-1.58,0.84-2.99,0.3-4.46,0.57
	C110.15,86.99,109.42,86.88,108.37,86.88z"/>
<path fill="currentColor" d="M215.5,170.43c0.35-1.82-0.51-3.91,0.83-5.88c1.25-1.83,5.29-4.32,7.11-3.47c2.72,1.26,5.72,1.04,8.48,2.15
	c2.56,1.03,5.39,1.38,8.1,2.03c1.67,0.4,3.19,1.25,4.78,1.84c4.29,1.59,8.41,3.7,12.46,5.87c3.97,2.13,7.81,4.5,11.6,6.93
	c1.6,1.02,2.91,2.48,4.4,3.68c4.24,3.41,8.23,7.17,12.03,11.08c2.95,3.04,5.65,6.37,8.11,9.83c1.61,2.26,2.92,4.76,4.51,7.07
	c1.78,2.59,3.15,5.48,4.48,8.34c2.83,6.09,5.84,12.12,6.84,18.88c2.33,3.89,2.1,8.47,3.29,12.67c1.16,4.11-1.97,8.27-6.18,9.07
	c-1.06,0.2-2.44-0.17-3.39-0.74c-1.79-1.08-3.2-2.8-3.82-4.71c-0.39-1.21-0.87-2.66-0.86-3.87c0.03-4.43-1.79-8.36-2.94-12.46
	c-1.71-6.09-4.41-11.8-7.42-17.35c-1.45-2.68-3.13-5.27-4.89-7.76c-3.87-5.46-8.39-10.34-13.21-14.98
	c-6.67-6.42-14.29-11.41-22.55-15.48c-4.48-2.21-9.1-4.08-13.88-5.55c-2.65-0.82-5.34-1.74-8.07-2.05
	C221.51,175.13,218.03,174.37,215.5,170.43z"/>
<path fill="currentColor" d="M280.83,93.43c1.27,0.37,2.62,0.58,3.8,1.15c4.26,2.05,8.51,4.13,12.67,6.38c5.37,2.91,10.58,6.1,15.59,9.61
	c5.12,3.58,10.19,7.19,14.94,11.31c2.52,2.19,4.9,4.5,7.38,6.72c2.27,2.03,4.67,3.92,6.83,6.05c1.76,1.74,3.23,3.75,4.84,5.63
	c1.52,1.78,3.35,3.21,4.61,5.31c1.17,1.96,3.4,3.21,4.42,5.42c0.55,1.19,1.41,2.29,1.71,3.53c0.18,0.76-0.41,1.71-0.68,2.57
	c-1.44,4.58-7.04,6.41-10.43,3.16c-2.99-2.87-5.57-6.16-8.31-9.3c-0.71-0.81-1.23-1.8-1.98-2.57c-3.68-3.74-7.2-7.68-11.17-11.09
	c-5.66-4.87-11.43-9.61-17.59-13.9c-4.5-3.14-9.17-6.02-13.8-8.91c-4.54-2.84-9.62-4.8-14.44-7.2c-1.07-0.53-2.13-1.16-3.02-1.94
	c-2.6-2.28-3.32-5.15-1.88-8.26C275.57,94.49,277.9,93.5,280.83,93.43z"/>
<path fill="currentColor" d="M330.97,261.54c-1.23-1.23-2.43-2.43-3.53-3.53c-0.98-3.63-0.7-7.35-1.95-10.84c-0.36-1,0.05-2.27-0.09-3.38
	c-0.11-0.9-0.77-1.75-0.77-2.63c-0.03-2.88-1.18-5.52-1.95-8.17c-0.61-2.12-0.83-4.41-1.93-6.42c-1.01-1.85-1.42-3.97-2.21-5.9
	c-1.53-3.76-3.53-7.34-5.35-10.99c-2.8-5.62-6.1-10.93-9.94-15.9c-1.08-1.4-2.21-2.78-3.31-4.17c-1.1-1.39-1.98-3.1-3.37-4.08
	c-1.68-1.18-0.49-2.89-1.33-4.22c-0.41-0.64,0.3-2.11,0.69-3.13c0.91-2.36,2.67-3.59,5.25-3.55c1.13,0.02,2.27,0,3.36,0
	c5.2,4.98,9.83,10.35,13.3,16.67c0.65,1.18,1.82,1.93,2.56,3.19c3.54,6.04,6.7,12.27,9.72,18.56c1.47,3.06,2.79,6.28,3.57,9.58
	c0.79,3.36,2.85,6.35,2.81,9.92c1.56,1.76,0.76,4.12,1.53,6.17c0.72,1.9,1.63,4.12,1.02,6.4c1.89,2.63-0.22,6.03,1.68,8.68
	c0.26,0.36-1.54,5.49-2.04,5.93c-1.23,1.1-2.59,1.93-4.36,1.81C333.22,261.48,332.08,261.54,330.97,261.54z"/>
<path fill="currentColor" d="M102.22,158.02c0,0.66-0.08,1.24,0.01,1.79c0.59,3.5-1.03,6.08-3.38,8.39c-6.05,5.95-10.78,12.93-15.35,20.01
	c-3.22,4.98-6.17,10.13-8.55,15.58c-2.46,5.64-5.11,11.23-6.73,17.18c-0.47,1.74-1.7,2.57-2.78,3.49c-0.92,0.79-2.57,1.42-3.65,1.15
	c-1.46-0.36-3.2-0.36-4.41-1.65c-1.15-1.22-1.83-2.54-2.07-4.26c-0.44-3.14,0.83-5.95,1.86-8.61c2.45-6.34,4.68-12.81,8.14-18.74
	c4.23-7.24,8.26-14.57,13.45-21.24c3.79-4.87,7.46-9.8,11.76-14.26c3.24-3.36,7.35-3.75,10.57,0.03
	C101.36,157.21,101.68,157.49,102.22,158.02z"/>
<path fill="currentColor" d="M166.54,112.44c0.97,0.97,1.86,1.71,2.56,2.59c1.82,2.3,1.58,5.46-0.14,7.83c-1.74,2.4-4.39,3.21-6.88,3.98
	c-5.29,1.64-10.34,3.78-15.42,5.94c-5.74,2.44-10.97,5.72-16.4,8.68c-2.7,1.47-4.98,3.69-7.57,5.4c-2.66,1.76-5.52,2.08-8.44,0.51
	c-3.31-1.78-4.27-7.08-1.77-9.85c2.12-2.36,5.04-3.62,7.53-5.46c5.13-3.8,10.8-6.75,16.4-9.75c3.2-1.71,6.56-3.34,9.95-4.69
	c4.39-1.75,8.98-2.98,13.47-4.46c0.49-0.16,0.93-0.66,1.41-0.69C162.95,112.39,164.65,112.44,166.54,112.44z"/>
<path fill="currentColor" d="M287.1,164.84c-0.71,0.71-1.34,1.49-2.12,2.1c-2.96,2.3-5.68,2.77-8.59,0.67c-5.74-4.14-11.94-7.37-18.27-10.39
	c-5.82-2.78-11.94-4.78-18.17-6.47c-1.75-0.48-3.36-1.46-5-2.28c-1.41-0.71-1.44-2.21-1.81-3.5c-0.07-0.26,0.51-3.92,0.66-4.36
	c0.81-2.31,2.44-3.46,4.88-3.45c2.19,0.01,4.29,0.16,6.47,0.78c9.78,2.76,19.06,6.74,28.04,11.38c3.88,2.01,7.55,4.44,11.17,6.91
	c1.85,1.26,2.95,3.2,2.74,5.64C287.03,162.85,287.1,163.85,287.1,164.84z"/>
<path fill="currentColor" d="M118.65,395.64c-0.68,0.48-2.02,1.41-3.35,2.35c-1.65,1.16-3.13,0.94-4.94,0.01c-2.78-1.44-4.31-3.4-4.78-6.52
	c-0.4-2.61-1.99-4.99-1.73-7.77c-1.46-1.24-0.47-2.91-0.77-4.36c-1.79-8.62-0.33-17.35-0.89-26c-0.25-3.76,0.6-6.85,4.17-9.17
	c0.59,0,1.57,0.05,2.55-0.01c1.86-0.11,3.46,0.35,4.84,1.7c1.45,1.42,1.97,3.25,2.06,5.09c0.18,3.68,0.05,7.37,0.05,11.05
	c0,3.26-0.11,6.52,0.05,9.78c0.08,1.73-0.57,3.46,0.68,5.26c0.92,1.33-0.71,3.6,0.98,5.09C117.14,386.42,120.6,390.18,118.65,395.64
	z"/>
<path fill="currentColor" d="M197.39,174.46c-4.54,0.62-8.59,1.5-12.66,2.34c-5.86,1.2-11.09,4.04-16.73,5.79c-3.87,1.2-6.43,0.18-8.16-3.58
	c-1.5-3.27-0.36-6.95,2.98-8.59c3.28-1.61,6.7-2.94,10.11-4.28c2.32-0.91,4.67-1.77,7.08-2.36c2.31-0.56,4.64-1.32,6.92-1.66
	c2.53-0.38,5.05-1.17,7.65-1.11c2.75,0.07,6.69,2.99,7.28,5.63c0.41,1.84-0.37,3.48-1.54,4.85
	C199.42,172.56,198.35,173.5,197.39,174.46z"/>
<path fill="currentColor" d="M270,72.77c0.51-1.88-0.61-3.92,0.82-5.96c0.96-1.37,1.48-2.65,3.44-3.03c1.43-0.28,2.67-1.39,4,0.11
	c6.93,1.74,13.3,4.9,19.72,7.9c2.14,1,4.21,2.2,6.44,2.95c1.61,0.54,2.55,1.69,3.5,2.81c1.91,2.22,1.7,5.47-0.08,7.81
	c-1.24,1.62-2.94,2.41-4.75,2.96c-1.44,0.44-2.78-0.47-4.03-1.01c-3.97-1.73-7.87-3.63-11.77-5.52c-3.9-1.89-8.09-3.08-11.96-5.06
	C273.15,75.59,273.04,75.81,270,72.77z"/>
</svg>
