<svg version="1.1" id="layer" xmlns="http://www.w3.org/2000/svg" xmlns:xlink="http://www.w3.org/1999/xlink" x="0px" y="0px"
	 viewBox="0 0 384 384" enable-background="new 0 0 384 384" xml:space="preserve">
<path id="Floor" fill="currentColor" d="M384,291c-1.13,0.47-1.07,1.65-1.5,2.53c-1.66,3.36-5.37,5.67-9.12,5.72c-0.5,0.01-1,0-1.5,0
	c-119.91,0-239.83-0.01-359.74,0.04c-2.87,0-5.39-0.62-7.69-2.28c-0.97-0.7-1.69-1.46-2.34-2.58C1.45,293.3,1.46,291.64,0,291
	c0-2,0-4,0-6c0.25-0.2,0.63-0.34,0.73-0.6c3.72-9.38,8.72-18.14,13.19-27.15C24.2,236.51,34.63,215.83,45,195.14
	c0.73-1.45,1.32-3.03,2.33-4.27c1.84-2.27,4.24-3.56,7.24-4.21c5.04-1.1,10.06-0.55,15.08-0.62c9.12-0.13,18.24-0.04,27.37-0.04
	c0.6,0,1.2,0,1.95,0c-0.23,2.98,1.29,5.59,0.77,8.43c1.45,2.36,0.64,5.38,2.25,7.69c0.41,4.5,2.7,8.36,4.18,12.51
	c1.7,4.79,4.37,8.99,7.1,13.18c1.81,2.78,3.69,5.44,6.63,7.39c2.75,1.82,5.21,3.96,8.52,4.86c1.43,0.39,2.71,1.2,4.23,1.58
	c1.55,0.39,3.25,0.12,4.55,0.71c2.07,0.95,4.14,0.84,6.1,0.55c3.35-0.49,6.81-0.87,9.93-2.22c2.97-1.29,6.02-2.72,8.5-4.73
	c2.43-1.97,5-4.03,6.47-7c0.24-0.48,0.85-0.77,1.31-1.16c15.1,21.11,43.38,18.85,55.94,0.06c0.38,0.21,0.93,0.32,1.15,0.66
	c3.66,5.61,8.82,9.38,14.93,11.81c2.48,0.99,4.97,2.17,7.83,1.98c1.37-0.09,2.8,0.71,4.18,0.65c7.03-0.33,13.73-1.85,19.64-5.95
	c6.41-4.45,10.89-10.74,13.32-18.3c1.44-4.45,1.83-9.03,1.42-13.62c-0.22-2.4-1.19-4.73-1.82-7.1c-0.78-2.94-2.23-5.62-3.8-8.15
	c-0.78-1.26-1.27-2.25-0.86-3.83c1.08,0,2.18,0,3.28,0c12.37,0,24.74,0.06,37.12-0.05c2.95-0.03,5.87,0.17,8.67,0.87
	c2.52,0.63,4.75,1.97,6.28,4.34c2.02,3.15,3.54,6.53,5.21,9.85c11.68,23.28,23.34,46.57,35.01,69.85c1.56,3.11,3.16,6.19,4.75,9.28
	c0.82,1.59,0.61,3.65,2.25,4.85C384,287,384,289,384,291z M273,116.11c0.43-3.19-1.58-5.99-1.5-9.12c-2.51-5.98-4.3-12.3-8.39-17.52
	c-0.58-0.74-0.9-1.95-1.63-2.26c-2.55-1.1-4.84-2.98-7.99-2.5c-2.78,0.42-5.28,1.13-7.31,3.21c-2,2.06-3.18,4.33-3.24,7.31
	c-0.05,2.86,0.55,5.37,2.11,7.78c1.05,1.63,1.6,3.65,2.55,5.28c2.08,3.54,2.87,7.49,3.44,11.29c0.53,3.49,1.08,7.35-0.55,10.9
	c0.49,2.51-0.98,4.6-1.58,6.85c-0.62,2.31-1.86,4.47-2.93,6.64c-0.98,1.98-2.1,3.88-3.15,5.82c-1.21,2.25-2.55,4.44-3.54,6.78
	c-1.03,2.44-1.58,5.09-2.59,7.55c-1,2.41-0.95,5.02-1.84,7.48c-0.6,1.66-0.36,3.75-0.04,5.57c0.3,1.72-1.18,3.16-0.2,5.08
	c0.66,1.29,0.03,3.19,0.15,4.81c0.13,1.65,0.6,3.29,0.69,4.94c0.1,1.93,0.85,3.64,1.33,5.46c1.46,5.53,4.02,10.59,6.64,15.62
	c1.55,2.98,2.25,3.8,4.73,5.47c2.01,1.35,4.45,2.07,6.66,1.83c2.75-0.29,5.35-1.34,7.48-3.66c4.39-4.79,3.85-10.05,1.3-14.02
	c-3.23-5.04-4.8-10.55-6.31-16.15c-0.63-2.32-0.15-13.4,0.76-15.77c1.62-4.2,3.03-8.55,5.48-12.33c2.55-3.94,4.53-8.12,6.24-12.42
	c1.32-3.33,2.47-6.79,3.13-10.3c0.69-3.69,0.71-7.51,0.98-10.77C273.39,121.66,274.49,118.77,273,116.11z M138.03,85.15
	c-1.69,0.76-3.41,1.57-4.87,2.67c-0.87,0.66-1.4,1.87-1.89,2.93c-1.25,2.7-2.33,5.41-0.79,8.44c1.46,2.88,2.79,5.84,4.11,8.79
	c1.94,4.32,3.57,8.72,3.42,13.58c-0.07,2.25-0.1,4.5,0.01,6.74c0.11,2.09-0.56,4.02-1.17,5.9c-1.28,3.96-2.64,7.85-4.77,11.53
	c-3.64,6.31-7.04,12.78-8.72,19.99c-0.8,3.46-1.81,6.91-1.81,10.47c0,4.27-0.22,8.52,0.55,12.83c0.6,3.38,1.33,6.68,2.24,9.97
	c1.53,5.53,4.34,10.47,6.96,15.48c1.91,3.66,6.57,6.2,11.94,5.32c3.26-0.53,5.6-2.04,7.36-4.76c2.44-3.78,2.44-7.92,0.52-11.58
	c-1.62-3.08-3.36-6.1-4.6-9.35c-1.21-3.17-2.25-6.47-2.42-9.83c-0.17-3.25-0.19-6.5,0.51-9.84c0.83-3.94,2.13-7.58,3.73-11.23
	c2.42-5.52,6.27-10.32,8.02-16.17c0.5-1.65,1.52-3.18,1.82-4.85c0.29-1.66,1.11-3.1,1.46-4.64c0.39-1.71,0.47-3.52,0.77-5.3
	c0.42-2.48-0.03-5.04,0.74-7.57c0.34-1.09-0.51-2.5-0.62-3.78c-0.13-1.36,0.07-2.75-0.06-4.12c-0.13-1.41-0.45-2.8-0.73-4.19
	c-0.3-1.49-0.52-3.02-1.01-4.45c-2.02-5.91-4.05-11.8-7.35-17.2c-2.47-4.04-5.79-6.21-11.03-6.23
	C139.9,84.78,138.87,84.77,138.03,85.15z M216.94,118.16c-0.81-1.77-0.3-3.95-0.83-6.01c-1.46-5.65-3.05-11.18-5.86-16.34
	c-1.58-2.9-2.66-6.06-5.32-8.3c-4.36-3.67-10.34-3.79-14.56,0.04c-3.42,3.1-4.64,7.3-3.58,11.73c0.24,0.99,0.69,1.99,1.26,2.84
	c4.45,6.62,6.24,14.06,6.98,21.86c0.17,1.74-0.7,3.31-0.71,4.94c-0.05,4.38-1.73,8.25-3.49,12.07c-1.6,3.48-3.7,6.74-5.4,10.15
	c-2.91,5.79-5.74,11.75-6.16,18.43c-1.54,1.75-0.44,3.96-1.02,5.94c-0.57,1.94-0.28,4.12-0.5,6.18c-0.22,2.1,0.48,4.05,0.76,6.07
	c0.31,2.26,0.19,4.64,0.85,6.78c0.72,2.32,1.11,4.77,2.2,6.95c1.09,2.18,1.57,4.59,2.92,6.67c1.25,1.94,2.25,4.05,3.21,6.16
	c1.23,2.69,3.49,4.19,6.05,5.19c1.62,0.63,3.53,1.1,5.2,0.87c1.76-0.24,3.44-1.29,5.07-2.15c3.66-1.95,4.21-5.73,5.25-9.21
	c-1.22-2.03-0.74-4.58-2.2-6.6c-1.07-1.48-1.61-3.32-2.48-4.95c-2.84-5.3-3.76-11.07-4.36-16.95c-0.16-1.55,0.79-2.76,0.78-4.19
	c-0.05-5.47,2.21-10.27,4.55-14.98c1.96-3.94,4.29-7.67,6.15-11.69c1.72-3.71,3.06-7.56,4.15-11.39c1.26-4.46,1.32-9.27,1.85-13.43
	C217.11,122.29,217.9,120.26,216.94,118.16z"/>
</svg>
