<?xml version="1.0" encoding="utf-8"?>
<!-- Generator: Adobe Illustrator 26.1.0, SVG Export Plug-In . SVG Version: 6.00 Build 0)  -->
<svg version="1.1" id="Слой_1" xmlns="http://www.w3.org/2000/svg" xmlns:xlink="http://www.w3.org/1999/xlink" x="0px" y="0px"
	 viewBox="0 0 96 64" enable-background="new 0 0 96 64" xml:space="preserve">
<g>
	<path d="M86.57,51.31c-0.11,0.38-0.41,0.84-0.67,1.02c-0.45,0.31-0.89,0.44-1.49,0.44c-23.2,0-46.4,0-69.6,0.01
		c-1.08,0-2-0.49-2.35-1.61c0-0.01-0.05,0-0.07,0c0-0.39,0-0.77,0-1.16c0.24-0.24,0.25-0.59,0.43-0.87c0.18-0.28,0.29-0.6,0.44-0.9
		c2.62-5.25,5.24-10.5,7.88-15.74c0.29-0.58,0.62-1.17,1.35-1.39c0.32-0.09,0.65-0.25,0.98-0.25c2.68-0.02,5.36-0.01,8.04-0.01
		c0.13,0.99,0.22,1.96,0.49,2.88c0.27,0.92,0.55,1.84,0.96,2.72c0.29,0.63,0.59,1.26,0.92,1.86c0.69,1.25,1.62,2.28,2.97,2.86
		c0.65,0.28,1.29,0.53,2.01,0.6c0.31,0.03,0.64,0.17,0.96,0.11c0.63-0.13,1.27-0.11,1.89-0.34c0.72-0.27,1.43-0.59,2.02-1.06
		c0.48-0.37,0.96-0.79,1.25-1.36c0.04-0.07,0.13-0.12,0.19-0.18c0.47,0.63,0.98,1.18,1.56,1.6c0.55,0.4,1.19,0.68,1.86,0.93
		c0.69,0.25,1.39,0.35,2.08,0.38c0.67,0.03,1.34-0.18,2.01-0.37c0.7-0.2,1.31-0.55,1.86-0.94c0.59-0.41,1.1-0.96,1.54-1.6
		c0.07,0.06,0.16,0.1,0.21,0.17c0.84,1.27,2.06,2,3.46,2.47c0.28,0.1,0.57,0.17,0.88,0.16c0.27-0.01,0.54,0.14,0.81,0.12
		c1.33-0.07,2.58-0.39,3.74-1.13c1.29-0.82,2.25-2.3,2.66-3.54c0.28-0.86,0.4-1.76,0.27-2.63c-0.15-1-0.4-1.99-1.05-2.83
		c-0.19-0.25-0.29-0.52-0.21-0.89c0.2,0,0.42,0,0.63,0c2.66,0,5.32-0.01,7.98,0.01c0.75,0.01,1.46,0.21,1.98,0.81
		c0.22,0.26,0.41,0.55,0.56,0.85c2.84,5.69,5.68,11.38,8.52,17.08c0.04,0.08,0.04,0.18,0.05,0.27c0.06,0.14-0.13,0.37,0.15,0.44
		c0,0.19,0,0.39,0,0.58C86.44,50.95,86.63,51.17,86.57,51.31z"/>
	<path d="M86.72,50.3c-0.28-0.07-0.09-0.29-0.15-0.44c0.05,0,0.1,0,0.15,0C86.72,50.01,86.72,50.15,86.72,50.3z"/>
	<path d="M86.57,51.31c0.06-0.14-0.13-0.37,0.15-0.44c0,0.15,0,0.29,0,0.44C86.67,51.31,86.62,51.31,86.57,51.31z"/>
	<path d="M35.9,29.92c0-0.15,0-0.17,0-0.2c-0.08-0.9,0.14-1.76,0.29-2.64c0.11-0.63,0.8-2.5,1.17-3.07
		c0.42-0.65,0.74-1.34,1.07-2.03c0.39-0.83,0.7-1.68,0.67-2.62c-0.01-0.17-0.01-0.34,0-0.51c0.07-1.32-0.33-2.52-0.92-3.68
		c-0.19-0.38-0.39-0.75-0.55-1.15c-0.23-0.56-0.07-1.01,0.12-1.51c0.48-1.31,2.04-1.58,3.1-0.98c0.48,0.27,0.75,0.73,1.01,1.21
		c0.42,0.77,0.82,1.55,1.05,2.39c0.14,0.5,0.32,0.98,0.42,1.5c0.08,0.44,0.04,0.9,0.14,1.32c0.09,0.4,0.16,0.79,0.12,1.18
		c-0.18,1.42-0.36,2.83-0.93,4.18c-0.47,1.1-1.11,2.1-1.61,3.18c-0.32,0.7-0.56,1.42-0.67,2.19c-0.07,0.49-0.14,0.98-0.11,1.47
		c0.05,0.85,0.23,1.67,0.58,2.44c0.24,0.55,0.39,1.16,0.83,1.61c0.23,0.77,0.29,1.5-0.13,2.27c-0.36,0.65-0.96,0.83-1.54,1.01
		c-0.48,0.14-1.02-0.05-1.44-0.32c-0.36-0.24-0.7-0.57-0.88-1c-0.12-0.27-0.31-0.51-0.44-0.76c-0.11-0.23-0.2-0.49-0.32-0.74
		c-0.35-0.73-0.56-1.51-0.74-2.31C35.99,31.52,35.86,30.67,35.9,29.92z"/>
	<path d="M50.14,11.24c0.18,0,0.39,0.01,0.61,0c0.5-0.04,0.89,0.19,1.25,0.5c0.36,0.3,0.61,0.68,0.83,1.1
		c0.55,1.03,0.94,2.13,1.32,3.23c0.1,0.28-0.06,0.62,0.18,0.87c0.07,0.95,0.28,1.9,0.13,2.84c-0.19,1.25-0.43,2.49-0.91,3.68
		c-0.45,1.11-1.15,2.08-1.61,3.18c-0.32,0.78-0.65,1.55-0.66,2.41c0,0.11-0.02,0.23-0.06,0.33c-0.12,0.3-0.12,0.59-0.01,0.88
		c0.02,0.06,0.07,0.13,0.07,0.19c-0.02,1.25,0.54,2.33,1.06,3.41c0.07,0.14,0.18,0.27,0.25,0.41c0.65,1.27-0.07,2.7-1.27,3.1
		c-0.32,0.11-0.66,0.26-1.07,0.1c-0.54-0.22-1.12-0.38-1.43-0.9c-0.4-0.67-0.79-1.35-1.04-2.11c-0.13-0.38-0.32-0.74-0.42-1.13
		c-0.19-0.68-0.36-1.36-0.46-2.07c-0.08-0.57-0.11-1.12-0.11-1.69c0-0.3,0.05-0.61,0.07-0.91c0.02-0.28-0.03-0.6,0.09-0.83
		c0.14-0.27,0.02-0.61,0.27-0.83c0.33-1.53,0.69-2.2,1.31-3.38c0.22-0.42,0.49-0.81,0.69-1.24c0.39-0.87,0.77-1.75,0.77-2.73
		c0-0.2,0.14-0.4,0.13-0.59c-0.06-1.01-0.19-2.01-0.58-2.95c-0.24-0.58-0.53-1.14-0.85-1.68c-0.47-0.78-0.29-1.87,0.33-2.45
		C49.33,11.68,49.67,11.46,50.14,11.24z"/>
	<path d="M59.49,12.65c0.14-0.2,0.31-0.5,0.53-0.76c0.57-0.68,1.63-0.85,2.49-0.49c0.51,0.21,0.86,0.65,1.14,1.15
		c0.61,1.08,1.02,2.24,1.42,3.4c0.12,0.34,0.07,0.74,0.18,1.09c0.24,0.85,0.08,1.7,0.14,2.55c0.03,0.41-0.12,0.78-0.14,1.17
		c-0.02,0.4-0.2,0.75-0.26,1.12c-0.23,1.31-0.87,2.46-1.52,3.58c-0.47,0.81-0.79,1.66-1.09,2.53c-0.13,0.38-0.25,0.8-0.19,1.23
		c0.04,0.29,0.03,0.58,0,0.87c-0.07,0.88,0.24,1.67,0.51,2.48c0.18,0.54,0.46,1.02,0.75,1.51c0.57,0.93,0.43,1.93-0.29,2.72
		c-0.41,0.45-0.92,0.62-1.45,0.7c-0.31,0.05-0.67-0.1-0.98-0.23c-0.6-0.25-0.8-0.48-1.14-1.09c-0.57-1.02-1.06-2.07-1.4-3.19
		c-0.09-0.3-0.1-0.63-0.2-0.93c-0.17-0.51-0.12-1.02-0.14-1.54c-0.01-0.18-0.14-0.35-0.13-0.52c0.03-0.56,0.06-1.13,0.14-1.68
		c0.08-0.56,0.2-1.12,0.35-1.67c0.14-0.52,0.32-1.03,0.52-1.52c0.17-0.41,0.37-0.82,0.61-1.2c0.24-0.38,0.47-0.79,0.67-1.18
		c0.42-0.84,0.77-1.72,0.92-2.67c0.09-0.57,0.17-1.13,0.11-1.68c-0.09-0.88-0.23-1.75-0.67-2.55c-0.13-0.23-0.19-0.51-0.33-0.73
		C59.52,14.42,59.3,13.66,59.49,12.65z"/>
</g>
</svg>
