<svg version="1.1" id="Layer" xmlns="http://www.w3.org/2000/svg" xmlns:xlink="http://www.w3.org/1999/xlink" x="0px" y="0px"
	 viewBox="0 0 384 384" enable-background="new 0 0 384 384" xml:space="preserve">
<path fill="currentColor" d="M255.75,319.93c-2.62,1.37-5.55,1.71-8.3,2.6c-2.79,0.89-5.76,0.89-8.51,2.06c-1.59,0.67-3.52,0.5-5.27,0.74
	c-2.61,0.35-5.16,1.27-7.92,1.01c-1.58-0.15-3.18,0.86-4.93,0.7c-1.66-0.15-3.29,0.24-4.96,0.58c-2.52,0.51-5.32-0.32-7.82,0.23
	c-4.53,0.99-9.05,0.53-13.57,0.63c-4.49,0.1-8.99,0.1-13.49-0.01c-2.15-0.05-4.28-0.56-6.44-0.69c-2.12-0.12-4.38,0.43-6.33-0.15
	c-2.19-0.65-4.32-0.44-6.47-0.65c-1.28-0.13-2.54-0.49-3.81-0.72c-1.27-0.23-2.71,0.55-3.85-0.72c-0.22-0.25-0.98-0.13-1.45-0.02
	c-2,0.47-3.73-0.83-5.69-0.8c-1.88,0.02-3.63-0.93-5.44-1.24c-2.56-0.44-5.04-1.2-7.56-1.64c-2.02-0.35-3.72-1.33-5.68-1.79
	c0-9.58-0.32-19.08,0.11-28.54c0.28-6.07,1.72-12.05,4-17.78c2.67-6.7,6.05-12.91,10.81-18.41c1.59-1.84,3.01-3.86,4.86-5.44
	c6.28-5.37,12.86-10.3,20.88-12.89c3.22-2.35,7.36-2.07,10.81-3.75c2.59,0.49,5.01-0.79,7.56-0.76c2.62,0.03,5.27,0.21,7.86-0.05
	c2.38-0.24,4.52,0.84,6.81,0.8c2.18-0.03,4.12,0.98,6.15,1.38c8.92,1.76,17.39,6.9,21.7,9.99c4.95,3.55,9.37,7.85,13.01,12.84
	c1.33,1.82,2.79,3.57,3.89,5.51c1.42,2.51,2.73,5.11,3.75,7.81c1.55,4.13,3.49,8.16,3.79,12.67c1.71,1.89-0.28,4.63,1.5,6.5
	c0,2.37,0,4.75,0,7.12C255.75,304.67,255.75,312.29,255.75,319.93z"/>
<path fill="currentColor" d="M125.47,258.59c-1.86,4.93-4.22,9.42-5.48,14.37c-0.36,1.4-1.21,2.46-2.57,2.99c-8.79,3.42-9.59,3.84-18.06,9.81
	c-4.28,3.02-5.73,4.78-7.91,9.41c-2.72,5.78-2.08,11.48,1.14,16.68c3.08,4.97,7.63,8.49,12.73,11.48
	c6.36,3.74,13.15,6.36,20.08,8.55c4.54,1.44,9.18,2.73,13.97,3.49c4.44,0.7,8.84,1.63,13.32,2.23c4.17,0.56,8.35,0.97,12.49,1.57
	c3.44,0.5,6.9-0.03,10.19,0.67c4.92,1.05,9.81,0.49,14.71,0.63c4.87,0.14,9.75-0.02,14.62,0.06c1.96,0.03,3.67-1.09,5.7-0.83
	c1.97,0.25,4.12,0.49,5.96-0.05c2.43-0.72,4.9-0.16,7.2-0.72c4.16-1.02,8.57-0.48,12.59-2.17c3.54,0.35,6.8-1.21,10.24-1.59
	c2.74-0.31,5.39-1.4,8.08-2.16c3.24-0.92,6.51-1.71,9.64-2.98c2.03-0.83,4.18-1.38,6.17-2.29c4.57-2.08,8.99-4.43,13.05-7.45
	c4.84-3.59,8.99-7.88,10.34-13.76c1.19-5.2,0.3-10.28-3.12-15.01c-3.8-5.26-9.29-8.12-14.26-11.76c-3.33-0.71-6.02-2.97-9.32-3.76
	c-1.55-0.37-2.58-1.43-2.98-2.98c-1.26-4.96-3.65-9.44-5.96-14.25c4.48,1.07,8.87,2.07,13.24,3.17c2.48,0.62,4.95,1.3,7.38,2.09
	c6.82,2.22,13.62,4.49,20.14,7.49c2.1,0.96,4.23,1.9,6.25,3.01c4.94,2.73,9.92,5.31,14.31,9.03c2.73,2.32,5.24,4.82,7.8,7.28
	c2.77,2.66,3.81,6.42,5.83,9.57c-0.26,2.8,1.4,5.44,0.69,8.29c-1.21,4.83-3.41,9.23-5.82,11.84c-1.14,1.24-2.05,2.69-3.21,3.9
	c-3.84,4.01-8.5,7.06-13.13,9.96c-5.97,3.74-12.39,6.71-19.05,9.19c-5.11,1.9-10.27,3.57-15.42,5.33c-2.44,0.83-4.97,1.18-7.4,2.02
	c-2.63,0.91-5.49,1.09-8.12,2.13c-1.43,0.56-3.18-0.3-4.49,0.93c-3.5-0.05-6.71,1.83-10.25,1.5c-1.64,1.21-3.69,0.21-5.27,0.86
	c-1.7,0.7-3.52,0.08-4.94,0.73c-2.87,1.32-6.07-0.24-8.81,1.39c-0.18,0.11-0.49,0.02-0.74,0.01c-5.54-0.17-11.01,1.28-16.56,0.75
	c-5.22,1.35-10.54,0.62-15.81,0.73c-5.25,0.11-10.5,0.1-15.75-0.01c-2.4-0.05-4.79-0.56-7.19-0.69c-2.37-0.12-4.87,0.43-7.09-0.15
	c-2.56-0.67-5.07-0.45-7.59-0.65c-1.53-0.12-3.04-0.51-4.57-0.72c-1.53-0.21-3.07,0.27-4.62-0.67c-0.82-0.5-2.21,0.01-3.32-0.12
	c-1.04-0.12-2.03-0.58-3.07-0.7c-1.42-0.16-2.82,0.08-4.22-0.71c-1.1-0.62-2.61,0.42-3.9-0.55c-1.16-0.88-2.98,0.44-4.07-1.02
	c-2.89,0.04-5.62-0.81-8.37-1.51c-4.4-1.12-8.79-2.29-13.17-3.46c-4.28-1.15-8.4-2.71-12.6-4.03c-1.66-0.52-3.35-0.97-4.92-1.7
	c-4.41-2.04-8.84-4.06-13.1-6.38c-4.87-2.64-9.43-5.78-13.88-9.13c-3.87-2.91-6.53-6.69-9.4-10.37c-1.52-1.94-2.25-4.33-2.78-6.7
	c-0.36-1.61-1.19-3.16-0.81-4.93c0.34-1.63,0.25-3.39,0.83-4.91c0.9-2.37,1.93-4.77,3.38-6.83c2.89-4.1,6.5-7.5,10.44-10.67
	c5.46-4.39,11.45-7.79,17.71-10.73c3.33-1.56,6.77-2.95,10.25-4.22c4.46-1.63,8.92-3.22,13.47-4.58c3.23-0.97,6.44-2.04,9.72-2.76
	c2.65-0.58,5.17-1.79,7.99-1.6C124.49,259.48,124.99,258.89,125.47,258.59z"/>
<path fill="currentColor" d="M231.11,181.09c-0.56,11.15-4.13,20.49-11.64,27.99c-7.73,7.72-17.32,11.52-28.2,11.35c-10.18-0.16-19.22-3.91-26.43-11.08
	c-7.88-7.83-12-17.54-11.79-28.76c0.11-6.04,1.78-11.84,4.51-17.21c2.6-5.13,9.1-12.01,12.5-14.13c6.83-4.26,14.28-6.43,22.3-6.74
	c0.87-0.03,1.85-0.26,2.6,0.04c2.67,1.05,5.59,0.75,8.25,1.78c1.94,0.75,3.97,1.28,5.84,2.16c1.89,0.89,3.72,1.96,5.42,3.17
	c1.77,1.26,3.36,2.78,5,4.21c0.56,0.49,1.16,0.99,1.58,1.59c2.08,2.99,4.29,5.9,6.09,9.08c0.34,0.6,0.63,1.24,0.84,1.9
	c0.78,2.55,1.67,5.08,2.22,7.69C230.73,176.59,230.87,179.14,231.11,181.09z"/>
<path fill="currentColor" d="M191.79,11.99c2.79-0.07,4.64,1.05,5.7,3.59c0.93,2.21,0.62,4.77-1.07,6.62c-1.73,1.88-3.62,3.58-5.08,5.75
	c-3,4.47-4.05,9.98-2.24,15.23c0.96,2.77,2.57,5.2,4.38,7.57c1.65,2.16,3.56,4.01,5.37,5.98c3.01,3.28,7.08,10.77,8.26,15.69
	c0.77,3.2,0.67,6.32,0.54,9.45c-0.08,2.16-0.8,4.38-1.63,6.4c-2.24,5.43-5.37,10.29-9.73,14.32c-3.12,2.89-8.31,1.93-9.81-1.93
	c-0.93-2.39-0.62-4.43,0.85-6.35c0.75-0.98,1.75-1.77,2.62-2.67c3.72-3.81,5.97-8.27,5.77-13.7c-0.17-4.64-2.15-8.54-4.99-12.17
	c-3.2-4.07-7.07-7.56-9.9-11.97c-1.87-2.92-2.69-6.14-3.84-9.28c-0.95-2.58-0.63-5.27-0.77-7.93c-0.16-3.05,0.73-5.93,1.78-8.64
	c2.08-5.35,5.17-10.12,9.44-14.07C188.73,12.71,190.08,11.86,191.79,11.99z"/>
<path fill="currentColor" d="M125.25,44.63c0,0.99-0.06,1.75,0.01,2.49c0.18,1.97-0.64,3.51-2.04,4.77c-2.52,2.28-4.51,4.95-5.8,8.09
	c-2.4,5.86-2.38,6.4-0.7,12.17c1.13,3.89,3.26,7.05,6.11,9.83c4.04,3.95,7.43,8.41,9.75,13.56c1.4,3.09,2.5,6.35,2.41,9.86
	c-0.03,1.37-0.03,2.75,0,4.12c0.11,4.87-1.67,9.25-4.05,13.29c-1.89,3.2-4.19,6.19-7.04,8.73c-1.76,1.57-3.73,2.67-5.85,1.76
	c-1.85-0.79-4.03-1.75-4.15-4.53c-0.03-0.67-1-1.51-0.62-2.29c0.72-1.46,1.44-3.07,2.6-4.13c2.82-2.59,6.51-7.42,6.96-10.91
	c0.43-3.43,0.54-6.95-1.06-10.32c-1.71-3.59-3.75-6.83-6.63-9.63c-3.69-3.58-6.69-7.71-8.75-12.46c-1.07-2.47-2.2-4.91-2.2-7.72
	c0-1.14-0.71-2.3-0.66-3.43c0.1-2.52,0.23-5.08,0.82-7.52c0.54-2.21,1.65-4.3,2.58-6.41c1-2.27,2.22-4.4,3.94-6.24
	c1.23-1.32,2.33-2.76,3.45-4.18c2.45-3.09,7.27-3.13,9.76-0.05C124.42,43.86,124.8,44.18,125.25,44.63z"/>
<path fill="currentColor" d="M258.75,124.83c2.86-2.64,5.3-5.32,7.07-8.53c1.17-2.11,2.84-7.54,2.65-8.99c-0.22-1.75-0.45-3.54-1.05-5.18
	c-0.63-1.72-1.54-3.41-2.63-4.89c-1.99-2.71-4.08-5.37-6.34-7.86c-3.61-3.98-6.61-8.27-8.18-13.47c-0.58-1.92-1.32-3.79-1.27-5.84
	c0.02-1,0.11-2.01-0.01-2.99c-0.81-6.14,2.04-11.31,4.62-16.44c1.66-3.3,4.66-5.69,7.37-8.16c2.25-2.04,7.29-2,8.66,1.77
	c0.39,1.09,1.6,2.13,1.05,3.24c-0.67,1.34-0.77,2.96-2.21,3.98c-2.52,1.77-4.06,4.5-5.47,7.09c-1.13,2.07-2.07,4.36-2.1,7.02
	c-0.04,4.21,0.82,8.02,3.12,11.48c1.25,1.88,2.55,3.79,4.13,5.39c2.65,2.68,5.01,5.56,7.13,8.67c2.11,3.11,4.23,8.84,4.5,12.38
	c0.1,1.28,0.76,2.56,0.68,3.81c-0.39,6.3-1.89,12.27-5.8,17.43c-1.44,1.89-2.64,4-4.3,5.67c-1.28,1.3-2.98,2.43-4.7,3.02
	c-3.03,1.03-6.69-1.82-6.89-5.08C258.69,127.23,258.75,126.1,258.75,124.83z"/>
<path fill="currentColor" d="M116.12,288.92c0,9.41,0,18.06,0,27.04c-3.56-2.24-7.02-4.14-10.16-6.47c-2.44-1.81-4.06-4.34-3.99-7.65
	c0.03-1.55,0.65-2.77,1.64-3.8c1.68-1.75,3.31-3.55,5.48-4.78C111.31,291.99,113.43,290.59,116.12,288.92z"/>
<path fill="currentColor" d="M267.9,315.88c0-9,0-17.65,0-26.8c2.4,1.38,4.6,2.42,6.54,3.81c2.06,1.48,3.96,3.21,5.77,4.99c2.32,2.27,2.5,5.31,0.66,8.11
	c-2.06,3.14-2.39,3.46-6.41,6C272.4,313.29,270.27,314.48,267.9,315.88z"/>
</svg>
