<svg version="1.1" id="Layer" xmlns="http://www.w3.org/2000/svg" xmlns:xlink="http://www.w3.org/1999/xlink" x="0px" y="0px"
	 viewBox="0 0 512 512" enable-background="new 0 0 512 512" xml:space="preserve">
<path fill="currentColor" d="M99.97,408.45c0-6.97,0-13.8,0-20.78c3.98,0,7.89,0,12,0c0-64.97,0-129.78,0-194.87c-3.91,0.39-7.81,0.77-11.92,1.18
	c0-7.21,0-14.04,0-21.18c1.22-0.04,2.63,0,4.02-0.17c1.36-0.17,2.67-0.74,4.03-0.82c4.59-0.27,8.97-1.6,13.31-2.86
	c2.19-0.63,4.54-0.87,6.6-2.03c1.9-1.07,4.13-1.39,6.08-2.25c4.58-2.02,9.01-4.4,13.42-6.78c5.29-2.86,9.92-6.81,15.44-9.32
	c2.22-1.01,4.16-2.64,6.39-3.65c6.77-3.06,13.58-6.21,20.75-8.06c4.35-1.12,8.76-2.35,13.31-2.98c4.14-0.57,8.34-1.01,12.42-1.77
	c4.91-0.91,9.73-0.46,14.58-0.68c4.31-0.19,8.14,1.5,11.49,3.94c2.76,2.01,5.37,4.59,6.72,7.69c1.11,2.54,2.22,5.28,2.2,8.31
	c-0.1,15.05-0.05,30.11-0.05,45.16c0,69.72,0,139.44,0,209.16c0,0.86,0,1.72,0,2.73C200.53,408.45,150.44,408.45,99.97,408.45z
	 M229.59,387.47c0-78.49,0-156.63,0-234.85c-7.66-0.75-15.03,0.85-22.56,1.81c0,77.64,0,155.3,0,233.04
	C214.58,387.47,221.99,387.47,229.59,387.47z M196.26,387.47c0-77.05,0-153.72,0-230.47c-6.02,2.2-12.18,3.73-17.29,7.02
	c0,74.72,0,149.04,0,223.45C184.76,387.47,190.42,387.47,196.26,387.47z M168.3,169.87c-6.07,3.41-11.58,7.24-17.4,10.17
	c0,69.18,0,138.27,0,207.53c5.9-0.12,11.66,0.15,17.4-0.17C168.3,314.87,168.3,242.66,168.3,169.87z M122.84,190.67
	c0,65.59,0,131.17,0,196.91c5.9-0.12,11.66,0.16,17.25-0.17c0-67.67,0-134.99,0-202.33C134.32,186.95,128.68,188.78,122.84,190.67z"
	/>
<path fill="currentColor" d="M261.28,408.45c0-1.59,0-3.04,0-4.48c0-83.75,0.01-167.5-0.02-251.26c0-7.72,3.63-13.4,9.59-17.73
	c3.41-2.47,7.35-3.75,11.67-3.57c2.19,0.09,4.39-0.08,6.58,0.04c4.12,0.22,8.32,0.17,12.33,0.98c3.52,0.71,7.09,1.1,10.57,1.96
	c3.32,0.82,6.73,1.44,9.96,2.44c4.49,1.39,9.04,2.81,13.27,4.97c3.13,1.6,6.51,2.61,9.64,4.27c5.08,2.68,9.88,5.79,14.77,8.77
	c6.97,4.24,13.94,8.39,21.81,10.9c2.55,0.81,5.01,1.99,7.62,2.76c3.28,0.98,6.53,2.02,9.96,2.43c1.07,0.13,2.09,0.61,3.15,0.84
	c1.07,0.23,2.14,0.23,3.26,0.56c1.98,0.58,4.25,0.16,6.55,0.16c0,7.13,0,13.96,0,20.85c-3.91,1.5-7.9-0.67-12.03-0.57
	c0,65.02,0,129.73,0,194.75c3.99,0,8.01,0,12.1,0c0,7.14,0,13.96,0,20.94C361.91,408.45,311.82,408.45,261.28,408.45z
	 M282.48,152.48c0,78.46,0,156.7,0,234.99c7.56,0,14.97,0,22.52,0c0-77.74,0-155.39,0-232.88c-4.02-1.2-8.09-1.12-12.06-1.96
	C289.62,151.92,286.02,152.48,282.48,152.48z M315.8,157.06c0,76.73,0,153.51,0,230.29c5.85,0,11.61,0,17.31,0
	c0-74.54,0-148.87,0-223.42C327.73,160.82,321.75,159.13,315.8,157.06z M361.13,387.46c0-69.45,0-138.54,0-207.44
	c-6.06-3-11.38-6.93-17.27-9.94c0,72.67,0,144.98,0,217.38C349.65,387.46,355.31,387.46,361.13,387.46z M389.19,387.47
	c0-65.77,0-131.45,0-196.79c-5.87-1.91-11.5-3.73-17.24-5.59c0,67.47,0,134.91,0,202.39C377.76,387.47,383.42,387.47,389.19,387.47z
	"/>
<path fill="currentColor" d="M89.36,426.06c-18.83,0-37.35,0-56.14,0c0-1.35,0-2.64,0-3.92c0-86.81,0.01-173.62-0.02-260.43c0-5.93,2.55-10.2,7.71-12.94
	c1.83-0.97,3.76-1.59,5.93-1.58c9.65,0.07,19.29-0.02,28.94,0.05c5.58,0.04,9.51,2.89,12.05,7.71c0.89,1.69,1.59,3.49,1.54,5.51
	c-0.08,3.36-0.02,6.72-0.02,10.08C89.36,255.59,89.36,340.65,89.36,426.06z"/>
<path fill="currentColor" d="M478.81,426.06c-18.83,0-37.35,0-56.14,0c0-1.35,0-2.64,0-3.92c0-86.81,0.01-173.62-0.02-260.43
	c0-5.93,2.55-10.2,7.71-12.94c1.83-0.97,3.76-1.59,5.93-1.58c9.65,0.07,19.29-0.02,28.94,0.05c5.58,0.04,9.51,2.89,12.05,7.71
	c0.89,1.69,1.59,3.49,1.54,5.51c-0.08,3.36-0.02,6.72-0.02,10.08C478.81,255.59,478.81,340.65,478.81,426.06z"/>
<path fill="currentColor" d="M478.81,436.82c0,5.23,0.18,10.33-0.06,15.41c-0.17,3.53-1.7,5.03-5.45,5.48c-0.86,0.1-1.75,0.02-2.63,0.02
	c-143.09,0-286.19-0.02-429.28,0.08c-6.06,0-8.63-2.19-8.21-8.19c0.28-4.07,0.05-8.18,0.06-12.27c0-0.13,0.09-0.25,0.2-0.52
	C181.69,436.82,330.01,436.82,478.81,436.82z"/>
<path fill="currentColor" d="M33.2,82.62c-0.21-8.14,2.9-14.78,8.17-20.11c5.4-5.46,12.2-8.46,20.17-8.31c2.97,0.06,5.84,0.62,8.59,1.5
	c4.22,1.36,8.02,3.6,11.21,6.75c3.19,3.16,5.12,7.2,6.67,11.24c1.07,2.77,1.53,5.91,1.4,9.08c-0.29,7.53-3,14.16-8.2,19.33
	c-5.42,5.39-12.27,8.33-20.16,8.28c-7.73-0.05-14.43-3.02-19.71-8.31C36.06,96.77,32.92,90.12,33.2,82.62z"/>
<path fill="currentColor" d="M422.67,82.32c-0.61-7.13,3.73-15.68,8.09-19.82c5.58-5.29,12.23-8.47,20.19-8.27c7.68,0.19,14.48,2.83,19.73,8.28
	c5.32,5.52,8.16,12.36,8.16,20.24c0,2.85-0.4,5.72-1.4,8.19c-1.63,4.02-3.49,8.06-6.67,11.25c-3.18,3.19-7.17,5.12-11.24,6.7
	c-2.8,1.09-5.89,1.57-9.02,1.52c-7.72-0.13-14.27-3.19-19.75-8.29C426.38,98.03,422.06,89.43,422.67,82.32z"/>
<path fill="currentColor" d="M75.22,118c0,6.45,0,12.4,0,18.52c-9.24,0-18.5,0-27.86,0c0-5.99,0-11.94,0-18.29C56.53,121.6,65.68,122.1,75.22,118z"/>
<path fill="currentColor" d="M464.67,118c0,6.45,0,12.39,0,18.51c-9.24,0-18.5,0-27.86,0c0-5.99,0-11.94,0-18.3C445.97,121.62,455.13,122.07,464.67,118z
	"/>
</svg>
