<svg version="1.1" id="layer" xmlns="http://www.w3.org/2000/svg" xmlns:xlink="http://www.w3.org/1999/xlink" x="0px" y="0px"
	 viewBox="0 0 384 384" enable-background="new 0 0 384 384" xml:space="preserve">
<path fill="currentColor" d="M122.25,200.03c0-1.94,0-3.17,0-4.4c0-52.11,0.04-104.23-0.05-156.34c-0.01-5.68,1.57-10.7,4.56-15.38
	c3.23-5.06,7.48-8.91,13.12-11.2c2.62-1.06,5.15-2.15,8.07-2.3c1.63-0.08,3.29-1.09,4.93-0.61c2.06,0.6,4.19,0.76,6.26,1.09
	c2.14,0.33,4.16,1.13,5.93,2.01c1.93,0.96,4.15,1.84,5.63,3.65c0.39,0.48,0.84,0.94,1.32,1.32c3.71,2.89,5.8,6.93,7.98,10.94
	c0.81,1.49,0.84,3.14,1.36,4.68c0.79,2.34,0.85,4.99,0.86,7.52c0.05,24.87,0.03,49.74,0.03,74.61c0,1.21,0,2.42,0,4.23
	c6.78-4.78,13.86-6.69,21.4-5.74c3.97,0.5,7.99,1.74,11.45,3.93c5.7,3.58,8.83,7.08,11.67,12.42c3.09-2.5,6.32-4.73,10.04-6.15
	c1.08-0.41,2.11-1.01,3.22-1.27c1.62-0.38,3.28-0.61,4.93-0.76c1.36-0.12,2.75,0,4.12-0.03c3.5-0.08,6.77,0.47,10.01,2.1
	c4.06,2.04,7.36,3.71,9.8,6.18c4.29,4.36,6.33,7.82,8.22,14.21c3.41-3.28,7.75-4.67,12.13-6c3.23-0.99,6.55-0.93,9.81-0.66
	c2.29,0.19,4.54,1.03,6.79,1.65c4.3,1.2,8.01,3.69,11.03,6.72c3.81,3.82,7.26,8.16,7.88,13.93c1.56,1.57,0.4,3.69,1.12,5.53
	c0.63,1.63,0.37,3.63,0.37,5.47c0.02,21.37,0.03,42.74-0.02,64.11c-0.01,2.27-0.57,4.54-0.69,6.81c-0.13,2.37,0.38,4.84-0.15,7.09
	c-0.45,1.93-0.22,3.89-0.72,5.69c-0.54,1.92-0.26,3.89-0.73,5.69c-0.93,3.54-1.06,7.22-2.16,10.71c-1.04,3.32-1.84,6.73-2.75,10.09
	c-0.82,3.03-1.76,6.07-2.7,9.04c-0.89,2.8-2.28,5.57-3.39,8.33c-0.94,2.34-2.12,4.61-2.9,7.06c-0.73,2.29-2.33,4.28-3.2,6.54
	c-0.57,1.46-1.38,1.83-2.73,1.72c-0.62-0.05-1.25-0.01-1.87-0.01c-63.74,0-127.47,0-191.21,0c-0.87,0-1.76,0.09-2.62-0.03
	c-0.54-0.08-1.21-0.36-1.53-0.78c-6-7.81-11.87-15.72-17.23-23.98c-2.21-3.41-4.19-6.99-6.1-10.59c-3.26-6.14-6.49-12.3-9.53-18.55
	c-1.91-3.94-3.5-8.04-5.08-12.14c-1.54-3.98-3.09-7.97-4.81-11.87c-1.36-3.06-2.64-6.18-3.79-9.3c-1.12-3.02-2.26-6.12-3.47-9.07
	c-1.8-4.37-3.63-8.75-5.34-13.16c-2.17-5.6-4.85-11-6.49-16.81c-1.77-2.17-2.01-4.94-2.75-7.47c-0.53-1.84-0.57-4.01-0.17-5.89
	c0.74-3.5,1.65-6.95,3.67-10.1c2.58-4.02,6.21-6.57,10.36-8.46c2.52-1.15,5.25-1.81,8.01-2.44c4.56-1.03,9.08-0.58,13.59-0.51
	c2.86,0.04,5.74,1.01,8.44,2.15c3.43,1.45,6.94,2.85,9.79,5.29c2.69,2.3,5.33,4.75,7.51,7.52c4.43,5.6,7.23,12.21,10.77,18.37
	C116.71,190.77,118.54,195.53,122.25,200.03z"/>
<path fill="currentColor" d="M114,326.25c62.88,0,125.37,0,188.12,0c0.04,0.93,0.12,1.88,0.12,2.83c0.01,6.75-0.01,13.5,0.01,20.25
	c0.01,3.85-0.53,7.58-2.26,11.07c0.56,1.9-1.23,2.81-1.96,4.04c-1.85,3.08-4.78,5.24-7.8,7.12c-1.44,0.9-3.16,1.48-4.84,1.85
	c-2.09,0.47-4.27,0.8-6.41,0.81c-47.49,0.04-94.99,0.09-142.48-0.03c-6.38-0.02-12.17-1.92-17.02-7.65
	c-3.32-3.92-5.54-8.45-5.51-13.83C114.04,343.97,114,335.24,114,326.25z"/>
</svg>
