<svg version="1.1" id="Layer" xmlns="http://www.w3.org/2000/svg" xmlns:xlink="http://www.w3.org/1999/xlink" x="0px" y="0px"
	 viewBox="0 0 384 384" enable-background="new 0 0 384 384" xml:space="preserve">
<path fill="currentColor" d="M176.27,327.63c-1.04-2.26,1.75-3.89,1.48-6.24c2.21-3.85,3.54-8.04,4.76-12.28c0.94-3.24,1.88-6.48,2.72-9.74
	c0.41-1.61,0.74-3.23,0.89-4.92c0.13-1.5,0.27-3.15,0.73-4.54c1.05-3.16,0.4-6.33,0.66-9.47c0.07-0.82-0.23-1.64,0.51-2.44
	c0.39-0.42,0.49-1.61,0.17-2.09c-1.08-1.6-0.8-3.34-0.64-4.97c0.36-3.59-1.02-7.01-0.8-10.57c-2.1-7.37-3-15.09-6.54-22.04
	c-0.84-4.62-3.7-8.48-4.81-13.01c-0.18-0.75-0.96-1.35-1.27-2.09c-4.27-10.14-9.52-19.8-14.36-29.67c-1.98-4.04-3.1-8.47-5.26-12.44
	c-0.06-4.55-3.01-8.44-3-13c-1.01-1.4-0.36-3.13-0.85-4.53c-0.5-1.43-0.26-2.92-0.73-4.19c-0.98-2.65-0.13-5.41-0.76-7.95
	c-1.12-4.53-0.48-9.06-0.62-13.58c-0.05-1.64,0.55-3.28,0.67-4.94c0.13-1.74-0.57-3.83,0.17-5.17c1.2-2.18,0.05-4.47,1.19-6.66
	c0.93-1.79,0.39-4.29,0.98-6.34c1.28-4.46,2.41-8.97,3.93-13.36c2.04-5.91,4.51-11.66,7.5-17.13c2.13-3.91,4.71-7.59,7.26-11.27
	c4.18-6.04,9.57-10.89,14.71-15.98c2.77-2.74,6.25-4.66,9.48-6.85c1.42-0.96,2.88-1.73,4.4-2.08c4.31-1,8.98,3.27,9.04,7.66
	c0.04,2.58-0.92,4.77-1.78,6.82c-1.71,4.06-3.39,8.1-4.61,12.34c-0.93,3.24-1.88,6.48-2.72,9.74c-0.41,1.61-0.75,3.23-0.89,4.92
	c-0.13,1.5-0.28,3.15-0.73,4.54c-1.05,3.16-0.4,6.33-0.66,9.47c-0.07,0.82,0.1,1.59-0.48,2.44c-0.47,0.69-0.59,2.12-0.18,2.82
	c0.83,1.41,0.79,2.84,0.63,4.23c-0.4,3.35,0.45,6.58,0.91,9.8c0.42,2.96,1.21,5.93,1.98,8.87c0.94,3.61,1.84,7.21,3.14,10.72
	c0.84,2.28,1.41,4.67,2.3,6.92c0.85,2.14,2.16,4.11,2.93,6.28c1.89,5.36,4.5,10.39,6.84,15.54c2.83,6.21,6.1,12.22,9.1,18.35
	c1.68,3.42,3.09,6.96,4.44,10.53c1.07,2.82,1.9,5.72,2.81,8.57c0.88,2.76,1.27,5.68,2.25,8.44c0.31,0.89-0.02,1.99,0.11,2.96
	c0.12,0.91,0.79,1.85,0.66,2.68c-0.3,1.8,0.9,3.24,0.83,4.95c-0.07,1.62-0.37,3.35,0.05,4.86c1.24,4.51,0.5,9.06,0.64,13.58
	c0.05,1.64-0.55,3.28-0.67,4.94c-0.13,1.74,0.57,3.83-0.17,5.17c-1.2,2.18-0.05,4.47-1.19,6.66c-0.93,1.79-0.39,4.29-0.98,6.34
	c-1.28,4.46-2.33,9-3.95,13.36c-1.85,4.99-3.72,9.96-6.32,14.63c-2.68,4.82-5.49,9.52-8.67,14.06c-4.37,6.24-9.92,11.26-15.3,16.46
	c-2.94,2.85-6.54,5.14-10.13,7.15c-2.57,1.44-5.54,1.91-8.36-0.24C177.4,332.9,176.06,330.84,176.27,327.63z"/>
<path fill="currentColor" d="M99.75,277.58c0-2.79-0.1-4.79,0.02-6.79c0.18-3.07-1.33-5.97-0.77-9.06c-1.69-4.49-1.39-9.51-3.72-13.83
	c-0.68-5.27-3.24-9.89-5.01-14.79c-4.41-12.23-10.87-23.49-16.4-35.19c-2.76-5.84-5.56-11.7-7.4-17.91
	c-1.06-3.57-2.05-7.18-2.89-10.83c-0.76-3.31-0.72-6.8-2.07-9.98c-0.09-0.21,0-0.5-0.01-0.74c-0.35-5.26-1.07-10.51-0.77-15.81
	c0.13-2.37,0.12-4.75,0-7.12c-0.17-3.44,0.7-6.78,0.96-10.17c0.22-2.96,0.86-6.05,1.6-9.02c0.71-2.84,1.14-5.82,2.09-8.51
	c1.79-5.11,3.06-10.44,5.81-15.2c0.85-1.48,1.14-3.28,1.91-4.82c2.55-5.12,5.71-9.9,8.77-14.72c0.95-1.5,2.34-2.74,3.47-4.17
	c2.43-3.08,4.99-6.14,7.94-8.69c4.93-4.27,9.8-8.65,15.78-11.57c1.52-0.74,2.99-0.84,4.2-0.51c1.24,0.34,2.66,0.58,3.81,1.69
	c2.31,2.22,3.3,4.81,2.85,7.81c-0.25,1.66-1.37,3.16-1.96,4.79c-2.27,6.32-5.12,12.45-6.25,19.16c-0.31,1.82-1.25,3.57-1.39,5.39
	c-0.15,1.93-0.7,3.78-0.99,5.65c-0.34,2.16-0.13,4.41-0.68,6.44c-0.99,3.66-0.51,7.31-0.64,10.96c-0.07,2.04,0.02,4.05,0.65,6.08
	c0.59,1.91-0.53,4.15,0.83,6.04c-0.55,3.45,1.76,6.47,1.5,9.87c1.64,3.47,2.03,7.34,3.65,10.86c1.83,3.98,2.94,8.28,4.64,12.31
	c1.93,4.57,4.16,9.02,6.29,13.51c3.87,8.14,7.66,16.33,11.72,24.37c1.73,3.43,2.23,7.34,4.43,10.54c0.44,4.71,2.62,9,3.15,13.73
	c0.18,1.62,0.04,3.56,0.75,4.88c0.87,1.63,0.18,3.17,0.65,4.62c1.4,4.35,0.53,8.8,0.68,13.19c0.16,4.49,0.54,9.07-0.1,13.47
	c-0.73,5.11-0.65,10.43-2.8,15.3c0.48,2.97-1.82,5.41-1.59,8.34c-1.6,2.35-1.98,5.19-2.88,7.8c-1.52,4.4-3.54,8.55-5.63,12.66
	c-3.27,6.43-7.18,12.41-11.8,18.02c-3,3.65-6.23,7.04-9.7,10.14c-3.96,3.54-8.22,6.78-12.93,9.4c-4.17,2.33-10.11-0.8-11.18-4.77
	c-0.73-2.69-0.05-4.79,0.92-6.96c2.25-5.08,4.13-10.32,5.81-15.58c1.26-3.97,2.02-8.15,3.08-12.22c0.66-2.54,0.18-5.39,0.92-7.89
	C100.19,284.08,99.35,280.42,99.75,277.58z"/>
<path fill="currentColor" d="M273.03,336.02c-6.45-0.18-9.63-4.65-8.96-9.63c0.22-1.66,1.38-3.16,1.93-4.8c1.6-4.71,3.74-9.21,4.86-14.13
	c0.67-2.92,1.51-5.86,2.41-8.74c0.53-1.7,0.82-3.48,1.07-5.13c0.43-2.84,1.44-5.7,0.91-8.66c1.39-3.95,0.37-8.05,0.81-12.05
	c0.22-2.03-0.78-3.76-0.84-5.69c-0.05-1.78,0.55-3.69-0.72-5.31c0.12-5.18-2.35-9.84-3.04-14.87c-0.22-1.58-0.88-3.12-1.47-4.63
	c-1.42-3.66-3.04-7.24-4.36-10.93c-2.15-6-5.02-11.67-7.73-17.41c-3.45-7.32-7-14.6-10.6-21.84c-1.4-2.81-2.34-5.78-3.55-8.65
	c-1.93-4.62-2.89-9.55-4.29-14.33c-0.45-1.54-0.65-3.24-0.92-4.87c-0.39-2.37-0.21-4.88-0.85-7.16c-1.24-4.39-0.5-8.81-0.65-13.2
	c-0.15-4.49-0.53-9.07,0.1-13.47c0.73-5.11,1.38-10.26,2.58-15.35c1.3-5.47,3.02-10.74,4.72-16.06c1.42-4.45,3.48-8.57,5.57-12.69
	C253.28,80,257.18,74,261.8,68.4c3.01-3.64,6.22-7.05,9.7-10.13c4.06-3.6,8.34-7.01,13.24-9.56c3.95-2.06,9.82,0.86,10.86,4.88
	c0.68,2.63,0.02,4.71-0.85,6.97c-2.01,5.17-4.25,10.26-5.86,15.55c-0.98,3.22-1.82,6.54-2.4,9.89c-0.59,3.4-1.01,6.85-1.62,10.23
	c-1.14,6.29-0.31,12.56-0.58,18.83c-0.06,1.38,0.44,2.79,0.71,4.18c0.25,1.29-0.49,2.64,0.48,3.93c0.86,1.15-0.42,2.97,1.01,4.07
	c0.28,5.1,2.21,9.78,3.76,14.56c0.82,2.53,1.72,5.03,2.68,7.51c4.96,12.73,11.29,24.82,17.36,37.04c1.83,3.68,3.58,7.5,4.9,11.46
	c1.31,3.95,3.03,7.77,4.13,11.77c0.68,2.47,1.26,5.04,1.59,7.58c0.53,4.16,1.96,8.22,1.57,12.49c1.58,6.72,0.44,13.54,0.7,20.3
	c0.06,1.63-0.51,3.28-0.69,4.94c-0.17,1.54,0.16,3.07-0.68,4.61c-0.47,0.87,0.01,2.21-0.12,3.32c-0.1,0.91-0.63,1.78-0.69,2.69
	c-0.2,2.85-1.26,5.49-1.94,8.21c-0.9,3.59-2.21,7.07-3.34,10.6c-0.5,1.54-0.7,3.28-1.56,4.59c-2.05,3.14-2.27,7.19-5.11,9.89
	c-0.49,2.23-1.97,3.95-3.11,5.83c-1.52,2.51-3.03,5.07-4.88,7.34c-3.32,4.05-6.33,8.4-10.31,11.85c-4.68,4.06-9.42,8.09-14.87,11.13
	C274.81,335.54,273.53,335.84,273.03,336.02z"/>
</svg>
