<svg version="1.1" id="Layer" xmlns="http://www.w3.org/2000/svg" xmlns:xlink="http://www.w3.org/1999/xlink" x="0px" y="0px"
	 viewBox="0 0 384 384" enable-background="new 0 0 384 384" xml:space="preserve">
<path id="Home" fill="currentColor" d="M191.81,351.94c-34.37,0-68.75,0.08-103.12-0.03c-28.88-0.09-51.38-19.31-56.12-47.8
	c-0.51-3.06-0.54-6.23-0.54-9.34c-0.03-44.01,0-88.01-0.03-132.02c-0.02-20.87,8.68-37.02,25.86-48.76
	c33.52-22.9,67.01-45.85,100.5-68.8c21.62-14.81,45.36-14.96,66.86-0.26c33.73,23.04,67.44,46.12,101.13,69.22
	c16.9,11.58,25.57,27.61,25.58,48.17c0.02,44.26,0.08,88.51-0.02,132.77c-0.07,29.02-19.13,51.44-47.63,56.24
	c-3.42,0.58-6.97,0.59-10.46,0.6C259.81,351.96,225.81,351.94,191.81,351.94z M191.94,296.05c12.23,0,24.47,0,36.7,0
	c1.12,0,2.25,0.05,3.37-0.06c4.72-0.44,7.87-3.59,7.93-7.9c0.07-4.43-3.19-7.73-8.07-8.14c-0.87-0.07-1.75-0.04-2.62-0.04
	c-24.84,0-49.68,0-74.53,0c-1,0-2-0.04-2.99,0.06c-4.65,0.49-7.78,3.78-7.74,8.07c0.04,4.3,3.19,7.49,7.88,7.94
	c1.11,0.11,2.24,0.06,3.37,0.06C167.47,296.05,179.71,296.05,191.94,296.05z"/>
</svg>
