<svg version="1.1" id="Layer" xmlns="http://www.w3.org/2000/svg" xmlns:xlink="http://www.w3.org/1999/xlink" x="0px" y="0px"
	 viewBox="0 0 512 512" enable-background="new 0 0 512 512" xml:space="preserve">
<path fill="currentColor" d="M430.47,261.92c-1.7,0-3.16,0-4.61,0c-111.51,0-223.02,0-334.53,0c-7.92,0-9.73-1.82-9.73-9.76c0-8.9-0.01-17.8,0-26.7
	c0.01-6.87,1.97-8.81,8.94-8.81c99.11,0,198.21,0,297.32,0c9.06,0,10.57-1.51,10.57-10.57c0-23.6,0.01-47.2,0-70.8
	c0-7.52-1.72-9.2-9.35-9.2c-99.11,0-198.21,0-297.32,0c-8.56,0-10.16-1.59-10.17-10.08c0-13.22-0.01-26.43,0.01-39.65
	c0.01-6.33,2.17-8.5,8.5-8.5c110.7-0.01,221.4-0.01,332.1,0c6.31,0,8.5,2.15,8.5,8.52c0.02,60.55,0.02,121.1,0.01,181.66
	C430.73,259.2,430.58,260.38,430.47,261.92z"/>
<path fill="currentColor" d="M236.95,403.95c0-12.88,0-25.4,0-38.55c1.76,0,3.45,0,5.14,0c42.2,0,84.41,0,126.61,0c8.73,0,10.35-1.63,10.35-10.44
	c0-12.95,0.02-25.89-0.01-38.84c-0.01-6.99-1.94-8.93-8.86-8.93c-42.74-0.01-85.49,0-128.23,0c-1.58,0-3.16,0-4.96,0
	c0-10.92,0-21.37,0-32.07c64.57,0,128.93,0,193.48,0c0,42.98,0,85.79,0,128.83C365.95,403.95,301.69,403.95,236.95,403.95z"/>
<path fill="currentColor" d="M288.34,139.3c0,21.44,0,42.68,0,64.16c-55.97,0-111.71,0-167.69,0c0-21.38,0-42.63,0-64.16
	C176.39,139.3,232.15,139.3,288.34,139.3z"/>
<path fill="currentColor" d="M256.43,417.12c59.18,0,118.36,0,177.54,0c8.08,0,9.66,1.59,9.68,9.69c0.01,3.1,0.1,6.21-0.06,9.3
	c-0.22,4.26-2.33,6.37-6.53,6.75c-1.2,0.11-2.42,0.06-3.64,0.06c-118.22,0-236.45,0-354.67-0.01c-1.61,0-3.37,0.22-4.8-0.34
	c-1.64-0.64-4.17-1.97-4.25-3.13c-0.4-6.34-0.4-12.74,0.08-19.08c0.09-1.17,2.93-2.4,4.7-3.08c1.3-0.5,2.93-0.17,4.41-0.17
	C138.07,417.12,197.25,417.12,256.43,417.12z"/>
<path fill="currentColor" d="M159.52,275.07c21.45,0,42.68,0,64.15,0c0,42.99,0,85.78,0,128.83c-21.4,0-42.63,0-64.15,0
	C159.52,361.05,159.52,318.26,159.52,275.07z"/>
<path fill="currentColor" d="M101.17,403.81c0-43,0-85.71,0-128.68c14.92,0,29.69,0,44.79,0c0,42.72,0,85.51,0,128.68
	C131.23,403.81,116.38,403.81,101.17,403.81z"/>
<path fill="currentColor" d="M237.05,320.37c43.05,0,85.83,0,128.84,0c0,10.67,0,21.11,0,31.81c-43.01,0-85.78,0-128.84,0
	C237.05,341.63,237.05,331.19,237.05,320.37z"/>
<path fill="currentColor" d="M301.69,203.4c0-21.42,0-42.64,0-64.12c12.78,0,25.47,0,38.38,0c0,21.4,0,42.61,0,64.12
	C327.35,203.4,314.77,203.4,301.69,203.4z"/>
<path fill="currentColor" d="M385.24,139.25c0,21.6,0,42.84,0,64.26c-10.61,0-20.95,0-31.66,0c0-21.37,0-42.7,0-64.26
	C364.03,139.25,374.49,139.25,385.24,139.25z"/>
</svg>
