<svg version="1.1" id="Layer" xmlns="http://www.w3.org/2000/svg" xmlns:xlink="http://www.w3.org/1999/xlink" x="0px" y="0px"
	 viewBox="0 0 384 384" enable-background="new 0 0 384 384" xml:space="preserve">
<path fill="currentColor" d="M187.7,375.5c-0.08-0.2-0.14-0.57-0.26-0.59c-4.55-0.69-8.42-2.57-12.09-5.49c-3.88-3.08-6.16-7.06-8.16-11.3
	c-0.7-1.48-0.68-3.29-1-4.95c-0.19-0.99,0.49-2.15-0.57-3c-0.13-0.11-0.2-0.46-0.13-0.64c1.22-3.49,0.7-7.33,2.54-10.77
	c1.27-2.38,2.47-4.86,4.22-6.8c3.6-4,8.07-6.75,13.41-8.14c3.26-0.85,6.55-0.93,9.73-0.54c4.31,0.53,8.41,1.97,11.97,4.77
	c2.1,1.65,3.96,3.36,5.53,5.55c2.73,3.83,4.75,7.86,4.93,12.65c0.03,0.79-0.29,1.66,0.57,2.29c0.19,0.14,0.26,0.76,0.11,0.98
	c-1.44,2.13-0.53,4.65-1.28,6.98c-1.42,4.4-3.58,8.34-6.75,11.48c-2.75,2.73-6.01,5.11-9.96,6.08c-1.31,0.32-2.64,0.54-3.95,0.85
	c-0.13,0.03-0.17,0.38-0.26,0.59C193.43,375.5,190.57,375.5,187.7,375.5z"/>
<path fill="currentColor" d="M8.5,347.54c1.38-0.16,0.34-1.39,0.86-1.94c1.52-1.62,3.37-2.64,5.54-3.06c0.46-0.09,0.95-0.01,1.43-0.01
	c44.91,0,89.81,0,134.72,0c0.69,0,1.38,0,2.44,0c-1.12,4.6-1.47,9.02,0.2,13.62c-1.73,0-2.9,0-4.07,0c-43.95,0-87.9,0-131.86,0
	c-1.49,0-2.91-0.24-4.39-0.6c-2.14-0.52-3.28-1.71-4.17-3.49c-0.17-0.34-0.47-0.62-0.71-0.93C8.5,349.93,8.5,348.74,8.5,347.54z"/>
<path fill="currentColor" d="M375.5,351.13c-0.2,0.08-0.56,0.13-0.59,0.26c-1.05,3.97-4.25,4.72-7.6,4.72c-45.03,0.05-90.05,0.04-135.08,0.04
	c-0.45,0-0.9,0-1.72,0c1.12-4.6,1.47-9.02-0.2-13.62c1.5,0,2.43,0,3.36,0c44.55,0,89.1,0.01,133.65-0.02c1.77,0,3.28,0.39,4.88,1.24
	c1.58,0.84,2.65,1.69,2.73,3.54c0,0.09,0.38,0.17,0.59,0.25C375.5,348.74,375.5,349.93,375.5,351.13z"/>
<path fill="currentColor" d="M194.15,8.5c0.83,0.71,1.68,1.39,2.48,2.13c1.23,1.14,1.85,2.52,1.84,4.25c-0.04,8.94-0.06,17.88,0.01,26.82
	c0.02,2.4-1.28,4.16-3.03,5.1c-1.46,0.78-3.11,1.77-5.37,0.55c-3.01-1.63-4.52-2.84-4.53-6c-0.02-8.58,0.05-17.16-0.03-25.74
	c-0.03-3.13,1.25-5.24,4.07-6.5c0.15-0.06,0.18-0.39,0.26-0.59C191.28,8.5,192.72,8.5,194.15,8.5z"/>
<path fill="currentColor" d="M191.67,80.9c2.03,0,3.47,0,4.9,0c1.55,0,3.23-0.37,4.62,0.1c1.49,0.51,3.13,0.14,4.34,0.74c1.36,0.67,3.06,0.01,4.12,1.31
	c5.25,0.7,10.08,2.78,14.72,5.1c3.89,1.95,7.66,4.26,11.05,7.1c2.01,1.69,4.35,3.03,6.19,4.88c2.52,2.55,4.66,5.47,7.04,8.15
	c2.65,2.98,4.56,6.45,6.65,9.8c2.12,3.38,3.37,7.19,4.8,10.9c0.51,1.34,1.12,2.67,1.41,4.07c0.54,2.65,1.07,5.32,1.57,7.98
	c0.53,2.79,0.32,5.58,0.72,8.31c0.21,1.45,1.02,3.01,0.53,4.35c-0.93,2.54-0.43,5.08-0.66,7.61c-0.14,1.58-0.4,3.16-0.71,4.72
	c-0.31,1.53-0.75,3.03-1.12,4.55c-0.37,1.52-1.35,2.92-1.01,4.6c-1.96,2.64-2.25,5.98-3.76,8.84c-2.36,4.46-4.71,8.99-7.98,12.77
	c-3.26,3.75-6.07,7.97-10.44,10.77c-2.18,1.39-4.06,3.3-6.28,4.76c-4.29,2.82-8.79,5.13-13.51,7.19c-4.02,1.76-8.28,2.47-12.32,3.98
	c-1.42,0.53-3.13,0.43-4.71,0.68c-3.78,0.6-7.66,0.71-11.51,0.79c-1.93,0.04-3.88-0.72-5.79-0.59c-2.16,0.15-4.09-0.66-6.15-0.86
	c-1.86-0.18-3.67-0.89-5.5-1.37c-1.83-0.48-3.79-0.69-5.47-1.48c-6.35-2.97-12.88-5.6-18.37-10.21c-2.92-2.46-6.15-4.56-8.71-7.42
	c-3.72-4.16-7.17-8.49-10.05-13.36c-3.02-5.12-5.54-10.35-7.19-16.03c-0.84-2.91-1.63-5.8-2.14-8.82c-0.49-2.92-0.47-5.78-0.62-8.68
	c-0.06-1.1-0.67-2.2-0.64-3.29c0.06-1.94,0.44-3.86,0.66-5.8c0.23-1.93-0.58-3.99,0.72-5.79c0.19-4.9,1.94-9.4,3.6-13.91
	c1.26-3.43,2.66-6.76,4.56-9.95c1.95-3.29,4.34-6.27,6.21-9.59c0.34-0.6,1.02-1,1.49-1.54c1.07-1.2,2.25-2.26,3.14-3.69
	c0.8-1.29,2.42-2.07,3.66-3.1c1.69-1.42,3.29-2.96,5.04-4.28c2.25-1.7,4.54-3.38,6.96-4.8c4.98-2.93,10.24-5.19,15.86-6.71
	c1.47-0.4,2.99-0.84,4.48-1.25c1.51-0.41,3.02-1.23,4.7-0.78C184.51,80.17,188.43,81.27,191.67,80.9z M142.44,182.68
	c1.04,0,2.23,0.03,3.43-0.01c2.3-0.07,5.01-2.01,5.21-4.14c0.2-2.04,0.43-4.18-0.65-6.15c-2.94-5.36-3.94-11.21-4.29-17.21
	c-0.1-1.79-0.11-3.59,0.01-5.37c0.12-1.82,0.39-3.64,0.71-5.43c0.23-1.31,0.52-2.64,0.99-3.89c1.4-3.72,2.56-7.51,4.66-10.98
	c1.91-3.14,4.05-6.08,6.52-8.73c2.56-2.75,5.57-5.06,8.9-6.96c2.89-1.64,2.79-1.79,4-4.32c1.47-3.1,0.7-4.03-0.91-6.19
	c-0.64-0.85-1.5-1.54-2.18-2.22c-2.9-0.58-5.66-0.17-8.02,1.37c-3.65,2.39-7.04,5.15-10.26,8.09c-1.35,1.24-2.3,2.9-3.59,4.21
	c-2.74,2.79-4.65,6.13-6.57,9.47c-0.82,1.44-1.56,2.93-2.27,4.43c-0.72,1.49-1.4,3-2.03,4.53c-0.63,1.54-1.03,3.23-1.32,4.8
	c-0.71,3.81-2.02,7.58-1.58,11.57c0.16,1.42-0.04,2.87,0.04,4.3c0.18,3.01,0.06,6,0.52,9.05c0.53,3.49,1.49,6.83,2.49,10.13
	C137.34,176.61,138.79,180.15,142.44,182.68z M198.45,100.39c0.04-3.54-2.91-6.57-6.4-6.59c-3.33-0.01-6.43,2.92-6.5,6.14
	c-0.07,3.56,2.83,6.71,6.23,6.76C195.34,106.76,198.41,103.85,198.45,100.39z"/>
<path fill="currentColor" d="M66.56,81.25c0.89-0.89,1.62-1.67,2.41-2.4c1.96-1.79,3.92-1.84,6.6-0.89c1.87,0.66,3.21,2.02,4.9,2.87
	c6.15,3.11,11.92,6.9,17.95,10.22c1.52,0.84,3.5,2.17,3.35,4.62c1.76,1.57-0.14,2.97-0.38,4.36c-0.22,1.33-3.73,3.65-5.12,3.75
	c-1.83,0.14-3.64-0.62-5.04-1.57c-2.97-2.02-6.16-3.62-9.22-5.46c-4.28-2.57-8.76-4.82-13.02-7.42c-1.57-0.96-2.56-2.61-2.44-4.68
	C66.61,83.59,66.56,82.51,66.56,81.25z"/>
<path fill="currentColor" d="M317.44,81.25c0,1.29-0.02,2.36,0,3.43c0.05,2.31-1.13,3.65-3.07,4.87c-3.78,2.38-7.83,4.29-11.5,6.88
	c-2.23,1.58-4.87,2.6-7.34,3.85c-1.78,0.91-3.36,2.12-5.2,2.99c-1.83,0.87-3.21,0.27-4.46-0.26c-2.43-1.04-3.88-3.25-4.2-5.86
	c-0.13-1.09,0.44-2.48,1.13-3.41c1.02-1.37,2.37-2.49,3.93-3.36c3.6-2.01,7.08-4.23,10.65-6.28c2.4-1.38,4.88-2.62,7.32-3.94
	c0.78-0.43,1.56-0.88,2.29-1.39c3.2-2.25,5.8-2.08,8.56,0.6C316.16,79.96,316.74,80.56,317.44,81.25z"/>
<path fill="currentColor" d="M241.46,56.39c-0.63-2.59,1.41-4.63,2.47-6.9c1.32-2.81,3.04-5.43,4.71-8.06c2.45-3.86,4.3-8.07,7.06-11.75
	c1.23-1.64,2.52-2.68,4.64-2.55c1.61,0.1,3.05-0.05,4.49,1.37c2.02,1.99,3.11,4.78,1.95,7.37c-1.55,3.46-3.59,6.63-5.55,9.86
	c-1.15,1.9-2.21,3.85-3.3,5.79c-1.69,3-3.25,6.07-5.08,8.97c-1.65,2.61-6.73,3.03-9.02,0.94C241.47,59.25,241.47,59.25,241.46,56.39
	z"/>
<path fill="currentColor" d="M133.61,242.89c1.13,0,2.31-0.02,3.5,0c3.02,0.07,5.31,2.39,5.44,5.39c0.11,2.38-0.46,4.31-1.93,6.39
	c-2.49,3.5-4.31,7.47-6.41,11.25c-1.78,3.19-3.69,6.31-5.36,9.57c-1.11,2.18-3.72,2.35-5.76,3.24c-1.94-1.02-4.52-1.08-5.62-3.41
	c-1.02-2.15-1.26-4.35-0.02-6.55c2.01-3.57,3.96-7.18,6.01-10.73c1.45-2.51,3.21-4.85,4.48-7.44
	C129.38,247.68,131.15,245.1,133.61,242.89z"/>
<path fill="currentColor" d="M66.56,221.16c-0.47-3.17,1.82-4.98,4.15-6.14c5.77-2.87,11.06-6.56,16.79-9.5c1.85-0.95,3.63-2.18,5.55-3.03
	c1.7-0.76,3.46-0.62,5.32,0.08c1.73,0.65,2.41,2.01,3.18,3.34c0.48,0.84,0.89,1.94,0.78,2.85c-0.13,1.04-1.14,1.96-1.29,3
	c-0.2,1.36-1.25,1.41-2.04,1.99c-2.17,1.59-4.55,2.8-6.89,4.1c-4.28,2.38-8.37,5.09-12.66,7.44c-2.21,1.21-4.33,2.78-7.16,2.6
	c-3.43-0.22-5.67-2.36-5.71-5.87C66.56,221.77,66.56,221.54,66.56,221.16z"/>
<path fill="currentColor" d="M317.44,221.28c0.18,2.73-0.57,4.9-3.39,6.05c-1.82,0.74-3.55,0.78-5.31,0.04c-1.22-0.51-2.47-1-3.58-1.7
	c-4.9-3.07-9.96-5.84-15.04-8.6c-2.05-1.11-4.07-2.31-6-3.62c-1.04-0.71-1.72-1.9-1.74-3.17c-0.02-0.99-1.72-1.99-0.05-2.98
	c0.21-2.19,1.16-3.73,3.29-4.7c1.84-0.84,3.64-0.93,5.31-0.14c3.2,1.51,6.33,3.21,9.35,5.04c2.29,1.38,4.56,2.77,6.91,4.04
	c2.55,1.37,4.94,3.03,7.44,4.5C316.63,217.23,317.71,218.86,317.44,221.28z"/>
<path fill="currentColor" d="M142.53,59.05c-0.76,0.76-1.5,1.54-2.28,2.27c-2.55,2.39-7.22,1.85-9.18-1.02c-1.57-2.3-2.83-4.8-4.21-7.21
	c-2.6-4.53-5.3-9-7.87-13.54c-1.1-1.94-2.65-3.92-2.29-6.56c0.36-2.65,2.79-5.45,5.78-5.86c3.61-0.5,5.5,1.57,7.2,4.36
	c2.67,4.37,4.78,9.06,7.8,13.23c1.22,1.68,1.93,3.72,2.92,5.57C142.54,54.27,142.55,54.26,142.53,59.05z"/>
<path fill="currentColor" d="M250.37,242.89c2.58,2.27,4.2,4.97,5.78,7.79c2.07,3.69,4.09,7.41,6.46,10.94c1.59,2.38,2.72,5.06,4.1,7.59
	c1.58,2.91,0.16,7.15-3.16,8.54c-3.32,1.39-6.85-0.14-8.8-3.22c-2.63-4.15-4.79-8.55-7.44-12.7c-1.78-2.79-3.38-5.74-5.07-8.63
	c-1.68-2.88-1.58-8.35,2.75-9.92c0.52-0.19,1.08-0.36,1.62-0.38C247.83,242.85,249.02,242.89,250.37,242.89z"/>
<path fill="currentColor" d="M67.24,159.03c-4.29,0-8.6-0.2-12.87,0.09c-1.98,0.13-3.39-0.78-4.67-1.7c-0.94-0.68-1.46-2.23-1.73-3.49
	c-0.64-2.99,1.66-6.79,4.52-7.67c0.65-0.2,1.39-0.12,2.1-0.12c8.46-0.01,16.93-0.02,25.39,0c3.83,0.01,6.25,1.72,7.29,5.33
	c0.5,1.73-0.28,3.44-1.19,4.79c-1.26,1.86-3.11,2.91-5.6,2.82C76.07,158.92,71.65,159.03,67.24,159.03z"/>
<path fill="currentColor" d="M316.73,159.03c-4.77,0-9.54-0.01-14.3,0c-2.09,0.01-3.49-1.32-4.51-2.8c-0.79-1.13-1.41-2.6-1.24-4.11
	c0.38-3.32,3.23-5.91,6.67-5.98c3.93-0.07,7.87-0.02,11.8-0.02c4.77,0,9.54-0.02,14.3,0.01c5.06,0.03,8.26,5.19,5.87,9.65
	c-1.07,2-2.73,3.37-5.36,3.28C325.55,158.93,321.14,159.03,316.73,159.03z"/>
<path fill="currentColor" d="M185.55,276.95c0-4.41,0.05-8.83-0.02-13.24c-0.05-2.79,1.41-4.48,3.76-5.53c1.61-0.71,3.39-1.06,5.01-0.2
	c1.45,0.76,2.99,1.41,3.68,3.29c0.29,0.8,0.46,1.53,0.46,2.3c0.02,8.95,0.02,17.89,0.01,26.84c0,2.22-1.56,5.12-3.67,5.85
	c-1.59,0.55-3.47,0.29-5.21,0.39c-0.61-1.22-2.16-1.27-2.86-2.64c-0.76-1.5-1.19-2.9-1.17-4.54
	C185.58,285.3,185.55,281.12,185.55,276.95z"/>
</svg>
