<svg version="1.1" id="Layer" xmlns="http://www.w3.org/2000/svg" xmlns:xlink="http://www.w3.org/1999/xlink" x="0px" y="0px"
	 viewBox="0 0 400 100" enable-background="new 0 0 400 100" xml:space="preserve">
<path fill="currentColor" d="M133.72,79.82c0-15.03,0-30,0-44.9c-0.12-0.09-0.18-0.17-0.22-0.16c-0.06,0.02-0.11,0.08-0.15,0.14
	c-9.98,14.95-19.95,29.9-29.99,44.95c-2.84,0-5.82,0-8.94,0c0-15.16,0-30.31,0-45.96C84.05,49.45,73.95,64.6,63.81,79.82
	c-20.22,0-40.48,0-60.74,0C2.73,78.08,2.59,28.9,2.92,20.59c19.97,0,39.95,0,60,0c-0.03-0.03,0.03,0.01,0.07,0.07
	c0.04,0.05,0.07,0.12,0.07,0.18c0,15.04,0,30.08,0,45.43c2.76-4.11,5.36-7.96,7.94-11.83c2.36-3.55,4.7-7.11,7.06-10.66
	c3.22-4.87,6.45-9.73,9.67-14.6c1.7-2.57,3.38-5.16,5.12-7.7c0.41-0.6,0.95-1.04,1.89-1.01c2.63,0.1,5.27,0.04,8.05,0.04
	c0,15.09,0,30.1,0,45.56c10.28-15.42,20.31-30.47,30.37-45.55c2.85,0,5.77,0,8.7,0c0.34,1.82,0.48,51.31,0.16,59.3
	C139.33,79.82,136.63,79.82,133.72,79.82z"/>
<path fill="currentColor" d="M326.39,54.27c1.13,1.66,1.58,3.66,2.88,5.28c0.71,0.88,0.98,2.09,1.52,3.12c1.47,2.81,2.92,5.63,4.49,8.37
	c1.13,1.97,2.09,4.01,3.18,6c0.47,0.85,0.98,1.68,1.58,2.7c-1.63,0.3-3.12,0.12-4.59,0.16c-1.53,0.03-3.06,0.01-4.72,0.01
	c-1.26-2.28-2.59-4.59-3.83-6.94c-1.98-3.77-3.9-7.58-5.87-11.36c-1.01-1.95-2.08-3.87-3.18-5.9c-7.15,0-14.44,0-21.88,0
	c0,8.03,0,16.07,0,24.15c-2.84,0-5.54,0-8.31,0c0-19.75,0-39.49,0-59.33c0.51,0,0.99,0,1.46,0c10.59,0,21.17-0.06,31.76,0.03
	c3.16,0.03,6.25,0.85,8.97,2.5c3.03,1.84,5.2,4.42,6.28,7.92c0.42,1.35,0.64,2.67,0.87,4.04c0.16,0.99,0.41,1.98,0.32,2.97
	c-0.26,2.81-0.7,5.61-2,8.15c-1.58,3.06-3.63,5.71-6.99,7.04C327.69,53.43,327.11,53.86,326.39,54.27z M296.02,48.12
	c0.53,0,1.01,0,1.48,0c6.89,0,13.78-0.01,20.67,0.01c1.55,0.01,2.99-0.23,4.49-0.77c0.99-0.36,1.81-0.77,2.52-1.49
	c0.34-0.35,0.69-0.69,1.03-1.03c1.58-1.57,2.39-3.46,2.37-5.7c-0.01-0.97-0.07-1.95,0.02-2.92c0.09-0.97-0.12-1.89-0.46-2.74
	c-0.98-2.44-2.62-4.23-5.24-5.02c-1.87-0.56-3.81-0.74-5.71-0.78c-6.54-0.13-13.08-0.05-19.63-0.05c-0.53,0-1.06,0-1.54,0
	C296.02,34.56,296.02,41.29,296.02,48.12z"/>
<path fill="currentColor" d="M217.77,50.53c0-1.44-0.05-2.55,0.01-3.66c0.2-3.77,0.78-7.53,2.15-11.02c1.59-4.05,3.97-7.75,7.47-10.46
	c2.67-2.07,5.7-3.58,9.01-4.45c2.44-0.64,4.86-1.24,7.42-1.31c1.53-0.04,3.07-0.48,4.63-0.35c0.85,0.07,1.69,0.32,2.54,0.39
	c0.9,0.07,1.86-0.18,2.7,0.06c1.7,0.47,3.49,0.59,5.12,1.25c1.55,0.62,3.16,1.08,4.64,1.92c2.95,1.64,5.55,3.57,7.62,6.32
	c1.16,1.54,2.22,3.11,3.01,4.83c0.81,1.75,1.4,3.61,1.82,5.52c0.39,1.75,0.57,3.54,0.9,5.28c0.46,2.41,0.21,4.78,0.32,7.16
	c0.05,1.13,0.06,2.25-0.35,3.4c-0.35,0.98,0.27,2.17-0.47,3.15c-0.87,4.82-1.28,5.97-2.96,9.22c-1.37,2.67-3.19,4.98-5.65,6.87
	c-1.69,1.3-3.35,2.59-5.28,3.45c-1.77,0.79-3.63,1.32-5.49,1.89c-1,0.31-2.04,0.23-3.05,0.69c-0.86,0.39-2.11-0.13-3.08,0.13
	c-1.41,0.39-2.84,0.53-4.22,0.32c-2.25-0.33-4.52-0.35-6.77-0.75c-2.2-0.39-4.35-1.02-6.36-1.83c-3.68-1.48-7.02-3.7-9.44-6.9
	c-2.35-3.11-4.23-6.52-5.01-10.45c-0.32-1.62-0.54-3.27-0.89-4.86C217.65,54.26,217.95,52.23,217.77,50.53z M226.55,50.34
	c0,1.6-0.1,3.21,0.03,4.8c0.13,1.57,0.43,3.13,0.8,4.67c0.62,2.62,1.65,5.06,3.27,7.2c0.75,0.99,1.68,1.88,2.66,2.65
	c1.02,0.8,2.15,1.49,3.31,2.07c1.27,0.62,2.66,0.97,4,1.44c0.5,0.17,1.17-0.11,1.63,0.09c1.67,0.73,3.39,0.31,5.08,0.31
	c1.76,0,3.56,0.44,5.29-0.29c0.3-0.13,0.68-0.02,1.01-0.09c0.89-0.2,1.8-0.35,2.64-0.68c1.31-0.53,2.59-1.16,3.84-1.83
	c1.59-0.85,2.93-2.09,3.95-3.5c1.47-2.04,2.8-4.22,3.17-6.83c0.12-0.82,0.65-1.61,0.67-2.41c0.02-0.96,0.39-1.84,0.44-2.75
	c0.09-1.88,0.07-3.76,0.01-5.64c-0.06-1.83-0.01-3.63-0.32-5.48c-0.41-2.48-0.96-4.9-1.95-7.15c-1.09-2.47-2.68-4.63-4.93-6.29
	c-2.97-2.2-6.29-3.47-9.91-3.79c-2.49-0.22-5.01-0.1-7.52-0.02c-1.11,0.04-2.26,0.22-3.31,0.57c-2.46,0.83-4.82,1.79-6.96,3.44
	c-1.49,1.15-2.61,2.49-3.53,3.99c-2.27,3.72-3.26,7.84-3.37,12.18C226.53,48.12,226.55,49.23,226.55,50.34z"/>
<path fill="currentColor" d="M201.46,58.64c2.78,0,5.47,0,8.36,0c0,0.69,0.04,1.44-0.01,2.18c-0.06,0.72,0.2,1.43-0.34,2.17
	c-0.39,0.53,0.29,1.51-0.48,2.09c-0.2,2.58-1.48,4.69-2.93,6.73c-1.5,2.12-3.34,3.83-5.57,5.21c-1.96,1.21-4.05,2.03-6.2,2.7
	c-1.06,0.33-2.25,0.39-3.28,0.7c-1.24,0.38-2.48,0-3.6,0.37c-1.14,0.38-2.26,0.32-3.4,0.37c-1.84,0.09-3.63-0.43-5.47-0.51
	c-1.64-0.07-3.3-0.61-4.94-1.11c-4.05-1.23-5.46-1.93-9.04-4.47c-2.43-1.73-3.9-4.08-5.37-6.54c-1.34-2.26-2.1-4.72-2.83-7.19
	c-0.34-1.14-0.25-2.39-0.51-3.56c-0.85-3.83-0.22-7.69-0.37-11.54c-0.04-0.92-0.3-1.89,0.25-2.81c0.48-0.81-0.27-1.92,0.55-2.69
	c-0.05-1.89,0.65-3.61,1.27-5.33c0.82-2.26,1.94-4.39,3.37-6.34c0.52-0.7,1.02-1.42,1.63-2.04c2.74-2.75,6.05-4.61,9.68-5.9
	c1.41-0.5,2.94-0.61,4.38-1.05c1.54-0.47,3.15-0.11,4.62-0.47c1.37-0.34,2.69-0.38,4.02-0.3c1.26,0.07,2.5,0.41,3.8,0.42
	c1.18,0.01,2.37,0.26,3.53,0.54c1.19,0.28,2.34,0.73,3.51,1.1c2,0.63,3.81,1.67,5.49,2.89c1.15,0.84,2.23,1.79,3.22,2.81
	c1.38,1.42,2.57,3.11,3.18,4.94c0.59,1.76,1.65,3.49,1.4,5.49c0.72,1.49,0.29,3.07,0.45,4.7c-2.77,0-5.47,0-8.22,0
	c-0.52-1.09-0.49-2.35-0.64-3.6c-0.26-2.21-1.04-4.26-2.4-6.11c-1.96-2.66-4.71-4.06-7.69-5.1c-1.11-0.39-2.34-0.5-3.53-0.55
	c-2.02-0.09-4.04-0.02-6.06-0.02c-3.38,0-7.29,1.31-10.14,3.29c-2.37,1.65-2.5,2.36-4.12,4.95c-1.12,1.78-1.74,3.75-2.33,5.73
	c-0.28,0.94,0.15,2.03-0.49,2.94c0.12,2.95-0.68,5.85-0.44,8.82c0.08,0.94,0.61,1.75,0.48,2.76c-0.13,0.98-0.09,1.98,0.34,2.98
	c0.35,0.83,0.27,1.83,0.48,2.73c0.21,0.88,0.46,1.76,0.84,2.57c0.55,1.17,1.21,2.29,1.89,3.4c1.9,3.1,4.93,4.69,8.21,5.81
	c1.69,0.58,3.46,0.93,5.29,0.88c2.02-0.06,4.05,0.08,6.06-0.03c4.75-0.26,8.85-2.08,11.72-5.9c1.42-1.89,2.43-4.19,2.35-6.74
	C201.44,60.21,201.46,59.45,201.46,58.64z"/>
<path fill="currentColor" d="M350.39,20.52c0.54,0,1.02,0,1.49,0c9.75,0,19.51-0.12,29.26,0.06c3.83,0.07,7.47,1.13,10.55,3.79
	c1.49,1.29,2.6,2.82,3.71,4.33c0.88,1.21,1.33,2.79,1.71,4.28c0.34,1.35,0.37,2.8,0.45,4.21c0.07,1.18,0.05,2.37,0.01,3.55
	c-0.1,3.15-1.1,6.06-2.79,8.66c-1.85,2.85-4.32,5.07-7.55,6.36c-1.41,0.56-2.85,0.86-4.33,1.17c-3.07,0.64-6.16,0.32-9.24,0.37
	c-3.13,0.06-6.27,0.01-9.4,0.01c-1.8,0-3.61,0-5.56,0c0,7.53,0,15.02,0,22.54c-2.84,0-5.54,0-8.31,0
	C350.39,60.14,350.39,40.44,350.39,20.52z M358.73,49.79c7.34,0,14.57,0.01,21.8-0.02c0.64,0,1.31-0.17,1.91-0.42
	c1.52-0.63,3.1-1.29,4.11-2.62c0.85-1.12,1.43-2.45,2.09-3.72c0.4-0.77-0.16-1.77,0.56-2.48c0.12-3.24-0.09-6.37-2.07-9.17
	c-1.31-1.84-3.14-2.87-5.2-3.27c-2.05-0.4-4.18-0.42-6.29-0.46c-3.55-0.07-7.1-0.02-10.64-0.02c-2.07,0-4.15,0-6.27,0
	C358.73,35.02,358.73,42.31,358.73,49.79z"/>
</svg>
