<svg version="1.1" id="Layer" xmlns="http://www.w3.org/2000/svg" xmlns:xlink="http://www.w3.org/1999/xlink" x="0px" y="0px"
	 viewBox="0 0 384 384" enable-background="new 0 0 384 384" xml:space="preserve">
<g id="Menu">
	<path fill="currentColor" d="M280,356.25c-3,0-6,0.1-9-0.03c-3.53-0.14-7.15-0.02-10.53-0.86c-2.94-0.73-6-0.87-8.88-2.03c-2.79-1.12-6-1.22-8.75-2.4
		c-6.82-2.95-13.56-6.07-19.73-10.35c-3.46-2.41-5.6-5.71-7.93-9.05c-2.64-3.8-4-8.14-5.62-12.31c-1.15-2.97-2.01-6.21-2.58-9.44
		c-0.29-1.64-0.57-3.3-0.88-4.91c-0.29-1.53-0.19-3.18-0.7-4.56c-0.86-2.29-0.27-4.62-0.71-6.84c-1.43-7.13-0.37-14.3-0.68-21.45
		c-0.15-3.41,1.27-6.73,0.73-10.19c1-1.4,0.33-3.16,0.86-4.52c0.61-1.56,0.22-3.19,0.73-4.57c0.93-2.53,1.3-5.19,2.11-7.74
		c1.51-4.75,2.98-9.49,5.29-13.94c3.22-6.2,7.68-11.21,13.53-15.12c4.72-3.15,9.99-4.87,15.24-6.68c4.45-1.53,8.98-2.83,13.75-3.03
		c1.92-1.66,4.38-0.38,6.6-1.25c2.06-0.8,4.76,0.2,7-0.34c3.79-0.92,7.56-0.45,11.33-0.67c4.68-0.27,9.25,1.32,13.94,0.76
		c2.2,1.36,4.74,0.4,7.07,1.02c2.28,0.61,4.71,0.8,6.97,1.35c3.6,0.88,7.3,1.63,10.73,3.02c3.3,1.34,6.67,2.58,9.86,4.29
		c5.38,2.89,10.16,6.39,13.49,11.52c1.88,2.9,3.15,6.19,4.85,9.23c1.59,2.86,2.73,5.97,3.5,9.02c0.97,3.85,2.22,7.73,2.41,11.77
		c1.51,2.27,0.46,4.93,1.11,7.4c0.61,2.33-0.1,4.99,0.48,7.33c1.09,4.4,0.52,8.81,0.62,13.21c0.04,1.89-0.55,3.78-0.67,5.69
		c-0.12,1.87,0.34,3.84-0.11,5.6c-0.82,3.27-0.61,6.67-1.45,9.89c-1.7,6.51-3.19,13.03-5.79,19.34c-2.34,5.67-5.11,9.26-7.57,12.62
		c-2.14,2.92-5.18,4.64-8.16,6.43c-1.99,1.2-4.03,2.31-6.13,3.3c-3.13,1.48-6.25,3.08-9.53,4.13c-2.09,0.66-4.1,1.6-6.29,2.06
		c-2.14,0.45-4.3,0.94-6.42,1.64c-1.71,0.56-3.75,0.52-5.65,0.83c-2.98,0.49-6.03,0.67-9.05,0.79
		C286.25,356.35,283.12,356.25,280,356.25z"/>
	<path fill="currentColor" d="M103.59,356.25c-3.12,0-6.25,0.1-9.37-0.03c-3.15-0.13-6.39-0.08-9.41-0.85c-2.3-0.59-4.67-0.52-6.92-1.33
		c-2.08-0.74-4.32-1.03-6.41-1.73c-2.2-0.74-4.5-1.32-6.59-2.2c-5.13-2.16-10.31-4.35-14.75-7.84c-2.35-0.4-4.05-2.17-5.56-3.59
		c-1.55-1.45-2.93-3.38-4.2-5.27c-2.56-3.82-4.41-7.89-5.92-12.19c-1.59-4.53-3.38-8.98-3.71-13.83c-1.15-1.37-0.22-3.23-0.86-4.51
		c-0.74-1.47-0.27-2.9-0.68-4.23c-0.96-3.12-0.12-6.41-0.82-9.42c-1.14-4.93-0.34-9.82-0.58-14.72c-0.08-1.63,0.55-3.28,0.67-4.94
		c0.13-1.74-0.24-3.55,0.09-5.24c0.64-3.28,0.87-6.63,1.55-9.86c0.72-3.39,1.64-6.79,2.53-10.16c1.33-5,3.25-9.7,5.67-14.16
		c2.92-5.37,6.59-10.13,12.02-13.47c5.49-3.38,11.2-6.22,17.37-7.85c3.95-1.05,7.87-2.46,12.07-2.66c1.49-0.07,2.97-0.69,4.57-0.71
		c1.52-0.02,3.04-0.55,4.57-0.67c1.61-0.13,3.34,0.32,4.85-0.09c4.88-1.32,9.81-0.48,14.71-0.64c1.89-0.06,3.78,0.54,5.69,0.67
		c1.87,0.12,3.82-0.29,5.61,0.1c3.28,0.71,6.73,0.63,9.85,1.57c3.35,1.01,6.8,1.56,10.16,2.56c5.6,1.67,10.92,3.87,16.04,6.56
		c5.13,2.69,8.96,6.88,12.2,11.65c3.36,4.95,5.6,10.47,7.21,16.12c1.12,3.91,2.19,7.92,2.66,12.08c0.46,4.04,0.92,8.12,1.56,12.11
		c0.6,3.71,0.36,7.32,0.52,10.97c0.16,3.74,0.43,7.55-0.1,11.23c-0.37,2.54-0.29,5.09-0.71,7.57c-0.32,1.9-0.8,3.76-0.66,5.7
		c-1.61,1.34-0.34,3.39-1.36,5.09c-0.91,1.5-0.37,3.79-0.93,5.59c-2.53,8.11-5.81,15.91-10.67,22.94c-1.4,2.02-3.57,3.28-5.55,4.68
		c-4.19,2.98-8.78,5.34-13.43,7.4c-3.67,1.62-7.55,2.89-11.47,4.04c-3.71,1.09-7.62,1.26-11.19,2.81c-0.21,0.09-0.5,0-0.74,0.01
		c-3.27,0.25-6.54,0.59-9.81,0.72C110.1,356.35,106.84,356.25,103.59,356.25z"/>
	<path fill="currentColor" d="M105.39,180c-5.24,0-9.37,0.09-13.49-0.03c-2.9-0.09-5.87-0.15-8.66-0.82c-2.17-0.52-4.39-0.76-6.52-1.4
		c-2.11-0.64-4.2-1.32-6.31-1.95c-2.11-0.64-4.44-0.87-6.31-1.93c-4.55-2.57-9.42-4.5-13.87-7.3c-3.7-2.32-7.29-4.66-9.49-8.5
		c-2.01-3.51-3.67-7.23-5.62-10.78c-1.29-2.36-1.36-5.17-2.87-7.43c-0.28-4.03-2.06-7.77-2.25-11.81c-1.5-2.28-0.47-4.94-1.1-7.4
		c-0.59-2.33,0.09-4.99-0.49-7.32c-1.1-4.4-0.35-8.81-0.69-13.2c-0.16-2.1,0.58-4.04,0.74-6.07c0.16-1.99-0.35-4.1,0.15-5.96
		c0.44-1.68,0.47-3.31,0.68-4.96c0.21-1.65,0.4-3.38,0.82-4.91c1.68-6.14,2.91-12.41,5.5-18.32c1.51-3.45,3.28-6.65,5.31-9.81
		c2.77-4.33,6.53-7.5,10.65-10.31c4.73-3.23,10.11-5.13,15.56-6.75c3.25-0.97,6.53-1.81,9.91-2.36c3.41-0.56,6.89-0.87,10.23-1.56
		c4.94-1.01,9.82-0.38,14.71-0.56c4.99-0.19,9.99-0.01,14.99-0.06c1.46-0.01,2.62,1.14,4.2,0.82c1.4-0.28,2.79,0.08,4.21,0.62
		c1.28,0.49,2.93-0.39,4.16,0.83c4.8,0.01,9.08,2.35,13.74,3.05c1.21,0.18,2.33,0.98,3.51,1.45c4.56,1.82,8.86,4.02,12.9,6.91
		c5.36,3.84,8.8,9,11.49,14.73c2.27,4.82,4.06,9.84,5.2,15.11c0.41,1.91,0.66,3.9,1.3,5.8c0.6,1.77,0.31,3.85,0.89,5.64
		c0.78,2.4,0.3,4.86,0.75,7.19c1.4,7.26,0.37,14.55,0.64,21.81c0.07,1.76-0.44,3.54-0.71,5.31c-0.25,1.65,0.6,3.43-0.71,4.97
		c-0.25,0.29-0.04,0.97-0.03,1.47c0.03,2.53-1,4.89-1.26,7.32c-0.4,3.68-1.8,7.05-2.52,10.61c-0.27,1.34-0.97,2.59-1.46,3.88
		c-2.35,6.22-5.11,12.21-10.18,16.75c-1.85,1.66-3.89,3.16-6.02,4.46c-2.47,1.51-5.08,2.79-7.69,4.03
		c-5.98,2.84-12.1,5.28-18.65,6.56c-2.91,0.57-5.86,0.97-8.73,1.57C116.06,180.63,110.15,179.46,105.39,180z"/>
	<path fill="currentColor" d="M280.57,180c-4.36,0-7.63-0.23-10.85,0.06c-3.36,0.31-6.56-0.54-9.8-0.91c-3.1-0.36-6.17-1.28-9.23-2.02
		c-4.22-1.02-8.17-2.57-12.16-4.18c-5.45-2.19-10.4-5.17-15.26-8.45c-3.11-2.1-5.24-4.83-7.3-7.82c-2.87-4.17-4.89-8.74-6.29-13.51
		c-1.05-3.57-2.37-7.08-2.8-10.88c-0.36-3.16-1.06-6.31-1.54-9.49c-0.42-2.8-0.04-5.66-0.7-8.31c-1.04-4.17-0.4-8.31-0.64-12.46
		c-0.25-4.42,1.29-8.74,0.74-13.18c1.04-1.79,0.48-3.8,0.79-5.68c0.66-3.94,1.48-7.85,2.41-11.74c1.08-4.51,2.62-8.92,4.41-13.16
		c1.48-3.51,3.35-6.91,5.83-9.98c2.52-3.12,5.18-5.82,8.67-7.94c3.31-2.01,6.81-3.49,10.21-5.23c4.46-2.28,9.42-2.52,13.97-4.3
		c1.94-0.76,4.47-0.11,6.35-0.95c2.65-1.19,5.58,0.24,8.07-1.35c0.44-0.28,1.22-0.04,1.85-0.04c7.99,0,15.99-0.04,23.98,0.03
		c1.52,0.01,3.04,0.45,4.56,0.72c1.52,0.27,3.24-0.72,4.56,0.75c2.1-0.36,4.05,0.43,6.06,0.76c9.37,1.56,18.21,4.7,26.46,9.37
		c1.66,0.94,2.9,2.58,4.51,3.62c1.43,0.92,2.63,1.81,3.44,3.41c0.68,1.36,2.03,2.3,2.93,3.64c2.41,3.62,4.12,7.53,5.68,11.54
		c1.01,2.6,1.79,5.27,2.46,7.98c0.39,1.58,0.9,3.13,1.28,4.71c0.31,1.26,0.57,2.53,0.74,3.81c0.16,1.17,0.29,2.3,0.63,3.47
		c0.55,1.9-0.09,4.09,0.89,6.02c-0.07,6.9,1.53,13.79,0.65,20.66c-0.45,3.54-0.42,7.05-0.75,10.56c-0.14,1.5-0.77,2.99-0.66,4.57
		c0.12,1.7-1.03,3.14-0.83,4.94c0.17,1.48-0.4,3.11-0.78,4.52c-2.02,7.48-4.19,14.98-8.19,21.69c-2.74,4.6-5.99,8.77-11.07,11.32
		c-2.46,1.23-5.24,2.19-7.2,4.35c-3.21,0.35-5.68,2.54-8.67,3.51c-3.53,1.14-7.04,2.35-10.63,3.26c-3.23,0.82-6.61,0.99-9.84,1.65
		C291.48,180.6,285.46,179.45,280.57,180z"/>
</g>
</svg>
