<svg version="1.1" id="layer" xmlns="http://www.w3.org/2000/svg" xmlns:xlink="http://www.w3.org/1999/xlink" x="0px" y="0px"
	 viewBox="0 0 384 384" enable-background="new 0 0 384 384" xml:space="preserve">
<g id="group" fill="currentColor">
	<path d="M150.75,245.25c-8.32,0-16.43,0.24-24.52-0.09c-4.77-0.2-7.39-2.93-7.65-7.79c-0.32-5.98-0.08-11.99-0.08-17.99
		c0-24.62,0.01-49.25-0.01-73.87c0-2.53,1.61-9.27,3.03-11.87c2.49-4.6,5.73-8.59,10.24-11.36c4.7-2.89,9.79-4.53,15.37-4.53
		c30.25,0.02,60.49-0.05,90.74,0.05c7.13,0.02,13.21,2.82,18.6,7.65c4.66,4.18,6.85,9.54,8.92,15.1c0.24,0.66,0.11,1.46,0.11,2.2
		c0,31.62,0.01,63.24,0,94.87c0,3.94-3.67,7.62-7.59,7.63c-7.87,0.02-15.73,0.01-23.91,0.01c0-1.14,0-2.23,0-3.31
		c0-8.12-0.09-16.25,0.05-24.37c0.05-3-0.87-5.06-3.89-6.11c-0.73,0.42-1.59,0.81-2.32,1.37c-0.89,0.68-1.43,1.49-1.38,2.81
		c0.13,3.87,0.05,7.75,0.05,11.62c0,34.5-0.02,68.99,0.02,103.49c0,4.17-1.78,7.74-4.38,10.51c-2.73,2.9-6.32,4.92-10.82,4.57
		c-2.53-0.2-5-0.31-7.24-1.58c-3.72-2.11-6.22-5.21-7.6-9.27c-0.51-1.5-0.76-2.98-0.76-4.57c0.04-26.37,0.02-52.74,0.02-79.12
		c0-0.37,0-0.75,0-1.12c-0.02-3.8-0.92-4.72-4.89-4.92c-0.81,0.87-1.67,1.78-2.61,2.78c0,27.57,0.02,55.32-0.01,83.06
		c-0.01,7.04-4.13,12.49-11.77,14.59c-5.43,1.5-12.84-1.71-15.95-6.44c-1.37-2.08-1.93-4.39-2.39-6.91
		c-1.19-6.54-0.56-13.07-0.58-19.58c-0.11-32-0.05-63.99-0.05-95.99c0-0.62,0.01-1.25,0-1.87c-0.04-2.02-1.35-3.34-3.34-3.38
		c-1.32-0.03-3.2,1.54-3.39,2.94c-0.11,0.86-0.02,1.75-0.02,2.62c0,8.5,0,17,0,25.5C150.75,243.4,150.75,244.25,150.75,245.25z"/>
	<path d="M191.73,110.25c-3.18,0.25-6.85-0.25-10.4-1.51c-4.2-1.48-8.15-3.27-11.73-6.13c-4.84-3.87-8.33-8.77-10.19-12.64
		c-1.31-2.72-2.12-5.61-2.79-8.61c-0.86-3.82-0.64-7.58-0.51-11.33c0.1-2.63,1.1-5.24,1.85-7.82c0.48-1.66,1.03-3.35,1.87-4.84
		c1.05-1.84,2.29-3.63,3.7-5.21c2.08-2.32,4.18-4.7,6.64-6.6c4.17-3.22,8.95-5.32,14.11-6.62c4.14-1.04,8.37-1.09,12.43-0.57
		c6.41,0.82,12.33,3.17,17.58,7.33c3,2.38,5.68,4.97,7.75,8.05c2.32,3.44,4.2,7.21,5.23,11.31c0.5,1.99,0.93,3.98,0.78,6.06
		c-0.04,0.55,0.27,1.12,0.42,1.69c0.09,0.34,0.23,0.66,0.29,1c0.05,0.24,0.1,0.56-0.01,0.74c-1.33,2.22-0.27,4.78-1.01,7.08
		c-0.89,2.75-1.6,5.59-2.79,8.21c-1.1,2.43-2.41,4.88-4.15,6.88c-4.93,5.66-10.7,10.2-18.22,12.03c-1.57,0.38-3.06,1.21-4.64,1.42
		C196.09,110.44,194.19,110.25,191.73,110.25z"/>
	<path d="M40.5,40.5c0,17.17,0,34.01-0.01,50.86c0,1.31-0.11,2.53-0.66,3.84c-1.23,2.93-3.4,4.35-6.77,3.8
		c-2.21-0.36-4.44-2.93-4.56-5.28c-0.01-0.25,0-0.5,0-0.75c0-19.47-0.01-38.95,0.01-58.42c0-3.65,2.38-6.04,6.04-6.04
		c19.47-0.01,38.95,0,58.42-0.02c2.69,0,4.51,1.14,5.56,3.64c0.94,2.23,0.52,4.82-1.15,6.63c-1.13,1.23-2.74,1.27-4.17,1.7
		c-0.8,0.24-1.74,0.04-2.61,0.04C74.01,40.5,57.42,40.5,40.5,40.5z"/>
	<path d="M343.5,40.5c-1.45,0-2.68,0-3.91,0c-15.6,0-31.21,0.01-46.81-0.02c-1.29,0-2.51-0.05-3.85-0.64
		c-3.15-1.38-4.45-3.18-3.93-6.66c0.37-2.46,2.88-4.59,5.52-4.69c0.37-0.01,0.75,0,1.12,0c19.1,0,38.2,0.01,57.3-0.02
		c2.76,0,4.81,0.78,6.05,3.51c0.39,0.86,0.49,1.61,0.49,2.42c0.02,19.6,0.02,39.2,0.01,58.8c0,2.46-1.91,5.08-4.06,5.74
		c-2.03,0.62-5.34-0.26-6.57-2.04c-0.7-1.01-1.03-2.33-1.32-3.55c-0.2-0.83-0.04-1.74-0.04-2.61c0-15.48,0-30.96,0-46.44
		C343.5,43.08,343.5,41.86,343.5,40.5z"/>
	<path d="M40.5,343.5c17.14,0,33.99,0,50.83,0c1.31,0,2.53,0.12,3.84,0.67c2.98,1.24,4.38,3.35,3.83,6.75
		c-0.36,2.23-2.92,4.46-5.26,4.58c-0.25,0.01-0.5,0-0.75,0c-19.47,0-38.95-0.01-58.42,0.01c-2.67,0-4.42-1.13-5.63-3.58
		c-0.56-1.14-0.41-2.15-0.41-3.19c-0.04-18.1-0.03-36.2-0.03-54.3c0-1.25-0.02-2.5,0-3.75c0.05-2.45,1.56-4.55,3.88-5.44
		c2.2-0.85,5.55-0.07,6.82,1.94c0.78,1.23,1.32,2.73,1.31,4.32c-0.03,3.25-0.01,6.49-0.01,9.74C40.5,315.21,40.5,329.19,40.5,343.5z
		"/>
	<path d="M343.5,343.5c0-17.19,0-34.04,0.01-50.89c0-1.31,0.44-2.6,0.59-3.83c0.3-2.4,2.11-3.12,3.55-3.66
		c3.89-1.45,7.84,1.69,7.84,5.95c0.02,19.47,0.01,38.95,0,58.42c0,3.63-2.4,6-6.07,6c-19.47,0.01-38.95,0.01-58.42,0
		c-2.72,0-4.92-1.52-5.8-3.92c-0.76-2.08-0.04-5.14,1.73-6.59c1.53-1.26,3.42-1.5,5.37-1.49c13.36,0.03,26.72,0.01,40.07,0.01
		C335.99,343.5,339.6,343.5,343.5,343.5z"/>
	<path d="M119.98,79.85c0,1.72,0,3.47,0,5.3c-1.02,0.98-2.1,2.01-3.51,3.35c-0.94,0-2.28,0.01-3.63,0c-3.5-0.04-6.8,1.25-10.25,1.5
		c-4.66,2.38-9.6,4.1-13.82,7.44c-3.3,2.6-6.18,5.49-8.58,8.83c-2.24,3.11-3.83,6.61-5.21,10.2c-0.5,1.29-0.65,2.66-1.37,3.94
		c-0.72,1.28,0.25,2.97-0.72,4.58c-0.66,1.1-0.23,2.93-0.11,4.42c0.24,2.95-1.43,4.83-3.58,6.28c-1.36,0.91-2.85,0.96-4.64,0.16
		c-2.82-1.26-3.85-3.07-3.84-6.04c0.02-8.81,2.32-17.02,6.39-24.73c2.11-4,4.6-7.77,7.88-11c3.22-3.17,6.47-6.25,10.27-8.73
		c2.44-1.6,11.18-6.33,13.4-6.52c3.34-0.29,6.46-1.82,9.87-1.58c0.48,0.03,0.99,0.01,1.45-0.11
		C114.84,75.88,116.42,76.3,119.98,79.85z"/>
	<path d="M311.78,132.9c-0.16-2.8-0.01-6.01-0.62-9.05c-0.64-3.15-1.32-6.35-2.71-9.34c-1.33-2.86-2.69-5.68-4.55-8.21
		c-3.6-4.9-7.83-9.02-13.31-11.95c-5.39-2.89-9.55-4.4-14.72-5.21c-2.29-0.36-4.53-0.53-6.82-0.65c-2.14-0.11-4.62-2.35-5.05-4.4
		c-0.56-2.68,0.58-4.9,2.78-6.3c2.31-1.47,4.59-1.81,7.13-0.79c0.64,0.26,1.42,0.24,2.14,0.24c4.56-0.01,8.76,1.58,12.97,3.05
		c2.06,0.72,3.92,1.99,5.96,2.77c3.27,1.26,5.74,3.67,8.52,5.62c1.67,1.17,2.67,3.21,4.74,3.94c0.45,2.14,2.62,2.85,3.7,4.46
		c1.31,1.94,2.5,3.97,3.82,5.9c2.59,3.78,4.24,7.95,5.46,12.34c0.53,1.93,0.83,3.93,1.4,5.8c0.92,3.05,0.51,6.06,0.61,9.08
		c0.1,2.78-1.15,4.79-3.07,5.56c-2.52,1.02-4.82,1.04-6.75-1.21C313.01,134.07,312.53,133.66,311.78,132.9z"/>
	<path d="M85.13,137.25c-0.72-0.72-1.55-1.34-2.09-2.15c-0.57-0.85-1.12-1.85-1.23-2.83c-0.35-3.03,0.13-6.04,0.82-8.99
		c0.26-1.12,0.59-2.25,1.06-3.3c1.05-2.31,1.91-4.8,3.4-6.8c2.05-2.75,3.87-5.69,7.04-7.61c2.19-1.32,4.03-3.29,6.46-4.32
		c3.8-1.6,7.55-3.36,11.85-3.02c0.46,0.04,0.95-0.08,1.4-0.21c2.35-0.66,4.12-0.19,5.89,1.86c1.31,1.53,2.4,2.97,1.25,5.4
		c-1.56,3.3-2.24,3.96-5.68,4.26c-5.19,0.45-10.58,1.67-14.94,6.4c-1.89,2.05-3.88,3.98-4.95,6.57c-0.9,2.16-1.6,4.41-1.65,6.8
		c-0.03,1.43-0.03,2.78-0.67,4.21c-1.04,2.35-2.22,3.61-4.6,3.71C87.36,137.29,86.24,137.25,85.13,137.25z"/>
	<path d="M302.25,133.88c-1.08,1.08-2.14,2.14-3.37,3.38c-0.92,0-2.02,0.03-3.12-0.01c-2.3-0.08-3.91-1.14-4.57-3.21
		c-0.45-1.45-0.96-3-0.88-4.48c0.22-3.91-1.66-7.09-3.43-10.2c-2.5-4.39-6.58-6.88-11.32-8.57c-1.24-0.44-2.55-0.03-3.47-0.61
		c-1.17-0.74-2.29-0.64-3.48-0.67c-3.31-0.07-4.22-0.94-5.43-4.01c-0.72-1.83-0.3-3.42,0.41-4.87c0.96-1.95,3.17-3.19,5-2.95
		c2.28,0.31,4.62,0.16,6.8,0.67c2.9,0.67,5.85,1.49,8.49,2.95c5.31,2.94,9.7,6.81,13.19,11.9c2.72,3.98,3.9,8.43,5.06,12.88
		C302.77,128.53,302.25,131.28,302.25,133.88z"/>
</g>
</svg>
