<svg version="1.1" id="Layer" xmlns="http://www.w3.org/2000/svg" xmlns:xlink="http://www.w3.org/1999/xlink" x="0px" y="0px"
	 viewBox="0 0 384 384" enable-background="new 0 0 384 384" xml:space="preserve">
<path fill="currentColor" d="M213.19,142.24c-0.83,4.84-1.79,9.22-2.61,13.63c-0.78,4.22-1.34,8.55-2.77,12.68c-0.65,1.88-0.41,4.05-0.85,6.03
	c-0.69,3.09-0.96,6.29-2.02,9.28c-0.48,1.36-0.03,2.72-0.8,4.18c-0.88,1.69-0.55,3.98-0.92,5.98c-0.57,3.12-1.48,6.18-1.89,9.32
	c-0.31,2.39-0.5,4.93,0,7.25c0.9,4.18,5.04,11.83,7.55,15.99c1.85,3.06,3.24,6.4,4.86,9.6c2.73,5.37,5.17,10.93,8.36,16.01
	c2.18,3.48,3.75,7.24,5.8,10.76c0.95,1.63,1.3,3.7,1.72,5.67c0.65,3.07,0.84,6.26,2.03,9.26c0.58,1.48,0.06,3.25,0.75,4.94
	c0.7,1.72,0.16,3.97,0.97,5.59c0.89,1.8,0.06,3.8,1.3,5.49c0.48,0.65-0.02,1.95,0.11,2.94c0.1,0.79,0.55,1.53,0.7,2.32
	c0.31,1.64,0.23,3.41,0.84,4.9c0.74,1.78,0,3.91,0.85,5.24c1.02,1.58-0.32,3.55,1.32,4.74c-0.16,3.51,1.13,6.82,1.67,10.23
	c0.48,3.06,0.53,6.35,2.08,9.22c-0.33,1.97,0.31,3.82,0.76,5.69c0.49,2.05,0.49,4.2,1.4,6.17c0.29,0.62,0.09,1.47,0.08,2.21
	c-0.02,1.21-0.12,2.43,0.75,3.44c-0.92,3.84-1.2,7.83-3.4,11.35c-2.66,4.27-6.59,6.94-11.04,8.55c-3.39,1.22-7.02,1.55-10.9,0.51
	c-4.97-1.34-9.22-3.53-12.21-7.52c-1.83-2.43-3.24-5.27-3.82-8.54c-0.54-3.08-0.87-6.24-2.03-9.25c-0.71-1.84-0.46-4.04-0.88-6.02
	c-0.42-1.94-0.48-3.96-1.29-5.83c-0.56-1.29-0.18-2.73-0.79-4.17c-0.77-1.8-0.45-4.03-0.91-6c-0.73-3.08-1.04-6.25-2-9.29
	c-0.28-0.91-0.08-1.95-0.24-2.91c-0.15-0.91-0.55-1.78-0.71-2.7c-0.31-1.76-0.02-3.85-0.89-5.23c-1.05-1.68-0.19-3.48-1.23-5.17
	c-0.77-1.23-0.14-3.2-0.8-4.89c-0.67-1.73-0.13-4-0.97-5.59c-0.94-1.8,0.13-3.93-1.38-5.44c0.39-2.79-0.83-5.05-2.22-7.34
	c-1.27-2.08-2.02-4.4-3.44-6.47c-1.95-2.84-3.26-6.12-4.85-9.22c-2.75-5.36-5.32-10.82-8.31-16.05c-2.48-4.34-4.54-8.88-6.88-13.28
	c-1.41-2.66-3.03-5.22-4.4-7.92c-0.59-1.16-2.01-1.98-3.2-2.73c-7.17-4.46-8.76-8.75-11.56-15.35c0.45-3.15-2.24-6.26-0.16-9.44
	c-0.34-3.78,1.2-7.3,1.66-10.98c0.37-2.94,0.8-6.02,1.93-8.9c0.55-1.4,0.22-2.99,0.8-4.54c0.7-1.85,0.33-4.09,0.92-6
	c0.91-2.93,1.04-5.99,1.95-8.92c0.48-1.53,0.62-3.23,0.95-4.86c0.4-1.99,0.2-4.15,0.86-6.03c1.09-3.14,0.95-6.52,2.16-9.6
	c0.08-0.2-0.04-0.47-0.08-0.9c-6.28,2.88-12.8,5.03-19.01,7.98c-2.36,1.12-4.9,2.11-7.41,2.88c-1.44,0.44-2.09,1.23-2.77,2.22
	c-2.55,3.68-5.03,7.41-7.57,11.08c-2.29,3.3-4.42,6.74-6.84,9.91c-2.38,3.12-4.2,6.62-6.65,9.61c-2.88,3.52-5.08,7.47-7.8,11.07
	c-2.61,3.46-4.6,7.41-7.28,10.81c-2.14,2.72-3.87,5.74-6.09,8.35c-1.67,1.96-4.15,3.07-6.57,3.94c-4.96,1.79-9.58,0.75-13.79-2.24
	c-2.72-1.93-4.77-4.31-5.67-7.71c-1.44-5.47-0.97-9.47,2.2-14.24c3.41-5.12,7.07-10.07,10.57-15.13c3.55-5.14,6.98-10.37,10.55-15.5
	c2.78-3.99,5.74-7.86,8.53-11.85c2.22-3.18,4.14-6.59,6.49-9.66c3.48-4.54,5.93-9.82,10.18-13.82c1.7-1.6,3.59-2.7,5.68-3.55
	c3.21-1.3,6.38-2.69,9.67-3.82c2.17-0.74,4.12-2.16,6.3-2.89c6.59-2.2,12.8-5.31,19.31-7.71c3.42-1.26,6.78-2.95,10.22-4.26
	c3.34-1.27,6.68-2.6,10.32-3.25c3.2-0.58,6.32-0.44,9.47-0.54c1.26-0.04,2.54,0.47,3.81,0.7c1.28,0.23,2.72-0.54,3.86,0.69
	c0.18,0.19,0.71,0.03,1.08,0.07c2.27,0.24,4.54,0.62,6.81,0.71c2.18,0.08,4.25,0.74,6.42,0.92c2.84,0.25,5.63,1.37,8.37,2.32
	c5.69,1.97,10.18,5.82,14.86,9.45c2.71,2.1,5.32,4.38,8.25,6.23c1.6,1.01,2.9,2.52,4.46,3.71c4.28,3.25,8.32,6.82,12.84,9.78
	c0.82,0.54,1.35,1.51,2.16,2.07c0.94,0.65,2,1.26,3.09,1.52c1.73,0.42,3.55,0.44,5.3,0.82c3.8,0.82,7.54,1.96,11.45,2.23
	c1.34,1.61,3.67-0.12,5,1.5c1.74-0.38,3.29,0.5,4.94,0.75c1.77,0.26,3.63,0.24,5.3,0.8c4.49,1.53,9.21,1.9,13.75,3.03
	c3.96,0.99,8.12,1.16,11.93,2.85c1.16,0.52,2.75-0.56,3.79,0.81c6.07,1.56,9.11,5.23,10.54,10.74c1.07,4.15,0.66,8.49-2.08,12.42
	c-2.23,3.2-4.96,5.17-8.62,6.32c-2.81,0.89-5.65,0.85-8.27,0.15c-1.57-0.42-3.49,0.42-4.76-1.13c-4.54-0.15-8.91-1.46-13.28-2.42
	c-3.97-0.87-7.99-1.77-11.96-2.66c-3.08-0.69-6.32-1.17-9.44-1.79c-4-0.81-8.11-1.23-11.99-2.66c-1.64-0.6-3.47-0.75-5.23-0.95
	c-3.07-0.35-6.01-1.34-9.11-1.65c-1.71-0.17-3.44-1.42-4.9-2.53c-3.93-2.98-7.61-6.29-11.59-9.19c-2.79-2.03-5.31-4.4-8.28-6.2
	C215.28,144.76,214.47,143.54,213.19,142.24z"/>
<path fill="currentColor" d="M132.39,281.23c4-20,7.92-39.62,11.88-59.48c0.57,0.31,1.02,0.47,1.35,0.76c1.72,1.54,3.22,3.28,5.22,4.56
	c2.04,1.3,3.09,3.62,4.24,5.7c1.45,2.62,2.41,5.53,3.96,8.09c3.07,5.08,5.34,10.56,8.28,15.68c2.15,3.73,4.02,7.58,5.94,11.42
	c0.47,0.94,1.15,1.77,1.72,2.66c0.77,1.21,1.57,2.46,1.24,3.97c-0.63,2.88-1.17,5.78-1.77,8.66c-0.19,0.91-0.28,1.86-0.48,2.77
	c-0.2,0.91-0.65,1.78-0.71,2.69c-0.19,3.1-1.07,6.1-1.71,9.08c-0.55,2.59-1.73,5.35-3.86,7.36c-4.57,4.33-8.99,8.85-13.81,12.9
	c-2.26,1.9-4.32,3.96-6.51,5.91c-1.54,1.37-3.16,2.64-4.71,3.99c-1.55,1.35-2.71,3.17-4.72,3.98c-0.21,0.09-0.35,0.35-0.54,0.52
	c-3.52,3.27-6.94,6.65-10.58,9.78c-5.01,4.32-9.9,8.76-14.78,13.22c-4.05,3.69-8.28,7.19-12.35,10.87
	c-4.79,4.33-10.59,6.46-17.1,5.61c-2.49-0.32-5.13-1.04-7.23-2.34c-2.56-1.58-5.18-3.6-6.79-6.07c-2.77-4.26-4.85-9.04-4.05-14.38
	c0.32-2.16,0.98-4.33,1.86-6.34c0.89-2.01,2.24-3.82,3.39-5.72c3.65-1.66,5.27-5.75,8.91-7.43c0.32-0.15,0.53-0.52,0.8-0.78
	c3.78-3.53,7.45-7.2,11.38-10.57c4.93-4.22,9.7-8.61,14.51-12.96c4.53-4.1,9.13-8.11,13.69-12.18
	C123.64,289.09,128.44,285.29,132.39,281.23z"/>
<path fill="currentColor" d="M240.72,45.29c0.4,7.92-2.26,14.31-6.01,20.26c-3.23,5.11-11.27,10.65-17.27,12.46c-3.89,1.17-11.54,2.26-14.72,1.4
	c-2.79-0.75-5.8-0.91-8.34-2.44c-2.5-1.5-5.17-2.62-7.59-4.38c-4.62-3.35-7.84-7.63-10.19-12.66c-1.33-2.85-2.38-5.79-2.72-9.03
	c-0.19-1.75-0.62-3.52-0.62-5.33c0-5.1,2.21-13.73,5.33-18.01c2.24-3.07,4.61-6.07,7.9-8.41c2.92-2.07,6.18-3.33,9.11-5.22
	c1.2-0.78,2.83,0.36,3.65-1.17c1.75,0.43,3.28-0.67,4.94-0.73c2.25-0.08,4.58-0.4,6.73,0.06c4.65,0.98,9.19,2.09,13.45,4.68
	c3.78,2.3,6.67,5.35,9.56,8.43c2.63,2.8,4.18,6.43,5.31,10.13C240.29,38.77,241.26,42.25,240.72,45.29z"/>
<path fill="currentColor" d="M13.5,82.88c1.03-1.03,1.82-1.82,2.75-2.75c3.09,0.81,6.13-0.66,9.3-0.62c3.13,0.04,6.09-1.01,9.1-1.62
	c2.78-0.56,5.5-1.79,8.11-2.97c2.74-1.23,5.46-2.55,7.98-4.33c2.51-1.77,5.14-3.41,7.44-5.45c2.42-2.16,4.66-4.52,6.9-6.87
	c2.15-2.24,3.62-5,5.49-7.44c1.89-2.46,3.06-5.26,4.35-7.97c1.23-2.58,2.14-5.37,2.99-8.11c0.9-2.91,1.17-6.04,1.57-9.09
	c0.41-3.12,0.64-6.27,0.98-9.75c0.64-0.58,1.56-1.41,2.68-2.41c0.05,0,0.43,0.04,0.79-0.01c1.53-0.21,2.98,0.32,3.9,1.34
	c0.79,0.88,1.3,2.3,1.34,3.5c0.05,1.5,0.79,3.22-0.64,4.58c-0.19,0.18-0.04,0.72-0.02,1.1c0.15,4.35-1.17,8.41-2.14,12.58
	c-1.03,4.48-2.6,8.66-4.63,12.71c-2.11,4.2-4.71,8.09-7.49,11.9c-3.09,4.24-6.96,7.69-10.71,11.24c-2.81,2.65-6.22,4.66-9.53,6.73
	c-3.17,1.99-6.61,3.32-9.98,4.86c-2.99,1.38-6.14,2.14-9.28,2.9c-3.59,0.88-7.2,1.69-10.98,1.65c-1.58-0.02-3.23,0.86-4.93,0.63
	c-1.16-0.16-2.42-0.25-3.41-0.79c-1.16-0.64-1.67-1.97-1.9-3.28C13.39,84.44,13.5,83.67,13.5,82.88z"/>
<path fill="currentColor" d="M368.15,80.52c0.72,0.72,1.52,1.52,2.35,2.35c0,0.33-0.04,0.7,0.01,1.07c0.22,1.54-0.33,2.98-1.35,3.9
	c-0.88,0.79-2.3,1.29-3.5,1.33c-1.5,0.05-3.22,0.79-4.58-0.64c-0.18-0.19-0.72-0.04-1.1-0.02c-4.35,0.15-8.41-1.17-12.58-2.14
	c-4.47-1.04-8.67-2.59-12.71-4.63c-4.2-2.12-8.09-4.72-11.9-7.5c-4.24-3.09-7.69-6.97-11.24-10.72c-2.66-2.81-4.71-6.18-6.71-9.54
	c-1.78-3-3.46-6.04-4.74-9.28c-1.29-3.24-2.29-6.58-3.06-9.97c-0.82-3.61-1.64-7.21-1.63-10.99c0-1.58-0.7-3.23-0.66-4.93
	c0.1-3.6,1.62-5.18,5.24-5.31c0.37-0.01,0.75,0,1.16,0c0.85,0.87,1.72,1.76,2.73,2.8c-0.81,3.05,0.68,6.1,0.63,9.26
	c-0.04,3.13,1.05,6.08,1.62,9.1c0.53,2.79,1.8,5.49,2.96,8.11c1.22,2.75,2.57,5.45,4.34,7.97c1.77,2.52,3.4,5.16,5.45,7.44
	c2.17,2.41,4.52,4.67,6.87,6.9c2.25,2.13,4.99,3.63,7.44,5.48c2.47,1.86,5.31,2.92,7.95,4.39c2.52,1.41,5.42,1.99,8.14,2.93
	c2.87,0.99,6.03,1.18,9.08,1.59C361.48,79.9,364.62,80.15,368.15,80.52z"/>
<path fill="currentColor" d="M60,20.94c-0.43,2.67-0.46,6.27-1.67,9.43c-1.64,4.3-3.45,8.64-6.25,12.38c-1.53,2.04-3.03,4.35-5.09,5.67
	c-2.15,1.38-3.5,3.62-5.9,4.68c-2.43,1.08-4.55,2.98-7.04,3.79c-3.2,1.05-6.33,2.74-9.9,2.35c-1.9,1.2-4.02,0.74-6.06,0.72
	c-2.55-0.02-4.54-2.02-4.59-4.41c-0.05-2.36,1.97-4.61,4.47-4.51c3.54,0.14,6.9-0.8,10.22-1.65c2.52-0.65,4.82-2.21,7.19-3.41
	c2.01-1.02,5.85-4.96,7.43-6.49c2.38-2.31,3.65-5.21,5.25-7.97c1.09-1.87,1.53-3.92,2.09-5.88c0.68-2.39,0.67-5,0.83-7.53
	c0.11-1.67,0.63-3,2.12-3.87c3.73-2.18,6.7,0.83,6.9,3.69C60.04,18.68,60,19.44,60,20.94z"/>
<path fill="currentColor" d="M363.06,60c-2.67-0.43-6.27-0.47-9.43-1.67c-4.3-1.63-8.64-3.45-12.38-6.25c-2.04-1.53-4.35-3.03-5.67-5.09
	c-1.38-2.15-3.62-3.5-4.68-5.9c-1.08-2.43-2.98-4.55-3.79-7.04c-1.04-3.2-2.74-6.33-2.35-9.9c-1.21-1.9-0.73-4.02-0.72-6.06
	c0.01-2.54,2.03-4.54,4.42-4.59c2.37-0.05,4.61,1.97,4.51,4.47c-0.14,3.54,0.77,6.91,1.65,10.22c0.76,2.86,1.98,5.82,3.79,8.11
	c1.89,2.38,3.18,5.57,6.46,6.67c2.12,2.77,5.49,3.6,8.24,5.38c1.69,1.09,3.55,1.15,5.28,1.76c2.21,0.78,4.74,0.79,7.14,0.82
	c1.45,0.02,2.69,0.52,3.55,1.36c1.18,1.15,1.91,2.69,1.26,4.53c-0.66,1.87-2.08,2.78-3.89,3.14C365.58,60.14,364.68,60,363.06,60z"
	/>
<path fill="currentColor" d="M17.94,24c-3.58-0.02-5.98-2.51-5.94-6.15c0.04-3.56,2.54-5.9,6.25-5.85c3.35,0.05,5.74,2.53,5.75,5.97
	C24.01,21.56,21.54,24.02,17.94,24z"/>
<path fill="currentColor" d="M366.19,24c-3.69,0.05-6.16-2.31-6.19-5.91c-0.03-3.44,2.37-5.82,5.62-6.15c3.42-0.35,6.52,3.01,6.43,5.78
	C371.92,21.42,369.72,23.95,366.19,24z"/>
</svg>
