<svg version="1.1" id="layer" xmlns="http://www.w3.org/2000/svg" xmlns:xlink="http://www.w3.org/1999/xlink" x="0px" y="0px"
	 viewBox="0 0 384 384" enable-background="new 0 0 384 384" xml:space="preserve">
<path fill="currentColor" d="M117.06,123.53c0,8.11,0,15.7,0,23.41c15.96,0,31.8,0,47.78,0c0,30.04,0,59.96,0,90c-15.87,0-31.7,0-47.8,0
	c0,7.8,0,15.48,0,23.36c-5.15-3.39-10.02-6.61-14.9-9.8c-6.98-4.57-13.82-9.36-20.99-13.61c-6.05-3.58-11.58-7.94-17.79-11.29
	c-4.23-2.29-7.89-5.62-12.04-8.08c-6.05-3.59-11.62-7.9-17.77-11.35c-4.2-2.35-8.02-5.38-12.05-8.04c-2.44-1.61-4.97-3.09-7.44-4.65
	c-0.5-0.32-0.92-0.76-1.56-1.29c0.5-0.62,0.83-1.36,1.4-1.67c6.38-3.52,12.16-7.97,18.4-11.68c6.25-3.72,11.95-8.26,18.36-11.75
	c4.12-2.25,7.74-5.4,11.77-7.83c6.12-3.7,11.78-8.09,18.05-11.57c4.1-2.28,7.78-5.31,11.78-7.78c6.18-3.82,11.89-8.36,18.37-11.74
	C112.81,127.02,114.67,125.28,117.06,123.53z"/>
<path fill="currentColor" d="M219.06,237.13c0-30.22,0-60.05,0-90c15.89,0,31.72,0,47.47,0c0.18-0.2,0.28-0.29,0.35-0.39c0.06-0.1,0.12-0.22,0.12-0.32
	c0.01-7.48,0-14.95,0-22.69c6.65,4.35,13.07,8.57,19.5,12.78c5.41,3.54,10.68,7.29,16.26,10.54c6.08,3.54,11.56,7.97,17.79,11.29
	c4.14,2.2,7.75,5.37,11.78,7.81c6.22,3.77,11.94,8.28,18.35,11.77c4.12,2.25,7.82,5.25,11.75,7.86c2.44,1.62,4.95,3.14,7.41,4.72
	c0.57,0.37,1.07,0.84,1.91,1.5c-2.19,1.6-3.93,3.27-6,4.28c-4.99,2.44-9.18,6.08-13.95,8.83c-6.3,3.63-11.98,8.2-18.38,11.71
	c-4.12,2.26-7.74,5.39-11.76,7.84c-6.21,3.78-11.95,8.26-18.35,11.77c-4.11,2.26-7.73,5.41-11.77,7.83
	c-6.13,3.68-11.7,8.22-18.08,11.53c-2.19,1.14-4.08,2.88-6.39,4.55c-0.14-3.92-0.05-7.72-0.07-11.52c-0.02-3.86,0-7.72,0-11.7
	C251.05,237.13,235.22,237.13,219.06,237.13z"/>
<path fill="currentColor" d="M180.81,236.87c0-29.96,0-59.79,0-89.74c7.39,0,14.73,0,22.25,0c0,29.79,0,59.7,0,89.74
	C195.8,236.87,188.46,236.87,180.81,236.87z"/>
</svg>
