<svg version="1.1" id="Layer" xmlns="http://www.w3.org/2000/svg" xmlns:xlink="http://www.w3.org/1999/xlink" x="0px" y="0px"
	 viewBox="0 0 384 384" enable-background="new 0 0 384 384" xml:space="preserve">
<g id="Outdoor">
	<path fill="currentColor" d="M29.25,244.5c0-1,0-1.73,0-2.47c0-19.12-0.01-38.25,0-57.37c0-3.86,1.39-7.18,4.13-9.91c1.29-1.28,2.42-2.74,4.18-3.47
		c0.96-0.4,5.82-1.79,6.76-1.79c31.25,0,62.49-0.12,93.74,0.1c6.4,0.04,11.7,2.96,14.33,9.39c0.67,1.64,1.32,3.33,1.33,5.06
		c0.06,20,0.04,39.99,0.03,59.99c0,0.1-0.13,0.19-0.32,0.46c-2.85,0-5.84,0.12-8.81-0.03c-5.71-0.28-10.67,3.21-12.44,9.28
		c-0.88,3.02-0.07,6.11,1.63,8.53c2.52,3.59,6.08,5.76,10.8,5.5c2.97-0.16,5.96-0.03,9.14-0.03c0,4.88,0.02,9.6-0.01,14.32
		c-0.01,1.6-0.6,2.26-2.21,2.14c-1.9-0.14-3.83,0.58-5.75-0.61c-0.9-0.55-2.67-0.49-3.61,0.05c-0.97,0.56-1.83,0.59-2.77,0.59
		c-33.12,0.01-66.24,0.02-99.36-0.01c-0.93,0-1.82,0.16-2.82-0.48c-0.77-0.5-2.4-0.55-3.14-0.05c-1.58,1.06-3.1,0.09-4.71,0.79
		c0-5.73,0-11.07,0-16.74c3.26,0,6.59-0.04,9.92,0.01c5,0.07,10.03-4.21,11.11-9.24c0.62-2.9-0.16-5.23-0.98-7.69
		c-0.9-2.68-3.39-4.01-5.54-5.45c-1.08-0.73-2.72-0.79-4.12-0.84C36.38,244.42,33,244.5,29.25,244.5z"/>
	<path fill="currentColor" d="M116.09,116.27c0.96-2.67,1.68-5.09,2.68-7.38c2.87-6.56,5.27-13.34,8.77-19.6c3.25-5.79,6.35-11.65,9.89-17.29
		c3.53-5.61,7.68-10.74,11.29-16.27c1.38-2.12,3.4-3.82,4.97-5.83c2.88-3.72,6.21-7.01,9.57-10.26c3.09-2.99,6.08-6.17,9.55-8.66
		c3.26-2.34,6.37-4.89,9.73-7.12c4.31-2.86,8.53-5.79,13.16-8.12c0.74-0.37,1.36-0.95,2.22-1.56c6.47,3.25,12.73,7.09,18.69,11.49
		c5.09,3.76,9.76,7.96,14.48,12.15c3.85,3.41,7.2,7.27,10.65,10.99c5.51,5.94,10.37,12.47,14.76,19.32
		c3.21,5.01,6.13,10.18,9.13,15.31c2.06,3.52,4.16,7.09,5.72,10.77c2.7,6.36,6.08,12.49,7.67,19.31c0.12,0.53,0.59,0.97,1.11,1.79
		c-0.92,0.09-1.57,0.35-2.04,0.17c-3.01-1.22-6.15-2.06-9.21-3.11c-1.87-0.64-3.82-0.94-5.67-1.67c-1.83-0.72-4.05-0.7-5.83-1.33
		c-4.15-1.47-8.59-1.23-12.71-2.76c-1.7-0.63-3.75-0.35-5.67-0.73c-3.43-0.68-7.02-0.57-10.53-0.89c-2.77-0.26-5.48-0.92-8.31-0.76
		c-2.74,0.15-5.63,0.56-8.21-0.09c-4.06-1.03-8.07-0.44-12.09-0.59c-4.12-0.16-8.34-0.59-12.34,0.1
		c-5.06,0.87-10.07,0.28-15.08,0.63c-1.78,0.13-3.54,0.49-5.31,0.73c-1.65,0.22-3.44-0.58-4.96,0.73c-0.22,0.19-0.73,0.02-1.1,0.03
		c-1.8,0.04-3.55,0-5.34,0.66c-1.51,0.56-3.4-0.37-4.9,0.84c-3.54-0.34-6.82,1.08-10.23,1.6c-4.12,0.64-8.13,2.03-12.17,3.12
		c-1.79,0.49-3.59,0.98-5.34,1.6C120.84,114.36,118.65,115.27,116.09,116.27z"/>
	<path fill="currentColor" d="M251.25,255.06c32.86,0,65.42,0,98.25,0c0,4.39,0.5,8.81-0.17,13.04c-0.48,3.06-0.32,6.06-0.6,9.08
		c-0.13,1.41-0.52,2.79-0.72,4.19c-0.19,1.41,0.46,2.96-0.76,4.18c0.26,2.2-0.27,4.31-0.74,6.44c-0.88,4-1.77,7.99-2.71,11.97
		c-0.94,3.98-2.31,7.81-3.62,11.64c-1.68,4.91-3.91,9.62-6.39,14.21c-2.44,4.54-4.94,8.98-8.88,12.43c-1.63,1.43-3.51,2.2-5.58,2.84
		c-2.28,0.71-4.54,0.67-6.83,0.67c-8.99,0.01-17.98,0.12-26.97-0.03c-5.94-0.1-10.59-2.68-14.08-7.68
		c-3.75-5.39-6.66-11.23-9.29-17.15c-2.15-4.84-3.74-9.95-5.07-15.16c-1.04-4.08-2.13-8.12-2.89-12.28
		c-0.57-3.16-0.87-6.4-1.62-9.46c-0.75-3.06-0.39-6.14-1.16-9.2c-0.77-3.05-0.17-6.45-0.17-9.7
		C251.25,261.83,251.25,258.59,251.25,255.06z"/>
	<path fill="currentColor" d="M189.93,351.75c55.62,0,111.24,0.02,166.86-0.04c3.5,0,6.39,0.8,8.67,3.59c1.89,2.3,2.59,4.82,1.7,7.65
		c-1.29,4.1-4.88,6.85-9.41,6.85c-111.99-0.05-223.98-0.04-335.98-0.03c-3.98,0-6.96-1.69-8.61-5.27
		c-2.82-6.13,1.59-12.74,8.41-12.74C77.69,351.75,133.81,351.75,189.93,351.75z"/>
	<path fill="currentColor" d="M286.35,116.45c-13.9-38.72-34.56-72.19-68.54-97.04c4.18,1.15,7.84,1.84,11.25,3.16c4.45,1.71,9.12,2.66,13.55,4.41
		c4.62,1.83,9.41,3.18,14.08,4.93c4.43,1.66,8.89,3.29,13.37,4.86c3.05,1.07,6.03,2.35,9.06,3.46c3.58,1.31,7.03,2.94,10.67,4.13
		c1.92,0.62,3.78,1.69,5.68,2.55c4.85,2.18,9.55,4.71,14.43,6.81c3.94,1.69,7.88,3.37,11.57,5.55c4.41,2.6,8.98,4.95,13.48,7.33
		c5.89,3.11,11.36,6.87,17.17,10.07c4.03,2.22,7.56,5.35,11.27,8.13c2.69,2.01,5.32,4.11,8.67,6.71c-1.8,0-2.75-0.04-3.71,0.01
		c-4.4,0.23-8.81,0.34-13.18,0.83c-1.51,0.17-2.99,0.79-4.57,0.67c-1.7-0.13-3.14,1.03-4.95,0.82c-1.48-0.17-3.03,0.52-4.53,0.8
		c-2.29,0.43-4.57,1.02-6.9,1.38c-2.2,0.34-4.42,0.93-6.46,1.62c-4.82,1.62-9.76,2.82-14.5,4.8c-5.14,2.15-10.16,4.46-15.12,6.96
		c-3.15,1.59-6.03,3.55-9.02,5.36C288.24,115.29,287.35,115.84,286.35,116.45z"/>
	<path fill="currentColor" d="M25.63,91.43c-0.61-1.75,0.92-1.26,1.41-1.8c1.95-2.15,4.46-3.61,6.74-5.37c4.32-3.33,8.83-6.35,13.44-9.24
		c6.32-3.96,12.67-7.87,19.31-11.28c6.7-3.45,13.18-7.39,20.09-10.32c7.22-3.06,14.06-7.07,21.69-9.18c2.9-2,6.3-2.9,9.52-4.16
		c5.59-2.18,11.21-4.3,16.84-6.41c6.83-2.55,13.8-4.68,20.67-7.1c4.26-1.5,8.61-2.74,12.93-4.08c2.44-0.76,4.87-1.52,7.32-2.23
		c0.42-0.12,0.91-0.02,2.15-0.02c-4.13,2.57-6.84,5.66-10.32,7.75c-0.52,0.31-0.88,0.88-1.34,1.3c-2.16,1.98-4.05,4.21-6.52,5.92
		c-1.53,1.05-3.04,2.4-3.84,4.35c-0.4,0.96-1.54,1.6-2.31,2.42c-4.56,4.82-8.79,9.88-12.56,15.38c-2.01,2.92-4.18,5.78-6.24,8.69
		c-2.1,2.95-3.66,6.25-5.64,9.27c-4.35,6.63-7.45,13.92-10.96,20.97c-2.87,5.76-5.2,11.85-7.01,18.08
		c-0.21,0.72-0.73,1.36-1.16,2.12c-5.7-3.83-11.18-7.32-17.15-10.07c-5.59-2.57-11.33-4.64-17.11-6.65
		c-4.74-1.65-9.65-2.71-14.55-3.78c-4.16-0.9-8.24-2.15-12.56-2.33c-1.35-0.05-2.73-0.66-4.19-0.71c-1.28-0.04-2.53-0.57-3.82-0.68
		c-1.49-0.13-3.11,0.34-4.47-0.1C32.52,91.07,28.97,91.78,25.63,91.43z"/>
	<path fill="currentColor" d="M207.75,109.63c0,1.24,0,2.35,0,3.46c0,76.35-0.01,152.69,0.02,229.04c0,4.65-0.18,4.43-4.55,4.39
		c-4.62-0.05-9.24-0.01-14.04-0.01c0-78.92,0-157.83,0-236.87C195.2,109.63,201.28,109.63,207.75,109.63z"/>
	<path fill="currentColor" d="M89.69,289.5c21.62,0,43.24,0.06,64.86-0.06c3.7-0.02,6.7,1.39,9.5,3.34c1.73,1.21,2.75,3.42,3.09,5.4
		c0.56,3.32,0.29,6.69-2,9.61c-2.46,3.15-5.54,4.94-9.52,4.94c-43.74,0.02-87.48,0.07-131.22-0.06c-4.93-0.01-8.95-2.13-11.16-7.21
		c-2.35-5.4,0.52-11.48,3.61-13.58c2.37-1.61,4.4-2.44,7.62-2.43C46.2,289.54,67.95,289.5,89.69,289.5z"/>
	<path fill="currentColor" d="M242.96,243.56c1.02-1.02,1.89-1.89,2.81-2.81c35.04,0,70.15,0.04,105.27-0.06c4.53-0.01,6.42,1.17,5.97,6.06
		c-0.01,0.12,0,0.25,0,0.37c-1.56,1.92-3.64,2.62-6.04,2.62c-33.99,0-67.98-0.02-101.96,0.05c-1.83,0-3.12-0.97-4.61-1.59
		c-0.41-0.17-0.53-0.93-0.9-1.31C242.44,245.81,243.39,244.5,242.96,243.56z"/>
	<path fill="currentColor" d="M165.38,250.5c1.07,1.14,2.17,2.31,3.37,3.58c0,1.31,0,2.8,0,4.3c-0.44,0.44-1.05,0.81-1.29,1.34
		c-0.73,1.59-2,2.05-3.6,2.04c-2.99-0.02-5.98-0.01-8.98-0.01c-3.99,0-7.98,0.03-11.97-0.01c-3.09-0.03-4.82-1.78-4.91-4.85
		c-0.01-0.5,0-1,0-1.5c-0.01-3.28,2.48-4.92,4.87-4.91C150.35,250.52,157.83,250.5,165.38,250.5z"/>
	<path fill="currentColor" d="M41.6,250.5c4.35,3.66,4.85,7.17,0.02,11.25c-7.25,0-14.49-0.05-21.74,0.04c-1.53,0.02-2.86-0.34-4.04-1.13
		c-1.49-0.99-1.81-2.9-1.98-4.36c-0.16-1.37,0.82-3,1.62-4.32c0.71-1.16,2.07-1.51,3.47-1.49c2.5,0.02,5,0.01,7.5,0.01
		C31.44,250.5,36.44,250.5,41.6,250.5z"/>
	<path fill="currentColor" d="M30.11,318.06c3.73,0,7.31,0,11.14,0c0,4.02,0,7.97,0,11.93c0,4.74,0.02,9.48-0.01,14.21c-0.01,1.62-0.58,2.25-2.1,2.28
		c-2.97,0.05-5.95,0.01-9.03,0.01C30.11,337.03,30.11,327.71,30.11,318.06z"/>
	<path fill="currentColor" d="M138.86,346.23c0-9.43,0-18.75,0-28.15c3.69,0,7.27,0,11.14,0c0,1.7,0,3.41,0,5.13c0,6.86,0.01,13.72-0.01,20.57
		c-0.01,2.41-0.31,2.7-2.79,2.71c-2.73,0.01-5.46-0.06-8.18-0.11C138.92,346.38,138.84,346.21,138.86,346.23z"/>
</g>
</svg>
