<?xml version="1.0" encoding="utf-8"?>
<!-- Generator: Adobe Illustrator 26.1.0, SVG Export Plug-In . SVG Version: 6.00 Build 0)  -->
<svg version="1.1" id="Слой_1" xmlns="http://www.w3.org/2000/svg" xmlns:xlink="http://www.w3.org/1999/xlink" x="0px" y="0px"
	 viewBox="0 0 96 96" enable-background="new 0 0 96 96" xml:space="preserve">
<g>
	<path d="M43.43,18.19c-1.62,0-3.22,0-4.82,0c-0.92,0-1.84-0.02-2.75,0.01c-1.06,0.04-1.86,0.8-1.96,1.81
		c-0.11,1.04,0.56,1.98,1.62,2.21c0.36,0.08,0.74,0.08,1.11,0.09c2.26,0.01,4.52,0,6.84,0c0,1.71,0,3.35,0,5.1c-0.85,0-1.68,0-2.5,0
		c-1.61,0-3.21-0.02-4.82,0.01c-1.38,0.03-2.26,0.87-2.26,2.07c0.01,1.21,0.89,2.03,2.28,2.04c2.12,0.02,4.24,0.01,6.37,0.01
		c0.31,0,0.62,0,0.96,0c0,1.73,0,3.36,0,5.12c-0.32,0-0.62,0-0.92,0c-2.18,0-4.36-0.02-6.54,0.01c-1.14,0.01-1.97,0.74-2.12,1.76
		c-0.14,0.96,0.43,1.93,1.36,2.23c0.35,0.11,0.73,0.12,1.1,0.12c2.04,0.01,4.07,0.01,6.11,0.01c0.31,0,0.62,0,0.99,0
		c0,1.72,0,3.37,0,5.13c-0.33,0-0.66,0-0.99,0c-2.12,0-4.24-0.01-6.37,0c-1.3,0.01-2.2,0.85-2.22,2.02
		c-0.02,1.21,0.89,2.09,2.23,2.1c2.43,0.02,4.86,0,7.4,0c0,0.71,0.03,1.36-0.01,2.01c-0.04,0.56,0.15,0.92,0.61,1.29
		c6.1,4.92,8.75,11.32,7.38,19.02c-1.39,7.8-6.12,13.04-13.71,15.38c-11.65,3.6-23.77-4.42-25.09-16.55
		c-0.79-7.29,1.84-13.25,7.56-17.83c0.5-0.4,0.62-0.8,0.62-1.38c-0.01-10.92-0.01-21.85-0.01-32.77c0-5.56,3.15-9.92,8.2-11.39
		c6.84-1.99,13.89,2.87,14.41,9.95C43.48,17.89,43.45,18,43.43,18.19z M44.09,68.56c0.36-2.25-1.01-3.98-3.22-5.28
		c-2.57-1.51-5.15-1.62-7.72-0.05c-0.78,0.47-1.5,1.05-2.17,1.67c-1.81,1.68-3.73,2.3-6.1,1.12c-1.57-0.78-3.3-0.05-4.17,1.49
		c-0.58,1.03-0.45,2.09-0.3,3.17c0.9,6.25,6.4,10.6,12.82,10.15C39.25,80.43,44.07,75.17,44.09,68.56z"/>
	<path d="M66.24,46.52c-3.96,0-7.92,0.02-11.88-0.01c-3.16-0.02-5.44-2.22-5.3-5.17c0.04-0.77,0.28-1.59,0.62-2.29
		c3.95-7.98,7.95-15.94,11.93-23.91c0.96-1.91,2.47-3,4.63-3.01c2.16,0,3.67,1.1,4.63,3.01c3.97,7.94,7.95,15.88,11.9,23.83
		c1.87,3.76-0.46,7.51-4.67,7.54C74.16,46.54,70.2,46.52,66.24,46.52z M64.18,28.29c0,1.63-0.01,3.26,0,4.9
		c0.01,1.41,0.84,2.36,2.06,2.36c1.22,0,2.06-0.94,2.06-2.35c0.01-3.26,0.01-6.53,0-9.79c0-1.42-0.83-2.35-2.06-2.35
		c-1.23,0-2.06,0.94-2.07,2.35C64.17,25.03,64.18,26.66,64.18,28.29z M66.24,40.78c1.03,0,1.86-0.8,1.89-1.82
		c0.03-1.04-0.84-1.93-1.88-1.93c-1.03,0-1.91,0.89-1.89,1.93C64.38,39.97,65.22,40.78,66.24,40.78z"/>
	<path d="M24.65,70.43c2.65,0.77,5.12,0.37,7.39-1.12c0.83-0.55,1.55-1.26,2.31-1.92c1.74-1.52,3.45-1.53,5.15,0
		c0.19,0.17,0.36,0.45,0.4,0.7c0.58,4.05-2.36,7.9-6.55,8.59c-3.91,0.65-7.96-2.11-8.73-5.95C24.61,70.66,24.64,70.57,24.65,70.43z"
		/>
</g>
</svg>
