<svg version="1.1" id="Layer" xmlns="http://www.w3.org/2000/svg" xmlns:xlink="http://www.w3.org/1999/xlink" x="0px" y="0px"
	 viewBox="0 0 384 384" enable-background="new 0 0 384 384" xml:space="preserve">
<path fill="currentColor" d="M168.37,4.5c44.74,0,89.48-0.01,134.21,0.01c7.05,0,12.3,4.18,14.64,11.75c0.21,0.68,0.03,1.49,0.03,2.24
	c0,19.37,0.03,38.74-0.02,58.11c-0.01,5.9-4.08,11.49-9.95,13.39c-1.48,0.48-2.95,0.79-4.56,0.79
	c-89.35-0.04-178.7-0.04-268.05-0.03c-3.7,0-7.08-1.05-9.82-3.39c-2.77-2.37-4.59-5.46-4.59-9.31c0-20.37-0.04-40.74,0.03-61.11
	c0.01-3.9,1.88-7.14,5.02-9.41c2.93-2.12,6.2-3.11,9.98-3.1C79.64,4.53,124.01,4.5,168.37,4.5z M156.97,42.46
	c-2.31-3.96-4.36-7.5-6.3-10.81c-3,1.76-5.84,3.43-8.97,5.27c0-3.79,0-7.13,0-10.66c-3.6,0-7.07-0.03-10.54,0.01
	c-1.57,0.02-2.12,0.62-2.15,2.24c-0.04,2.46-0.01,4.93-0.01,7.51c-0.61-0.08-0.99-0.03-1.27-0.18c-1.74-0.94-3.43-1.97-5.18-2.89
	c-2.1-1.11-2.2-1.02-3.31,0.87c-1.3,2.22-2.66,4.4-4.02,6.58c-0.74,1.19-0.72,2.09,0.39,2.8c1.46,0.94,3.05,1.69,4.56,2.56
	c0.97,0.56,1.9,1.18,2.7,1.68c-2.44,2.46-6.1,2.82-8.21,5.63c1.6,3.03,3.14,6.02,4.76,8.96c0.6,1.1,1.76,1.29,2.8,0.62
	c0.79-0.51,1.54-1.09,2.35-1.57c0.69-0.41,1.47-0.67,2.17-1.08c0.72-0.42,1.39-0.92,2.25-1.51c0,3-0.03,5.62,0.01,8.24
	c0.02,1.62,0.58,2.24,2.12,2.26c3.47,0.04,6.95,0.01,10.68,0.01c0-3.6,0-7.04,0-10.44c1.66,0.8,3.15,1.42,4.55,2.21
	c1.52,0.86,2.68,2.44,4.69,2.23c1.89-3.41,3.77-6.82,5.63-10.2c-2.39-2.35-5.76-3-8.32-5.29C151.39,45.73,154.11,44.13,156.97,42.46
	z M282.42,63.36c2.25-3.74,4.29-7.13,6.4-10.63c-2.83-1.69-5.59-3.34-8.61-5.14c3.03-1.87,5.72-3.53,8.52-5.25
	c-2.05-3.54-4.14-7.14-6.18-10.66c-2.85,1.66-5.7,3.33-8.88,5.18c0-3.75,0-7.18,0-10.62c-3.13,0-6.01,0.1-8.87-0.03
	c-3.65-0.16-3.98,0.54-3.8,3.64c0.06,1.12,0.03,2.25,0.01,3.37c-0.02,1.16-0.07,2.32-0.11,3.38c-3.01-1.75-5.81-3.38-8.54-4.96
	c-2.11,3.59-4.21,7.19-6.28,10.71c2.8,1.7,5.86,2.87,8.34,5.44c-2.94,1.72-5.67,3.32-8.46,4.95c2.53,3.29,3.78,7.29,6.61,10.47
	c2.83-1.58,5.52-3.09,8.43-4.72c0,1.88-0.11,3.61,0.03,5.33c0.14,1.75-0.83,3.78,1.09,5.16c3.12,0,6.25,0.02,9.37-0.01
	c1.62-0.02,2.17-0.58,2.25-2.14c0.04-0.75-0.01-1.5,0.01-2.25c0.06-2.01-0.14-4.05,0.14-6.17
	C276.81,60.12,279.42,61.63,282.42,63.36z M222.66,52.68c-2.62-1.83-5.63-3.04-8.35-5.19c1.72-1.03,3.2-1.77,4.52-2.73
	c1.28-0.95,3.23-0.94,3.95-2.62c-2.1-3.62-4.15-7.14-6.11-10.5c-2.98,1.76-5.82,3.43-8.92,5.25c0-2.12,0.04-3.86-0.01-5.59
	c-0.05-1.69,0.21-3.4-0.17-5.05c-3.6,0-6.97-0.02-10.34,0.01c-1.62,0.02-2.19,0.57-2.21,2.17c-0.04,2.72-0.01,5.44-0.01,8.29
	c-2.16-1.32-4.09-2.57-6.08-3.7c-2.28-1.3-2.37-1.18-3.71,1.13c-1.24,2.12-2.62,4.16-3.96,6.23c-0.77,1.19-0.75,2.11,0.33,2.8
	c1.46,0.94,3.03,1.72,4.54,2.58c0.99,0.56,1.96,1.15,3.05,1.8c-3.2,1.86-6.17,3.58-9.09,5.27c0.53,0.69,1.06,1.21,1.4,1.84
	c1.29,2.33,2.49,4.71,3.77,7.05c0.85,1.54,1.72,1.66,3.23,0.69c2.08-1.32,4.21-2.57,6.51-3.98c0,3.04-0.03,5.66,0.01,8.27
	c0.02,1.63,0.58,2.27,2.09,2.29c3.47,0.05,6.95,0.01,10.68,0.01c0-3.57,0-7,0-10.61c2.99,1.67,5.71,3.19,8.6,4.81
	C218.91,59.99,220.78,56.49,222.66,52.68z M75.72,58.82c3.67,0.64,5.89,3.71,9.24,4.32c2.02-3.5,3.94-6.82,6-10.4
	c-2.88-1.7-5.69-3.37-8.6-5.09c2.8-2.06,5.98-3.33,8.58-5.5c-2.22-3.75-4.29-7.26-6.29-10.63c-3,1.92-5.74,3.74-9.01,5.2
	c0-3.67,0-7.01,0-10.48c-2.11,0-4.09-0.01-6.07,0c-1.95,0.02-3.9-0.07-5.96,0.06c0,3.68,0,7.01,0,10.42
	c-1.35-0.72-2.56-1.34-3.76-2.01c-1.22-0.68-2.38-1.48-3.63-2.1c-1.47-0.73-2.19-0.49-2.96,0.92c-1.55,2.85-3.05,5.73-4.7,8.84
	c2.84,1.73,5.65,3.43,8.64,5.25c-3,2.07-6.25,3.02-8.68,5.48c1.81,2.95,3.48,5.76,5.24,8.5c1.03,1.6,1.12,1.58,2.81,0.69
	c2.32-1.22,4.62-2.49,7.24-3.91c0,3.71,0,7.14,0,10.5c4.1,0,7.94,0,11.91,0C75.72,65.45,75.72,62.11,75.72,58.82z"/>
<path fill="currentColor" d="M363.75,362.13c-1.68,0.32-3.1-0.07-4.5,0.8c-1.05,0.65-2.62-0.43-3.89,0.55c-1.17,0.9-2.69,0.17-4.15,0.84
	c-1.44,0.67-3.46,0.51-5.24,0.88c-3.25,0.69-6.73,0.61-9.81,1.71c-2.07,0.74-4.18,0.25-6.24,1.22c-1.85,0.87-4.28,0.42-6.36,0.94
	c-2.28,0.57-4.58,1.03-6.89,1.43c-2.2,0.39-4.39,0.66-6.54,1.41c-1.53,0.53-3.26,0.05-4.95,0.73c-1.21,0.49-2.75,0.5-4.15,0.81
	c-1.37,0.3-2.8,0.09-4.21,0.74c-0.92,0.42-2.19,0.08-3.15,0.08c-1.52-6.4-3.01-12.68-4.59-19.35c-1.73-3.25-5.23-5.65-7.54-9.12
	c-1.33-2-3.27-3.56-4.78-5.51c-2.47-3.2-5.44-6-8.13-9.03c-2.38-2.67-4.52-5.53-6.37-8.6c-2.53-4.19-5.3-8.21-7.48-12.64
	c-2.55-5.17-1.21-12.95,2.66-16.57c0.06-0.06,0.17-0.06,0.26-0.09c1.15,2.1,1.29,4.55,1.63,6.78c0.51,3.25,2.91,4.23,4.96,5.78
	c0.25,0.18,0.71,0.09,1.07,0.11c2.88,0.11,5.95-2.79,6.14-5.6c0.25-3.66-0.88-7.15-1.74-10.56c-0.72-2.82-1.05-5.74-2-8.51
	c-0.87-2.53-1.42-5.18-1.99-7.78c-0.57-2.64-1.08-5.29-1.79-7.9c-1.32-4.85-2.22-9.79-3.48-14.66c-0.67-2.59-1.08-5.3-1.79-7.9
	c-1.32-4.85-2.04-9.82-3.52-14.65c-0.71-2.31-0.96-4.8-1.63-7.2c-0.92-3.28,2.24-6.88,5.68-7.49c2.2-0.39,4.4-0.68,6.55-1.39
	c2.59-0.85,6.56,1.19,7.65,3.72c0.41,0.95,1.02,1.97,0.98,2.94c-0.12,2.94,1,5.66,1.74,8.33c0.77,2.81,1.15,5.71,2.01,8.5
	c1.51,4.91,1.88,10.11,3.75,14.94c-0.22,3.28,1.66,6.15,1.67,9.71c0.65-0.35,1.31-0.52,1.34-0.76c0.4-3.55,3.24-4.1,5.88-4.73
	c2.16-0.52,4.38-0.73,6.54-1.4c1.08-0.34,2.87-0.03,3.68,0.71c1.44,1.32,3.57,2.25,3.52,4.89c-0.03,1.58,0.69,3.18,1.09,4.86
	c0.34-0.13,0.91-0.19,0.95-0.38c0.9-3.87,4.29-4.15,7.23-4.91c1.35-0.35,2.77-0.22,4.21-0.7c2.42-0.81,4.66,0.52,6.66,1.82
	c0.71,0.46,1.29,1.47,1.49,2.33c0.46,1.96,0.66,3.99,1,6.27c0.39-0.1,1.14-0.18,1.15-0.3c0.25-3.61,3.34-4.05,5.77-4.85
	c1.15-0.38,2.52-0.54,3.78-0.86c1.15-0.29,2.31,0.17,3.58-0.43c0.86-0.4,2.53,0.18,3.46,0.85c1.43,1.03,2.8,2.34,3.05,4.31
	c0.44,3.43,1.06,6.84,1.63,10.23c0.67,3.94,0.7,7.99,2.02,11.87c0.59,1.73,0.23,3.75,0.74,5.68c0.68,2.53,0.56,5.27,0.87,7.9
	c0.14,1.16,0.53,2.29,0.72,3.44c0.17,1.05-0.33,2.2,0.73,3.1c0.25,0.21,0.03,0.96,0.04,1.46c0.1,4.21,1.13,8.32,1.64,12.48
	c0.39,3.16,0.99,6.33,1.38,9.51c0.2,1.65,0.78,3.21,0.81,4.94c0.03,1.45,1.02,2.86,1.18,4.34c0.3,2.71,1,5.32,1.75,7.91
	c0.85,2.92,0.83,6.03,2.17,8.85C364.08,359.76,363.75,360.91,363.75,362.13z"/>
<path fill="currentColor" d="M106.37,165.69c-17.2,0-34.28,0-51.49,0c0-17.13,0-34.21,0-51.31c3.05-0.56,39-0.76,51.49-0.25
	C106.37,131.19,106.37,148.27,106.37,165.69z"/>
<path fill="currentColor" d="M194.13,165.68c-17.22,0-34.3,0-51.51,0c0-17.15,0-34.23,0-51.33c3.04-0.51,41.08-0.69,51.51-0.22
	C194.13,131.21,194.13,148.29,194.13,165.68z"/>
<path fill="currentColor" d="M282.69,114.13c0,17.21,0,34.29,0,51.5c-17.14,0-34.22,0-51.32,0c-0.54-3.04-0.73-40.11-0.23-51.5
	C248.2,114.13,265.28,114.13,282.69,114.13z"/>
<path fill="currentColor" d="M106.37,236.94c-17.2,0-34.28,0-51.49,0c0-17.13,0-34.21,0-51.32c3.05-0.56,39.25-0.75,51.49-0.25
	C106.37,202.45,106.37,219.53,106.37,236.94z"/>
<path fill="currentColor" d="M194.12,236.94c-17.2,0-34.28,0-51.49,0c0-17.13,0-34.21,0-51.32c3.05-0.56,39.25-0.75,51.49-0.25
	C194.12,202.45,194.12,219.53,194.12,236.94z"/>
<path fill="currentColor" d="M106.37,308.18c-17.19,0-34.28,0-51.49,0c0-17.12,0-34.2,0-51.31c3.05-0.57,38.32-0.77,51.49-0.26
	C106.37,273.69,106.37,290.77,106.37,308.18z"/>
<path fill="currentColor" d="M194.18,256.63c0,17.19,0,34.27,0,51.49c-17.12,0-34.2,0-51.3,0c-0.58-3.03-0.78-38.1-0.27-51.49
	C159.69,256.63,176.77,256.63,194.18,256.63z"/>
<path fill="currentColor" d="M194.19,327.88c0,17.2,0,34.28,0,51.49c-17.13,0-34.21,0-51.32,0c-0.56-3.05-0.75-39.25-0.25-51.49
	C159.7,327.88,176.78,327.88,194.19,327.88z"/>
<path fill="currentColor" d="M245.42,236.88c-4.89,0-9.47,0-14.24,0c0-17.07,0-34.24,0-51.52c17.06,0,34.14,0,51.4,0c0,7.34,0,14.76,0,22.65
	c-1.97-2.29-4.15-3.84-6.53-5.1c-2.33-1.23-4.74-1.92-7.45-1.97c-4.98-0.1-9.7,0.89-14.45,2.25c-3.97,1.14-6.61,3.71-8.89,6.87
	c-3.44,4.75-3.53,7.78-2.37,15.33c0.42,2.71,1.19,5.3,1.63,7.98C244.7,234.5,245.08,235.59,245.42,236.88z"/>
<path fill="currentColor" d="M242.78,308.11c-4.21,0-7.79,0-11.4,0c-0.58-3.04-0.75-29.03-0.32-51.46c6.06,0,12.13,0,18.51,0
	c0.51,1.61,1.34,3.42,1.63,5.32c0.74,4.76,2.31,9.33,3.07,14.09c0.09,0.54,0.51,1.02,0.77,1.51c-2.89,3.9-6.23,7.35-8.9,11.35
	c-2.13,3.19-3.24,6.67-3.91,10.37c-0.17,0.91-0.7,1.79-0.69,2.68C241.55,303.98,240.92,306.09,242.78,308.11z"/>
</svg>
