<svg version="1.1" id="Layer" xmlns="http://www.w3.org/2000/svg" xmlns:xlink="http://www.w3.org/1999/xlink" x="0px" y="0px"
	 viewBox="0 0 384 384" enable-background="new 0 0 384 384" xml:space="preserve">
<g id="Security">
	<path fill="currentColor" d="M205.5,0c2.24,2.05,5.2,2.81,7.75,4.31c2.99,1.75,6.09,3.39,9.32,4.64c4.86,1.88,9.35,4.53,14.25,6.34
		c4.22,1.55,8.15,3.86,12.36,5.45c4.97,1.87,9.92,3.84,14.91,5.66c4.66,1.7,9.35,3.38,14.02,5.05c5.56,1.99,11.28,3.55,16.92,5.31
		c3.01,0.94,6.2,1.44,9.1,2.49c2.97,1.07,6.24,1.07,8.98,2.74c4.23-0.17,8,2.04,12.17,2.4c1.34,0.12,3.17,0.04,4.11,0.74
		c1.48,1.1,3.17-0.05,4.48,1.08c1.13,0.97,3-0.49,4.05,1.05c1.96-0.22,3.81,0.53,5.69,0.66c2.42,0.17,4.7,1.39,7.18,0.84
		c2.04,1.64,4.83-0.15,6.89,1.48c0.15,0.12,0.49,0,0.74,0.02c3.15,0.25,6.29,0.53,9.44,0.73c1.2,0.08,1.74,0.73,1.87,1.79
		c0.09,0.74,0.02,1.5,0.02,2.25c0,11.62,0.57,23.28-0.17,34.86c-0.65,10.17-0.29,20.3-0.58,30.44c-1.34,4.84-0.1,9.86-0.89,14.66
		c-0.62,3.81-0.05,7.63-0.73,11.31c-0.54,2.93-0.21,5.86-0.74,8.69c-0.45,2.42-0.22,4.88-0.75,7.18c-0.56,2.43-0.25,4.87-0.77,7.18
		c-0.35,1.54-0.49,3.05-0.66,4.59c-0.15,1.4-0.58,2.77-0.94,4.37c-52.7,0-105.62,0-158.78,0c0-59.41,0-118.86,0-178.32
		C205,0,205.25,0,205.5,0z"/>
	<path fill="currentColor" d="M179.25,0c0,59.36,0,118.72,0,178.09c-3.36,0.66-141.18,0.93-158.68,0.31c-1.22-2.89-1-6.04-1.71-9.04
		c-0.74-3.16-0.58-6.52-0.87-9.79c-0.18-2.03-0.5-4.04-0.73-6.06c-0.22-1.9,0.48-3.88-0.7-5.72c-0.34-0.53-0.06-1.47-0.05-2.22
		c0.12-7.28-1.3-14.51-0.75-21.81c-1.24-3.45-0.66-7.03-0.73-10.56c-0.08-3.62-0.22-7.26,0.03-10.87c0.36-5.2-1.01-10.26-0.84-15.44
		c0.17-5.12,0.04-10.25,0.04-15.37c0-5.25,0-10.5,0-15.75c0-0.25,0.01-0.5,0-0.75c-0.13-3.56-0.18-4.19,4.14-4.07
		c1.51,0.04,3.04-0.47,4.56-0.7c1.52-0.23,3.01,0.01,4.62-0.61c1.8-0.68,4.03-0.61,6.02-0.75c4.09-0.29,8.11-1.12,12.08-1.83
		c4.22-0.75,8.52-1.49,12.7-2.68c1.86-0.52,3.97-0.74,5.93-1.17c1.94-0.43,3.95-0.63,5.85-1.24c4.11-1.31,8.32-2.22,12.47-3.36
		c4.94-1.36,9.8-2.97,14.78-4.2c4.04-0.99,8.1-2.2,11.84-3.96c2.96-1.39,6.09-2.23,9.1-3.38c3.77-1.43,7.59-2.81,11.38-4.23
		c4.22-1.58,8.32-3.43,12.52-5.07c3.65-1.42,7.04-3.52,10.66-5.03c8.56-3.55,16.61-8.16,25-12.05c0.26-0.12,0.41-0.48,0.6-0.73
		C178.75,0,179,0,179.25,0z"/>
	<path fill="currentColor" d="M204.75,384c0-59.69,0-119.38,0-179.16c51.27,0,102.34,0,153.47,0c0.56,1.25-0.2,2.4-0.35,3.63
		c-0.55,4.47-2.32,8.6-3.23,12.96c-0.84,4.04-2.65,7.88-4,11.81c-2.02,5.91-4.27,11.71-6.79,17.43c-1.31,2.97-2.72,5.87-4.12,8.78
		c-1.4,2.92-2.97,5.77-4.46,8.65c-3.65,7.06-7.73,13.89-12.3,20.36c-2.54,3.59-5.19,7.18-8.01,10.62
		c-4.71,5.76-9.43,11.46-14.59,16.83c-2.1,2.18-3.87,4.77-6.21,6.73c-3.7,3.09-6.93,6.68-10.59,9.77c-2.86,2.41-5.54,5.06-8.6,7.21
		c-4.87,3.42-9.38,7.3-14.23,10.78c-6.54,4.69-13.38,8.9-19.91,13.59c-2.64,1.9-5.63,3.3-8.39,5.04
		c-5.03,3.17-10.39,5.77-15.44,8.91c-3.41,2.13-7.25,3.56-10.89,5.34c-0.26,0.13-0.41,0.48-0.61,0.73C205.25,384,205,384,204.75,384
		z"/>
	<path fill="currentColor" d="M178.5,384c-2.11-1.81-4.89-2.43-7.15-3.88c-4.14-2.64-8.5-4.9-12.79-7.2c-5.02-2.7-9.73-5.92-14.82-8.5
		c-3.44-1.75-6.47-4.31-9.69-6.49c-6.59-4.47-13.11-9.01-19.33-14c-2.63-2.11-5.2-4.31-7.88-6.34c-5.01-3.79-9.37-8.23-13.97-12.45
		c-1.97-1.8-4.26-3.33-5.94-5.41c-3.03-3.75-6.61-6.98-9.81-10.56c-3.44-3.86-6.81-7.84-9.79-12.06
		c-4.07-5.77-8.19-11.49-11.95-17.5c-5.14-8.21-9.52-16.78-13.76-25.44c-2.13-4.35-3.83-8.91-5.6-13.42
		c-1.35-3.44-2.59-6.93-3.75-10.44c-1.52-4.62-2.97-9.27-4.33-13.93c-0.68-2.32-1.34-4.74-1.7-7.19c-0.2-1.38-0.58-2.74-0.93-4.31
		c51.43,0,102.59,0,153.95,0c0,59.72,0,119.41,0,179.1C179,384,178.75,384,178.5,384z"/>
</g>
</svg>
