<svg version="1.1" id="Layer" xmlns="http://www.w3.org/2000/svg" xmlns:xlink="http://www.w3.org/1999/xlink" x="0px" y="0px"
	 viewBox="0 0 384 384" enable-background="new 0 0 384 384" xml:space="preserve">
<g id="Services">
	<path fill="currentColor" d="M254.08,62.04c4.49-4.49,9.18-9.18,13.86-13.86c1.62-1.61,3.41-2.87,5.69-3.48c4.14-1.11,7.88-0.49,10.93,2.53
		c10.22,10.11,20.35,20.31,30.51,30.47c6.98,6.98,13.83,14.1,20.99,20.9c4.5,4.27,5.29,11.99-0.01,17.23
		c-2.4,2.37-4.77,4.77-7.16,7.16c-2.38,2.38-4.77,4.75-6.92,6.89c1.96,4.74,3.85,9.34,5.83,14.13c4.89,0,9.72,0,14.56,0
		c2.12,0,4.25-0.09,6.37,0.02c6.03,0.31,11.17,5.11,11.21,11.28c0.13,19.5,0.05,39,0.05,58.49c0,0.46,0,0.92,0,1.61
		c-3.52-2.79-6.64-5.48-10.44-7.25c-3.23-1.5-8.19-2.71-11.69-3.52c-2.44-0.56-4.81-0.66-7.21-0.61c-5.85,0.13-11.39,1.45-16.6,4.25
		c-5.92,3.18-12.05,5.96-17.9,9.27c-6.37,3.61-12.84,7.02-19.31,10.44c-0.1,0.05-0.25,0.01-0.37,0.01c-0.1-0.06-0.21-0.11-0.29-0.19
		c-0.08-0.08-0.18-0.19-0.18-0.29C276,203.77,276,180.04,276,156.15c-56,0-111.92,0-167.97,0c0,15.9,0,31.74,0,47.71
		c-13.22,0-26.3,0-39.48,0c-0.19-0.37-0.36-0.96-0.72-1.38c-0.81-0.94-2.25-1.7-2.45-2.72c-0.29-1.54-1.65-1.15-2.35-1.95
		c-2.64-3.05-6.4-4.09-10.19-5.15c-2.19-0.61-4.3-0.64-6.46-0.65C39.01,191.99,31.65,192,24,192c0-1.17,0-2.26,0-3.35
		c0-10.87,0.1-21.75-0.04-32.62c-0.09-6.45,5.66-12.22,12.06-12.06c6.12,0.15,12.25,0.04,18.37,0.03c1.9-0.01,1.8-0.08,2.63-2.16
		c1.59-3.97,3.31-7.88,5.02-11.93c-4.47-4.47-9.15-9.15-13.84-13.83c-1.62-1.62-2.81-3.42-3.49-5.68c-1.1-3.68-0.24-8.22,2.49-10.95
		c8.91-8.94,17.85-17.86,26.77-26.78c8.31-8.31,16.64-16.59,24.91-24.93c3.74-3.77,8.14-4.31,12.85-2.64
		c1.61,0.57,3.04,1.9,4.31,3.14c4.75,4.62,9.39,9.34,13.87,13.82c2.86-1.21,5.57-2.55,8.42-3.47c1.55-0.5,2.76-1.86,4.59-1.7
		c0.31,0.03,0.86-1.07,1.03-1.72c0.18-0.7,0.04-1.49,0.04-2.24c0-5.75,0.02-11.5-0.01-17.25c-0.03-6.2,5.5-11.67,11.65-11.66
		c24.24,0.02,48.49,0.02,72.73,0c6.1,0,11.66,5.43,11.63,11.67c-0.03,6.25-0.02,12.5,0,18.75c0.01,1.87,0.09,1.76,2.18,2.61
		C246.15,58.61,250.06,60.34,254.08,62.04z M192.01,144c31.85,0,63.7,0,95.56,0c1,0,2.07,0.23,2.99-0.04
		c7.62-2.23,11.83-10.39,8.16-17.41c-1.17-2.22-2.84-3.82-4.97-5.07c-2.72-1.59-5.5-3.13-8.05-4.97
		c-4.97-3.58-10.26-6.66-15.44-9.87c-4.74-2.94-9.57-5.82-14.31-8.76c-6.57-4.08-13.16-8.14-19.64-12.37
		c-4.01-2.61-8.18-4.99-12.24-7.53c-2.69-1.69-5.24-3.6-7.96-5.22c-5.84-3.46-11.63-7-17.25-10.81c-3.71-2.51-9.76-2.66-13.46-0.24
		c-2.56,1.67-5.09,3.37-7.67,5.01c-3.95,2.52-7.92,5.01-11.88,7.51c-2.77,1.75-5.53,3.53-8.32,5.24c-4.78,2.93-9.71,5.63-14.34,8.78
		c-5.06,3.43-10.28,6.63-15.45,9.84c-4.74,2.94-9.55,5.84-14.3,8.77c-6.58,4.06-13.21,8.06-19.62,12.39
		c-2.26,1.52-4.75,2.62-6.72,4.67c-2.99,3.12-3.77,6.91-2.95,10.7c1.33,6.07,7.34,9.43,11.93,9.41
		C128.06,143.96,160.04,144,192.01,144z"/>
	<path fill="currentColor" d="M72.11,336c0-40.19,0-80.02,0-120c4.09,0,8.07,0,12.05,0c11.87,0,23.74,0.01,35.61-0.01c3.39,0,6.24,1.05,8.67,3.54
		c6.74,6.87,13.58,13.63,20.42,20.47c20.2,0,40.44-0.01,60.68,0.01c7.54,0.01,12.82,3.97,16.75,10c0.79,1.22,1.07,2.83,1.34,4.3
		c0.28,1.55,0.39,3.16,0.32,4.73c-0.07,1.53-0.32,3.09-0.74,4.56c-0.79,2.72-5.43,9.01-7.97,10.07c-2.66,1.11-5.34,2.37-8.4,2.36
		c-16.24-0.05-32.49-0.01-48.73-0.04c-2.52,0-4.26,0.91-5.4,3.29c-1.99,4.16,0.47,8.64,4.99,8.71c3.25,0.05,6.5,0.01,9.75,0.01
		c12.5,0,24.99-0.11,37.49,0.05c5.62,0.07,10.89-1.15,15.64-3.89c3.36-1.94,6.41-4.36,8.84-7.72c2.42-3.33,3.99-6.79,5.29-10.6
		c0.45-1.33,0.21-2.61,0.63-3.83c0.39-0.35,0.71-0.79,1.14-0.98c5.96-2.61,11.47-6.08,17.24-9.05c6.09-3.13,12.06-6.49,18.1-9.71
		c3.48-1.85,7.07-3.5,10.47-5.47c6.74-3.89,13.71-7.35,20.5-11.13c3.15-1.76,6.45-3.22,9.5-5.15c2.28-1.43,4.66-2.48,7.33-3.15
		c2.17-0.55,4.26-1.5,6.54-1.32c2.15,0.17,4.44-0.75,6.44,0.72c3.36-0.19,6.1,1.43,8.89,2.99c6.79,3.79,11.46,9.46,13.51,16.82
		c1.09,3.92,2.15,8.25,0.25,12.42c0.28,4.14-2.44,7.23-3.79,10.8c-0.24,0.64-1.01,1.07-1.49,1.63c-4.45,5.21-10.22,8.69-15.87,12.36
		c-9.17,5.96-18.24,12.08-27.37,18.11c-9.42,6.22-18.86,12.39-28.27,18.62c-3.35,2.22-6.58,4.6-9.93,6.81
		c-6.07,4.01-12.22,7.93-18.29,11.93c-6.39,4.21-12.76,8.44-19.09,12.74c-5.24,3.55-10.41,7.21-16.08,10.05
		c-3.08,1.54-12.04,4.76-16.37,5.75c-3.15,0.72-6.36,1.01-9.48,1.61c-4.32,0.84-8.58,0.23-12.83,0.62c-1.75,0.16-3.3-0.45-4.94-0.77
		c-1.63-0.31-3.25,0.09-5-0.59c-1.52-0.59-3.49-0.64-5.25-0.85c-3.54-0.41-6.92-1.49-10.26-2.47c-1.95-0.57-4.06-0.76-5.97-1.87
		c-1.85-1.08-4.19-1.3-6.29-1.96c-1.98-0.63-3.96-1.29-5.91-2.03c-4.34-1.63-8.83-2.85-13.25-4.17c-3.67-1.09-7.26-2.48-11.01-3.36
		c-3.72-0.87-7.23-2.49-10.88-3.55c-2.45-0.71-4.93-1.33-7.34-2.22c-0.77-0.28-1.69-0.19-2.54-0.19
		C85.24,335.99,78.76,336,72.11,336z"/>
	<path fill="currentColor" d="M24.09,348c0-48.01,0-95.83,0-144c0.88,0,1.84,0,2.79,0c7.25,0,14.49-0.06,21.74,0.02c4.47,0.05,7.65,2.4,9.86,6.15
		c0.97,1.64,1.53,3.41,1.53,5.37c-0.02,40.36-0.01,80.71-0.02,121.07c0,4.7-3.49,9.22-8.08,10.64c-0.77,0.24-1.54,0.71-2.31,0.72
		C41.13,348.02,32.66,348,24.09,348z"/>
	<path fill="currentColor" d="M216,227.94c-16.08,0-31.91,0-48,0c0-1.25,0-2.47,0-3.69c0-14.74,0.09-29.48-0.04-44.22c-0.06-6.49,5.7-12.19,12.04-12.07
		c8.12,0.15,16.24,0,24.36,0.05c4.77,0.03,8.14,2.42,10.32,6.56c0.89,1.69,1.36,3.47,1.36,5.44C215.98,195.88,216,211.74,216,227.94
		z"/>
</g>
</svg>
