<svg version="1.1" id="Layer" xmlns="http://www.w3.org/2000/svg" xmlns:xlink="http://www.w3.org/1999/xlink" x="0px" y="0px"
	 viewBox="0 0 384 384" enable-background="new 0 0 384 384" xml:space="preserve">
<path fill="currentColor" d="M278.74,363.8c-58.05,0-116.1,0-174.14,0c-0.12-1.12-0.99-0.61-1.54-0.65c-1.68-0.1-6.6-1.26-7.87-2.04
	c-3.56-2.19-6.94-4.56-9.99-7.51c-3.49-3.37-7.44-13.46-7.43-18.08c0.05-95.33,0.05-190.66,0.01-286c0-3.81,1.21-7.25,2.52-10.69
	c2.11-5.53,6.16-9.5,10.86-12.84c1.68-1.2,3.49-2.43,5.42-3.04c3.73-1.17,7.58-2.07,11.54-2.08c53.14-0.01,106.27-0.02,159.41,0.03
	c4.15,0,8.34-0.59,12.46,0.6c1.52,0.44,3.18,0.38,4.73,0.74c1.3,0.3,2.68,0.66,3.76,1.39c3.38,2.28,6.72,4.56,9.7,7.45
	c3.44,3.34,7.42,13.49,7.41,18.09c-0.06,95.33-0.05,190.66-0.02,286c0,3.81-1.21,7.24-2.53,10.69c-2.12,5.54-6.12,9.58-10.9,12.79
	c-2.02,1.35-4,3.01-6.61,3.43c-1.86,0.3-3.62,1.21-5.59,1.07C279.46,363.11,278.75,362.88,278.74,363.8z M191.42,318.92
	c2.68,0,5.36,0,8.04,0c0.56,0,1.17,0.15,1.67-0.02c2.99-1.07,6.2-1.06,9.23-1.95c3.18-0.93,6.43-1.59,9.47-3.02
	c2.89-1.36,6.12-2.12,8.78-3.8c3.01-1.9,6.33-3.35,9.01-5.87c1.43-1.35,3.36-2.19,4.84-3.6c1.49-1.42,3.15-2.66,4.67-4.05
	c3.22-2.96,5.66-6.59,8.51-9.87c0.89-1.03,1.58-2.23,2.34-3.38c1.94-2.95,3.52-6.12,4.99-9.32c0.86-1.87,2.08-3.54,2.48-5.68
	c0.37-2,1.6-3.75,2.01-5.87c0.55-2.86,1.46-5.65,2.03-8.54c0.49-2.5,1.08-5.04,1.12-7.51c0.09-6.75,0.83-13.58-1.24-20.2
	c0.1-3.45-1.19-6.63-2.06-9.87c-1.31-4.84-5.35-13.62-8.12-17.7c-0.83-1.23-1.44-2.57-2.32-3.74c-2.96-3.92-6.18-7.6-9.63-11.11
	c-3.16-3.2-6.48-6.21-10.2-8.63c-4.59-3-9.11-6.2-14.45-7.92c-3.05-0.98-5.84-2.71-9.11-3.06c-0.98-1.26-2.6-0.46-3.86-1.25
	c-1.08-0.67-2.66-0.55-4.02-0.76c-1.47-0.23-2.95-0.68-4.41-0.61c-1.47,0.07-2.71-0.65-4.08-0.7c-2.79-0.1-5.58-0.12-8.37-0.01
	c-2.81,0.11-5.69,0.12-8.4,0.77c-1.5,0.36-3.07,0.12-4.41,0.64c-3.5,1.35-7.29,1.62-10.72,3.22c-2.61,1.22-5.48,1.83-8,3.32
	c-1.69,1-3.55,1.72-5.21,2.77c-4.68,2.95-9.46,5.79-13.35,9.81c-3.3,3.4-7.02,6.41-9.7,10.38c-1.18,1.75-2.74,3.21-3.63,5.19
	c-0.64,1.42-1.42,2.8-2.33,4.05c-2.53,3.49-4.08,7.47-5.59,11.41c-1.18,3.07-2.05,6.31-2.84,9.55c-0.82,3.39-1.16,6.85-1.83,10.26
	c-0.55,2.79-0.22,5.79-0.08,8.68c0.14,2.81-0.07,5.59,0.46,8.46c0.54,2.9,0.94,5.87,1.53,8.78c0.43,2.15,0.8,4.35,1.59,6.37
	c1.54,3.94,3.01,7.91,5.09,11.62c1.79,3.19,3.31,6.5,5.68,9.4c1.83,2.24,3.83,4.43,5.42,6.8c2.7,4.02,6.74,6.5,10.08,9.76
	c1.48,1.44,3.4,2.52,5.1,3.8c1.71,1.3,3.93,1.93,5.67,3.19c1.48,1.07,2.95,1.99,4.7,2.44c1.72,0.45,3.02,1.79,4.85,2.07
	c1.09,0.17,2.07,0.92,3.14,1.27c3.68,1.2,7.32,2.63,11.27,2.69c1.17,1.34,2.95,0.05,4.01,0.78c1.42,0.97,2.78,0.44,4.14,0.53
	C187.39,319.02,189.41,318.92,191.42,318.92z M191.53,136.19c1.07-0.29,1.99-0.8,2.87-0.74c3.19,0.21,5.95-1.34,8.93-1.88
	c1.91-0.34,3.24-1.53,4.73-2.34c4.2-2.26,7.78-5.35,10.46-9.46c1.04-1.59,1.68-3.43,2.81-4.85c2.08-2.63,1.76-5.98,3.16-8.76
	c-0.53-2.49,0.51-4.92,0.13-7.5c-0.39-2.63-0.63-5.22-1.41-7.81c-1.99-6.58-5.89-11.78-10.96-16.21c-0.95-0.83-2-1.6-3.12-2.16
	c-5.38-2.73-10.81-5.36-17.13-4.72c-0.77,0.08-1.57,0.08-2.34,0c-4.3-0.46-8.05,1.44-11.87,2.89c-2.34,0.89-4.54,2.25-6.4,3.88
	c-2.37,2.08-4.7,4.23-6.58,6.87c-1.91,2.68-3.2,5.59-4.36,8.59c-0.67,1.73-1.21,3.55-1.56,5.37c-0.24,1.29,0.47,3.04-0.16,3.93
	c-1.04,1.46,0.24,2.38,0.17,3.55c-0.15,2.34-0.35,4.77,1.29,6.81c-0.06,3.86,2.57,6.54,4.28,9.61c1.46,2.6,3.61,4.61,5.82,6.6
	c2.01,1.81,7.31,4.75,9.98,5.86c0.86,0.35,1.81,0.47,2.71,0.73c1.41,0.41,2.73,1.11,4.28,0.99
	C188.76,135.3,190.28,135.31,191.53,136.19z"/>
<path fill="currentColor" d="M191.61,273.46c-4.91,0.31-9.38-1.51-13.85-3.04c-2.02-0.69-3.79-2.21-5.57-3.49c-1.49-1.07-2.89-2.28-4.22-3.54
	c-2.26-2.14-4.17-4.58-5.44-7.45c-1.18-2.64-3.06-5.03-3.01-8.13c-1.12-1.54-0.76-3.45-1.24-5.16c-0.46-1.66-0.33-3.58-0.05-5.32
	c0.47-2.98,1.19-5.92,2.23-8.77c1.35-3.69,3.29-6.95,5.85-10c3-3.57,6.53-6.33,10.59-8.36c3.45-1.73,7.04-3.25,11.08-3.17
	c1.35,0.03,2.78-0.77,4.06-0.56c3.62,0.6,7.37,0.63,10.83,2.09c3.9,1.64,7.45,3.73,10.71,6.55c3.69,3.19,6.57,6.83,8.36,11.26
	c1.12,2.78,2.14,5.59,2.69,8.63c0.41,2.29,0.73,4.57,0.44,6.77c-0.52,4.02-1.21,8-3.08,11.77c-1.86,3.75-3.93,7.25-6.93,10.18
	c-4.07,3.98-8.84,6.7-14.28,8.38c-1.52,0.47-3.08,0.51-4.59,1C194.78,273.57,193.15,273.37,191.61,273.46z"/>
</svg>
