<svg version="1.1" id="layer" xmlns="http://www.w3.org/2000/svg" xmlns:xlink="http://www.w3.org/1999/xlink" x="0px" y="0px"
	 viewBox="0 0 384 384" enable-background="new 0 0 384 384" xml:space="preserve">
<path fill="currentColor" d="M182.45,24c6.55,0,13.09,0,19.64,0c0.28,0.22,0.55,0.61,0.85,0.63c2.96,0.19,5.96-0.36,8.89,0.65
	c1.37,0.47,2.85-0.33,4.37,0.55c1.14,0.66,2.93-0.23,4.23,0.79c2.64-0.11,5.13,0.67,7.63,1.32c1.88,0.49,3.8,0.88,5.69,1.2
	c2.04,0.34,3.8,1.8,5.98,1.41c4.26,1.87,8.8,2.95,13.12,4.64c4.31,1.7,8.56,3.55,12.74,5.54c3.56,1.69,6.99,3.65,10.46,5.54
	c1.43,0.78,2.82,1.63,4.18,2.53c1.53,1.01,3.11,1.92,4.69,2.85c1.58,0.92,3.04,2.12,4.57,3.18c2.14,1.49,4.15,3.18,6.18,4.83
	c1.56,1.27,2.99,2.71,4.61,3.9c3.26,2.39,6.23,5.12,9.12,7.91c2.3,2.23,4.48,4.58,6.6,7.01c3,3.44,5.9,6.98,8.91,10.42
	c1.03,1.18,2.07,2.38,2.86,3.72c1.76,3.01,3.97,5.71,5.79,8.7c2.39,3.91,4.84,7.81,7.02,11.83c2.45,4.51,4.43,9.26,6.39,14.02
	c1.26,3.07,2.69,6.13,3.63,9.27c0.95,3.2,2.7,6.21,2.74,9.67c2.31,4.64,2.24,9.91,3.87,14.74c0.41,1.23,0.11,2.63,0.62,3.99
	c0.45,1.2,0.38,2.63,0.64,3.97c0.56,2.89,0.57,5.9,0.75,8.86c0.07,1.19-0.02,2.4,0.04,3.59c0.01,0.18,0.41,0.35,0.63,0.52
	c0,6.55,0,13.09,0,19.64c-0.9,0.01-0.69,0.71-0.64,1.17c0.46,3.88-0.28,7.72-0.81,11.5c-0.45,3.22-1.08,6.49-1.68,9.71
	c-0.49,2.63-1.76,5.16-1.46,7.94c-1.4,3.71-2.01,7.67-3.44,11.34c-1.28,3.29-2.35,6.66-3.63,9.95c-1.58,4.05-3.41,7.98-5.14,11.95
	c-1.25,2.87-2.82,5.61-4.37,8.33c-2.17,3.8-4.29,7.65-6.74,11.28c-2.9,4.3-6,8.49-9.26,12.53c-2.59,3.22-5.34,6.34-8.13,9.38
	c-2.83,3.07-5.79,6.04-9.07,8.73c-3.36,2.76-6.59,5.69-9.93,8.49c-1.52,1.28-3.22,2.28-4.77,3.49c-2.78,2.17-5.7,4.09-8.67,5.98
	c-3.95,2.52-7.98,4.9-12.15,7.03c-2.69,1.38-5.44,2.67-8.19,3.93c-3.39,1.55-6.74,3.27-10.26,4.47c-3.44,1.17-6.88,2.42-10.4,3.34
	c-3.65,0.95-7.11,2.74-11.01,2.68c-3.49,1.66-7.4,1.49-11.05,2.53c-1.44,0.41-3.08,0.47-4.62,0.67c-1.65,0.22-3.32,0.45-4.97,0.64
	c-3.05,0.35-6.13,0.19-9.23,0.65c-3.1,0.45-6.32,0.17-9.48,0.08c-3.19-0.09-6.36,0.18-9.57-0.53c-2.75-0.61-5.73,0.25-8.55-0.73
	c-1.37-0.47-2.84,0.31-4.37-0.56c-1.13-0.65-2.92,0.19-4.24-0.77c-4.12,0.19-7.97-1.39-11.92-2.12c-3.83-0.7-7.7-1.86-11.36-3.3
	c-3.29-1.29-6.67-2.31-9.95-3.63c-4.03-1.61-7.98-3.39-11.94-5.15c-2.86-1.27-5.61-2.82-8.33-4.38c-3.8-2.17-7.65-4.29-11.28-6.74
	c-4.3-2.9-8.48-6.01-12.53-9.25c-3.23-2.58-6.33-5.35-9.38-8.13c-3.08-2.81-6.02-5.81-8.72-9.07c-2.78-3.34-5.7-6.58-8.49-9.93
	c-1.27-1.53-2.28-3.23-3.5-4.76c-2.19-2.77-4.09-5.71-5.97-8.68c-2.51-3.95-4.93-7.96-7.03-12.15c-1.36-2.71-2.67-5.44-3.93-8.19
	c-1.55-3.39-3.29-6.73-4.47-10.25c-1.16-3.45-2.43-6.88-3.33-10.4c-0.94-3.66-2.74-7.11-2.68-11.01c-1.67-3.49-1.49-7.4-2.52-11.05
	c-0.41-1.44-0.5-3.08-0.68-4.62c-0.19-1.66-0.45-3.32-0.64-4.97c-0.35-3.05-0.19-6.13-0.64-9.23c-0.45-3.1-0.17-6.32-0.08-9.48
	c0.09-3.19-0.18-6.36,0.53-9.57c0.61-2.75-0.25-5.73,0.73-8.55c0.47-1.37-0.3-2.83,0.57-4.37c0.64-1.13-0.16-2.92,0.77-4.25
	c-0.17-4.12,1.96-7.86,1.96-11.95c1.14-1.62,0.62-3.85,1.96-5.41c-0.25-2.16,0.84-4.06,1.54-5.91c1.25-3.3,2.25-6.69,3.58-9.97
	c1.63-4.02,3.39-7.98,5.15-11.94c1.28-2.86,2.82-5.61,4.38-8.33c2.17-3.8,4.29-7.65,6.74-11.28c2.9-4.3,6.03-8.46,9.25-12.54
	c2.63-3.33,5.37-6.6,8.34-9.62c2.86-2.91,5.65-5.87,8.87-8.47c3.29-2.66,6.4-5.58,9.7-8.27c1.62-1.32,3.39-2.43,4.99-3.73
	c2.75-2.22,5.71-4.1,8.69-5.94c3.9-2.41,7.79-4.86,11.83-7c3.83-2.03,7.8-3.8,11.8-5.47c2.69-1.12,5.42-2.19,8.18-3.18
	c2.75-0.99,5.54-1.91,8.31-2.83c2.89-0.97,5.78-2.04,8.85-2.36c0.94-1.41,2.81,0.19,3.78-1.16c2.23-0.37,4.43-0.81,6.63-1.36
	c1.19-0.3,2.43-0.15,3.68-0.61c1.2-0.44,2.63-0.38,3.97-0.64c2.9-0.56,5.91-0.57,8.87-0.75c1.2-0.07,2.4,0.02,3.6-0.04
	C182.11,24.62,182.27,24.22,182.45,24z M192.76,126.14c-15.5,0-30.99,0-46.49,0.01c-1.25,0-2.46,0.33-3.68,0.54
	c-5.25,0.89-9.24,3.55-12.05,7.9c-1.52,2.36-3.03,4.89-3.09,7.87c-0.05,2.62-0.01,5.24-0.01,7.86s0,5.24,0,7.86
	c0,2.51,0,5.02,0,7.53c0,2.62-0.19,5.26,0.05,7.85c0.25,2.61-0.72,5.04-0.72,7.59c0.01,18.99-0.01,37.98,0.04,56.96
	c0,1.87,0.29,3.77,0.71,5.59c0.29,1.25,0.94,2.45,1.59,3.59c1.35,2.35,3.26,4.31,5.37,5.91c1.4,1.06,2.93,2.14,4.78,2.64
	c2.31,0.63,4.58,1.27,7,1.27c30.55-0.01,61.11-0.01,91.66-0.01c1.68,0,3.3-0.18,4.99-0.57c4.97-1.16,9.12-3.3,11.78-7.83
	c0.77-1.32,1.82-2.53,2.32-3.94c0.51-1.44,0.66-3.07,0.68-4.62c0.02-1.7,0.76-3.22,0.75-4.97c-0.08-29.03-0.08-58.05-0.02-87.08
	c0-2.36-1.04-4.53-0.76-6.94c0.12-1.02-0.47-2.17-0.91-3.19c-3.36-7.66-9.96-11.63-17.52-11.74
	C223.75,125.98,208.25,126.14,192.76,126.14z"/>
</svg>
