<svg version="1.1" id="Layer" xmlns="http://www.w3.org/2000/svg" xmlns:xlink="http://www.w3.org/1999/xlink" x="0px" y="0px"
	 viewBox="0 0 512 512" enable-background="new 0 0 512 512" xml:space="preserve">
<path fill="currentColor" d="M245.28,495c-0.4-0.31-0.82-0.91-1.2-0.89c-6.94,0.33-13.67-1.32-20.22-3.03c-5.08-1.33-10.22-2.81-15.16-4.95
	c-5.42-2.36-10.69-4.98-15.88-7.76c-4.77-2.55-9.21-5.63-13.64-8.76c-7.95-5.63-14.64-12.55-21.11-19.64
	c-4.82-5.28-8.99-11.2-12.64-17.51c-2.54-4.39-4.9-8.88-7.11-13.39c-2.45-5-3.93-10.47-5.78-15.76c-1.4-4.01-2.21-8.13-2.92-12.33
	c-0.77-4.55-1.14-9.17-1.96-13.65c-1.03-5.68-0.45-11.27-0.67-16.89c-0.08-2.03,0.55-4.09,0.87-6.13c0.32-2.04-0.14-4.04,0.73-6.21
	c0.76-1.89,0.68-4.33,1.04-6.54c0.89-5.48,2.53-10.74,4.16-16c2.3-7.44,5.56-14.5,9.3-21.29c2.67-4.85,5.77-9.47,9.04-14
	c5.69-7.89,12.83-14.33,19.56-21.2c1.02-1.04,2.37-1.76,3.54-2.66c1.17-0.9,1.84-2.49,3.88-2.66c0-1.31,0-2.67,0-4.04
	c0-56.98,0.03-113.97-0.09-170.95c-0.01-2.63,1.02-4.97,1.05-7.53c0.03-2.35,1.06-4.52,1.59-6.77c1.1-4.67,2.71-9.11,4.9-13.35
	c3.04-5.89,6.71-11.29,10.81-16.55c3.15-4.03,7.1-6.96,10.75-10.24c4.3-3.86,9.61-6.42,14.84-9c5.24-2.59,10.68-4.27,16.33-5.6
	c3.77-0.89,7.56-1.37,11.36-1.71c3.85-0.34,7.78-0.31,11.63,0.02c2.03,0.18,4.04,0.78,6.14,0.92c1.98,0.13,3.91,0.99,5.88,1.47
	c1.84,0.45,3.74,0.69,5.53,1.28c1.9,0.63,3.71,1.53,5.54,2.36c1.83,0.84,3.62,1.75,5.43,2.62c5.63,2.7,10.38,6.62,15.33,10.37
	c3.85,2.91,6.17,6.95,9.63,10.06c1.46,1.31,2.15,3.45,3.37,5.07c4.25,5.62,6.92,11.96,9.08,18.61c1.32,4.06,2.93,8,2.75,12.37
	c1.69,2.51,0.89,5.33,0.9,8c0.05,55.9,0.04,111.79,0.04,167.69c0,1.55,0,3.09,0,4.72c0.55,0.19,1.2,0.25,1.62,0.59
	c7.07,5.73,13.67,12.03,19.6,18.86c4.67,5.39,8.83,11.27,12.48,17.57c7.89,13.6,9.32,18.42,13.51,30.75
	c1.09,3.22,1.79,6.77,2.34,10.26c0.36,2.3,0.22,4.79,1.16,6.93c1.08,2.43-0.11,4.93,0.59,7.22c1.79,5.89,0.52,11.87,0.82,17.8
	c0.09,1.87-0.63,3.77-0.85,5.67c-0.22,1.91,0.47,3.96-0.95,5.67c0.39,4.24-1.66,8.12-1.86,12.27c-0.02,0.46,0.15,1-0.04,1.38
	c-1.33,2.75-2.04,5.68-2.88,8.61c-0.82,2.86-1.95,5.71-3.1,8.48c-1.58,3.85-3.61,7.51-5.54,11.21c-3.59,6.91-7.69,13.48-12.82,19.39
	c-3.05,3.51-5.6,7.54-8.99,10.66c-5.81,5.36-11.73,10.6-18.36,15.07c-4.13,2.78-8.34,5.33-12.67,7.74
	c-7.69,4.28-15.76,7.71-24.21,10.13c-3.34,0.95-6.66,2.19-10.21,2.4c-1.44,0.08-2.84,0.68-4.28,0.87c-1.32,0.17-2.54,0.3-3.86,0.81
	c-1.62,0.63-3.67,0.09-5.53,0.19c-0.41,0.02-0.8,0.58-1.2,0.89C259.57,495,252.43,495,245.28,495z M296.53,281.08
	c0-1.34,0-2.88,0-4.42c0-61.47-0.02-122.94,0.04-184.41c0.01-5.3-1.44-10.2-3.57-14.83c-2.79-6.07-6.74-11.26-12.3-15.39
	c-7.34-5.45-15.38-8.11-24.37-8.77c-3.42-0.25-6.66,0.49-9.84,1.13c-5.69,1.15-10.86,3.74-15.64,7.2c-3.21,2.33-5.76,5.1-8.19,8.19
	c-5.08,6.44-8.06,13.7-8.08,21.8c-0.12,60.85-0.06,121.7-0.06,182.55c0,2.33,0.71,5-0.21,6.88c-0.82,1.69-3.43,2.52-5.24,3.74
	c-0.25,0.17-0.46,0.42-0.66,0.65c-2.88,3.34-7.02,5.06-10.21,8.11c-2.87,2.75-6.51,4.76-9.3,7.71c-1.33,1.41-2.3,3.16-3.67,4.51
	c-4.9,4.84-8.26,10.76-11.63,16.63c-2.06,3.59-3.62,7.5-5.08,11.39c-1.31,3.5-2.49,7.05-3.49,10.68c-0.57,2.08-0.11,4.42-0.97,6.09
	c-1.43,2.8-0.02,5.71-1.17,8.38c-1.26,2.94-0.21,6.07-0.55,9.09c-0.31,2.74,0.71,5.35,0.84,8c0.19,4.04,0.91,7.89,1.86,11.82
	c1.4,5.78,3.28,11.34,5.69,16.75c5,11.2,12,21.01,20.73,29.59c1.71,1.68,3.61,3.17,5.53,4.61c3.64,2.73,7.16,5.66,11.22,7.75
	c6.51,3.35,12.97,6.71,20.09,8.88c7.09,2.16,14.28,3.48,21.54,4.03c5.39,0.41,10.97,1.02,16.38-0.73c1.68-0.55,3.56,0.44,5.34-0.63
	c1.63-0.98,3.93,0.33,5.52-1.27c5.98-0.71,11.39-3.14,16.77-5.6c11.14-5.1,21.05-11.98,29.54-20.84c1.23-1.28,2.15-2.86,3.32-4.2
	c4.1-4.66,7.74-9.68,10.45-15.24c1.75-3.6,3.9-7.01,5.07-10.94c1.79-5.98,4.74-11.64,4.6-18.11c1.81-1.64,0.6-3.78,0.93-5.67
	c0.33-1.89,0.89-3.78,0.88-5.67c-0.02-4.54-0.17-9.05-0.65-13.61c-0.5-4.75-2.26-9.29-2.09-14.11c-2.31-5.1-3.47-10.65-6.14-15.62
	c-1.77-3.3-3.36-6.71-5.31-9.9c-2-3.25-3.98-6.65-6.63-9.31c-3.27-3.28-6.16-6.89-9.59-10.07c-5.1-4.73-10.96-8.42-16.13-12.99
	C300.48,283.49,298.51,282.43,296.53,281.08z"/>
<path fill="currentColor" d="M403.44,77.57c11.33,0,22.67-0.17,34,0.06c7.57,0.15,13.21,4.42,15.68,11.36c2.49,6.99-0.53,14.76-5.32,18.44
	c-2.76,2.12-5.96,3.68-9.63,3.68c-22.97,0-45.95,0.19-68.92-0.11c-7.74-0.1-16.07-6.32-15.87-15.84c0.04-1.7-0.24-3.46,0.13-5.08
	c1.14-5.1,7.03-10.92,12.3-12.32c1.01-0.27,2.12-0.19,3.18-0.19C380.46,77.56,391.95,77.57,403.44,77.57z"/>
<path fill="currentColor" d="M403.28,254.6c-11.18,0-22.36-0.22-33.53,0.08c-7.62,0.21-13.43-5.65-16.09-11.44c-0.12-0.26-0.29-0.54-0.28-0.81
	c0.18-3.61-0.72-7.34,0.93-10.78c2.32-4.85,5.73-8.36,11.25-9.75c3.16-0.79,6.26-0.83,9.42-0.84c20.49-0.01,40.98-0.01,61.47,0
	c4.21,0,9.42,1.57,12.1,4.44c4.92,5.27,7.36,11.03,4.18,18.61c-1.97,4.7-5.01,8.62-10.58,9.95c-1.35,0.32-2.65,0.5-3.94,0.5
	C426.57,254.63,414.93,254.6,403.28,254.6z"/>
<path fill="currentColor" d="M386.85,182.86c-5.74,0-11.5-0.21-17.23,0.05c-7.58,0.35-13.29-5.69-16.05-11.5c-0.37-5.86-0.95-11.69,3.85-16.42
	c3.8-3.74,8.16-5.72,13.5-5.69c9.93,0.05,19.87,0.15,29.8-0.07c2.93-0.06,5.71,0.51,8.44,1.13c2.02,0.46,4.16,1.68,5.59,3.18
	c2.18,2.29,4.58,4.65,4.82,8.21c0.07,1.13,0.87,2.23,0.85,3.34c-0.12,7.14-2.57,12.79-9.6,16.02c-2.26,1.03-4.29,1.79-6.74,1.76
	C398.33,182.81,392.59,182.86,386.85,182.86z"/>
<path fill="currentColor" d="M238.76,301.84c0-48.25,0.01-96.21-0.01-144.17c0-4.51,1.57-8.46,4.69-11.53c3.83-3.77,8.59-5.9,14.09-5.13
	c2.22,0.31,4.59,1.14,6.38,2.44c1.68,1.21,4.44,1.6,4.66,4.43c3.19,3.2,3.75,7.2,3.75,11.49c-0.04,45.94-0.02,91.88-0.02,137.82
	c0,1.53,0,3.07,0,4.57c7.61,1.98,14.5,5.23,20.85,9.59c3.07,2.11,6.14,4.22,8.81,6.87c5.95,5.9,10.61,12.67,14.11,20.24
	c2.18,4.73,3.99,9.56,4.85,14.79c0.34,2.05,0.27,4.22,0.88,6.12c0.67,2.08,0.78,4.08,0.82,6.17c0.07,3.17-0.37,6.27-0.81,9.41
	c-0.43,3.08-1.29,6.01-1.87,9.01c-0.91,4.78-2.7,9.19-4.88,13.36c-4.01,7.68-9.97,15.14-16.27,20.23
	c-4.63,3.74-9.38,7.48-15.08,9.61c-4.73,1.77-9.22,4.03-14.43,4.63c-3.13,0.36-6.29,1.41-9.5,1.63c-3.4,0.24-6.94,0.61-10.22-0.06
	c-6.64-1.37-13.66-1.54-19.62-5.41c-3.03-0.34-5.28-2.23-7.79-3.7c-2.54-1.49-4.94-3.09-7.35-4.76c-3.71-2.57-6.74-5.79-9.69-9.04
	c-2.65-2.92-4.74-6.37-6.97-9.65c-2.86-4.2-4.88-8.81-6.27-13.7c-1.12-3.94-2.16-7.85-2.69-11.97c-0.38-2.99-0.59-5.95-0.8-8.95
	c-0.39-5.47,1.84-10.6,1.89-15.99c1.59-2.78,1.89-6.05,3.27-8.89c2.07-4.28,3.97-8.68,6.87-12.52c2.24-2.97,4.23-6.12,6.89-8.8
	c5.9-5.95,12.73-10.49,20.22-14.17C231.07,304.1,234.72,302.84,238.76,301.84z"/>
</svg>
