<svg version="1.1" id="Layer" xmlns="http://www.w3.org/2000/svg" xmlns:xlink="http://www.w3.org/1999/xlink" x="0px" y="0px"
	 viewBox="0 0 384 384" enable-background="new 0 0 384 384" xml:space="preserve">
<path fill="currentColor" d="M296.25,192.06c0,1.75,0.08,3.5-0.02,5.25c-0.2,3.65-0.09,7.37-0.85,10.91c-0.63,2.95-0.45,6.14-2.08,8.86
	c-0.25,5.84-3.27,10.92-4.67,16.46c-0.81,3.18-2.78,6.09-4.39,9.03c-3.07,5.58-6.52,10.89-10.47,15.93
	c-3.85,4.91-8.44,9.05-12.85,13.35c-3.48,3.39-7.58,6.14-11.77,8.62c-7.39,4.36-15.06,8.11-23.33,10.64
	c-4.22,1.29-8.55,2.18-12.75,3.57c-2.23,0.74-4.95,0.1-7.11,0.96c-2.91,1.16-6.08-0.29-8.8,1.38c-4.5,0-9,0-13.49,0
	c-1.5-1.22-3.28-0.55-4.94-0.76c-2.01-0.25-4.07-0.37-5.98-0.95c-2.69-0.81-5.46-1.23-8.16-1.97c-3.7-1.01-7.32-2.25-10.9-3.56
	c-3.48-1.28-6.81-2.87-10.05-4.7c-3.98-2.24-7.83-4.67-11.69-7.11c-7.58-4.79-13.41-11.42-19.64-17.63
	c-2.19-2.18-3.99-4.78-5.76-7.34c-2.27-3.27-4.57-6.57-6.4-10.09c-1.75-3.37-3.54-6.74-4.96-10.31c-1.45-3.67-2.7-7.38-3.89-11.13
	c-0.85-2.68-1.35-5.44-2.05-8.14c-0.5-1.93-0.4-3.99-1.34-5.81c-0.1-0.2-0.11-0.46-0.13-0.69c-0.25-3.77-0.6-7.54-0.73-11.31
	c-0.12-3.74-0.28-7.52,0.08-11.23c0.18-1.88,0.64-3.75,0.69-5.7c0.05-1.78,0.18-3.64,0.77-5.29c1.26-3.53,1.45-7.3,2.77-10.84
	c1.3-3.46,2.38-6.99,3.69-10.46c2.4-6.36,5.75-12.17,9.28-17.89c1.69-2.74,4.01-5.07,5.9-7.69c3.8-5.27,8.72-9.46,13.35-13.91
	c2.36-2.27,5.17-4.16,7.89-6.1c5.37-3.81,11.03-7.01,16.92-9.9c4.28-2.1,8.78-3.59,13.31-4.96c3.25-0.98,6.57-1.71,9.91-2.39
	c3.42-0.7,6.89-0.89,10.24-1.55c4.95-0.97,9.82-0.29,14.72-0.54c1.5-0.08,3.03,0.49,4.56,0.69c1.41,0.19,2.77,0.11,4.24,0.62
	c1.84,0.63,3.98,0.37,6.03,0.81c5.37,1.15,10.65,2.55,15.9,4.19c6.56,2.05,12.71,5,18.67,8.31c4.33,2.4,8.37,5.3,12.32,8.34
	c3.85,2.97,6.97,6.62,10.5,9.88c4.73,4.36,8.16,9.76,11.72,15.02c3.19,4.71,5.52,9.94,7.81,15.12c2.01,4.53,3.34,9.36,4.97,14.06
	c-0.31,3.41,2,6.43,1.5,9.87c1.29,1.89,0.14,4.2,0.86,6.02c0.78,1.96,0.53,3.82,0.62,5.73
	C296.32,187.81,296.25,189.94,296.25,192.06z M208.82,198c3.95,0,7.93,0,11.92,0c8.75,0,17.5,0.04,26.25-0.02
	c4.58-0.03,7.02-4.44,5.05-8.65c-1.12-2.4-2.85-3.34-5.35-3.34c-12.62,0.02-25.24,0.01-37.91,0.01c-1.89-5.25-5.51-8.8-10.77-10.79
	c0-9.48,0-18.97,0-28.45c0-9-0.09-18,0.07-27c0.03-1.87-1.6-2.62-1.83-4.15c-1.68-0.46-3.07-2.17-4.93-1.55
	c-1.34,0.45-2.9,0.86-3.78,2.14c-0.86,1.26-1.59,2.48-1.58,4.24c0.1,17.37,0.06,34.75,0.06,52.12c0,0.96,0,1.92,0,2.77
	c-6.21,1.89-11.37,8.08-11.96,14.94c-0.87,10.07,5.94,17.7,14.77,19.55C196.07,211.36,204.64,208.14,208.82,198z"/>
<path fill="currentColor" d="M191.85,320.25c2.94,0,5.2,0.09,7.44-0.02c3.52-0.17,7.04-0.48,10.56-0.73c1.89-1.71,4.39-0.18,6.58-1.34
	c1.78-0.95,4.29-0.38,6.34-0.96c4.47-1.25,8.96-2.45,13.36-3.94c6.47-2.2,12.83-4.68,18.79-8.03c4.59-2.58,9.15-5.21,13.45-8.34
	c4.21-3.07,8.09-6.48,12.08-9.79c5.28-4.37,7.73-7.97,14.52-16.08c2.84-3.4,5.32-7.06,7.49-10.82c2.17-3.78,4.53-7.5,6.12-11.69
	c1.38-3.64,3.34-7.12,4.59-10.84c1.88-5.62,3.7-11.27,4.94-17.1c0.3-1.41,0.13-3.06,0.78-4.13c0.83-1.36,0.32-2.63,0.63-3.89
	c0.81-3.25,0.92-6.61,1.57-9.86c0.78-3.91,2.26-7.58,5.3-10.57c2.45-2.41,5.13-4.27,8.32-5.33c3.73-1.24,8.39-1.11,12.4,0.17
	c4.67,1.49,8.06,4.64,10.51,8.57c1.35,2.16,2.12,4.88,2.4,7.61c0.41,4.08-1.08,8.01-0.78,12.06c-1.02,1.39-0.31,3.17-0.86,4.52
	c-0.59,1.45-0.24,2.93-0.7,4.21c-1.35,3.76-1.64,7.75-2.83,11.56c-1.42,4.54-2.76,9.1-4.31,13.6c-2.04,5.91-4.57,11.6-7.4,17.18
	c-3.48,6.88-7.08,13.67-11.62,19.94c-2.72,3.76-5.37,7.56-8.22,11.23c-5,6.45-10.74,12.17-16.52,17.87
	c-2.26,2.23-4.52,4.58-7.15,6.29c-2.6,1.69-4.92,3.73-7.4,5.53c-3.36,2.44-6.82,4.7-10.25,7.02c-2.32,1.57-4.7,3.03-7.23,4.27
	c-2.4,1.17-4.62,2.71-7.01,3.92c-2.47,1.25-5.1,2.18-7.57,3.44c-4.35,2.22-9.07,3.45-13.58,5.24c-5.64,2.25-11.65,3.19-17.38,5.1
	c-1.44,0.48-3,0.2-4.55,0.78c-1.85,0.69-4.17,0.21-5.98,0.95c-2.37,0.98-4.84,0.09-7.1,0.97c-2.3,0.89-4.68-0.02-6.94,0.47
	c-6.99,1.52-14.05,0.32-21.07,0.71c-1.94,0.11-3.66-1.05-5.7-0.82c-1.74,0.19-3.65,0.54-5.33-0.64c-0.33-0.24-0.98-0.02-1.48-0.04
	c-1.55-0.05-3.06,0.14-4.6-0.67c-1.2-0.63-2.71,0.01-4.22-0.66c-1.49-0.65-3.48-0.54-5.25-0.83c-2.91-0.48-5.68-1.5-8.56-1.99
	c-4.28-0.73-8.24-2.52-12.48-3.41c-2.35-0.49-4.6-1.54-6.84-2.46c-4.27-1.76-8.61-3.34-12.83-5.23c-2.96-1.33-5.83-2.82-8.76-4.19
	c-4.48-2.09-8.46-4.95-12.64-7.5c-3.12-1.91-5.8-4.42-9.04-6.2c-1.54-0.84-2.77-2.3-4.19-3.43c-6.4-5.11-12.2-10.93-17.7-16.97
	c-5.86-6.43-10.93-13.55-15.68-20.85c-1.32-2.03-2.31-4.29-3.48-6.43c-1.17-2.14-2.47-4.22-3.52-6.42
	c-1.64-3.44-3.12-6.95-4.63-10.45c-1.8-4.18-2.85-8.58-4.49-12.77c-1.49-3.81-1.95-7.9-3.66-11.61c0.39-1.63-0.57-3.04-0.73-4.57
	c-0.36-3.56-1.89-6.96-1.52-10.62c-1.25-1.63-0.39-3.58-0.79-5.3c-1.04-4.5-0.33-9.07-0.84-13.56c-0.23-2.02-0.54-4.03-0.63-6.08
	c-0.11-2.44,1.11-4.68,0.82-7.2c-0.27-2.34-0.43-4.82,0.05-7.09c0.43-2.04,0.5-4.05,0.67-6.08c0.17-2.02,0.42-4.12,0.85-6.03
	c0.76-3.31,0.5-6.85,2.11-9.97c-0.14-3.99,1.34-7.72,2.41-11.39c1.64-5.63,3.29-11.29,5.54-16.79c3.03-7.4,6.18-14.7,9.91-21.77
	c2.73-5.18,5.77-10.16,9.06-14.99c2.89-4.24,6.01-8.31,9.18-12.35c5.19-6.62,10.93-12.71,17.12-18.32
	c4.14-3.76,8.68-7.15,13.17-10.55c4.08-3.09,8.32-5.93,12.67-8.49c4.07-2.4,8.12-5.02,12.57-6.7c3.68-1.39,7.28-2.96,10.92-4.42
	c3.55-1.43,7.18-2.65,10.81-3.74c2.54-0.77,5.13-1.58,7.81-2.07c2.7-0.5,5.48-1.06,8.15-1.94c2.01-0.67,4.25-0.61,6.38-0.91
	c1.65-0.23,3.3-0.48,4.94-0.75c1.52-0.25,3.24,0.69,4.56-0.75c5.48-0.4,11.05-0.17,15.54,3.12c3.94,2.88,6.88,6.66,8.18,11.91
	c1.42,5.73,0.41,10.86-2.6,15.25c-2.73,3.98-6.46,7.59-11.95,7.98c-1.12,1.03-2.51,0.63-3.81,0.77c-1.28,0.14-2.54,0.49-3.82,0.72
	c-1.28,0.23-2.51-0.08-3.89,0.58c-1.51,0.73-3.47,0.46-5.26,0.81c-5.41,1.06-10.76,2.34-15.93,4.15
	c-7.76,2.71-15.28,6.05-22.36,10.25c-4.66,2.76-9.4,5.38-13.56,8.98c-3.21,2.77-6.53,5.41-9.74,8.19c-2.03,1.76-4.19,3.4-5.94,5.42
	c-5.56,6.44-11.16,12.87-15.65,20.13c-2.51,4.06-5.07,8.13-7.08,12.44c-2.44,5.22-4.46,10.65-6.41,16.08
	c-1.14,3.17-1.67,6.55-2.7,9.76c-0.89,2.79-0.98,5.77-2.11,8.5c-0.13,0.32-0.08,0.72-0.11,1.08c-0.25,3.02-0.18,6.11-0.82,9.05
	c-1.36,6.26-0.39,12.56-0.64,18.83c-0.07,1.76,0.44,3.54,0.7,5.31c0.25,1.65-0.1,3.25,0.58,5c0.59,1.53,0.49,3.49,0.88,5.26
	c0.92,4.23,1.81,8.45,2.88,12.66c1.67,6.57,4.16,12.77,6.53,19.07c3.23,8.61,8.32,16.16,13.41,23.66c2.7,3.98,5.77,7.84,9.41,11.14
	c2.59,2.35,4.98,4.92,7.44,7.4c3.06,3.09,6.79,5.35,10.12,8.08c3.24,2.66,6.77,4.81,10.28,6.96c3.54,2.17,7.37,3.9,11.13,5.69
	c4.7,2.23,9.56,4.12,14.49,5.73c4.1,1.33,8.33,2.24,12.52,3.28c1.62,0.4,3.25,0.67,4.92,0.89c1.51,0.19,3.14,0.28,4.55,0.73
	c2.17,0.68,4.42,0.17,6.44,0.74C183.73,320.81,188.15,319.86,191.85,320.25z"/>
<path fill="currentColor" d="M192.19,198c-2.94,0.03-6.09-2.98-6.19-5.91c-0.07-2.2,2.97-6.05,5.62-6.24c2.06-0.14,3.47,0.93,4.46,1.88
	c0.99,0.94,2,2.58,1.93,4.36C197.9,194.86,194.86,197.97,192.19,198z"/>
</svg>
