<svg version="1.1" id="layer" xmlns="http://www.w3.org/2000/svg" xmlns:xlink="http://www.w3.org/1999/xlink" x="0px" y="0px"
	 viewBox="0 0 384 384" enable-background="new 0 0 384 384" xml:space="preserve">
<path fill="currentColor" d="M108,216.75c-1.52,0-2.75,0-3.99,0c-18.87,0-37.74,0.06-56.6-0.03c-7.74-0.04-13.41-8.42-10.82-15.36
	c0.75-2,1.57-3.66,3.03-5.12c47.98-47.97,95.96-95.95,143.94-143.93c3.99-3.99,8.82-4.71,14.03-2.1c0.52,0.26,1.08,0.46,1.53,0.81
	c0.59,0.46,1.07,1.04,1.6,1.57c47.8,47.8,95.59,95.61,143.44,143.37c3,2.99,4.27,6.41,3.79,10.42c-0.54,4.48-3.26,7.68-7.25,9.51
	c-1.4,0.64-3.13,0.92-4.89,0.91c-18.62-0.11-37.24-0.07-55.85-0.07c-1.23,0-2.47,0-3.96,0c0,1.32,0,2.54,0,3.76
	c0,10.75-0.1,21.49,0.04,32.24c0.08,6.34-5.58,12.05-12.08,12.04c-47.98-0.07-95.97-0.07-143.95,0c-6.36,0.01-12.12-5.6-12.05-12.08
	C108.1,240.85,108,228.98,108,216.75z"/>
<path fill="currentColor" d="M191.62,312.75c-23.99,0-47.97,0.01-71.96-0.01c-4.77-0.01-8.17-2.39-10.33-6.55c-3.43-6.62-0.21-13.41,5.26-16.13
	c1.58-0.79,3.23-1.33,5.08-1.33c48.22,0.03,96.45,0.03,144.67,0.02c6.23,0,11.64,5.53,11.68,11.64c0.03,5.07-2.21,8.71-6.61,11.06
	c-1.68,0.89-3.47,1.34-5.45,1.34C239.84,312.73,215.73,312.75,191.62,312.75z"/>
<path fill="currentColor" d="M191.97,336.75c24.11,0,48.22-0.02,72.34,0.01c4.76,0.01,8.16,2.37,10.34,6.52c3.47,6.62,0.18,13.48-5.21,16.14
	c-1.59,0.79-3.22,1.35-5.07,1.35c-48.22-0.03-96.45-0.03-144.67-0.01c-6.31,0-11.83-5.72-11.73-11.98
	c0.09-5.85,3.75-10.14,9.44-11.99c0.9-0.29,1.99-0.04,2.99-0.04C144.25,336.75,168.11,336.75,191.97,336.75z"/>
</svg>
