<svg version="1.1" id="Слой_1" xmlns="http://www.w3.org/2000/svg" xmlns:xlink="http://www.w3.org/1999/xlink" x="0px" y="0px"
	 viewBox="0 0 384 384" enable-background="new 0 0 384 384" xml:space="preserve">
<path id="body" fill="currentColor" d="M316.5,384c-83,0-166,0-249,0c-0.2-0.25-0.39-0.71-0.6-0.72c-2.34-0.12-4.35-1.42-5.99-2.67
	c-4.9-3.72-7.66-8.79-7.66-15.12c0-114.79,0-229.58,0.01-344.37c0-2.54,0.03-5.04,0.67-7.58c0.94-3.74,4.37-8.41,7.88-10.62
	c1.84-1.15,4.03-1.52,5.7-2.93c83,0,166,0,249,0c0.2,0.25,0.39,0.71,0.6,0.72c2.34,0.12,4.35,1.42,5.99,2.67
	c4.9,3.72,7.66,8.79,7.66,15.12c0,114.79,0,229.58-0.01,344.37c0,2.54-0.03,5.04-0.67,7.58c-0.94,3.74-4.37,8.41-7.88,10.62
	C320.36,382.22,318.17,382.59,316.5,384z M191.93,240c1.5,0,3-0.02,4.5,0c1.45,0.02,2.81-0.39,4.21-0.66
	c2.47-0.47,5.01-0.24,7.57-0.71c3.6-0.65,7.13-1.48,10.68-2.32c6.92-1.63,13.35-4.56,18.28-6.59c4.01-1.65,7.64-3.98,11.26-6.28
	c4.42-2.81,8.77-5.83,12.57-9.43c5.34-5.06,10.59-10.22,14.97-16.24c3.61-4.96,6.83-10.13,9.73-15.49c1.7-3.13,2.78-6.59,4.26-9.85
	c1.88-4.16,2.83-8.59,4.03-12.95c0.79-2.86,1.64-5.72,1.52-8.75c1.33-1.89,0.61-4.03,0.73-6.06c0.13-2.17,0.83-4.21,0.85-6.44
	c0.03-4.92-0.32-9.8-0.82-14.68c-0.26-2.52-0.09-5.18-0.85-7.53c-1.08-3.32-0.96-6.98-2.9-10.04c-0.96-5.92-3.61-11.23-6.01-16.63
	c-1.04-2.34-2.41-4.52-3.65-6.75c-3.3-5.95-7.23-11.46-11.7-16.47c-6.42-7.18-13.57-13.6-21.7-18.96
	c-6.26-4.12-12.97-7.26-19.71-10.39c-2.4-1.11-5.15-1.42-7.65-2.34c-2.64-0.97-5.4-1.44-8.09-2.16c-2.61-0.7-5.38-1.31-7.99-1.38
	c-3.68-0.1-7.25-1.12-10.93-0.92c-4.02,0.22-8.03,0.05-12.08,0.58c-4.03,0.53-8.11,0.79-12.1,1.68c-3.42,0.77-6.9,1.4-10.21,2.51
	c-5.37,1.79-10.64,3.88-15.67,6.5c-3.19,1.66-6.44,3.28-9.42,5.28c-5.18,3.47-10.32,7.03-14.75,11.49
	c-4.57,4.61-9.24,9.11-13.03,14.46c-3.13,4.42-6.07,8.95-8.79,13.62c-2.45,4.21-3.94,8.87-5.89,13.31
	c-0.99,2.27-1.85,4.78-2.32,7.27c-0.79,4.18-2.43,8.21-2.31,12.55c-1.05,1.25-0.63,2.76-0.77,4.19c-0.14,1.42,0.21,2.82-0.45,4.31
	c-0.55,1.26-0.33,2.91-0.26,4.38c0.19,3.9-0.39,7.79,0.62,11.71c0.62,2.39,0.31,5.01,0.74,7.55c0.63,3.73,1.35,7.41,2.36,11.05
	c1.22,4.35,2.6,8.63,4.45,12.78c1.7,3.81,3.31,7.63,5.37,11.27c3.51,6.21,7.57,12.08,12.29,17.36c4.9,5.48,10.28,10.52,16.22,14.97
	c5.01,3.75,10.27,7.04,15.79,9.89c3.69,1.91,7.5,3.61,11.38,5.1c3.35,1.29,6.86,2.38,10.33,3.01c3.25,0.6,6.4,2.2,9.84,1.67
	c1.61,1.41,3.54,0.49,5.31,0.75c1.89,0.27,3.79,0.58,5.69,0.73C188.92,240.1,190.43,240,191.93,240z M289.5,280.4
	c-1.89-3.02-4.56-3.7-7.88-3.7c-59.87,0.07-119.74,0.05-179.61,0.05c-0.62,0-1.26,0.06-1.87-0.01c-1.43-0.16-2.52,0.58-3.57,1.35
	c-0.8,0.58-1.49,1.31-2.03,1.79c0,2.09,0,3.83,0,5.3c2,3.08,4.73,3.64,8.04,3.63c59.75-0.08,119.49-0.06,179.24-0.06
	c0.62,0,1.25-0.03,1.87,0.01c1.52,0.08,2.83-0.34,3.9-1.46c0.67-0.7,1.37-1.38,1.92-1.92C289.5,283.47,289.5,281.84,289.5,280.4z
	 M97.87,322.5c62.76,0,125.51,0,188.03,0c1.3-1.21,2.47-2.32,3.6-3.37c0-1.1,0.03-2.1-0.01-3.1c-0.09-2.64-1.21-3.67-3.84-4.86
	c-1.45-0.66-2.8-0.65-4.23-0.65c-59.62-0.01-119.24-0.01-178.86-0.01c-0.75,0-1.5-0.05-2.25,0.01c-2.68,0.2-5.26,1.88-5.69,4.07
	c-0.31,1.53-0.06,3.17-0.06,4.57C95.77,320.37,96.83,321.44,97.87,322.5z M191.96,345c-30.23,0-60.46,0-90.69,0
	c-0.87,0-1.75-0.06-2.62,0.01c-1.98,0.16-3.97,2.15-4.14,4.12c-0.06,0.74-0.03,1.5-0.01,2.25c0.06,2.43,1.14,4.27,3.43,4.79
	c1.72,0.39,3.42,0.89,5.29,0.89c59.21-0.07,118.42-0.06,177.63-0.04c1.58,0,3.06-0.21,4.57-0.73c3.49-1.19,5.16-4.73,3.77-8.23
	c-0.79-1.98-2.15-3.05-4.3-3.05c-0.75,0-1.5,0-2.25,0C252.42,345,222.19,345,191.96,345z"/>
<path id="fan" fill="currentColor" d="M198,112.67c2.18,1.04,4.07,1.91,5.92,2.85c1.35,0.68,2.31,0.96,3.82-0.23c3.7-2.9,7.69-5.45,11.65-8.02
	c5.47-3.55,11.16-6.74,17.05-9.52c2.29-1.08,4.9-1.47,7.19-2.55c2.37-1.11,4.96-1.17,7.4-2.04c2.11-0.75,4.7-0.1,7.07-0.17
	c2.79-0.09,5.39,0.37,8.05,1.38c1.62,0.61,2.92,1.53,4.23,2.45c5.57,3.9,8.06,9.89,9.94,16.03c0.94,3.06,1.44,6.44,0.9,9.74
	c-0.32,1.95-0.77,3.92-1.52,5.73c-0.71,1.71-2.38,2.92-2.94,4.78c-2.58,1.29-4.67,3.69-7.95,3.42c-1.37-0.11-2.75-0.1-4.12,0
	c-1.84,0.14-3.59-0.26-5.31-0.78c-4.27-1.29-8.49-2.76-13.01-2.99c-2.61-1.54-5.61-0.53-8.42-1.34c-2.65-0.76-5.71-0.33-8.57-0.12
	c-4.25,0.31-8.53,0.59-12.58,2.19c-0.4,0.16-0.93,0.02-1.59,0.02c0.28,3.37-0.31,6.39-1.49,9.2c2.38,1.66,4.77,3.18,6.99,4.91
	c6.94,5.42,13.81,10.95,19.75,17.49c4.24,4.67,8.05,9.7,10.74,15.42c1.55,3.3,2.32,6.88,2.39,10.66c0.08,3.98-0.78,7.55-2.96,10.8
	c-1.63,2.43-2.94,5.02-5.71,6.65c-1.9,1.12-3.61,2.67-5.5,3.93c-3.03,2.01-6.21,3.34-9.84,3.41c-1.29,0.02-2.39,1.15-3.94,0.13
	c-1.06-0.7-2.71-0.31-4.16-0.71c-4.17-1.16-6.28-4.15-7.63-7.71c-1.13-2.98-1.71-6.15-1.65-9.47c0.07-4.02,0.01-8.13-0.82-12.03
	c-0.62-2.94-0.33-6.17-2.11-8.85c0.15-3.05-1.3-5.74-2.36-8.4c-1.75-4.4-3.66-8.85-7.1-12.27c-3.36,1.5-3.79,1.58-8.19,1.61
	c-1.64,4.32-3.05,8.73-4.63,13.07c-2.2,6.01-4.83,11.75-7.69,17.44c-1.81,3.6-4.14,6.82-6.47,10.07c-3.58,5.01-8.03,8.93-13.4,11.89
	c-1.48,0.82-3.35,0.22-4.64,1.49c-4.2-0.04-8.38,0.25-12.35-1.87c-4.21-2.24-8.22-4.69-11.68-8c-2.45-2.34-4.2-5.28-5.19-8.34
	c-1.91-5.89-1.29-12.01,5.3-16.44c3.48-2.34,7.37-3.39,11.04-5.09c3.46-1.6,7.17-2.59,10.39-4.82c2.18-1.51,4.68-2.57,6.94-4.02
	c4.37-2.79,7.99-6.41,11.55-10.1c1.17-1.21,2.23-2.52,3.24-3.67c-1.46-2.78-3.63-4.92-3.99-8.15c-5.1,0-10.2-0.12-15.3,0.06
	c-2.12,0.07-4.04-0.62-6.06-0.81c-2.03-0.19-4.01,0.13-6.11-0.61c-2.32-0.82-5.09-0.29-7.5-0.95c-4.69-1.28-9.49-2.27-13.9-4.43
	c-0.52-0.25-1.03-0.53-1.56-0.76c-4.47-1.91-7.92-5.17-10.92-8.82c-1.49-1.82-2.47-4.11-3.06-6.59c-0.49-2.06-0.55-4.05-0.64-6.09
	c-0.13-2.72,1.95-9.72,3.25-12.91c1.61-3.95,4.28-7.09,7.52-9.59c5.09-3.93,10.17-4.49,15.76-1.14c3.77,2.25,5.96,5.93,8.73,9.09
	c0.3,0.35,0.45,0.84,0.77,1.17c1.86,1.94,3.5,4.14,5.38,5.97c4.82,4.65,9.75,9.2,15.73,12.55c2.66,1.49,5.42,2.65,8.13,3.95
	c0.81,0.39,1.81,0.37,2.41,0.48c1.71-2.52,3.44-4.46,5.92-5.78c-1.02-3.68-1.79-7.49-3.17-11.05c-0.98-2.54-1.22-5.21-2.12-7.74
	c-0.51-1.43-0.2-3.32-1.03-4.41c-1.09-1.44,0.43-3.33-1.2-4.43c-0.12-0.08-0.09-0.47-0.05-0.71c0.32-2.09-0.56-4.04-0.72-6.07
	c-0.16-1.99-0.04-4-0.04-6c0-3.12-0.01-6.25,0-9.37c0.01-2.21,2.8-10.94,3.97-12.6c4.04-5.73,10-8.39,15.25-9.28
	c2.17-0.37,4.3-0.5,6.46-0.62c4.13-0.23,8.03,0.95,11.78,2.36c2.25,0.85,4.32,2.5,6.1,4.19c1.86,1.77,3.12,4.23,3.59,6.7
	c0.51,2.68-0.02,5.38-1.2,8.07c-1.57,3.56-3.74,6.71-5.68,10.01c-2.42,4.11-5.16,7.98-6.7,12.61c-0.83,2.49-2.67,4.65-2.82,7.45
	c-1.36,1.12-0.57,2.91-1.39,4.31c-0.73,1.24-0.37,3.07-0.9,4.49C197.64,107.3,198.16,110.18,198,112.67z"/>
</svg>
