<svg version="1.1" id="Layer" xmlns="http://www.w3.org/2000/svg" xmlns:xlink="http://www.w3.org/1999/xlink" x="0px" y="0px"
	 viewBox="0 0 384 384" enable-background="new 0 0 384 384" xml:space="preserve">
<path fill="currentColor" d="M41.25,271.62c6.69,0,13.03,0,19.37,0c0.15,0.19,0.31,0.39,0.46,0.58c-0.51,0.29-1.05,0.53-1.52,0.88
	c-1.6,1.18-1.39,2.84-0.75,4.3c1.77,4.01,5.51,5.26,8.76,1.94c3.67-3.75,7.42-7.43,11.03-11.05c0.73-3.32-0.65-5.68-2.96-7.8
	c-2.66-2.45-5.13-5.12-7.72-7.66c-1.82-1.78-4-1.91-6.35-1.28c-1.68,0.46-2.25,2.06-2.95,3.25c-0.45,0.77-0.65,2.35,0.43,3.46
	c0.64,0.65,0.98,1.6,1.55,2.57c-0.68,0.06-1.46,0.17-2.24,0.17c-4.75,0.02-9.5,0.03-14.25,0c-2.59-0.01-2.87-0.31-2.87-3.02
	c-0.01-6.25,0-12.5,0-18.75c0-27.37,0-54.74,0-82.29c101.2,0,202.37,0,303.65,0c0,34.58,0,69.17,0,104.07c-1.03,0-2.12,0-3.2,0
	c-10.5,0-21-0.02-31.5,0.01c-3.11,0.01-4.83,1.74-4.94,4.83c-0.03,0.75,0,1.5,0,2.37c0.48,0.45,1.04,0.95,1.56,1.48
	c1.24,1.27,2.69,1.84,4.51,1.83c11.12-0.05,22.24-0.03,33.68-0.03c0,1.12,0,2.2,0,3.29c0,27.5-0.01,55,0.01,82.5
	c0,4.16-1.37,7.76-4.48,10.5c-2.33,2.05-5.09,3.37-8.3,3.46c-0.5,0.01-1,0-1.5,0c-91.5,0-183,0-274.49-0.01
	c-3.37,0-6.39-0.8-9.38-2.78c-2.77-1.83-3.72-4.38-4.82-7.04c-0.44-1.07-0.64-2.27-0.75-3.43c-0.13-1.36-0.03-2.75-0.03-4.12
	c0-26.12,0-52.25,0-78.37C41.25,274.26,41.25,273.02,41.25,271.62z M126,266.21c0,2,0.21,4.03-0.06,5.99
	c-0.29,2.15,0.73,4.02,0.86,6.07c0.1,1.64,0.42,3.36,0.87,4.89c1.16,3.98,2.72,7.86,4.36,11.68c2.39,5.54,5.98,10.38,9.63,15.11
	c3.78,4.9,11.87,11.52,17.86,14.76c4.36,2.36,8.86,4.52,13.61,6.04c4.96,1.58,10.13,2.28,15.26,2.94c5.38,0.7,10.78-0.35,16.18-0.68
	c0.12-0.01,0.26,0.04,0.37-0.01c4.98-1.89,10.19-3,15.17-5c5.77-2.32,10.98-5.41,15.6-9.29c3.93-3.3,7.65-6.96,10.75-11.2
	c5.42-7.41,7.62-10.79,10.49-18.92c0.76-2.17,1.56-4.37,1.93-6.74c0.34-2.16,1.07-4.31,1.36-6.52c0.31-2.39,0.69-4.79,0.72-7.19
	c0.04-2.78,0.26-5.54-0.6-8.34c-0.57-1.88-0.44-4.01-0.75-6.05c-0.77-5.02-2.36-9.78-4.24-14.39c-3.11-7.62-7.89-14.26-13.48-20.27
	c-2.16-2.32-4.67-4.31-7.09-6.38c-1.17-1-2.44-1.89-3.76-2.68c-1.89-1.13-4.07-1.87-5.75-3.23c-1.9-1.53-4.26-1.86-6.26-3.07
	c-1.46-0.88-3.15-1.67-4.81-1.89c-2.59-0.34-4.86-2.14-7.61-1.6c-1.2-1.4-2.97-0.14-4.16-0.8c-1.54-0.85-3.07-0.73-4.6-0.65
	c-4.9,0.25-9.83-0.67-14.7,0.67c-2.06,0.57-4.44,0.13-6.39,0.89c-3.99,1.54-8.2,2.47-12.04,4.41c-5.26,2.66-10.45,5.51-14.76,9.54
	c-3.77,3.53-7.74,6.94-10.66,11.3c-1.58,2.35-3.44,4.55-4.71,7.05c-2.29,4.53-4.64,9.03-5.96,14.03
	c-1.38,5.23-2.72,10.88-2.61,14.66C126.04,262.96,126,264.58,126,266.21z M268.91,327.92c0.91-1.35,1.39-2.17,1.97-2.91
	c3.34-4.27,6.15-8.91,8.83-13.6c1.43-2.49,2.39-5.25,3.63-7.86c1.3-2.73,2.14-5.64,3.04-8.48c1.01-3.2,2.2-6.42,2.52-9.89
	c0.14-1.48,0.15-3.19,0.7-4.54c0.79-1.93,0.48-3.82,0.67-5.73c0.18-1.9,0.73-3.8,0.68-5.69c-0.09-3.65,0.12-7.27-0.53-10.97
	c-0.63-3.62-0.94-7.32-1.58-10.99c-0.58-3.37-1.41-6.66-2.37-9.92c-1.48-5-3.33-9.86-5.96-14.4c-1.36-2.33-3.12-3.52-5.07-3.22
	c-3.54,0.54-5.5,4.46-3.97,7.86c1.19,2.63,2.5,5.23,3.41,7.96c1.32,3.97,2.74,7.92,3.43,12.1c0.29,1.77,0.26,3.74,0.86,5.26
	c0.7,1.75,0.32,3.36,0.58,5c0.26,1.64,0.68,3.29,0.72,4.94c0.09,3.53-0.39,7.07-0.53,10.57c-0.17,4.27-1.53,8.27-1.76,12.49
	c-0.13,2.5-5.52,16.53-6.96,19.21c-1.1,2.05-2.25,4.08-3.49,6.05c-1.78,2.82-3.67,5.56-5.85,8.84c-0.29-1.79,0.27-3.16-0.98-4.01
	c-0.99-0.66-1.86-1.53-2.9-2.07c-0.7-0.36-1.66-0.55-2.43-0.4c-2.25,0.44-4.3,3.07-4.32,5.48c-0.04,4.62-0.03,9.25,0.01,13.87
	c0,0.56,0.26,1.13,0.44,1.68c0.93,2.88,3.35,3.54,5.91,3.63c3.99,0.14,8,0.09,11.99,0c1.15-0.03,2.34-0.34,3.43-0.74
	c2.15-0.8,3.28-4.11,2.38-6.2C274.28,328.61,272.48,327.18,268.91,327.92z M132.1,342.26c3.21,2.26,6.23,4.62,9.46,6.62
	c3.85,2.37,7.8,4.65,11.91,6.5c1.31,0.59,2.75,1.19,4.19,1.64c1.43,0.44,3.09,0.68,4.19,1.57c1.36,1.09,3.24-0.05,4.31,1.42
	c2.48,0.17,4.75,1.27,7.23,1.6c1.77,0.24,3.71,0.21,5.26,0.8c1.61,0.61,3.09,0.38,4.62,0.6c1.65,0.23,3.3,0.76,4.93,0.7
	c4.64-0.2,9.3,0.62,13.95-0.61c2.15-0.57,4.5-0.2,6.81-0.74c3.3-0.77,6.63-1.41,9.92-2.3c6.65-1.79,11.1-3.16,17.82-6.76
	c0.91-0.49,1.29-1.09,1.88-1.82c1.22-1.55,0.3-3.12,0.72-4.54c-0.34-0.34-0.61-0.61-0.87-0.87c-3.22-3.17-3.52-3.12-7.74-1.18
	c-3.14,1.45-6.33,2.9-9.66,3.78c-3.15,0.84-6.21,2.02-9.51,2.49c-2.01,0.28-4.11,0.86-6.16,1.27c-2.09,0.42-4.27,0.34-6.44,0.71
	c-2.91,0.5-5.98,0.22-8.97,0.1c-3.02-0.13-6.04-0.47-9.06-0.72c-0.12-0.01-0.27,0.04-0.37-0.01c-2.91-1.36-6.17-1.22-9.21-2.16
	c-4.1-1.26-8.21-2.46-12.17-4.1c-2.78-1.15-5.37-2.73-8.04-4.13c-2.49-1.31-4.88-2.74-7.2-4.31c-0.68-0.46-1.42-0.83-2.06-1.34
	c-0.6-0.48-1.1-1.08-1.83-1.8c4.55-0.38,5.61-2.01,5.3-7.45c-0.26-0.26-0.55-0.51-0.79-0.8c-1.52-1.75-3.35-2.55-5.75-2.45
	c-3.74,0.15-7.49,0.1-11.24,0.01c-1.82-0.04-3.26,0.56-4.5,1.83c-0.52,0.53-1.08,1.03-1.56,1.48c0,6.12,0,12.11,0,18.1
	c4.11,4.21,4.33,3.61,7.28,2.6C131.49,347.06,131.98,344.71,132.1,342.26z M246.13,196.9c-1.05,0.46-2.06,0.76-2.91,1.3
	c-1.74,1.1-3.02,4.41-2.47,6.09c0.6,1.83,3,3.45,5.2,3.46c5.37,0.02,10.75,0.01,16.3,0.01c0.78-0.93,2-1.83,2.42-3.01
	c0.59-1.65,0.72-3.51,0.8-5.29c0.12-2.62,0.14-5.25,0-7.87c-0.16-3.02-0.52-6.03-3.43-7.77c-1.55,0-3.03,0-3.84,0
	c-1.36,1.11-2.32,1.89-3.13,2.55c-0.08,1.28-0.14,2.35-0.23,3.8c-1.52-1-2.79-1.66-3.84-2.56c-3.24-2.79-7.01-4.73-10.65-6.9
	c-5.82-3.46-12.09-5.83-18.48-7.89c-2.67-0.86-5.41-1.5-8.24-1.93c-2.79-0.43-5.63-0.89-8.37-1.51c-3.07-0.69-6.07-0.5-9.1-0.59
	c-3.12-0.09-6.25-0.12-9.37,0.01c-3.03,0.12-6.18,0-9.03,0.84c-3.7,1.09-7.52,1.56-11.22,2.71c-4.34,1.35-8.55,2.89-12.72,4.64
	c-1.27,0.53-2.34,1.42-3.85,1.63c-1.57,0.22-3.01,2.85-2.97,4.49c0.04,1.65,1.86,4.74,3.2,4.94c1.87,0.27,3.7,0.56,5.64-0.45
	c4-2.09,8.37-3.33,12.62-4.84c5.18-1.84,10.53-2.44,15.82-3.37c3.27-0.57,6.74-0.23,10.1-0.07c3.27,0.16,6.51-0.21,9.85,0.54
	c2.96,0.67,6.06,1.05,9.1,1.61c6.47,1.21,12.45,3.75,18.33,6.46C236.79,190.25,241.51,193.38,246.13,196.9z M117.19,204.76
	c-0.78,1.16-1.32,2.03-1.93,2.85c-3.25,4.33-6.2,8.85-8.73,13.63c-1.56,2.96-3.02,6-4.2,9.12c-1.3,3.46-2.3,7.05-3.31,10.62
	c-0.77,2.73-1.87,5.42-1.52,8.37c-1.48,1.31-0.06,3.32-0.86,4.49c-1.09,1.59-0.57,3.12-0.6,4.63C95.94,263.83,96,269.2,96,274.57
	c0,0.75-0.21,1.58,0.03,2.24c1.27,3.46,0.67,7.3,2.22,10.7c-0.45,1.52,0.56,2.78,0.79,4.18c0.23,1.36,0.81,2.65,1.24,3.97
	c0.82,2.53,1.31,5.25,2.55,7.55c1.65,3.06,2.48,6.73,5.72,8.79c0.49,0,0.99,0.01,1.49,0c4.69-0.09,6.71-3.44,4.84-7.8
	c-0.68-1.58-1.25-3.29-2-4.78c-1.77-3.56-3.01-7.35-3.96-11.08c-1.31-5.16-2.38-10.48-2.41-15.89c-0.02-4.75,0-9.49,0-14.24
	c0-0.75-0.2-1.57,0.03-2.24c1.2-3.35,1.3-6.91,2.12-10.34c1.15-4.77,2.57-9.41,4.62-13.84c2.39-5.17,4.93-10.27,8.22-14.95
	c0.88-1.25,1.78-2.49,2.77-3.88c0.12,0.71,0.12,1.42,0.36,2.03c1.05,2.61,3.79,3.83,7.19,3.26c1.59-0.26,3.16-2.72,3.17-5.11
	c0.02-5.22,0.01-10.45,0.01-15.52c-1.21-1.21-2.27-2.27-3.38-3.38c-5.07,0-10.19-0.01-15.3,0.01c-0.72,0-1.48,0.01-2.15,0.23
	c-1.84,0.6-2.96,2.01-3.12,3.85c-0.17,1.92-0.25,3.75,1.9,5.21C114.27,204.45,115.51,204.71,117.19,204.76z"/>
<path fill="currentColor" d="M330.73,111.67c-91.85,0-182.68,0-273.94,0c0.45-0.79,0.62-1.56,1.09-1.86c5.73-3.63,10.84-8.13,16.45-11.9
	c6-4.03,11.69-8.48,17.57-12.66c4.36-3.1,8.61-6.47,12.99-9.56c4.92-3.47,9.74-7.12,14.65-10.61c4.36-3.1,8.71-6.31,12.98-9.57
	c4.79-3.65,9.6-7.32,14.72-10.55c2.52-1.59,4.74-3.64,7.13-5.44c3.9-2.94,7.72-6.01,11.79-8.69c2.58-1.7,4.97-3.63,7.49-5.4
	c4.09-2.87,8.03-5.96,12.07-8.92c1.42-1.05,2.88-2.07,4.4-2.96c2.54-1.49,5.04-0.8,7.34,0.57c1.83,1.09,3.53,2.39,5.22,3.69
	c5.17,3.98,10.38,7.91,15.87,11.47c2.4,1.56,4.55,3.49,6.85,5.22c4,3.01,7.93,6.12,12.05,8.96c3.41,2.36,6.7,4.88,10.12,7.22
	c3.33,2.28,6.39,4.92,9.79,7.11c3.29,2.12,6.34,4.62,9.51,6.94c3.35,2.45,6.58,5.05,10.08,7.32c3.39,2.2,6.51,4.83,9.75,7.26
	c2.96,2.22,5.91,4.44,8.88,6.63c3.64,2.67,7.29,5.32,10.95,7.95c4.14,2.97,8.34,5.86,12.45,8.87
	C322.73,105.52,326.41,108.39,330.73,111.67z"/>
<path fill="currentColor" d="M15.3,122.33c118.88,0,237.68,0,356.4,0c1.39,1.31,1.85,2.82,1.83,4.61c-0.06,4.62,0,9.25-0.03,13.87
	c-0.02,3.82-1.63,5.4-5.46,5.44c-0.5,0.01-1,0-1.5,0c-115.7,0-231.4-0.01-347.1,0.05c-4.2,0-6.22-0.85-5.99-6.09
	c0.24-5.36,0.05-10.74,0.05-16.09C14.14,123.49,14.76,122.87,15.3,122.33z"/>
<path fill="currentColor" d="M357.64,271.63c-0.68-0.08-1.26-0.14-2-0.23c0-3.4,0-6.83,0-10.28c0.66-0.07,1.25-0.14,1.89-0.21
	c-0.02-0.19,0.04-0.43-0.05-0.54c-2.5-2.96-2.51-5.04,0-7.72c0.43-0.45,0.88-0.88,1.24-1.24c3.31-0.81,5.65,0.6,7.77,2.91
	c2.36,2.57,4.87,5,7.4,7.41c1.76,1.68,2.29,3.78,1.78,5.95c-0.3,1.29-1.33,2.5-2.28,3.51c-2.47,2.63-5.02,5.21-7.68,7.66
	c-1.09,1.01-2.47,1.93-3.87,2.32c-2.02,0.56-3.87-0.45-5.03-2.09c-0.98-1.37-2.25-2.92-0.72-4.83
	C356.66,273.54,357.04,272.66,357.64,271.63z"/>
<path fill="currentColor" d="M8.25,268.12c0-0.93-0.04-1.8,0.01-2.67c0.15-2.51,2.03-4.4,4.55-4.44c4.48-0.06,8.97-0.02,13.46-0.02c1.37,0,2.74,0,4.3,0
	c0,3.41,0,6.83,0,10.5c-5.64,0-11.34-0.02-17.04,0.02c-1.29,0.01-2.24-0.68-3.18-1.34C9.64,269.68,9.09,268.97,8.25,268.12z"/>
<path fill="currentColor" d="M190.84,317.99c-4.55,0.35-8.42-1.64-12.14-3.94c-5.39-3.34-8.68-8.42-10.44-14.28c-1.88-6.24-1.79-13.03,2-19.66
	c0.8-1.41,1.64-2.79,2.51-4.25c6.46,7.9,2.73,7.58,20.74,13.1c0,5.25,0,10.58,0,15.9c0,2.37-0.14,4.75,0.04,7.1
	C193.74,314.52,192.75,316.41,190.84,317.99z"/>
<path fill="currentColor" d="M183.35,246.05c-7.96,4.52-12.05,11.12-12.51,20.2c-5.3,0-10.63,0-15.96,0c-2.99,0-5.98-0.02-8.97,0.01
	c-2.27,0.02-3.78-1.05-4.63-3.11c-0.13-0.32-0.34-0.71-0.26-1c2.54-8.65,4.97-14.77,15.81-19.92c4.49-2.14,9.25-2.75,14.02-2.12
	c3.51,0.46,6.94,1.81,10.04,3.67C181.77,244.31,182.44,245.2,183.35,246.05z"/>
<path fill="currentColor" d="M202.78,286.55c7.95-4.69,12.51-11.01,12.6-20.3c5.2,0,10.41,0,15.61,0c3.37,0,6.73-0.03,10.1,0.01
	c3.32,0.04,4.58,2.05,3.71,5.35c-0.56,2.14-0.85,4.4-1.92,6.31c-3.56,6.34-8.63,11.01-15.76,13.04c-2.48,0.71-5.05,1.35-7.6,1.44
	c-2.19,0.07-4.4-0.73-6.61-1.1c-1.86-0.3-3.61-0.87-5.24-1.81C206.18,288.63,204.71,287.71,202.78,286.55z"/>
<path fill="currentColor" d="M193.58,243.53c0-8.95,0-17.91,0-27.25c0.51-0.39,1.28-0.99,2.38-1.83c5.53-0.1,10.55,2.13,14.82,6.4
	c2.57,2.57,4.99,5.15,6.34,8.61c0.95,2.42,1.92,4.8,1.88,7.45c-0.02,1.12-0.07,2.25,0.01,3.37c0.37,4.92-0.96,9.37-3.63,13.47
	c-0.58,0.89-1.12,1.8-1.75,2.81C209.03,248.78,202.5,244.36,193.58,243.53z"/>
<path fill="currentColor" d="M204.73,266.55c0.37,2.77-0.75,5.2-2.71,7.3c-1.83,1.96-3.95,3.29-6.72,3.69c-6.77,0.98-11.55-1.96-13.54-8.53
	c-1.14-3.77-0.3-7.55,2.7-10.67c2.18-2.26,4.63-3.78,7.7-4.04C197.95,253.8,205.54,258.36,204.73,266.55z"/>
</svg>
