<svg version="1.1" id="Layer" xmlns="http://www.w3.org/2000/svg" xmlns:xlink="http://www.w3.org/1999/xlink" x="0px" y="0px"
	 viewBox="0 0 384 384" enable-background="new 0 0 384 384" xml:space="preserve">
<path id="Wall" fill="currentColor" d="M18.16,245.55c0-35.87,0-71.64,0-107.53c35.81,0,71.56,0,107.35,0c0.59,3.15,0.83,92.81,0.26,107.53
	C90.02,245.55,54.26,245.55,18.16,245.55z M125.77,257.79c-11.93-0.53-104.43-0.31-107.54,0.23c0,35.78,0,71.54,0,107.37
	c35.88,0,71.65,0,107.54,0C125.77,329.31,125.77,293.55,125.77,257.79z M137.99,365.33c13.26,0.55,104.4,0.32,107.54-0.24
	c0-35.78,0-71.54,0-107.36c-35.89,0-71.65,0-107.54,0C137.99,293.81,137.99,329.57,137.99,365.33z M47.29,42.08
	c-0.62,0-1.28-0.13-1.87,0.02c-1.93,0.49-3.9,0.77-5.84,1.23c-2.67,0.64-4.89,2.11-7.26,3.28c-3.34,1.64-6.18,4.2-8.12,7.21
	c-2.55,3.95-4.94,8.04-5.48,13.08c-0.65,6.01-0.93,8.38,0.84,13.69c2.04,6.11,3.69,9.06,7.69,12.9c5.59,5.36,12.3,8.43,20.06,8.44
	c96.05,0.05,192.11,0.04,288.16,0.03c6.58,0,11.22,3.24,15.02,8.31c1.53,2.05,2.47,4.4,2.82,6.67c0.67,4.42-0.04,8.76-2.84,12.61
	c-3.73,5.14-8.4,8.36-14.98,8.35c-64.62-0.01-129.24-0.01-193.86-0.01c-1.22,0-2.44,0-3.78,0c0,2.21-0.01,4.19,0,6.17
	c0.02,1.94-0.07,3.89,0.05,5.8c66.34,0,132.33,0,198.32,0c0.62,0,1.28,0.13,1.87-0.02c1.93-0.49,3.9-0.77,5.84-1.23
	c2.67-0.64,4.89-2.11,7.26-3.28c3.33-1.64,6.17-4.2,8.12-7.21c2.56-3.95,4.93-8.04,5.48-13.09c0.65-5.98,0.94-8.33-0.85-13.69
	c-2.03-6.11-3.67-9.04-7.69-12.9c-5.59-5.36-12.3-8.42-20.06-8.43C240.15,89.97,144.09,89.99,48.04,90
	c-6.58,0-11.22-3.24-15.02-8.32c-1.53-2.05-2.46-4.4-2.81-6.68c-0.68-4.43,0.06-8.77,2.84-12.6c3.73-5.14,8.4-8.35,14.98-8.35
	c104.54,0.01,209.07,0.01,313.61,0.01c1.22,0,2.44,0,3.71,0c0-4.07,0-7.9,0-11.98C259.11,42.08,153.2,42.08,47.29,42.08z
	 M314.9,245.69c7.48,0,14.97,0.05,22.45-0.03c1.89-0.02,3.79-0.43,5.67-0.74c0.43-0.07,0.78-0.66,1.19-0.69
	c2.69-0.22,4.69-1.97,6.97-3.07c3.35-1.61,6.19-4.19,8.13-7.2c2.54-3.95,5.44-7.98,5.36-13.09c1.15-1.37,0.7-3.01,0.73-4.56
	c0.03-1.6,0.49-3.56-0.26-4.72c-0.95-1.48,0.47-3.34-1.18-4.41c-2.04-6.1-3.7-9.08-7.69-12.9c-5.59-5.36-12.29-8.43-20.05-8.44
	c-64.86-0.06-129.73-0.04-194.59-0.04c-1.22,0-2.44,0-3.77,0c0,2.22-0.01,4.2,0,6.18c0.02,1.94-0.08,3.89,0.05,5.79
	c66.09,0,131.83,0.01,197.57-0.01c6.58,0,11.22,3.24,15.01,8.33c1.53,2.05,2.46,4.4,2.81,6.68c0.69,4.43-0.07,8.77-2.84,12.6
	c-3.72,5.14-8.4,8.35-14.98,8.35c-64.61-0.01-129.23-0.01-193.84-0.01c-1.22,0-2.44,0-3.71,0c0,4.07,0,7.9,0,11.98
	C197.14,245.69,256.02,245.69,314.9,245.69z M331.73,341.47c3.14-0.01,6.25-0.01,9.44-0.57c5.18-0.91,9.45-3.38,13.47-6.35
	c2.52-1.86,4.9-4.18,6.23-7.1c1.58-3.46,4.09-6.64,3.8-10.77c1.86-4.41,0.93-8.97-0.32-13.11c-2.04-6.77-5.75-12.66-11.95-16.7
	c-4.34-2.82-11.01-5.26-15.79-5.26c-25.07,0-50.14,0-75.21,0c-1.22,0-2.44,0-3.77,0c0,2.22-0.01,4.2,0,6.17
	c0.02,1.94-0.07,3.89,0.05,5.8c26.17,0,51.98,0.01,77.8-0.01c6.58-0.01,11.22,3.24,15.01,8.32c1.53,2.05,2.43,4.39,2.82,6.67
	c0.78,4.57-0.24,9.03-2.9,12.94c-0.83,1.21-2.01,2.18-3.06,3.23c-3.17,3.17-7.02,4.77-11.49,4.77c-24.82,0.01-49.64,0.01-74.46,0.01
	c-1.22,0-2.44,0-3.72,0c0,4.06,0,7.89,0,11.98C282.59,341.5,307.16,341.52,331.73,341.47z M77.98,18.26c0,2.11-0.01,4.08,0,6.06
	c0.02,1.94-0.07,3.88,0.04,5.66c4.18,0,8,0,11.87,0c0-3.95,0-7.78,0-11.71C85.73,18.26,81.91,18.26,77.98,18.26z M299.42,18.13
	c-2.1,0-4.07-0.03-6.05,0.01c-1.94,0.04-3.9-0.16-5.68,0.09c0,4.12,0,7.94,0,11.82c3.95,0,7.77,0,11.72,0
	C299.42,25.89,299.42,22.07,299.42,18.13z M89.83,66.04c-2.1,0-4.07-0.03-6.05,0.01c-1.94,0.04-3.9-0.16-5.68,0.09
	c0,4.12,0,7.94,0,11.82c3.95,0,7.77,0,11.72,0C89.83,73.8,89.83,69.98,89.83,66.04z M293.39,78.01c2.06-0.01,4.13,0.06,6.03-0.05
	c0-4.18,0-8,0-11.93c-2.11,0-4.08-0.01-6.06,0c-1.94,0.02-3.88-0.07-5.79,0.05c0,4.08,0,7.82,0,11.92
	C289.5,78.01,291.45,78.02,293.39,78.01z M83.8,125.92c2.06-0.01,4.13,0.06,6.03-0.05c0-4.18,0-8,0-11.93c-2.11,0-4.08-0.01-6.06,0
	c-1.94,0.02-3.88-0.07-5.79,0.05c0,4.08,0,7.82,0,11.92C79.91,125.92,81.85,125.93,83.8,125.92z M287.7,125.92
	c2.09,0,4.07,0.03,6.04-0.01c1.94-0.03,3.9,0.15,5.69-0.08c0-4.11,0-7.93,0-11.82c-3.95,0-7.77,0-11.73,0
	C287.7,118.14,287.7,121.97,287.7,125.92z M287.57,161.98c0,2.1-0.01,4.08,0,6.05c0.02,1.94-0.07,3.89,0.04,5.67c4.17,0,8,0,11.87,0
	c0-3.95,0-7.78,0-11.72C295.33,161.98,291.51,161.98,287.57,161.98z M287.57,209.88c0,2.09-0.03,4.07,0.01,6.04
	c0.03,1.94-0.15,3.9,0.09,5.69c4.11,0,7.94,0,11.82,0c0-3.95,0-7.77,0-11.73C295.35,209.88,291.52,209.88,287.57,209.88z
	 M287.7,269.64c2.1,0,4.07,0.03,6.05-0.01c1.94-0.04,3.89,0.16,5.67-0.09c0-4.12,0-7.94,0-11.82c-3.95,0-7.77,0-11.72,0
	C287.7,261.88,287.7,265.7,287.7,269.64z M299.42,305.57c-2.1,0-4.07-0.03-6.05,0.01c-1.94,0.04-3.9-0.16-5.68,0.09
	c0,4.12,0,7.94,0,11.82c3.95,0,7.77,0,11.72,0C299.42,313.33,299.42,309.51,299.42,305.57z M299.55,365.32c0-2.1,0.01-4.08,0-6.06
	c-0.02-1.94,0.07-3.88-0.04-5.66c-4.18,0-8,0-11.87,0c0,3.95,0,7.78,0,11.72C291.8,365.32,295.62,365.32,299.55,365.32z"/>
</svg>
