<svg version="1.1" id="Layer" xmlns="http://www.w3.org/2000/svg" xmlns:xlink="http://www.w3.org/1999/xlink" x="0px" y="0px"
	 viewBox="0 0 512 512" enable-background="new 0 0 512 512" xml:space="preserve">
<path fill="currentColor" d="M432.2,449.63c-117.61,0-234.88,0-352.41,0c0-129.1,0-258.01,0-387.26c117.35,0,234.71,0,352.41,0
	C432.2,191.26,432.2,320.28,432.2,449.63z M393.46,248.84c0-49.53,0-98.63,0-147.78c-43.58,0-86.89,0-130.24,0
	c0,49.42,0,98.52,0,147.78C306.7,248.84,349.93,248.84,393.46,248.84z M248.81,410.92c0-49.63,0-98.73,0-147.74
	c-43.62,0-86.95,0-130.16,0c0,49.44,0,98.55,0,147.74C162.17,410.92,205.39,410.92,248.81,410.92z M393.41,410.9
	c0-49.42,0-98.62,0-147.72c-43.64,0-86.96,0-130.14,0c0,49.45,0,98.56,0,147.72C306.79,410.9,350.02,410.9,393.41,410.9z
	 M248.86,248.82c0-49.48,0-98.59,0-147.78c-43.56,0-86.88,0-130.26,0c0,49.41,0,98.5,0,147.78
	C162.07,248.82,205.29,248.82,248.86,248.82z"/>
<path fill="currentColor" d="M335.27,393.95c-2.19-1.95-4.95-3.27-5.54-5.24c-0.65-2.19-0.12-5.62,1.3-7.36c3.82-4.65,8.38-8.69,12.66-12.97
	c6.62-6.62,13.21-13.26,19.86-19.84c3.85-3.81,7.93-4.1,10.95-0.9c2.88,3.06,2.52,6.91-1.17,10.62
	c-10.56,10.61-21.13,21.22-31.8,31.72C339.98,391.49,337.82,392.36,335.27,393.95z"/>
<path fill="currentColor" d="M386.3,380.5c-1.35,2.41-2.02,4.39-3.33,5.78c-4.24,4.52-8.66,8.88-13.12,13.18c-3.52,3.39-7.41,3.5-10.34,0.56
	c-2.94-2.95-2.81-6.83,0.58-10.33c4.41-4.56,8.7-9.3,13.58-13.3c1.84-1.51,5.44-2.05,7.78-1.39
	C383.38,375.53,384.63,378.48,386.3,380.5z"/>
<path fill="currentColor" d="M176,116.16c-1.46,2.48-2.21,4.57-3.62,6.01c-10.7,10.88-21.5,21.66-32.34,32.4c-3.45,3.41-7.39,3.59-10.32,0.77
	c-2.93-2.81-2.88-7.02,0.4-10.33c10.84-10.94,21.76-21.8,32.66-32.69c2.33-2.33,5.17-3.7,8.13-1.82
	C172.87,111.77,174.17,114.06,176,116.16z"/>
<path fill="currentColor" d="M162.33,166.92c-1.66-1.31-4.33-2.42-5.08-4.29c-0.82-2.05-0.79-5.61,0.5-7.11c4.78-5.55,10.07-10.7,15.49-15.66
	c2.84-2.6,6.26-2.04,8.94,0.65c2.56,2.57,3.06,6,0.68,8.63c-5.01,5.55-10.46,10.72-15.87,15.9
	C166.04,165.95,164.4,166.12,162.33,166.92z"/>
</svg>
